<?xml version="1.0" encoding="utf-8"?>
<!-- Generator: Adobe Illustrator 24.0.2, SVG Export Plug-In . SVG Version: 6.00 Build 0)  -->
<svg version="1.1"
	 id="svg2" xmlns:cc="http://creativecommons.org/ns#" xmlns:dc="http://purl.org/dc/elements/1.1/" xmlns:rdf="http://www.w3.org/1999/02/22-rdf-syntax-ns#" xmlns:svg="http://www.w3.org/2000/svg"
	 xmlns="http://www.w3.org/2000/svg" xmlns:xlink="http://www.w3.org/1999/xlink" x="0px" y="0px" viewBox="0 0 890 140"
	 style="enable-background:new 0 0 890 140;" xml:space="preserve">
<style type="text/css">
	.st0{clip-path:url(#SVGID_2_);}
	.st1{fill:#231F20;}
	.st2{font-family:'ArialMT';}
	.st3{font-size:53.0812px;}
</style>
<g id="g10" transform="matrix(1.25,0,0,-1.25,0,130)">
	<g>
		<defs>
			<rect id="SVGID_1_" x="-151" y="-301.5" width="990" height="765"/>
		</defs>
		<clipPath id="SVGID_2_">
			<use xlink:href="#SVGID_1_"  style="overflow:visible;"/>
		</clipPath>
		<g id="g14" transform="translate(-52.0211,-225.00339)" class="st0">
			<g id="g20" transform="translate(93.9769,277.9994)">
				<path id="path22" class="st1" d="M0,0c5.5,0,9,3,9,8.6v0.6c0,5.7-3.5,8.6-8.9,8.6H-8V0H0z M-32.6,38.6h33
					c12.4,0,20.9-3.1,26.3-8.5c4.7-4.7,7.2-10.8,7.2-19.1v-0.7c0-11.6-5.5-19-13.7-23.5l16-28.4H8.5L-4-18.2h-4v-23.3h-24.6
					C-32.6-41.5-32.6,38.6-32.6,38.6z"/>
			</g>
			<g id="g24" transform="translate(133.2266,316.5659)">
				<path id="path26" class="st1" d="M0,0h58.7v-21.1H24.5v-9.2h31.7v-19.2H24.5v-9.6h34.8v-21.1H0V0z"/>
			</g>
			<g id="g28" transform="translate(198.81176,316.5659)">
				<path id="path30" class="st1" d="M0,0h23.5l22.8-33.9V0h24.1v-80.1H48.2L24.3-44.5v-35.6H0V0z"/>
			</g>
			<g id="g32" transform="translate(301.81736,294.7076)">
				<path id="path34" class="st1" d="M0,0v-36.4h2.9c10.2,0,16.8,4.8,16.8,17.4v1.6C19.7-4.7,13,0,2.9,0H0z M-24.7,21.9H2.2
					c28.4,0,42.6-15,42.6-38.8v-1.7c0-23.8-14.4-39.6-43.1-39.6h-26.3C-24.7-58.2-24.7,21.9-24.7,21.9z"/>
			</g>
			<g id="g36" transform="translate(351.66376,316.5659)">
				<path id="path38" class="st1" d="M0,0h58.7v-21.1H24.5v-9.2h31.7v-19.2H24.5v-9.6h34.8v-21.1H0L0,0z"/>
			</g>
			<g id="g40" transform="translate(450.02456,277.9994)">
				<path id="path42" class="st1" d="M0,0c5.5,0,9,3,9,8.6v0.6c0,5.7-3.5,8.6-8.9,8.6H-8V0H0z M-32.6,38.6h33
					c12.4,0,20.9-3.1,26.3-8.5c4.7-4.7,7.2-10.8,7.2-19.1v-0.7c0-11.6-5.5-19-13.7-23.5l16-28.4H8.5L-4-18.2h-4v-23.3h-24.6
					C-32.6-41.5-32.6,38.6-32.6,38.6z"/>
			</g>
			<g id="g44" transform="translate(489.11462,316.5659)">
				<path id="path46" class="st1" d="M0,0h25.2l14.5-26.5L54.4,0h25.1v-80.1H55v38.9L39.7-67.5h-0.3L24.1-41.2v-38.9L0-80.1V0z"/>
			</g>
			<g id="g48" transform="translate(617.22842,266.2131)">
				<path id="path50" class="st1" d="M0,0l-6.1,20.8L-12,0H0z M-18.8,50.8h26l27.7-80.6H8.7L5.3-18.3h-22.7l-3.3-11.4h-25.8
					L-18.8,50.8z"/>
			</g>
			<g id="g52" transform="translate(654.52302,316.5659)">
				<path id="path54" class="st1" d="M0,0h23.5l22.8-33.9V0h24.1v-80.1H48.2L24.3-44.5v-35.6H0V0z"/>
			</g>
		</g>
	</g>
	<text transform="matrix(0.8 0 0 -0.8 677.575 -3.7078)" class="st1 st2 st3">®</text>
</g>
</svg>
