<?xml version="1.0" encoding="UTF-8" standalone="no"?>
<svg
   xmlns:dc="http://purl.org/dc/elements/1.1/"
   xmlns:cc="http://creativecommons.org/ns#"
   xmlns:rdf="http://www.w3.org/1999/02/22-rdf-syntax-ns#"
   xmlns:svg="http://www.w3.org/2000/svg"
   xmlns="http://www.w3.org/2000/svg"
   xmlns:sodipodi="http://sodipodi.sourceforge.net/DTD/sodipodi-0.dtd"
   xmlns:inkscape="http://www.inkscape.org/namespaces/inkscape"
   id="svg3787"
   style="fill-rule:evenodd;clip-rule:evenodd;stroke-linecap:square;"
   xml:space="preserve"
   version="1.1"
   viewBox="0 0 1080 339"
   height="100%"
   width="100%"
   sodipodi:docname="egsr_2022_header_desktop.svg"
   inkscape:version="0.92.5 (2060ec1f9f, 2020-04-08)"><sodipodi:namedview
   pagecolor="#ffffff"
   bordercolor="#666666"
   borderopacity="1"
   objecttolerance="10"
   gridtolerance="10"
   guidetolerance="10"
   inkscape:pageopacity="0"
   inkscape:pageshadow="2"
   inkscape:window-width="1848"
   inkscape:window-height="1016"
   id="namedview880"
   showgrid="false"
   inkscape:zoom="1.2148148"
   inkscape:cx="606.43219"
   inkscape:cy="169.5"
   inkscape:window-x="72"
   inkscape:window-y="27"
   inkscape:window-maximized="1"
   inkscape:current-layer="svg3787" /><metadata
   id="metadata3793"><rdf:RDF><cc:Work
       rdf:about=""><dc:format>image/svg+xml</dc:format><dc:type
         rdf:resource="http://purl.org/dc/dcmitype/StillImage" /><dc:title /></cc:Work></rdf:RDF></metadata><defs
   id="defs3791" />
    <g
   id="Page-1">
        <g
   id="CCC">
            <g
   id="stacs_2021_header_desktop">
                <g
   id="Group">
                    <rect
   style="fill:#1c7259;fill-opacity:1"
   height="307"
   width="1080"
   y="0"
   x="0"
   id="Rectangle" />
                    
                    
                    <g
   transform="matrix(1,0,0,1,-0.2348,0.1072)"
   id="EGSR2021">
                        
                    </g>
                    
                </g>
                <g
   transform="matrix(1,0,0,1,-1.764,0.166)"
   id="THE32NDEUROGRAPHICSSYMPOSIUMONRENDERING">
                    
                </g>
            </g>
        </g>
    <g
   id="text3797"
   style="font-style:normal;font-weight:normal;font-size:16px;line-height:1.25;font-family:sans-serif;letter-spacing:0px;word-spacing:0px;fill:#1c4a72;fill-opacity:1;stroke:none"
   aria-label="THE 33RD EURAPHICS SYMPOSIUM ON RENDERING"><path
     id="path4652"
     style="letter-spacing:1.05999994px;fill:#1c4a72;fill-opacity:1"
     d="m 624.39198,323.47632 h 9.86718 v 1.32812 h -4.14062 v 10.33594 h -1.58594 v -10.33594 h -4.14062 z" /><path
     id="path4654"
     style="letter-spacing:1.05999994px;fill:#1c4a72;fill-opacity:1"
     d="m 636.8426,323.47632 h 1.57813 v 4.78125 h 5.73437 v -4.78125 h 1.57813 v 11.66406 h -1.57813 v -5.55469 h -5.73437 v 5.55469 h -1.57813 z" /><path
     id="path4656"
     style="letter-spacing:1.05999994px;fill:#1c4a72;fill-opacity:1"
     d="m 649.93385,323.47632 h 7.375 v 1.32812 h -5.79687 v 3.45313 h 5.55468 v 1.32812 h -5.55468 v 4.22657 h 5.9375 v 1.32812 h -7.51563 z" /><path
     id="path4658"
     style="letter-spacing:1.05999994px;fill:#1c4a72;fill-opacity:1"
     d="m 672.17104,328.85132 q 1.13281,0.24219 1.76562,1.00781 0.64063,0.76563 0.64063,1.89063 0,1.72656 -1.1875,2.67187 -1.1875,0.94531 -3.375,0.94531 -0.73438,0 -1.51563,-0.14843 -0.77343,-0.14063 -1.60156,-0.42969 v -1.52344 q 0.65625,0.38281 1.4375,0.57813 0.78125,0.19531 1.63281,0.19531 1.48438,0 2.25782,-0.58594 0.78125,-0.58594 0.78125,-1.70312 0,-1.03125 -0.72657,-1.60938 -0.71875,-0.58594 -2.00781,-0.58594 h -1.35937 v -1.29687 h 1.42187 q 1.16406,0 1.78125,-0.46094 0.61719,-0.46875 0.61719,-1.34375 0,-0.89844 -0.64063,-1.375 -0.63281,-0.48437 -1.82031,-0.48437 -0.64844,0 -1.39062,0.14062 -0.74219,0.14063 -1.63282,0.4375 v -1.40625 q 0.89844,-0.25 1.67969,-0.375 0.78906,-0.125 1.48438,-0.125 1.79687,0 2.84375,0.82031 1.04687,0.8125 1.04687,2.20313 0,0.96875 -0.55469,1.64062 -0.55468,0.66407 -1.57812,0.92188 z" /><path
     id="path4660"
     style="letter-spacing:1.05999994px;fill:#1c4a72;fill-opacity:1"
     d="m 683.41073,328.85132 q 1.13281,0.24219 1.76562,1.00781 0.64063,0.76563 0.64063,1.89063 0,1.72656 -1.1875,2.67187 -1.1875,0.94531 -3.375,0.94531 -0.73438,0 -1.51563,-0.14843 -0.77343,-0.14063 -1.60156,-0.42969 v -1.52344 q 0.65625,0.38281 1.4375,0.57813 0.78125,0.19531 1.63281,0.19531 1.48438,0 2.25782,-0.58594 0.78125,-0.58594 0.78125,-1.70312 0,-1.03125 -0.72657,-1.60938 -0.71875,-0.58594 -2.00781,-0.58594 h -1.35937 v -1.29687 h 1.42187 q 1.16406,0 1.78125,-0.46094 0.61719,-0.46875 0.61719,-1.34375 0,-0.89844 -0.64063,-1.375 -0.63281,-0.48437 -1.82031,-0.48437 -0.64844,0 -1.39062,0.14062 -0.74219,0.14063 -1.63282,0.4375 v -1.40625 q 0.89844,-0.25 1.67969,-0.375 0.78906,-0.125 1.48438,-0.125 1.79687,0 2.84375,0.82031 1.04687,0.8125 1.04687,2.20313 0,0.96875 -0.55469,1.64062 -0.55468,0.66407 -1.57812,0.92188 z" /><path
     id="path4662"
     style="letter-spacing:1.05999994px;fill:#1c4a72;fill-opacity:1"
     d="m 695.25979,329.67163 q 0.50781,0.17188 0.98437,0.73438 0.48438,0.5625 0.96875,1.54687 l 1.60157,3.1875 h -1.69532 l -1.49218,-2.99219 q -0.57813,-1.17187 -1.125,-1.55468 -0.53907,-0.38282 -1.47657,-0.38282 h -1.71875 v 4.92969 h -1.57812 v -11.66406 h 3.5625 q 2,0 2.98437,0.83594 0.98438,0.83593 0.98438,2.52343 0,1.10157 -0.51563,1.82813 -0.50781,0.72656 -1.48437,1.00781 z m -3.95313,-4.89844 v 4.14063 h 1.98438 q 1.14062,0 1.71875,-0.52344 0.58594,-0.53125 0.58594,-1.55469 0,-1.02343 -0.58594,-1.53906 -0.57813,-0.52344 -1.71875,-0.52344 z" /><path
     id="path4664"
     style="letter-spacing:1.05999994px;fill:#1c4a72;fill-opacity:1"
     d="m 703.48385,324.77319 v 9.07032 h 1.90625 q 2.41406,0 3.53125,-1.09375 1.125,-1.09375 1.125,-3.45313 0,-2.34375 -1.125,-3.42969 -1.11719,-1.09375 -3.53125,-1.09375 z m -1.57813,-1.29687 h 3.24219 q 3.39063,0 4.97656,1.41406 1.58594,1.40625 1.58594,4.40625 0,3.01563 -1.59375,4.42969 -1.59375,1.41406 -4.96875,1.41406 h -3.24219 z" /><path
     id="path4666"
     style="letter-spacing:1.05999994px;fill:#1c4a72;fill-opacity:1"
     d="m 721.43198,323.47632 h 7.375 v 1.32812 h -5.79688 v 3.45313 h 5.55469 v 1.32812 h -5.55469 v 4.22657 h 5.9375 v 1.32812 h -7.51562 z" /><path
     id="path4668"
     style="letter-spacing:1.05999994px;fill:#1c4a72;fill-opacity:1"
     d="m 732.42166,323.47632 h 1.58594 v 7.08594 q 0,1.875 0.67969,2.70312 0.67968,0.82031 2.20312,0.82031 1.51563,0 2.19531,-0.82031 0.67969,-0.82812 0.67969,-2.70312 v -7.08594 h 1.58594 v 7.28125 q 0,2.28125 -1.13281,3.44531 -1.125,1.16406 -3.32813,1.16406 -2.21094,0 -3.34375,-1.16406 -1.125,-1.16406 -1.125,-3.44531 z" /><path
     id="path4670"
     style="letter-spacing:1.05999994px;fill:#1c4a72;fill-opacity:1"
     d="m 750.90354,329.67163 q 0.50781,0.17188 0.98438,0.73438 0.48437,0.5625 0.96875,1.54687 l 1.60156,3.1875 h -1.69531 l -1.49219,-2.99219 q -0.57813,-1.17187 -1.125,-1.55468 -0.53906,-0.38282 -1.47656,-0.38282 h -1.71875 v 4.92969 h -1.57813 v -11.66406 h 3.5625 q 2,0 2.98438,0.83594 0.98437,0.83593 0.98437,2.52343 0,1.10157 -0.51562,1.82813 -0.50782,0.72656 -1.48438,1.00781 z m -3.95312,-4.89844 v 4.14063 h 1.98437 q 1.14063,0 1.71875,-0.52344 0.58594,-0.53125 0.58594,-1.55469 0,-1.02343 -0.58594,-1.53906 -0.57812,-0.52344 -1.71875,-0.52344 z" /><path
     id="path4672"
     style="letter-spacing:1.05999994px;fill:#1c4a72;fill-opacity:1"
     d="m 760.79947,325.03101 -2.14063,5.80468 h 4.28907 z m -0.89063,-1.55469 h 1.78907 l 4.44531,11.66406 h -1.64063 l -1.0625,-2.99219 h -5.25781 l -1.0625,2.99219 h -1.66406 z" /><path
     id="path4674"
     style="letter-spacing:1.05999994px;fill:#1c4a72;fill-opacity:1"
     d="m 770.48448,324.77319 v 4.38282 h 1.98438 q 1.10156,0 1.70312,-0.57032 0.60156,-0.57031 0.60156,-1.625 0,-1.04687 -0.60156,-1.61718 -0.60156,-0.57032 -1.70312,-0.57032 z m -1.57812,-1.29687 h 3.5625 q 1.96093,0 2.96093,0.89062 1.00782,0.88282 1.00782,2.59375 0,1.72657 -1.00782,2.60938 -1,0.88281 -2.96093,0.88281 h -1.98438 v 4.6875 h -1.57812 z" /><path
     id="path4676"
     style="letter-spacing:1.05999994px;fill:#1c4a72;fill-opacity:1"
     d="m 779.61479,323.47632 h 1.57813 v 4.78125 h 5.73437 v -4.78125 h 1.57813 v 11.66406 h -1.57813 v -5.55469 h -5.73437 v 5.55469 h -1.57813 z" /><path
     id="path4678"
     style="letter-spacing:1.05999994px;fill:#1c4a72;fill-opacity:1"
     d="m 792.70604,323.47632 h 1.57812 v 11.66406 h -1.57812 z" /><path
     id="path4680"
     style="letter-spacing:1.05999994px;fill:#1c4a72;fill-opacity:1"
     d="m 807.21916,324.37476 v 1.66406 q -0.79687,-0.74219 -1.70312,-1.10938 -0.89844,-0.36718 -1.91407,-0.36718 -2,0 -3.0625,1.22656 -1.0625,1.21875 -1.0625,3.53125 0,2.30469 1.0625,3.53125 1.0625,1.21875 3.0625,1.21875 1.01563,0 1.91407,-0.36719 0.90625,-0.36719 1.70312,-1.10937 v 1.64843 q -0.82812,0.5625 -1.75781,0.84375 -0.92188,0.28125 -1.95313,0.28125 -2.64843,0 -4.17187,-1.61718 -1.52344,-1.625 -1.52344,-4.42969 0,-2.8125 1.52344,-4.42969 1.52344,-1.625 4.17187,-1.625 1.04688,0 1.96875,0.28125 0.92969,0.27344 1.74219,0.82813 z" /><path
     id="path4682"
     style="letter-spacing:1.05999994px;fill:#1c4a72;fill-opacity:1"
     d="m 817.70885,323.85913 v 1.53906 q -0.89844,-0.42968 -1.69532,-0.64062 -0.79687,-0.21094 -1.53906,-0.21094 -1.28906,0 -1.99219,0.5 -0.69531,0.5 -0.69531,1.42188 0,0.77343 0.46094,1.17187 0.46875,0.39063 1.76562,0.63281 l 0.95313,0.19532 q 1.76562,0.33593 2.60156,1.1875 0.84375,0.84375 0.84375,2.26562 0,1.69531 -1.14062,2.57031 -1.13282,0.875 -3.32813,0.875 -0.82812,0 -1.76562,-0.1875 -0.92969,-0.1875 -1.92969,-0.55468 v -1.625 q 0.96094,0.53906 1.88281,0.8125 0.92188,0.27343 1.8125,0.27343 1.35156,0 2.08594,-0.53125 0.73437,-0.53125 0.73437,-1.51562 0,-0.85938 -0.53125,-1.34375 -0.52343,-0.48438 -1.72656,-0.72656 l -0.96094,-0.1875 q -1.76562,-0.35157 -2.55468,-1.10157 -0.78907,-0.75 -0.78907,-2.08593 0,-1.54688 1.08594,-2.4375 1.09375,-0.89063 3.00781,-0.89063 0.82032,0 1.67188,0.14844 0.85156,0.14844 1.74219,0.44531 z" /><path
     id="path4684"
     style="letter-spacing:1.05999994px;fill:#1c4a72;fill-opacity:1"
     d="m 835.07104,323.85913 v 1.53906 q -0.89843,-0.42968 -1.69531,-0.64062 -0.79687,-0.21094 -1.53906,-0.21094 -1.28906,0 -1.99219,0.5 -0.69531,0.5 -0.69531,1.42188 0,0.77343 0.46094,1.17187 0.46875,0.39063 1.76562,0.63281 l 0.95313,0.19532 q 1.76562,0.33593 2.60156,1.1875 0.84375,0.84375 0.84375,2.26562 0,1.69531 -1.14063,2.57031 -1.13281,0.875 -3.32812,0.875 -0.82813,0 -1.76563,-0.1875 -0.92968,-0.1875 -1.92968,-0.55468 v -1.625 q 0.96093,0.53906 1.88281,0.8125 0.92187,0.27343 1.8125,0.27343 1.35156,0 2.08594,-0.53125 0.73437,-0.53125 0.73437,-1.51562 0,-0.85938 -0.53125,-1.34375 -0.52344,-0.48438 -1.72656,-0.72656 l -0.96094,-0.1875 q -1.76562,-0.35157 -2.55469,-1.10157 -0.78906,-0.75 -0.78906,-2.08593 0,-1.54688 1.08594,-2.4375 1.09375,-0.89063 3.00781,-0.89063 0.82031,0 1.67188,0.14844 0.85156,0.14844 1.74218,0.44531 z" /><path
     id="path4686"
     style="letter-spacing:1.05999994px;fill:#1c4a72;fill-opacity:1"
     d="m 837.69354,323.47632 h 1.69531 l 3.23438,4.79687 3.21094,-4.79687 h 1.69531 l -4.125,6.10937 v 5.55469 h -1.58594 v -5.55469 z" /><path
     id="path4688"
     style="letter-spacing:1.05999994px;fill:#1c4a72;fill-opacity:1"
     d="m 850.12854,323.47632 h 2.35156 l 2.97657,7.9375 2.99218,-7.9375 h 2.35157 v 11.66406 h -1.53907 v -10.24219 l -3.00781,8 h -1.58594 l -3.00781,-8 v 10.24219 h -1.53125 z" /><path
     id="path4690"
     style="letter-spacing:1.05999994px;fill:#1c4a72;fill-opacity:1"
     d="m 866.57135,324.77319 v 4.38282 h 1.98438 q 1.10156,0 1.70312,-0.57032 0.60156,-0.57031 0.60156,-1.625 0,-1.04687 -0.60156,-1.61718 -0.60156,-0.57032 -1.70312,-0.57032 z m -1.57812,-1.29687 h 3.5625 q 1.96093,0 2.96093,0.89062 1.00782,0.88282 1.00782,2.59375 0,1.72657 -1.00782,2.60938 -1,0.88281 -2.96093,0.88281 h -1.98438 v 4.6875 h -1.57812 z" /><path
     id="path4692"
     style="letter-spacing:1.05999994px;fill:#1c4a72;fill-opacity:1"
     d="m 880.43604,324.54663 q -1.71875,0 -2.73438,1.28125 -1.00781,1.28125 -1.00781,3.49219 0,2.20312 1.00781,3.48437 1.01563,1.28125 2.73438,1.28125 1.71875,0 2.71875,-1.28125 1.00781,-1.28125 1.00781,-3.48437 0,-2.21094 -1.00781,-3.49219 -1,-1.28125 -2.71875,-1.28125 z m 0,-1.28125 q 2.45312,0 3.92187,1.64844 1.46875,1.64062 1.46875,4.40625 0,2.75781 -1.46875,4.40625 -1.46875,1.64062 -3.92187,1.64062 -2.46094,0 -3.9375,-1.64062 -1.46875,-1.64063 -1.46875,-4.40625 0,-2.76563 1.46875,-4.40625 1.47656,-1.64844 3.9375,-1.64844 z" /><path
     id="path4694"
     style="letter-spacing:1.05999994px;fill:#1c4a72;fill-opacity:1"
     d="m 896.3476,323.85913 v 1.53906 q -0.89844,-0.42968 -1.69532,-0.64062 -0.79687,-0.21094 -1.53906,-0.21094 -1.28906,0 -1.99219,0.5 -0.69531,0.5 -0.69531,1.42188 0,0.77343 0.46094,1.17187 0.46875,0.39063 1.76562,0.63281 l 0.95313,0.19532 q 1.76562,0.33593 2.60156,1.1875 0.84375,0.84375 0.84375,2.26562 0,1.69531 -1.14062,2.57031 -1.13282,0.875 -3.32813,0.875 -0.82812,0 -1.76562,-0.1875 -0.92969,-0.1875 -1.92969,-0.55468 v -1.625 q 0.96094,0.53906 1.88281,0.8125 0.92188,0.27343 1.8125,0.27343 1.35156,0 2.08594,-0.53125 0.73437,-0.53125 0.73437,-1.51562 0,-0.85938 -0.53125,-1.34375 -0.52343,-0.48438 -1.72656,-0.72656 l -0.96094,-0.1875 q -1.76562,-0.35157 -2.55468,-1.10157 -0.78907,-0.75 -0.78907,-2.08593 0,-1.54688 1.08594,-2.4375 1.09375,-0.89063 3.00781,-0.89063 0.82032,0 1.67188,0.14844 0.85156,0.14844 1.74219,0.44531 z" /><path
     id="path4696"
     style="letter-spacing:1.05999994px;fill:#1c4a72;fill-opacity:1"
     d="m 900.57166,323.47632 h 1.57812 v 11.66406 h -1.57812 z" /><path
     id="path4698"
     style="letter-spacing:1.05999994px;fill:#1c4a72;fill-opacity:1"
     d="m 906.17072,323.47632 h 1.58593 v 7.08594 q 0,1.875 0.67969,2.70312 0.67969,0.82031 2.20313,0.82031 1.51562,0 2.19531,-0.82031 0.67969,-0.82812 0.67969,-2.70312 v -7.08594 h 1.58593 v 7.28125 q 0,2.28125 -1.13281,3.44531 -1.125,1.16406 -3.32812,1.16406 -2.21094,0 -3.34375,-1.16406 -1.125,-1.16406 -1.125,-3.44531 z" /><path
     id="path4700"
     style="letter-spacing:1.05999994px;fill:#1c4a72;fill-opacity:1"
     d="m 919.12134,323.47632 h 2.35156 l 2.97656,7.9375 2.99219,-7.9375 h 2.35156 v 11.66406 h -1.53906 v -10.24219 l -3.00781,8 h -1.58594 l -3.00781,-8 v 10.24219 h -1.53125 z" /><path
     id="path4702"
     style="letter-spacing:1.05999994px;fill:#1c4a72;fill-opacity:1"
     d="m 944.86636,324.54663 q -1.71875,0 -2.73437,1.28125 -1.00781,1.28125 -1.00781,3.49219 0,2.20312 1.00781,3.48437 1.01562,1.28125 2.73437,1.28125 1.71875,0 2.71875,-1.28125 1.00782,-1.28125 1.00782,-3.48437 0,-2.21094 -1.00782,-3.49219 -1,-1.28125 -2.71875,-1.28125 z m 0,-1.28125 q 2.45313,0 3.92188,1.64844 1.46875,1.64062 1.46875,4.40625 0,2.75781 -1.46875,4.40625 -1.46875,1.64062 -3.92188,1.64062 -2.46093,0 -3.9375,-1.64062 -1.46875,-1.64063 -1.46875,-4.40625 0,-2.76563 1.46875,-4.40625 1.47657,-1.64844 3.9375,-1.64844 z" /><path
     id="path4704"
     style="letter-spacing:1.05999994px;fill:#1c4a72;fill-opacity:1"
     d="m 953.78574,323.47632 h 2.125 l 5.17187,9.75781 v -9.75781 h 1.53125 v 11.66406 h -2.125 l -5.17187,-9.75781 v 9.75781 h -1.53125 z" /><path
     id="path4706"
     style="letter-spacing:1.05999994px;fill:#1c4a72;fill-opacity:1"
     d="m 978.49167,329.67163 q 0.50781,0.17188 0.98437,0.73438 0.48438,0.5625 0.96875,1.54687 l 1.60157,3.1875 h -1.69532 l -1.49218,-2.99219 q -0.57813,-1.17187 -1.125,-1.55468 -0.53907,-0.38282 -1.47657,-0.38282 h -1.71875 v 4.92969 h -1.57812 v -11.66406 h 3.5625 q 2,0 2.98437,0.83594 0.98438,0.83593 0.98438,2.52343 0,1.10157 -0.51563,1.82813 -0.50781,0.72656 -1.48437,1.00781 z m -3.95313,-4.89844 v 4.14063 h 1.98438 q 1.14062,0 1.71875,-0.52344 0.58594,-0.53125 0.58594,-1.55469 0,-1.02343 -0.58594,-1.53906 -0.57813,-0.52344 -1.71875,-0.52344 z" /><path
     id="path4708"
     style="letter-spacing:1.05999994px;fill:#1c4a72;fill-opacity:1"
     d="m 985.1376,323.47632 h 7.375 v 1.32812 h -5.79687 v 3.45313 h 5.55469 v 1.32812 h -5.55469 v 4.22657 h 5.9375 v 1.32812 h -7.51563 z" /><path
     id="path4710"
     style="letter-spacing:1.05999994px;fill:#1c4a72;fill-opacity:1"
     d="m 996.30698,323.47632 h 2.125 l 5.17192,9.75781 v -9.75781 h 1.5312 v 11.66406 h -2.125 l -5.17187,-9.75781 v 9.75781 h -1.53125 z" /><path
     id="path4712"
     style="letter-spacing:1.05999994px;fill:#1c4a72;fill-opacity:1"
     d="m 1010.9138,324.77319 v 9.07032 h 1.9063 q 2.4141,0 3.5312,-1.09375 1.125,-1.09375 1.125,-3.45313 0,-2.34375 -1.125,-3.42969 -1.1171,-1.09375 -3.5312,-1.09375 z m -1.5781,-1.29687 h 3.2422 q 3.3906,0 4.9766,1.41406 1.5859,1.40625 1.5859,4.40625 0,3.01563 -1.5937,4.42969 -1.5938,1.41406 -4.9688,1.41406 h -3.2422 z" /><path
     id="path4714"
     style="letter-spacing:1.05999994px;fill:#1c4a72;fill-opacity:1"
     d="m 1022.716,323.47632 h 7.375 v 1.32812 h -5.7968 v 3.45313 h 5.5546 v 1.32812 h -5.5546 v 4.22657 h 5.9375 v 1.32812 h -7.5157 z" /><path
     id="path4716"
     style="letter-spacing:1.05999994px;fill:#1c4a72;fill-opacity:1"
     d="m 1039.4167,329.67163 q 0.5078,0.17188 0.9843,0.73438 0.4844,0.5625 0.9688,1.54687 l 1.6015,3.1875 h -1.6953 l -1.4922,-2.99219 q -0.5781,-1.17187 -1.125,-1.55468 -0.539,-0.38282 -1.4765,-0.38282 h -1.7188 v 4.92969 h -1.5781 v -11.66406 h 3.5625 q 2,0 2.9844,0.83594 0.9844,0.83593 0.9844,2.52343 0,1.10157 -0.5157,1.82813 -0.5078,0.72656 -1.4843,1.00781 z m -3.9532,-4.89844 v 4.14063 h 1.9844 q 1.1406,0 1.7188,-0.52344 0.5859,-0.53125 0.5859,-1.55469 0,-1.02343 -0.5859,-1.53906 -0.5782,-0.52344 -1.7188,-0.52344 z" /><path
     id="path4718"
     style="letter-spacing:1.05999994px;fill:#1c4a72;fill-opacity:1"
     d="m 1046.0626,323.47632 h 1.5781 v 11.66406 h -1.5781 z" /><path
     id="path4720"
     style="letter-spacing:1.05999994px;fill:#1c4a72;fill-opacity:1"
     d="m 1051.8413,323.47632 h 2.125 l 5.1719,9.75781 v -9.75781 h 1.5313 v 11.66406 h -2.125 l -5.1719,-9.75781 v 9.75781 h -1.5313 z" /><path
     id="path4722"
     style="letter-spacing:1.05999994px;fill:#1c4a72;fill-opacity:1"
     d="m 1072.8232,333.47632 v -3.13281 h -2.5781 v -1.29688 h 4.1406 v 5.00781 q -0.9141,0.64844 -2.0156,0.98438 -1.1016,0.32812 -2.3516,0.32812 -2.7344,0 -4.2812,-1.59375 -1.5391,-1.60156 -1.5391,-4.45312 0,-2.85938 1.5391,-4.45313 1.5468,-1.60156 4.2812,-1.60156 1.1406,0 2.1641,0.28125 1.0312,0.28125 1.8984,0.82813 v 1.67968 q -0.875,-0.74218 -1.8594,-1.11718 -0.9843,-0.375 -2.0703,-0.375 -2.1406,0 -3.2187,1.19531 -1.0703,1.19531 -1.0703,3.5625 0,2.35937 1.0703,3.55469 1.0781,1.19531 3.2187,1.19531 0.836,0 1.4922,-0.14063 0.6563,-0.14843 1.1797,-0.45312 z" /></g><g
   id="text4606"
   style="font-style:normal;font-weight:normal;font-size:40px;line-height:1.25;font-family:sans-serif;letter-spacing:0px;word-spacing:0px;fill:#ffffff;fill-opacity:1;stroke:none"
   aria-label="EGSR 2022"><path
     id="path4725"
     style="font-style:normal;font-variant:normal;font-weight:bold;font-stretch:normal;font-size:74.66666412px;font-family:sans-serif;-inkscape-font-specification:'sans-serif Bold';fill:#ffffff;fill-opacity:1"
     d="M 83.302874,253.52633 H 121.18308 V 264.1357 H 97.339332 v 10.13542 h 22.421878 v 10.60937 H 97.339332 v 12.46875 h 24.645828 v 10.60938 H 83.302874 Z" /><path
     id="path4727"
     style="font-style:normal;font-variant:normal;font-weight:bold;font-stretch:normal;font-size:74.66666412px;font-family:sans-serif;-inkscape-font-specification:'sans-serif Bold';fill:#ffffff;fill-opacity:1"
     d="m 183.23516,303.91174 q -5.25,2.55209 -10.90104,3.82813 -5.65104,1.27604 -11.66666,1.27604 -13.59896,0 -21.54688,-7.58333 -7.94792,-7.61979 -7.94792,-20.63542 0,-13.16146 8.09375,-20.70833 8.09375,-7.54688 22.16667,-7.54688 5.43229,0 10.39062,1.02084 4.9948,1.02083 9.40625,3.02604 v 11.26562 q -4.55729,-2.58854 -9.07812,-3.86458 -4.48438,-1.27604 -9.00521,-1.27604 -8.38541,0 -12.94271,4.70312 -4.52083,4.66667 -4.52083,13.38021 0,8.64063 4.375,13.34375 4.375,4.70313 12.43229,4.70313 2.1875,0 4.04688,-0.25521 1.89583,-0.29167 3.39062,-0.875 v -10.57292 h -8.56771 v -9.40625 h 21.875 z" /><path
     id="path4729"
     style="font-style:normal;font-variant:normal;font-weight:bold;font-stretch:normal;font-size:74.66666412px;font-family:sans-serif;-inkscape-font-specification:'sans-serif Bold';fill:#ffffff;fill-opacity:1"
     d="m 233.47475,255.23987 v 11.52083 q -4.48438,-2.00521 -8.75,-3.02604 -4.26563,-1.02083 -8.0573,-1.02083 -5.03125,0 -7.4375,1.38541 -2.40625,1.38542 -2.40625,4.30209 0,2.1875 1.60417,3.42708 1.64063,1.20313 5.90625,2.07813 l 5.97917,1.20312 q 9.07812,1.82292 12.90625,5.54167 3.82812,3.71875 3.82812,10.57291 0,9.00521 -5.35937,13.41667 -5.32292,4.375 -16.29688,4.375 -5.17708,0 -10.39062,-0.98438 -5.21354,-0.98437 -10.42709,-2.91666 v -11.84896 q 5.21355,2.77083 10.0625,4.19271 4.88542,1.38542 9.40625,1.38542 4.59375,0 7.03646,-1.53125 2.44271,-1.53125 2.44271,-4.375 0,-2.55209 -1.67708,-3.9375 -1.64063,-1.38542 -6.59896,-2.47917 l -5.43229,-1.20313 q -8.16667,-1.75 -11.95834,-5.57812 -3.7552,-3.82813 -3.7552,-10.31771 0,-8.13021 5.25,-12.50521 5.25,-4.375 15.09375,-4.375 4.48437,0 9.22395,0.69271 4.73959,0.65625 9.8073,2.00521 z" /><path
     id="path4731"
     style="font-style:normal;font-variant:normal;font-weight:bold;font-stretch:normal;font-size:74.66666412px;font-family:sans-serif;-inkscape-font-specification:'sans-serif Bold';fill:#ffffff;fill-opacity:1"
     d="m 269.31328,277.66174 q 4.41146,0 6.3073,-1.64062 1.93229,-1.64063 1.93229,-5.39583 0,-3.71875 -1.93229,-5.32292 -1.89584,-1.60417 -6.3073,-1.60417 h -5.90624 v 13.96354 z m -5.90624,9.69792 v 20.59896 h -14.03646 v -54.43229 h 21.4375 q 10.7552,0 15.75,3.60937 5.03125,3.60938 5.03125,11.41146 0,5.39583 -2.625,8.85938 -2.58855,3.46354 -7.83855,5.10416 2.88021,0.65625 5.14063,2.98959 2.29687,2.29687 4.63021,7 l 7.61979,15.45833 h -14.94792 l -6.63541,-13.52604 q -2.00521,-4.08334 -4.08334,-5.57813 -2.04166,-1.49479 -5.46875,-1.49479 z" /><path
     id="path4733"
     style="font-style:normal;font-variant:normal;font-weight:bold;font-stretch:normal;font-size:74.66666412px;font-family:sans-serif;-inkscape-font-specification:'sans-serif Bold';fill:#ffffff;fill-opacity:1"
     d="m 347.51641,297.64091 h 23.95312 v 10.31771 h -39.55729 v -10.31771 l 19.86979,-17.53646 q 2.66146,-2.40625 3.9375,-4.70312 1.27604,-2.29688 1.27604,-4.77604 0,-3.82813 -2.58854,-6.16146 -2.55208,-2.33334 -6.81771,-2.33334 -3.28125,0 -7.18229,1.42188 -3.90104,1.38542 -8.34896,4.15625 v -11.95833 q 4.73959,-1.56771 9.36979,-2.36979 4.63021,-0.83855 9.07813,-0.83855 9.77083,0 15.16666,4.30209 5.4323,4.30208 5.4323,11.99479 0,4.44791 -2.29688,8.3125 -2.29687,3.82812 -9.66146,10.28125 z" /><path
     id="path4735"
     style="font-style:normal;font-variant:normal;font-weight:bold;font-stretch:normal;font-size:74.66666412px;font-family:sans-serif;-inkscape-font-specification:'sans-serif Bold';fill:#ffffff;fill-opacity:1"
     d="m 412.30286,280.68779 q 0,-10.20834 -1.93229,-14.36459 -1.89583,-4.19271 -6.41667,-4.19271 -4.52083,0 -6.45312,4.19271 -1.93229,4.15625 -1.93229,14.36459 0,10.3177 1.93229,14.54687 1.93229,4.22917 6.45312,4.22917 4.48438,0 6.41667,-4.22917 1.93229,-4.22917 1.93229,-14.54687 z m 14.03646,0.10937 q 0,13.52604 -5.83333,20.89063 -5.83334,7.32812 -16.55209,7.32812 -10.7552,0 -16.58854,-7.32812 -5.83333,-7.36459 -5.83333,-20.89063 0,-13.5625 5.83333,-20.89062 5.83334,-7.36459 16.58854,-7.36459 10.71875,0 16.55209,7.36459 5.83333,7.32812 5.83333,20.89062 z" /><path
     id="path4737"
     style="font-style:normal;font-variant:normal;font-weight:bold;font-stretch:normal;font-size:74.66666412px;font-family:sans-serif;-inkscape-font-specification:'sans-serif Bold';fill:#ffffff;fill-opacity:1"
     d="m 451.42266,297.64091 h 23.95312 v 10.31771 h -39.55729 v -10.31771 l 19.86979,-17.53646 q 2.66146,-2.40625 3.9375,-4.70312 1.27604,-2.29688 1.27604,-4.77604 0,-3.82813 -2.58854,-6.16146 -2.55208,-2.33334 -6.81771,-2.33334 -3.28125,0 -7.18229,1.42188 -3.90104,1.38542 -8.34896,4.15625 v -11.95833 q 4.73959,-1.56771 9.36979,-2.36979 4.63021,-0.83855 9.07813,-0.83855 9.77083,0 15.16666,4.30209 5.4323,4.30208 5.4323,11.99479 0,4.44791 -2.29688,8.3125 -2.29687,3.82812 -9.66146,10.28125 z" /><path
     id="path4739"
     style="font-style:normal;font-variant:normal;font-weight:bold;font-stretch:normal;font-size:74.66666412px;font-family:sans-serif;-inkscape-font-specification:'sans-serif Bold';fill:#ffffff;fill-opacity:1"
     d="m 503.37578,297.64091 h 23.95312 v 10.31771 h -39.55729 v -10.31771 l 19.86979,-17.53646 q 2.66146,-2.40625 3.9375,-4.70312 1.27605,-2.29688 1.27605,-4.77604 0,-3.82813 -2.58855,-6.16146 -2.55208,-2.33334 -6.8177,-2.33334 -3.28125,0 -7.18229,1.42188 -3.90105,1.38542 -8.34896,4.15625 v -11.95833 q 4.73958,-1.56771 9.36979,-2.36979 4.63021,-0.83855 9.07812,-0.83855 9.77084,0 15.16667,4.30209 5.43229,4.30208 5.43229,11.99479 0,4.44791 -2.29687,8.3125 -2.29688,3.82812 -9.66146,10.28125 z" /></g><g
   id="text4612"
   style="font-style:normal;font-weight:normal;font-size:40px;line-height:1.25;font-family:sans-serif;letter-spacing:0px;word-spacing:0px;fill:#000000;fill-opacity:1;stroke:none"
   aria-label="PRAGUE"><path
     id="path4742"
     style="font-style:normal;font-variant:normal;font-weight:normal;font-stretch:normal;font-family:Laksaman;-inkscape-font-specification:Laksaman;fill:#ffffff;fill-opacity:1"
     d="m 91.143803,200.38989 q 4.44,0 7.52,2.28 3.079997,2.24 3.079997,6.08 0,4.32 -3.239997,6.72 -3.24,2.36 -8.2,2.36 -1.88,0 -3.68,-0.36 v 12.04 h -2.4 v -28.48 q 3.84,-0.64 6.92,-0.64 z m 8.2,8.52 q 0,-6.52 -8.24,-6.52 -3.08,0 -4.48,0.28 v 12.72 q 1.68,0.44 4.16,0.44 4.04,0 6.28,-1.84 2.28,-1.88 2.28,-5.08 z" /><path
     id="path4744"
     style="font-style:normal;font-variant:normal;font-weight:normal;font-stretch:normal;font-family:Laksaman;-inkscape-font-specification:Laksaman;fill:#ffffff;fill-opacity:1"
     d="m 113.98376,200.38989 q 4.6,0 7.52,1.96 2.96,1.96 2.96,5.76 0,5.52 -5.52,7.56 2.88,1.6 4.16,4.88 1.32,3.24 2.16,8.96 h -2.4 q -1.64,-13.04 -8.04,-13.04 h -5.48 v 13.04 h -2.4 v -28.44 q 3.48,-0.68 7.04,-0.68 z m 0.68,14.08 q 3.36,0 5.36,-1.52 2.04,-1.52 2.04,-4.52 0,-6.04 -8.08,-6.04 -3.32,0 -4.64,0.4 v 11.68 z" /><path
     id="path4746"
     style="font-style:normal;font-variant:normal;font-weight:normal;font-stretch:normal;font-family:Laksaman;-inkscape-font-specification:Laksaman;fill:#ffffff;fill-opacity:1"
     d="m 150.58375,229.50989 h -2.6 l -3.32,-9.2 h -12.32 l -3.24,9.2 h -2.6 l 10.84,-29.12 h 2.4 z m -6.64,-11.2 -5.4,-15.28 -5.48,15.28 z" /><path
     id="path4748"
     style="font-style:normal;font-variant:normal;font-weight:normal;font-stretch:normal;font-family:Laksaman;-inkscape-font-specification:Laksaman;fill:#ffffff;fill-opacity:1"
     d="m 164.02374,230.06989 q -5.68,0 -8.88,-4.28 -3.2,-4.28 -3.2,-10.68 0,-6.44 3.56,-10.56 3.56,-4.16 9.56,-4.16 4.44,0 7.68,1.48 l -0.72,1.92 q -3.64,-1.4 -7.08,-1.4 -4.72,0 -7.68,3.76 -2.92,3.76 -2.92,9.04 0,5.72 2.52,9.32 2.56,3.56 7.52,3.56 3.72,0 6.8,-1.48 v -9.44 h -7.16 v -2 h 9.56 v 14 q -0.48,-0.36 -1.24,-0.36 l -3.56,0.64 q -3.44,0.64 -4.76,0.64 z" /><path
     id="path4750"
     style="font-style:normal;font-variant:normal;font-weight:normal;font-stretch:normal;font-family:Laksaman;-inkscape-font-specification:Laksaman;fill:#ffffff;fill-opacity:1"
     d="m 200.86374,217.42989 q 0,12.64 -10.76,12.64 -10.76,0 -10.76,-12.64 v -16.56 h 2.4 v 16.48 q 0,5.08 2.04,7.92 2.04,2.8 6.32,2.8 4.28,0 6.32,-2.8 2.04,-2.84 2.04,-7.92 v -16.48 h 2.4 z" /><path
     id="path4752"
     style="font-style:normal;font-variant:normal;font-weight:normal;font-stretch:normal;font-family:Laksaman;-inkscape-font-specification:Laksaman;fill:#ffffff;fill-opacity:1"
     d="m 222.94369,229.50989 h -15.6 v -28.64 h 15.6 v 2 h -13.2 v 10.52 h 11.76 v 2 h -11.76 v 12.12 h 13.2 z" /></g></g>
</svg>