<?xml version="1.0" encoding="UTF-8" standalone="no"?>
<svg
   xmlns:dc="http://purl.org/dc/elements/1.1/"
   xmlns:cc="http://creativecommons.org/ns#"
   xmlns:rdf="http://www.w3.org/1999/02/22-rdf-syntax-ns#"
   xmlns:svg="http://www.w3.org/2000/svg"
   xmlns="http://www.w3.org/2000/svg"
   xmlns:sodipodi="http://sodipodi.sourceforge.net/DTD/sodipodi-0.dtd"
   xmlns:inkscape="http://www.inkscape.org/namespaces/inkscape"
   id="svg3787"
   style="clip-rule:evenodd;fill-rule:evenodd;stroke-linecap:square"
   xml:space="preserve"
   version="1.1"
   viewBox="0 0 1080 339"
   height="320"
   width="475"
   sodipodi:docname="egsr_2022_header_desktop.svg"
   inkscape:version="0.92.5 (2060ec1f9f, 2020-04-08)"><sodipodi:namedview
   pagecolor="#ffffff"
   bordercolor="#666666"
   borderopacity="1"
   objecttolerance="10"
   gridtolerance="10"
   guidetolerance="10"
   inkscape:pageopacity="0"
   inkscape:pageshadow="2"
   inkscape:window-width="1848"
   inkscape:window-height="1016"
   id="namedview880"
   showgrid="false"
   inkscape:zoom="1.2148148"
   inkscape:cx="354.26475"
   inkscape:cy="169.5"
   inkscape:window-x="72"
   inkscape:window-y="27"
   inkscape:window-maximized="1"
   inkscape:current-layer="Page-1"
   units="px" /><metadata
   id="metadata3793"><rdf:RDF><cc:Work
       rdf:about=""><dc:format>image/svg+xml</dc:format><dc:type
         rdf:resource="http://purl.org/dc/dcmitype/StillImage" /><dc:title></dc:title></cc:Work></rdf:RDF></metadata><defs
   id="defs3791" />
    <g
   id="Page-1">
        <g
   id="CCC"
   transform="matrix(0.99288263,0,0,2.3530962,4.5473684,-191.69012)"
   style="fill:#611083;fill-opacity:1">
            <g
   id="stacs_2021_header_desktop"
   style="fill:#611083;fill-opacity:1">
                <g
   id="Group"
   style="fill:#611083;fill-opacity:1">
                    <rect
   style="fill:#611083;fill-opacity:1"
   height="307"
   width="1080"
   y="0"
   x="0"
   id="Rectangle" />
                    
                    
                    <g
   transform="translate(-0.2348,0.1072)"
   id="EGSR2021"
   style="fill:#611083;fill-opacity:1">
                        
                    </g>
                    
                </g>
                <g
   transform="translate(-1.764,0.166)"
   id="THE32NDEUROGRAPHICSSYMPOSIUMONRENDERING"
   style="fill:#611083;fill-opacity:1">
                    
                </g>
            </g>
        </g>
    <g
   id="text4606"
   style="font-style:normal;font-weight:normal;font-size:40px;line-height:1.25;font-family:sans-serif;letter-spacing:0px;word-spacing:0px;fill:#ffffff;fill-opacity:1;stroke:none"
   aria-label="EGSR 2022"
   transform="matrix(2.2576465,0,0,2.2562976,-142.26849,-217.69257)"><path
     id="path4725"
     style="font-style:normal;font-variant:normal;font-weight:bold;font-stretch:normal;font-size:74.66666412px;font-family:sans-serif;-inkscape-font-specification:'sans-serif Bold';fill:#ffffff;fill-opacity:1"
     d="M 83.302874,253.52633 H 121.18308 V 264.1357 H 97.339332 v 10.13542 h 22.421878 v 10.60937 H 97.339332 v 12.46875 h 24.645828 v 10.60938 H 83.302874 Z"
     inkscape:connector-curvature="0" /><path
     id="path4727"
     style="font-style:normal;font-variant:normal;font-weight:bold;font-stretch:normal;font-size:74.66666412px;font-family:sans-serif;-inkscape-font-specification:'sans-serif Bold';fill:#ffffff;fill-opacity:1"
     d="m 183.23516,303.91174 q -5.25,2.55209 -10.90104,3.82813 -5.65104,1.27604 -11.66666,1.27604 -13.59896,0 -21.54688,-7.58333 -7.94792,-7.61979 -7.94792,-20.63542 0,-13.16146 8.09375,-20.70833 8.09375,-7.54688 22.16667,-7.54688 5.43229,0 10.39062,1.02084 4.9948,1.02083 9.40625,3.02604 v 11.26562 q -4.55729,-2.58854 -9.07812,-3.86458 -4.48438,-1.27604 -9.00521,-1.27604 -8.38541,0 -12.94271,4.70312 -4.52083,4.66667 -4.52083,13.38021 0,8.64063 4.375,13.34375 4.375,4.70313 12.43229,4.70313 2.1875,0 4.04688,-0.25521 1.89583,-0.29167 3.39062,-0.875 v -10.57292 h -8.56771 v -9.40625 h 21.875 z"
     inkscape:connector-curvature="0" /><path
     id="path4729"
     style="font-style:normal;font-variant:normal;font-weight:bold;font-stretch:normal;font-size:74.66666412px;font-family:sans-serif;-inkscape-font-specification:'sans-serif Bold';fill:#ffffff;fill-opacity:1"
     d="m 233.47475,255.23987 v 11.52083 q -4.48438,-2.00521 -8.75,-3.02604 -4.26563,-1.02083 -8.0573,-1.02083 -5.03125,0 -7.4375,1.38541 -2.40625,1.38542 -2.40625,4.30209 0,2.1875 1.60417,3.42708 1.64063,1.20313 5.90625,2.07813 l 5.97917,1.20312 q 9.07812,1.82292 12.90625,5.54167 3.82812,3.71875 3.82812,10.57291 0,9.00521 -5.35937,13.41667 -5.32292,4.375 -16.29688,4.375 -5.17708,0 -10.39062,-0.98438 -5.21354,-0.98437 -10.42709,-2.91666 v -11.84896 q 5.21355,2.77083 10.0625,4.19271 4.88542,1.38542 9.40625,1.38542 4.59375,0 7.03646,-1.53125 2.44271,-1.53125 2.44271,-4.375 0,-2.55209 -1.67708,-3.9375 -1.64063,-1.38542 -6.59896,-2.47917 l -5.43229,-1.20313 q -8.16667,-1.75 -11.95834,-5.57812 -3.7552,-3.82813 -3.7552,-10.31771 0,-8.13021 5.25,-12.50521 5.25,-4.375 15.09375,-4.375 4.48437,0 9.22395,0.69271 4.73959,0.65625 9.8073,2.00521 z"
     inkscape:connector-curvature="0" /><path
     id="path4731"
     style="font-style:normal;font-variant:normal;font-weight:bold;font-stretch:normal;font-size:74.66666412px;font-family:sans-serif;-inkscape-font-specification:'sans-serif Bold';fill:#ffffff;fill-opacity:1"
     d="m 269.31328,277.66174 q 4.41146,0 6.3073,-1.64062 1.93229,-1.64063 1.93229,-5.39583 0,-3.71875 -1.93229,-5.32292 -1.89584,-1.60417 -6.3073,-1.60417 h -5.90624 v 13.96354 z m -5.90624,9.69792 v 20.59896 h -14.03646 v -54.43229 h 21.4375 q 10.7552,0 15.75,3.60937 5.03125,3.60938 5.03125,11.41146 0,5.39583 -2.625,8.85938 -2.58855,3.46354 -7.83855,5.10416 2.88021,0.65625 5.14063,2.98959 2.29687,2.29687 4.63021,7 l 7.61979,15.45833 h -14.94792 l -6.63541,-13.52604 q -2.00521,-4.08334 -4.08334,-5.57813 -2.04166,-1.49479 -5.46875,-1.49479 z"
     inkscape:connector-curvature="0" /><path
     id="path4733"
     style="font-style:normal;font-variant:normal;font-weight:bold;font-stretch:normal;font-size:74.66666412px;font-family:sans-serif;-inkscape-font-specification:'sans-serif Bold';fill:#ffffff;fill-opacity:1"
     d="m 347.51641,297.64091 h 23.95312 v 10.31771 h -39.55729 v -10.31771 l 19.86979,-17.53646 q 2.66146,-2.40625 3.9375,-4.70312 1.27604,-2.29688 1.27604,-4.77604 0,-3.82813 -2.58854,-6.16146 -2.55208,-2.33334 -6.81771,-2.33334 -3.28125,0 -7.18229,1.42188 -3.90104,1.38542 -8.34896,4.15625 v -11.95833 q 4.73959,-1.56771 9.36979,-2.36979 4.63021,-0.83855 9.07813,-0.83855 9.77083,0 15.16666,4.30209 5.4323,4.30208 5.4323,11.99479 0,4.44791 -2.29688,8.3125 -2.29687,3.82812 -9.66146,10.28125 z"
     inkscape:connector-curvature="0" /><path
     id="path4735"
     style="font-style:normal;font-variant:normal;font-weight:bold;font-stretch:normal;font-size:74.66666412px;font-family:sans-serif;-inkscape-font-specification:'sans-serif Bold';fill:#ffffff;fill-opacity:1"
     d="m 412.30286,280.68779 q 0,-10.20834 -1.93229,-14.36459 -1.89583,-4.19271 -6.41667,-4.19271 -4.52083,0 -6.45312,4.19271 -1.93229,4.15625 -1.93229,14.36459 0,10.3177 1.93229,14.54687 1.93229,4.22917 6.45312,4.22917 4.48438,0 6.41667,-4.22917 1.93229,-4.22917 1.93229,-14.54687 z m 14.03646,0.10937 q 0,13.52604 -5.83333,20.89063 -5.83334,7.32812 -16.55209,7.32812 -10.7552,0 -16.58854,-7.32812 -5.83333,-7.36459 -5.83333,-20.89063 0,-13.5625 5.83333,-20.89062 5.83334,-7.36459 16.58854,-7.36459 10.71875,0 16.55209,7.36459 5.83333,7.32812 5.83333,20.89062 z"
     inkscape:connector-curvature="0" /><path
     id="path4737"
     style="font-style:normal;font-variant:normal;font-weight:bold;font-stretch:normal;font-size:74.66666412px;font-family:sans-serif;-inkscape-font-specification:'sans-serif Bold';fill:#ffffff;fill-opacity:1"
     d="m 451.42266,297.64091 h 23.95312 v 10.31771 h -39.55729 v -10.31771 l 19.86979,-17.53646 q 2.66146,-2.40625 3.9375,-4.70312 1.27604,-2.29688 1.27604,-4.77604 0,-3.82813 -2.58854,-6.16146 -2.55208,-2.33334 -6.81771,-2.33334 -3.28125,0 -7.18229,1.42188 -3.90104,1.38542 -8.34896,4.15625 v -11.95833 q 4.73959,-1.56771 9.36979,-2.36979 4.63021,-0.83855 9.07813,-0.83855 9.77083,0 15.16666,4.30209 5.4323,4.30208 5.4323,11.99479 0,4.44791 -2.29688,8.3125 -2.29687,3.82812 -9.66146,10.28125 z"
     inkscape:connector-curvature="0" /><path
     id="path4739"
     style="font-style:normal;font-variant:normal;font-weight:bold;font-stretch:normal;font-size:74.66666412px;font-family:sans-serif;-inkscape-font-specification:'sans-serif Bold';fill:#ffffff;fill-opacity:1"
     d="m 503.37578,297.64091 h 23.95312 v 10.31771 h -39.55729 v -10.31771 l 19.86979,-17.53646 q 2.66146,-2.40625 3.9375,-4.70312 1.27605,-2.29688 1.27605,-4.77604 0,-3.82813 -2.58855,-6.16146 -2.55208,-2.33334 -6.8177,-2.33334 -3.28125,0 -7.18229,1.42188 -3.90105,1.38542 -8.34896,4.15625 v -11.95833 q 4.73958,-1.56771 9.36979,-2.36979 4.63021,-0.83855 9.07812,-0.83855 9.77084,0 15.16667,4.30209 5.43229,4.30208 5.43229,11.99479 0,4.44791 -2.29687,8.3125 -2.29688,3.82812 -9.66146,10.28125 z"
     inkscape:connector-curvature="0" /></g><g
   id="text4612"
   style="font-style:normal;font-weight:normal;font-size:40px;line-height:1.25;font-family:sans-serif;letter-spacing:0px;word-spacing:0px;fill:#000000;fill-opacity:1;stroke:none"
   aria-label="PRAGUE"
   transform="matrix(2.2576465,0,0,2.2562976,-142.26849,-217.69257)"><path
     id="path4742"
     style="font-style:normal;font-variant:normal;font-weight:normal;font-stretch:normal;font-family:Laksaman;-inkscape-font-specification:Laksaman;fill:#ffffff;fill-opacity:1"
     d="m 91.143803,200.38989 q 4.44,0 7.52,2.28 3.079997,2.24 3.079997,6.08 0,4.32 -3.239997,6.72 -3.24,2.36 -8.2,2.36 -1.88,0 -3.68,-0.36 v 12.04 h -2.4 v -28.48 q 3.84,-0.64 6.92,-0.64 z m 8.2,8.52 q 0,-6.52 -8.24,-6.52 -3.08,0 -4.48,0.28 v 12.72 q 1.68,0.44 4.16,0.44 4.04,0 6.28,-1.84 2.28,-1.88 2.28,-5.08 z"
     inkscape:connector-curvature="0" /><path
     id="path4744"
     style="font-style:normal;font-variant:normal;font-weight:normal;font-stretch:normal;font-family:Laksaman;-inkscape-font-specification:Laksaman;fill:#ffffff;fill-opacity:1"
     d="m 113.98376,200.38989 q 4.6,0 7.52,1.96 2.96,1.96 2.96,5.76 0,5.52 -5.52,7.56 2.88,1.6 4.16,4.88 1.32,3.24 2.16,8.96 h -2.4 q -1.64,-13.04 -8.04,-13.04 h -5.48 v 13.04 h -2.4 v -28.44 q 3.48,-0.68 7.04,-0.68 z m 0.68,14.08 q 3.36,0 5.36,-1.52 2.04,-1.52 2.04,-4.52 0,-6.04 -8.08,-6.04 -3.32,0 -4.64,0.4 v 11.68 z"
     inkscape:connector-curvature="0" /><path
     id="path4746"
     style="font-style:normal;font-variant:normal;font-weight:normal;font-stretch:normal;font-family:Laksaman;-inkscape-font-specification:Laksaman;fill:#ffffff;fill-opacity:1"
     d="m 150.58375,229.50989 h -2.6 l -3.32,-9.2 h -12.32 l -3.24,9.2 h -2.6 l 10.84,-29.12 h 2.4 z m -6.64,-11.2 -5.4,-15.28 -5.48,15.28 z"
     inkscape:connector-curvature="0" /><path
     id="path4748"
     style="font-style:normal;font-variant:normal;font-weight:normal;font-stretch:normal;font-family:Laksaman;-inkscape-font-specification:Laksaman;fill:#ffffff;fill-opacity:1"
     d="m 164.02374,230.06989 q -5.68,0 -8.88,-4.28 -3.2,-4.28 -3.2,-10.68 0,-6.44 3.56,-10.56 3.56,-4.16 9.56,-4.16 4.44,0 7.68,1.48 l -0.72,1.92 q -3.64,-1.4 -7.08,-1.4 -4.72,0 -7.68,3.76 -2.92,3.76 -2.92,9.04 0,5.72 2.52,9.32 2.56,3.56 7.52,3.56 3.72,0 6.8,-1.48 v -9.44 h -7.16 v -2 h 9.56 v 14 q -0.48,-0.36 -1.24,-0.36 l -3.56,0.64 q -3.44,0.64 -4.76,0.64 z"
     inkscape:connector-curvature="0" /><path
     id="path4750"
     style="font-style:normal;font-variant:normal;font-weight:normal;font-stretch:normal;font-family:Laksaman;-inkscape-font-specification:Laksaman;fill:#ffffff;fill-opacity:1"
     d="m 200.86374,217.42989 q 0,12.64 -10.76,12.64 -10.76,0 -10.76,-12.64 v -16.56 h 2.4 v 16.48 q 0,5.08 2.04,7.92 2.04,2.8 6.32,2.8 4.28,0 6.32,-2.8 2.04,-2.84 2.04,-7.92 v -16.48 h 2.4 z"
     inkscape:connector-curvature="0" /><path
     id="path4752"
     style="font-style:normal;font-variant:normal;font-weight:normal;font-stretch:normal;font-family:Laksaman;-inkscape-font-specification:Laksaman;fill:#ffffff;fill-opacity:1"
     d="m 222.94369,229.50989 h -15.6 v -28.64 h 15.6 v 2 h -13.2 v 10.52 h 11.76 v 2 h -11.76 v 12.12 h 13.2 z"
     inkscape:connector-curvature="0" /></g><ellipse
   style="fill:#ffffff;fill-opacity:1;stroke-width:0.59486085"
   id="path884"
   cx="731.56451"
   cy="-111.04252"
   rx="31.593288"
   ry="29.12678" /><ellipse
   style="clip-rule:evenodd;fill:#ffffff;fill-opacity:1;fill-rule:evenodd;stroke-width:1.2017777;stroke-linecap:square"
   id="path884-3"
   cx="901.89972"
   cy="114.96004"
   rx="63.826866"
   ry="58.843868" /><ellipse
   style="clip-rule:evenodd;fill:#ffffff;fill-opacity:1;fill-rule:evenodd;stroke-width:2.09318686;stroke-linecap:square"
   id="path884-3-6"
   cx="678.64618"
   cy="36.023975"
   rx="111.16994"
   ry="102.49084" /><ellipse
   style="clip-rule:evenodd;fill:#ffffff;fill-opacity:1;fill-rule:evenodd;stroke-width:1.03108239;stroke-linecap:square"
   id="path884-3-6-7"
   cx="838.97284"
   cy="-64.140533"
   rx="54.761173"
   ry="50.485931" /><ellipse
   style="clip-rule:evenodd;fill:#ffffff;fill-opacity:1;fill-rule:evenodd;stroke-width:0.55869281;stroke-linecap:square"
   id="path884-3-6-7-5"
   cx="836.5658"
   cy="26.82379"
   rx="29.672388"
   ry="27.355848" /><ellipse
   style="clip-rule:evenodd;fill:#ffffff;fill-opacity:1;fill-rule:evenodd;stroke-width:0.55869281;stroke-linecap:square"
   id="path884-3-6-7-5-3"
   cx="781.74213"
   cy="142.81976"
   rx="29.672388"
   ry="27.355848" /><ellipse
   style="clip-rule:evenodd;fill:#ffffff;fill-opacity:1;fill-rule:evenodd;stroke-width:0.55869281;stroke-linecap:square"
   id="path884-3-6-7-5-3-5"
   cx="924.84113"
   cy="135.3905"
   rx="29.672388"
   ry="27.355848" /><ellipse
   style="clip-rule:evenodd;fill:#ffffff;fill-opacity:1;fill-rule:evenodd;stroke-width:0.59486085;stroke-linecap:square"
   id="path884-6"
   cx="963.86823"
   cy="228.25638"
   rx="31.593288"
   ry="29.12678" /><ellipse
   style="clip-rule:evenodd;fill:#ffffff;fill-opacity:1;fill-rule:evenodd;stroke-width:0.8693555;stroke-linecap:square"
   id="path884-3-2"
   cx="843.99951"
   cy="245.41141"
   rx="46.171799"
   ry="42.567135" /><ellipse
   style="clip-rule:evenodd;fill:#ffffff;fill-opacity:1;fill-rule:evenodd;stroke-width:0.59486085;stroke-linecap:square"
   id="path884-6-9"
   cx="997.31995"
   cy="-67.057213"
   rx="31.593288"
   ry="29.12678" /></g>
</svg>