<?xml version="1.0" encoding="UTF-8"?>
<svg xmlns="http://www.w3.org/2000/svg" xmlns:xlink="http://www.w3.org/1999/xlink" version="1.2" >
<font id="Saar Pro Headline">
<font-face  font-family="Saar Pro" units-per-em="1000" ascent="750" descent="-250" font-style="normal" font-weight="400" font-stretch="normal" cap-height="700" x-height="511" underline-position="-75" underline-thickness="50" />
<missing-glyph  horiz-adv-x="220" d="" />
<glyph glyph-name="NULL" d="" />
<glyph glyph-name="CR" unicode="&#xd;" horiz-adv-x="250" d="" />
<glyph glyph-name="space" unicode="&#x20;" horiz-adv-x="220" d="" />
<glyph glyph-name="exclam" unicode="&#x21;" horiz-adv-x="243" d="M78 187 C78 181 82 177 88 177 L155 177 C161 177 165 181 165 187 L173 690 C173 696 169 700 163 700 L80 700 C74 700 70 695 70 689 L78 187 Z M123 -12 C152 -12 178 6 178 46 C178 87 152 105 123 105 C89 105 65 87 65 46 C65 6 93 -12 123 -12 L123 -12 Z " />
<glyph glyph-name="quotedbl" unicode="&#x22;" horiz-adv-x="427" d="M88 476 C88 470 92 466 98 466 L158 466 C164 466 168 470 168 476 L180 690 C180 696 176 700 170 700 L86 700 C80 700 76 695 76 689 L88 476 Z M259 476 C259 470 263 466 269 466 L329 466 C335 466 339 470 339 476 L351 690 C351 696 347 700 341 700 L257 700 C251 700 247 695 247 689 L259 476 Z " />
<glyph glyph-name="numbersign" unicode="&#x23;" horiz-adv-x="653" d="M544 178 C550 178 553 182 554 188 L560 229 C561 235 559 239 553 239 L456 239 C465 299 472 339 482 400 L577 400 C583 400 586 404 587 410 L593 451 C594 457 592 461 586 461 L489 461 C509 591 526 690 526 690 C528 696 525 698 519 698 L469 698 C464 698 461 696 459 690 L423 461 L294 461 C314 591 331 690 331 690 C333 696 330 698 324 698 L274 698 C269 698 266 696 264 690 L229 461 L133 461 C127 461 124 457 123 451 L117 410 C116 404 119 400 125 400 L220 400 L195 239 L100 239 C94 239 91 235 90 229 L84 188 C83 182 86 178 92 178 L187 178 L151 -54 C149 -60 152 -62 158 -62 L208 -62 C213 -62 216 -60 218 -54 C217 -54 233 47 253 178 L382 178 L346 -54 C344 -60 347 -62 353 -62 L403 -62 C408 -62 411 -60 413 -54 C412 -54 428 47 448 178 L544 178 Z M287 400 L415 400 L390 239 L261 239 C270 299 277 339 287 400 L287 400 Z " />
<glyph glyph-name="dollar" unicode="&#x24;" horiz-adv-x="641" d="M355 822 L286 822 C280 822 276 818 276 812 L276 695 C156 680 96 612 96 513 C96 298 456 327 456 180 C456 111 407 80 317 80 C265 80 226 90 191 111 L180 208 C179 213 179 218 172 218 L111 218 C104 218 100 214 100 207 L95 74 C94 60 97 53 110 45 C153 19 213 6 276 2 L276 -109 C276 -115 280 -119 286 -119 L355 -119 C361 -119 365 -115 365 -109 L365 3 C491 18 564 89 564 200 C564 400 197 378 197 533 C197 594 253 620 328 620 C370 620 417 613 444 600 L449 515 C449 510 452 506 460 506 L519 506 C525 506 529 510 529 515 L532 647 C532 665 524 672 505 677 C456 689 413 696 365 698 L365 812 C365 818 361 822 355 822 L355 822 Z " />
<glyph glyph-name="percent" unicode="&#x25;" horiz-adv-x="771" d="M204 389 C292 389 353 451 353 546 C353 642 292 703 204 703 C118 703 56 642 56 546 C56 451 118 389 204 389 L204 389 Z M204 455 C156 455 130 495 130 546 C130 598 156 637 204 637 C249 637 278 597 278 546 C278 495 252 455 204 455 L204 455 Z M566 -5 C654 -5 715 57 715 152 C715 248 654 309 566 309 C480 309 418 248 418 152 C418 57 480 -5 566 -5 L566 -5 Z M566 61 C518 61 492 101 492 152 C492 203 520 243 566 243 C611 243 640 203 640 152 C640 101 614 61 566 61 L566 61 Z M110 9 C106 4 108 0 116 0 L190 0 C195 0 198 3 202 8 L672 702 C676 707 671 710 665 710 L593 710 C588 710 584 707 580 702 L110 9 Z " />
<glyph glyph-name="ampersand" unicode="&#x26;" horiz-adv-x="715" d="M685 388 C685 394 681 398 675 398 L537 398 C531 398 527 395 526 388 C518 321 479 219 479 219 L312 381 C277 418 212 481 212 541 C212 593 246 628 293 628 C346 628 369 591 369 556 C369 519 349 493 330 478 C326 475 326 469 328 466 C330 463 362 421 362 421 C366 416 370 415 376 418 C410 434 459 490 459 562 C459 641 405 700 296 700 C182 700 114 633 114 535 C114 471 141 428 182 378 C131 348 49 282 49 182 C49 54 158 -14 272 -14 C366 -14 432 21 481 77 C507 44 528 18 528 -6 C528 -19 526 -31 521 -43 C518 -50 520 -54 526 -56 L595 -82 C602 -85 605 -82 608 -76 C614 -64 622 -40 622 -7 C622 48 588 102 539 157 C571 213 593 273 605 324 L675 329 C681 329 685 333 685 339 L685 388 Z M242 312 C298 252 366 197 428 135 C394 92 348 72 292 72 C223 72 152 116 152 192 C152 266 201 303 231 324 L242 312 Z " />
<glyph glyph-name="quotesingle" unicode="&#x27;" horiz-adv-x="278" d="M88 477 C88 471 92 467 98 467 L158 467 C164 467 168 471 168 477 L180 691 C180 697 176 701 170 701 L86 701 C80 701 76 696 76 690 L88 477 Z " />
<glyph glyph-name="parenleft" unicode="&#x28;" horiz-adv-x="326" d="M81 326 C81 54 210 -82 248 -118 C254 -123 258 -122 264 -118 L307 -88 C313 -84 314 -80 309 -74 C281 -40 182 92 182 326 C182 560 281 693 309 727 C314 733 313 737 307 741 L264 770 C258 774 254 775 248 770 C210 734 81 598 81 326 L81 326 Z " />
<glyph glyph-name="parenright" unicode="&#x29;" horiz-adv-x="326" d="M245 326 C245 598 116 734 78 770 C72 775 68 774 62 770 L19 741 C13 737 12 733 17 727 C45 693 144 560 144 326 C144 92 45 -40 17 -74 C12 -80 13 -84 19 -88 L62 -118 C68 -122 72 -123 78 -118 C116 -82 245 54 245 326 L245 326 Z " />
<glyph glyph-name="asterisk" unicode="&#x2a;" horiz-adv-x="428" d="M66 636 C61 638 54 637 52 631 L29 560 C27 553 30 549 36 548 L166 523 L76 426 C72 422 73 415 78 411 L138 370 C144 366 149 367 152 373 L215 487 L278 373 C281 367 286 366 292 370 L353 412 C358 416 358 422 354 426 L263 524 L392 548 C398 549 401 553 399 560 L377 631 C375 637 369 638 364 636 L246 582 L262 713 C263 719 259 723 253 723 L179 723 C173 723 169 719 170 713 L185 582 L66 636 Z " />
<glyph glyph-name="plus" unicode="&#x2b;" horiz-adv-x="610" d="M545 279 C545 286 540 290 533 290 L344 290 L344 487 C344 494 339 499 332 499 L278 499 C271 499 267 494 267 487 L267 290 L77 290 C70 290 65 286 65 279 L65 225 C65 218 70 213 77 213 L267 213 L267 12 C267 5 271 0 278 0 L332 0 C339 0 344 5 344 12 L344 213 L533 213 C540 213 545 218 545 225 L545 279 Z " />
<glyph glyph-name="comma" unicode="&#x2c;" horiz-adv-x="207" d="M97 113 C64 113 36 93 36 58 C36 27 57 7 80 1 C77 -34 58 -67 28 -110 C24 -116 26 -120 32 -124 L68 -146 C74 -150 81 -149 85 -143 C129 -79 158 -21 158 39 C158 91 131 113 97 113 L97 113 Z " />
<glyph glyph-name="hyphen" unicode="&#x2d;" horiz-adv-x="375" d="M323 295 C323 301 319 305 313 305 L62 305 C56 305 52 301 52 295 C52 295 52 253 52 247 C52 241 56 237 62 237 L313 237 C319 237 323 241 323 247 L323 295 Z " />
<glyph glyph-name="period" unicode="&#x2e;" horiz-adv-x="201" d="M102 -12 C131 -12 157 6 157 46 C157 87 131 105 102 105 C68 105 44 87 44 46 C44 6 72 -12 102 -12 L102 -12 Z " />
<glyph glyph-name="slash" unicode="&#x2f;" horiz-adv-x="364" d="M8 -134 C6 -140 9 -142 15 -142 L97 -142 C102 -142 105 -140 107 -134 L380 716 C382 722 379 724 373 724 L291 724 C286 724 283 722 281 716 L8 -134 Z " />
<glyph glyph-name="zero" unicode="0" horiz-adv-x="620" d="M311 -12 C466 -12 555 89 555 349 C555 609 466 710 311 710 C156 710 65 609 65 349 C65 89 156 -12 311 -12 L311 -12 Z M311 69 C225 69 174 152 174 351 C174 551 225 629 311 629 C396 629 446 551 446 351 C446 152 396 69 311 69 L311 69 Z " />
<glyph glyph-name="one" unicode="1" horiz-adv-x="560" d="M45 486 C42 484 38 480 42 470 L67 413 C70 408 77 407 81 411 L244 560 L244 85 L61 79 C55 79 52 76 52 70 L52 9 C52 3 54 0 60 0 L502 0 C508 0 510 3 510 9 L510 70 C510 76 507 79 501 79 L345 85 L345 688 C345 694 341 698 335 698 L284 698 C276 698 271 695 265 689 L45 486 Z " />
<glyph glyph-name="two" unicode="2" horiz-adv-x="593" d="M525 0 C531 0 535 4 535 10 L535 78 C535 84 531 88 525 88 L176 88 C181 276 533 306 533 529 C533 658 436 713 309 713 C215 713 110 680 84 670 C74 666 72 659 72 653 L81 521 C81 515 84 511 90 511 L146 511 C152 511 155 515 155 521 L162 602 C192 613 251 624 285 624 C371 624 428 597 428 524 C428 346 62 349 62 53 L62 10 C62 4 66 0 72 0 L525 0 Z " />
<glyph glyph-name="three" unicode="3" horiz-adv-x="571" d="M190 325 C190 319 194 315 200 315 L223 315 C344 315 410 281 411 204 C412 131 359 76 256 76 C183 76 109 113 84 127 C78 130 74 127 73 121 C71 107 61 65 59 53 C58 47 60 42 66 38 C87 25 161 -12 260 -12 C430 -12 522 95 522 197 C522 297 458 343 342 360 C434 384 500 436 500 534 C500 641 413 710 289 710 C173 710 94 676 94 676 C88 674 82 667 82 661 L83 640 L91 525 C91 519 94 515 100 515 L156 515 C162 515 165 519 165 525 L172 611 C196 618 226 624 257 624 C344 624 389 587 389 522 C389 435 310 393 200 393 C194 393 190 389 190 383 L190 325 Z " />
<glyph glyph-name="four" unicode="4" horiz-adv-x="600" d="M40 151 C40 145 44 141 50 141 L369 141 L369 10 C369 4 373 0 379 0 L460 0 C466 0 470 4 470 10 L470 141 L540 141 C546 141 550 145 550 151 L550 221 C550 227 546 231 540 231 L470 231 L470 690 C470 696 466 700 460 700 L339 700 C333 700 327 697 324 691 L46 237 C40 228 40 223 40 217 L40 151 Z M365 596 L365 231 L147 231 L365 596 Z " />
<glyph glyph-name="five" unicode="5" horiz-adv-x="574" d="M81 122 C75 125 72 122 71 116 L58 44 C57 38 59 32 65 29 C67 28 155 -12 258 -12 C430 -12 531 81 531 213 C531 353 426 411 305 411 C244 411 192 400 192 400 L206 611 L407 611 L416 527 C417 521 419 517 425 517 L481 517 C487 517 490 521 490 527 L499 682 L499 690 C499 696 495 700 489 700 L125 700 C119 700 115 696 115 690 L91 318 C91 312 94 309 100 310 C126 315 186 327 243 327 C342 327 421 300 421 204 C421 115 353 79 251 79 C176 79 81 122 81 122 L81 122 Z " />
<glyph glyph-name="six" unicode="6" horiz-adv-x="593" d="M313 -12 C457 -12 540 103 540 216 C540 354 448 420 342 420 C275 420 218 390 179 360 C179 516 238 625 353 625 C417 625 461 609 475 605 C481 603 486 604 488 609 L506 672 C509 680 507 683 501 686 C487 692 434 713 343 713 C159 713 63 551 63 325 C63 139 146 -12 313 -12 L313 -12 Z M313 331 C377 331 433 292 433 208 C433 121 389 70 315 70 C230 70 185 153 179 269 C209 302 250 331 313 331 L313 331 Z " />
<glyph glyph-name="seven" unicode="7" horiz-adv-x="531" d="M517 640 L517 690 C517 696 513 700 507 700 L47 700 C41 700 37 696 37 690 L46 527 C46 521 49 517 55 517 L111 517 C117 517 120 521 120 527 L127 610 L397 610 L120 10 C117 4 121 0 127 0 L217 0 C225 0 228 4 231 10 L517 640 Z " />
<glyph glyph-name="eight" unicode="8" horiz-adv-x="566" d="M40 185 C40 80 129 -12 283 -12 C437 -12 526 80 526 185 C526 280 464 334 393 364 C447 394 495 448 495 529 C495 629 413 713 283 713 C153 713 71 629 71 529 C71 448 119 394 173 364 C102 334 40 275 40 185 L40 185 Z M415 190 C414 114 357 69 283 69 C210 69 151 115 151 190 C151 283 243 329 243 329 C243 329 415 295 415 190 L415 190 Z M172 524 C173 594 221 632 283 632 C346 632 395 592 395 524 C395 440 312 395 312 395 C312 395 172 431 172 524 L172 524 Z " />
<glyph glyph-name="nine" unicode="9" horiz-adv-x="591" d="M278 713 C134 713 51 598 51 485 C51 347 148 265 254 265 C321 265 377 290 416 320 C416 164 353 76 238 76 C174 76 130 92 116 96 C110 98 105 97 103 92 L85 29 C82 21 84 18 90 15 C104 9 157 -12 248 -12 C432 -12 528 152 528 373 C528 559 445 713 278 713 L278 713 Z M278 354 C214 354 158 409 158 493 C158 580 207 630 274 630 C369 630 406 527 412 411 C382 378 341 354 278 354 L278 354 Z " />
<glyph glyph-name="colon" unicode="&#x3a;" horiz-adv-x="201" d="M102 -12 C131 -12 157 6 157 46 C157 87 131 105 102 105 C68 105 44 87 44 46 C44 6 72 -12 102 -12 L102 -12 Z M102 322 C131 322 157 340 157 380 C157 421 131 439 102 439 C68 439 44 421 44 380 C44 340 72 322 102 322 L102 322 Z " />
<glyph glyph-name="semicolon" unicode="&#x3b;" horiz-adv-x="223" d="M113 322 C142 322 168 340 168 380 C168 421 142 439 113 439 C79 439 55 421 55 380 C55 340 83 322 113 322 L113 322 Z M111 105 C81 105 55 85 55 50 C55 19 76 -1 99 -7 C96 -42 77 -75 47 -118 C43 -124 45 -128 51 -132 L87 -154 C93 -158 100 -157 104 -151 C148 -87 174 -31 174 29 C174 81 142 105 111 105 L111 105 Z " />
<glyph glyph-name="less" unicode="&#x3c;" horiz-adv-x="582" d="M73 261 C73 256 75 252 81 249 L485 61 C491 59 494 62 494 67 L494 140 C494 145 491 149 485 151 L161 286 L485 424 C491 426 494 430 494 435 L494 508 C494 514 491 517 485 514 L81 327 C75 324 73 320 73 315 L73 261 Z " />
<glyph glyph-name="equal" unicode="&#x3d;" horiz-adv-x="522" d="M457 381 C457 387 453 391 447 391 L75 391 C69 391 65 387 65 381 C65 381 65 333 65 327 C65 321 69 317 75 317 L447 317 C453 317 457 321 457 327 L457 381 Z M457 175 C457 181 453 185 447 185 L75 185 C69 185 65 181 65 175 C65 175 65 127 65 121 C65 115 69 111 75 111 L447 111 C453 111 457 115 457 121 L457 175 Z " />
<glyph glyph-name="greater" unicode="&#x3e;" horiz-adv-x="542" d="M474 315 C474 320 472 324 466 327 L62 514 C56 517 53 514 53 508 L53 435 C53 430 56 426 62 424 L386 286 L62 151 C56 149 53 145 53 140 L53 67 C53 62 56 59 62 61 L466 249 C472 252 474 256 474 261 L474 315 Z " />
<glyph glyph-name="question" unicode="&#x3f;" horiz-adv-x="484" d="M22 680 C14 678 10 671 10 665 L17 528 C17 522 20 518 26 518 L82 518 C88 518 90 522 91 528 L98 609 C98 609 142 629 198 629 C274 629 336 607 336 524 C336 397 139 376 139 178 C139 172 143 168 149 168 L221 168 C227 168 231 172 231 178 L231 186 C237 346 443 370 443 546 C443 661 358 712 212 712 C135 712 53 689 22 680 L22 680 Z M185 -12 C214 -12 240 6 240 46 C240 87 214 105 185 105 C151 105 127 87 127 46 C127 6 155 -12 185 -12 L185 -12 Z " />
<glyph glyph-name="at" unicode="&#x40;" horiz-adv-x="969" d="M675 50 C794 50 910 176 910 365 C910 542 769 698 542 698 C275 698 67 510 67 218 C67 -14 214 -142 384 -142 C498 -142 567 -105 589 -90 C595 -86 597 -80 597 -74 L597 -28 C597 -22 594 -20 588 -23 C564 -36 499 -71 401 -71 C258 -71 154 32 154 223 C154 475 320 624 534 624 C719 624 823 513 823 352 C823 204 760 115 697 115 C667 115 646 135 653 184 L692 480 C693 486 689 490 683 490 L645 490 L618 469 C618 469 581 510 507 510 C381 510 279 391 279 233 C279 118 332 45 421 45 C531 45 574 127 574 127 C574 91 607 50 675 50 L675 50 Z M452 114 C400 114 376 163 376 243 C376 362 435 446 520 446 C560 446 595 427 595 427 L556 169 C552 158 514 114 452 114 L452 114 Z " />
<glyph glyph-name="A" unicode="A" horiz-adv-x="637" d="M429 652 C422 677 412 700 370 700 L147 700 C141 700 137 696 137 690 L137 635 C137 629 141 626 147 626 L223 623 L51 10 C49 4 52 0 58 0 L138 0 C144 0 149 4 151 10 L196 195 L444 195 L491 10 C493 4 498 0 504 0 L594 0 C600 0 603 4 601 10 L429 652 Z M309 611 L337 611 L424 275 L215 275 L309 611 Z " />
<glyph glyph-name="B" unicode="B" horiz-adv-x="611" d="M20 700 C14 700 10 696 10 690 L10 636 C10 630 14 626 20 626 L99 623 L99 10 C99 4 103 0 109 0 C133 0 274 0 359 0 C448 0 576 56 576 204 C576 304 508 353 440 372 C489 402 527 457 527 526 C527 636 460 700 318 700 L20 700 Z M332 79 C273 79 204 79 204 79 L204 324 L323 324 C412 324 465 278 465 203 C465 121 417 79 332 79 L332 79 Z M298 623 C386 623 422 582 422 514 C422 437 381 394 301 394 L204 394 L204 623 L298 623 Z " />
<glyph glyph-name="C" unicode="C" horiz-adv-x="632" d="M489 516 C489 510 492 506 498 506 L562 506 C568 506 571 510 571 516 L582 655 C583 667 579 675 571 679 C552 689 498 713 392 713 C198 713 55 561 55 349 C55 127 170 -12 379 -12 C481 -12 551 24 581 42 C587 46 588 52 584 58 L563 111 C559 117 554 116 548 114 C520 103 472 83 399 83 C270 83 170 176 170 349 C170 554 287 629 389 629 C448 629 482 613 482 613 L489 516 Z " />
<glyph glyph-name="D" unicode="D" horiz-adv-x="701" d="M50 700 C44 700 40 696 40 690 L40 636 C40 630 44 626 50 626 L129 623 L129 10 C129 4 133 0 139 0 C198 0 231 0 299 0 C547 0 646 131 646 370 C646 581 522 700 328 700 L50 700 Z M319 622 C469 622 541 516 541 364 C541 146 459 83 311 83 C286 83 254 83 234 83 L234 622 L319 622 Z " />
<glyph glyph-name="E" unicode="E" horiz-adv-x="588" d="M45 700 C39 700 35 696 35 690 L35 636 C35 630 39 626 45 626 L124 623 L124 10 C124 4 128 0 134 0 L517 0 C523 0 527 4 527 10 L527 78 C527 84 524 88 518 88 L229 88 L229 297 L432 297 C438 297 441 301 442 307 L451 367 C451 373 447 377 441 377 L229 377 L229 617 L443 617 L451 517 C451 511 454 507 460 507 L516 507 C522 507 525 511 525 517 L533 689 C533 696 529 700 523 700 L45 700 Z " />
<glyph glyph-name="F" unicode="F" horiz-adv-x="563" d="M503 700 L45 700 C39 700 35 696 35 690 L35 636 C35 630 39 626 45 626 L124 623 L124 10 C124 4 128 0 134 0 L219 0 C225 0 229 4 229 10 L229 297 L401 297 C407 297 410 302 411 307 L422 367 C422 373 418 377 412 377 L229 377 L229 617 L423 617 L431 517 C431 511 434 507 440 507 L496 507 C502 507 505 511 505 517 L513 689 C513 697 508 700 503 700 L503 700 Z " />
<glyph glyph-name="G" unicode="G" horiz-adv-x="679" d="M496 515 C497 509 499 505 505 505 L573 505 C579 505 582 509 582 515 L589 654 C590 667 584 676 574 680 C533 696 473 713 400 713 C186 713 55 578 55 349 C55 122 176 -12 395 -12 C516 -12 569 21 598 41 C605 46 614 54 614 73 L614 329 C614 335 610 338 604 338 L386 338 C380 338 378 335 378 329 L377 272 C377 266 380 263 386 263 L522 256 L522 98 C521 98 485 73 396 73 C273 73 168 156 168 349 C168 554 268 627 402 627 C453 627 485 614 485 614 L496 515 Z " />
<glyph glyph-name="H" unicode="H" horiz-adv-x="625" d="M0 700 C-6 700 -10 696 -10 690 L-10 636 C-10 630 -6 626 0 626 L79 623 L79 10 C79 4 83 0 89 0 L174 0 C180 0 184 4 184 10 L184 321 L455 321 L455 10 C455 4 459 0 465 0 L550 0 C556 0 560 4 560 10 L560 690 C560 696 556 700 550 700 L465 700 C459 700 455 696 455 690 L455 399 L184 399 L183 641 C183 680 169 700 128 700 L0 700 Z " />
<glyph glyph-name="I" unicode="I" horiz-adv-x="373" d="M134 77 L55 74 C49 74 45 70 45 64 L45 10 C45 4 49 0 55 0 L318 0 C324 0 328 4 328 10 L328 64 C328 70 324 74 318 74 L239 77 L239 623 L318 626 C324 626 328 630 328 636 L328 690 C328 696 324 700 318 700 L55 700 C49 700 45 696 45 690 L45 636 C45 630 49 626 55 626 L134 623 L134 77 Z " />
<glyph glyph-name="J" unicode="J" horiz-adv-x="378" d="M79 68 C70 68 60 69 52 69 C48 69 41 71 39 61 L31 13 C30 5 33 -1 40 -3 C54 -7 81 -12 105 -12 C209 -12 288 42 288 181 L288 670 C288 694 279 700 255 700 L78 700 C72 700 70 696 70 690 L70 634 C70 628 73 626 79 626 L183 623 L183 180 C183 98 146 68 79 68 L79 68 Z " />
<glyph glyph-name="K" unicode="K" horiz-adv-x="641" d="M99 10 C99 4 103 0 109 0 L194 0 C200 0 204 4 204 10 L204 315 L295 315 L416 99 C471 3 520 -6 574 -6 C592 -6 614 -2 626 2 C632 4 636 7 636 13 L627 78 C627 84 621 89 615 88 C582 83 550 77 514 139 L385 367 L586 688 C589 693 587 700 581 700 L482 700 C475 700 470 695 467 690 L291 388 L204 388 L204 645 C203 682 187 700 149 700 L18 700 C12 700 10 696 10 690 L10 634 C10 628 13 626 19 626 L99 623 L99 10 Z " />
<glyph glyph-name="L" unicode="L" horiz-adv-x="538" d="M109 0 L501 0 C507 0 511 4 511 10 L504 206 C504 212 501 216 495 216 L434 216 C428 216 425 212 425 206 L416 77 L204 77 L204 652 C204 686 197 700 160 700 L19 700 C13 700 10 696 10 690 L10 634 C10 628 13 626 19 626 L99 623 L99 10 C99 4 103 0 109 0 L109 0 Z " />
<glyph glyph-name="M" unicode="M" horiz-adv-x="822" d="M748 690 C748 696 744 700 738 700 L597 700 C584 700 579 697 575 683 L442 190 L431 190 L298 650 C290 676 271 700 231 700 L25 700 C19 700 15 696 15 690 L15 636 C15 630 19 626 25 626 L104 623 L81 10 C81 4 85 0 91 0 L172 0 C178 0 181 4 181 10 L201 596 L209 596 L353 124 C361 97 366 89 386 89 L472 89 C492 89 498 98 505 124 L639 596 L647 596 L669 10 C669 4 673 0 679 0 L762 0 C768 0 772 4 772 10 L748 690 Z " />
<glyph glyph-name="N" unicode="N" horiz-adv-x="678" d="M603 700 L528 700 C522 700 518 696 518 690 L518 99 L513 99 L299 650 C285 684 269 700 240 700 L20 700 C14 700 10 696 10 690 L10 636 C10 630 14 626 20 626 L99 623 L99 10 C99 4 103 0 109 0 L187 0 C193 0 196 4 196 10 L196 604 L204 604 L440 18 C446 5 453 0 465 0 L604 0 C610 0 613 4 613 10 L613 690 C613 696 609 700 603 700 L603 700 Z " />
<glyph glyph-name="O" unicode="O" horiz-adv-x="708" d="M356 712 C143 712 55 534 55 352 C55 116 168 -12 356 -12 C529 -12 653 124 653 352 C653 568 548 712 356 712 L356 712 Z M168 352 C168 539 243 624 353 624 C470 624 541 553 541 352 C541 148 451 79 356 79 C259 79 168 159 168 352 L168 352 Z " />
<glyph glyph-name="P" unicode="P" horiz-adv-x="563" d="M99 700 L20 700 C14 700 10 696 10 690 L10 636 C10 630 14 626 20 626 L99 623 L99 10 C99 4 103 0 109 0 L194 0 C200 0 204 4 204 10 L204 267 L328 267 C456 267 538 373 538 494 C538 620 460 700 330 700 L99 700 Z M310 623 C406 623 437 552 437 480 C437 412 399 340 313 340 L204 340 L204 623 L310 623 Z " />
<glyph glyph-name="Q" unicode="Q" horiz-adv-x="692" d="M452 -33 C510 -127 549 -152 614 -152 C625 -152 653 -149 667 -141 C674 -137 674 -133 672 -125 L662 -77 C660 -71 658 -68 647 -69 C636 -70 626 -70 622 -70 C585 -69 563 -54 531 0 L511 32 C599 89 654 200 654 352 C654 568 549 712 357 712 C144 712 56 534 56 352 C56 116 169 -12 357 -12 C383 -12 409 -9 433 -2 L452 -33 Z M169 352 C169 539 244 624 354 624 C471 624 542 553 542 352 C542 230 509 154 463 112 L417 190 C413 197 407 198 401 194 L346 160 C341 157 340 150 344 143 L386 74 C376 73 366 72 357 72 C260 72 169 159 169 352 L169 352 Z " />
<glyph glyph-name="R" unicode="R" horiz-adv-x="620" d="M20 700 C14 700 10 696 10 690 L10 635 C10 629 14 626 20 626 L95 623 L95 10 C95 4 99 0 105 0 L190 0 C196 0 200 4 200 10 L200 299 L292 299 L390 110 C445 14 486 -12 546 -12 C556 -12 588 -10 604 -3 C611 0 616 3 615 10 L606 65 C605 71 603 75 596 75 C589 75 583 73 570 73 C532 73 511 96 482 145 L401 299 C473 322 541 398 541 501 C541 638 466 700 311 700 L20 700 Z M294 627 C402 627 436 569 436 499 C436 419 397 367 323 367 L200 367 L200 627 L294 627 Z " />
<glyph glyph-name="S" unicode="S" horiz-adv-x="598" d="M169 540 C169 603 225 630 300 630 C343 630 389 623 416 610 L425 517 C426 511 428 507 436 507 L489 507 C495 507 499 511 499 517 L505 655 C506 673 497 680 478 686 C418 705 367 713 303 713 C149 713 66 629 67 525 C68 320 429 326 429 178 C429 107 380 69 289 69 C237 69 198 81 163 103 L152 204 C151 209 151 215 143 215 L82 215 C75 215 71 211 71 203 L66 64 C65 50 68 42 81 34 C133 2 211 -12 288 -12 C445 -12 538 69 538 197 C538 393 169 391 169 540 L169 540 Z " />
<glyph glyph-name="T" unicode="T" horiz-adv-x="627" d="M261 10 C261 4 265 0 271 0 L356 0 C362 0 366 4 366 10 L366 623 L512 623 L520 517 C520 511 524 507 530 507 L587 507 C593 507 597 511 597 517 L602 690 C602 696 598 700 592 700 L35 700 C29 700 25 696 25 690 L30 517 C30 511 34 507 40 507 L97 507 C103 507 107 511 107 517 L115 623 L261 623 L261 10 Z " />
<glyph glyph-name="U" unicode="U" horiz-adv-x="654" d="M204 641 C204 681 189 700 149 700 L18 700 C12 700 10 696 10 690 L10 634 C10 628 13 626 19 626 L99 623 L99 245 C99 40 217 -12 341 -12 C465 -12 589 40 589 245 L589 690 C589 696 586 700 580 700 L499 700 C494 700 489 696 489 690 L489 246 C489 168 467 77 341 77 C241 77 204 168 204 246 L204 641 Z " />
<glyph glyph-name="V" unicode="V" horiz-adv-x="728" d="M209 646 C198 680 188 700 148 700 L18 700 C12 700 10 697 10 691 L10 632 C10 626 13 622 19 622 L99 619 L305 10 C307 4 312 0 318 0 L439 0 C445 0 450 4 452 10 L677 692 C679 698 676 700 670 700 L571 700 C566 700 563 698 561 692 L394 114 L384 114 L209 646 Z " />
<glyph glyph-name="W" unicode="W" horiz-adv-x="937" d="M493 478 L605 10 C607 4 612 0 618 0 L750 0 C756 0 761 4 763 10 L926 689 C927 694 924 700 918 700 L820 700 C815 700 812 698 810 692 L695 116 L685 116 L573 595 C572 600 569 603 562 603 L437 603 C432 603 429 601 427 595 L312 116 L302 116 L181 646 C170 680 160 700 120 700 L-7 700 C-13 700 -15 697 -15 691 L-15 632 C-15 626 -12 622 -6 622 L74 619 L223 10 C225 4 230 0 236 0 L360 0 C366 0 371 4 373 10 L486 478 L493 478 Z " />
<glyph glyph-name="X" unicode="X" horiz-adv-x="650" d="M416 107 C462 8 503 -12 577 -12 C592 -12 647 -7 645 9 L636 70 C635 76 632 82 623 80 C611 77 601 75 591 75 C564 75 547 86 523 133 L409 361 L583 690 C586 696 583 700 577 700 L483 700 C475 700 472 698 468 690 L331 420 L316 420 L195 659 C180 689 165 700 126 700 L23 700 C17 700 15 696 15 690 L15 635 C15 629 18 625 24 625 L90 623 L239 363 L53 10 C50 4 54 0 60 0 L152 0 C158 0 166 4 169 10 L311 298 L328 298 L416 107 Z " />
<glyph glyph-name="Y" unicode="Y" horiz-adv-x="553" d="M165 659 C148 688 135 700 96 700 L-7 700 C-13 700 -15 696 -15 690 L-15 635 C-15 629 -12 625 -6 625 L60 623 L241 296 L241 10 C241 4 245 0 251 0 L336 0 C342 0 346 4 346 10 L346 296 L556 690 C559 696 556 700 550 700 L455 700 C448 700 445 696 442 690 L303 395 L297 395 L165 659 Z " />
<glyph glyph-name="Z" unicode="Z" horiz-adv-x="585" d="M542 185 C542 191 539 195 533 195 L469 195 C463 195 461 191 460 185 L449 81 L160 81 L530 613 C533 618 536 623 536 631 L536 690 C536 696 533 700 527 700 L58 700 C52 700 48 696 48 690 L55 517 C55 511 58 507 64 507 L127 507 C133 507 135 511 136 517 L146 623 L417 623 L46 91 C44 88 40 83 40 77 L40 10 C40 4 43 0 49 0 L535 0 C541 0 545 4 545 10 L542 185 Z " />
<glyph glyph-name="bracketleft" unicode="&#x5b;" horiz-adv-x="296" d="M60 -97 C60 -103 64 -107 70 -107 L240 -107 C246 -107 250 -103 250 -97 L250 -35 C250 -29 246 -25 240 -25 L161 -25 L161 668 L240 668 C246 668 250 672 250 678 L250 740 C250 746 246 750 240 750 L70 750 C64 750 60 746 60 740 L60 -97 Z " />
<glyph glyph-name="backslash" unicode="&#x5c;" horiz-adv-x="461" d="M132 716 C130 722 127 724 122 724 L40 724 C34 724 31 722 33 716 L306 -134 C308 -140 311 -142 316 -142 L398 -142 C404 -142 407 -140 405 -134 L132 716 Z " />
<glyph glyph-name="bracketright" unicode="&#x5d;" horiz-adv-x="296" d="M236 740 C236 746 232 750 226 750 L56 750 C50 750 46 746 46 740 L46 678 C46 672 50 668 56 668 L135 668 L135 -25 L56 -25 C50 -25 46 -29 46 -35 L46 -97 C46 -103 50 -107 56 -107 L226 -107 C232 -107 236 -103 236 -97 L236 740 Z " />
<glyph glyph-name="underscore" unicode="&#x5f;" horiz-adv-x="496" d="M456 -22 C456 -16 452 -12 446 -12 L50 -12 C44 -12 40 -16 40 -22 C40 -22 40 -55 40 -61 C40 -67 44 -71 50 -71 L446 -71 C452 -71 456 -67 456 -61 L456 -22 Z " />
<glyph glyph-name="grave" unicode="&#x60;" horiz-adv-x="394" d="M174 586 C178 580 183 576 189 576 L262 576 C268 576 270 581 267 586 L180 724 C175 732 170 734 164 734 L76 734 C70 734 68 728 71 724 L174 586 Z " />
<glyph glyph-name="a" unicode="a" horiz-adv-x="513" d="M475 62 C474 71 469 72 461 70 C434 64 417 66 417 95 L417 372 C417 437 392 522 244 522 C185 522 113 500 74 485 C68 483 65 477 68 470 L89 414 C90 411 93 403 104 408 C133 420 193 439 232 439 C314 439 321 382 321 324 L321 310 C283 268 40 288 40 130 C40 44 102 -12 181 -12 C250 -12 308 43 326 73 C331 18 365 -12 411 -12 C433 -12 455 -5 473 3 C479 6 484 8 482 19 L475 62 Z M320 131 C302 97 255 70 213 70 C182 70 145 87 145 139 C145 229 282 219 320 247 L320 131 Z " />
<glyph glyph-name="b" unicode="b" horiz-adv-x="592" d="M189 688 C189 722 169 750 128 750 L23 750 C17 750 15 747 15 741 L15 687 C15 681 18 678 24 678 L89 673 L89 10 C89 4 92 0 99 0 C99 0 117 0 147 0 C154 0 157 4 159 9 L174 49 C198 25 241 -12 310 -12 C463 -12 542 111 542 267 C542 417 489 522 359 522 C293 522 229 495 189 460 L189 688 Z M307 63 C256 63 213 84 191 102 L190 405 C212 418 259 443 311 443 C408 443 436 364 436 269 C436 160 398 63 307 63 L307 63 Z " />
<glyph glyph-name="c" unicode="c" horiz-adv-x="501" d="M306 68 C238 68 158 119 158 256 C158 366 199 450 302 450 C330 450 346 446 358 442 L372 359 C373 353 376 349 382 349 L435 349 C443 349 445 353 445 359 L450 475 C450 484 449 492 438 497 C416 507 368 522 295 522 C155 522 50 413 50 255 C50 97 128 -12 286 -12 C369 -12 435 24 461 45 C466 49 466 52 464 57 L447 97 C445 102 441 103 434 100 C407 88 375 68 306 68 L306 68 Z " />
<glyph glyph-name="d" unicode="d" horiz-adv-x="603" d="M413 74 C417 19 446 -13 499 -13 C521 -13 548 -7 566 1 C572 4 576 7 575 18 L570 62 C569 71 564 73 556 71 C529 65 504 67 504 95 L504 688 C504 722 484 750 443 750 L338 750 C332 750 330 747 330 741 L330 687 C330 681 333 678 339 678 L404 673 L404 553 L406 507 C377 518 349 522 304 522 C132 522 53 398 51 255 C49 104 119 -12 253 -12 C323 -12 388 31 413 74 L413 74 Z M403 129 C392 107 355 73 287 73 C194 73 158 165 158 256 C158 370 210 457 312 457 C342 457 379 450 403 437 L403 129 Z " />
<glyph glyph-name="e" unicode="e" horiz-adv-x="504" d="M285 -12 C351 -12 428 22 454 43 C459 47 459 50 457 55 L440 101 C438 106 434 107 427 104 C400 92 347 70 301 70 C218 70 160 134 156 221 L447 298 C454 300 459 305 460 311 C461 317 461 324 461 336 C461 436 402 522 272 522 C144 522 50 424 50 255 C50 118 116 -12 285 -12 L285 -12 Z M151 287 C151 408 211 453 267 453 C327 453 361 404 361 351 C361 346 361 341 361 341 L151 287 Z " />
<glyph glyph-name="f" unicode="f" horiz-adv-x="342" d="M101 445 L101 10 C101 4 105 0 111 0 L191 0 C197 0 201 4 201 10 L201 445 L310 445 C317 445 320 449 321 455 L331 499 C333 506 331 511 324 511 L201 511 L201 543 C201 615 210 701 288 701 C303 701 316 699 327 696 L338 623 C339 617 342 613 348 613 L396 613 C404 613 406 617 406 623 L411 730 C411 734 410 741 402 744 C384 751 342 762 282 762 C162 762 101 686 101 553 L101 511 L40 511 C34 511 30 507 30 501 L30 455 C30 449 34 445 40 445 L101 445 Z " />
<glyph glyph-name="g" unicode="g" horiz-adv-x="539" d="M341 508 C314 517 284 522 249 522 C128 522 35 458 35 350 C35 263 80 219 143 189 L90 99 C90 38 135 -7 208 -7 L292 -7 C356 -7 394 -17 394 -63 C394 -105 353 -144 243 -144 C171 -144 133 -120 125 -113 L127 -42 C127 -35 124 -30 116 -30 L60 -30 C53 -30 49 -34 48 -42 L41 -148 C40 -161 47 -167 53 -171 C74 -185 131 -216 239 -216 C410 -216 500 -145 500 -39 C500 45 425 78 349 78 L240 78 C200 78 177 91 177 121 L207 173 C214 172 236 170 247 170 C379 170 451 244 451 349 C451 388 434 417 411 445 L504 432 C511 431 518 432 518 441 L518 498 C518 504 514 508 508 508 L341 508 Z M247 235 C169 235 139 287 139 347 C139 414 179 459 249 459 C321 459 352 412 352 347 C352 282 321 235 247 235 L247 235 Z " />
<glyph glyph-name="h" unicode="h" horiz-adv-x="617" d="M371 522 C290 522 215 478 184 449 L184 681 C184 725 169 750 118 750 L18 750 C12 750 10 747 10 741 L10 687 C10 681 13 678 19 678 L84 673 L84 10 C84 4 88 0 94 0 L174 0 C180 0 184 4 184 10 L184 394 C213 410 269 434 321 434 C408 434 412 375 412 342 L412 59 C412 19 428 0 468 0 L572 0 C578 0 580 3 580 9 L581 58 C581 64 578 66 572 67 L512 77 L512 367 C512 448 480 522 371 522 L371 522 Z " />
<glyph glyph-name="i" unicode="i" horiz-adv-x="282" d="M151 618 C184 618 212 639 212 682 C212 726 184 747 151 747 C114 747 88 726 88 682 C88 639 118 618 151 618 L151 618 Z M201 457 C201 487 184 511 141 511 L41 511 C35 511 33 508 33 502 L33 448 C33 442 36 440 42 439 L100 433 L100 10 C100 4 104 0 110 0 L191 0 C197 0 201 4 201 10 L201 457 Z " />
<glyph glyph-name="j" unicode="j" horiz-adv-x="263" d="M193 445 C193 480 182 511 133 511 L33 511 C27 511 25 508 25 502 L25 448 C25 442 28 440 34 439 L93 433 L93 139 C93 -43 99 -126 -31 -147 C-39 -148 -43 -152 -41 -158 L-28 -206 C-26 -214 -22 -216 -16 -216 C163 -206 193 -99 193 106 L193 445 Z M129 618 C162 618 190 639 190 682 C190 726 162 747 129 747 C92 747 66 726 66 682 C66 639 96 618 129 618 L129 618 Z " />
<glyph glyph-name="k" unicode="k" horiz-adv-x="547" d="M440 112 C417 149 367 235 335 291 L501 500 C505 505 503 511 495 511 L394 511 C386 511 381 504 378 500 L246 310 L183 310 L183 688 C183 722 163 750 122 750 L17 750 C11 750 9 747 9 741 L9 688 C9 682 12 678 18 678 L83 673 L83 10 C83 4 87 0 93 0 L173 0 C179 0 183 4 183 10 L183 234 L265 234 C280 209 333 111 357 71 C384 25 414 -12 471 -12 C491 -12 518 -8 533 -2 C538 0 542 5 541 10 L530 64 C529 69 525 72 518 71 C509 70 502 69 495 69 C471 69 458 83 440 112 L440 112 Z " />
<glyph glyph-name="l" unicode="l" horiz-adv-x="278" d="M170 110 L170 738 C170 744 165 751 156 749 L81 734 C74 733 70 725 70 719 L70 76 C70 27 96 -12 163 -12 C196 -12 227 -1 238 3 C244 5 246 9 246 14 C246 14 238 63 237 67 C236 74 232 77 227 76 C205 73 170 57 170 110 L170 110 Z " />
<glyph glyph-name="m" unicode="m" horiz-adv-x="918" d="M672 522 C601 522 533 471 496 439 C484 481 443 522 368 522 C301 522 240 477 203 445 C203 476 196 511 145 511 L41 511 C35 511 33 508 33 502 L33 448 C33 442 36 440 42 439 L101 434 L101 10 C101 4 105 0 111 0 L192 0 C198 0 202 4 202 10 L202 393 C240 417 282 434 323 434 C408 434 409 365 409 316 L409 10 C409 4 413 0 419 0 L500 0 C506 0 510 4 510 10 L510 366 C510 366 510 380 509 388 C543 413 581 434 627 434 C712 434 713 366 713 317 L713 59 C713 19 729 0 769 0 L873 0 C879 0 881 3 881 9 L882 58 C882 64 879 66 873 67 L813 77 L813 367 C813 448 781 522 672 522 L672 522 Z " />
<glyph glyph-name="n" unicode="n" horiz-adv-x="634" d="M388 522 C305 522 233 476 203 447 C203 476 196 511 145 511 L41 511 C35 511 33 508 33 502 L33 448 C33 442 36 440 42 439 L101 434 L101 10 C101 4 105 0 111 0 L192 0 C198 0 202 4 202 10 L202 393 C230 409 284 434 338 434 C425 434 429 375 429 342 L429 59 C429 19 445 0 485 0 L589 0 C595 0 597 3 597 9 L598 58 C598 64 595 66 589 67 L529 77 L529 367 C529 448 497 522 388 522 L388 522 Z " />
<glyph glyph-name="o" unicode="o" horiz-adv-x="576" d="M290 -12 C460 -12 526 107 526 255 C526 396 459 522 289 522 C119 522 50 396 50 255 C50 107 120 -12 290 -12 L290 -12 Z M290 61 C202 61 158 148 158 255 C158 370 201 449 289 449 C377 449 419 370 419 255 C419 150 378 61 290 61 L290 61 Z " />
<glyph glyph-name="p" unicode="p" horiz-adv-x="605" d="M369 522 C305 522 233 485 197 450 C197 476 190 511 139 511 L42 511 C36 511 34 508 34 502 L33 448 C33 442 36 440 42 439 L102 434 L102 -198 C102 -204 106 -208 112 -208 L193 -208 C199 -208 203 -204 203 -198 L203 26 C226 5 262 -12 314 -12 C467 -12 555 104 555 259 C555 404 508 522 369 522 L369 522 Z M309 58 C270 58 228 68 203 85 L203 400 C225 413 270 439 329 439 C426 439 446 360 446 270 C446 149 404 58 309 58 L309 58 Z " />
<glyph glyph-name="q" unicode="q" horiz-adv-x="572" d="M465 522 C458 522 453 519 450 516 L427 496 C401 510 368 522 300 522 C132 522 53 398 51 255 C49 104 118 -12 252 -12 C322 -12 379 22 403 61 L403 -198 C403 -204 407 -208 413 -208 L494 -208 C500 -208 504 -204 504 -198 L504 512 C504 518 500 522 494 522 L465 522 Z M286 73 C196 73 158 165 158 256 C158 372 207 457 309 457 C337 457 376 452 403 437 L403 128 C394 108 354 73 286 73 L286 73 Z " />
<glyph glyph-name="r" unicode="r" horiz-adv-x="400" d="M193 445 C193 482 184 511 128 511 L41 511 C35 511 33 508 33 502 L33 448 C33 442 36 439 42 439 L99 434 L99 10 C99 4 103 0 109 0 L189 0 C195 0 199 4 199 10 L199 262 C207 341 267 405 342 405 C351 405 356 404 361 404 C365 404 367 406 368 411 L389 508 C390 514 388 518 382 520 C379 521 373 522 360 522 C278 522 219 448 195 365 L193 365 L193 445 Z " />
<glyph glyph-name="s" unicode="s" horiz-adv-x="476" d="M409 474 C410 488 406 495 398 498 C354 513 299 522 247 522 C141 522 57 473 57 379 C57 197 333 243 333 136 C333 90 291 56 234 56 C191 56 159 63 133 82 L129 147 C129 153 127 159 118 159 L65 159 C58 159 54 154 54 148 L51 51 C50 39 55 31 62 27 C96 6 145 -12 233 -12 C363 -12 431 56 431 144 C431 313 157 282 157 388 C157 433 191 450 240 450 C281 450 316 442 331 432 L338 376 C339 371 341 369 348 369 L397 369 C403 369 405 373 405 377 L409 474 Z " />
<glyph glyph-name="t" unicode="t" horiz-adv-x="366" d="M108 605 C103 602 99 599 99 591 L99 511 L41 511 C34 511 31 507 30 501 L21 454 C20 448 23 444 29 444 L99 444 L99 159 C99 65 103 -12 225 -12 C268 -12 315 -1 332 7 C340 10 342 14 340 22 L331 61 C330 66 328 72 317 70 C300 67 283 65 263 65 C218 65 202 76 202 148 L202 444 L327 444 C333 444 337 448 337 454 L337 501 C337 507 333 511 327 511 L202 511 L202 640 C202 647 196 652 189 648 L108 605 Z " />
<glyph glyph-name="u" unicode="u" horiz-adv-x="572" d="M245 -12 C341 -12 398 49 415 76 C420 21 454 -12 500 -12 C522 -12 544 -5 562 3 C568 6 573 8 571 19 L564 62 C563 71 558 72 550 70 C523 64 506 66 506 95 L506 501 C506 507 502 511 496 511 L416 511 C410 511 406 507 406 501 L406 150 C400 110 336 71 289 71 C202 71 194 130 194 163 L194 457 C194 493 187 511 147 511 L33 511 C27 511 25 508 25 502 L25 448 C25 442 28 440 34 439 L93 434 L93 143 C93 62 136 -12 245 -12 L245 -12 Z " />
<glyph glyph-name="v" unicode="v" horiz-adv-x="492" d="M140 457 C131 491 117 511 77 511 L-16 511 C-22 511 -26 507 -26 501 L-26 449 C-26 443 -22 440 -16 439 L42 433 L183 10 C185 3 190 0 195 0 L317 0 C323 0 326 5 328 10 L483 501 C485 507 482 511 475 511 L394 511 C388 511 386 508 384 501 L270 92 L252 92 L140 457 Z " />
<glyph glyph-name="w" unicode="w" horiz-adv-x="763" d="M154 457 C146 492 126 511 82 511 L-17 511 C-23 511 -25 508 -25 502 L-26 448 C-26 442 -23 440 -17 439 L54 432 L167 9 C168 5 172 0 180 0 L293 0 C300 0 305 5 306 9 L388 392 L402 392 L475 10 C476 7 480 0 489 0 L607 0 C615 0 618 7 619 10 L741 496 C743 502 743 511 735 511 L653 511 C647 511 644 506 643 501 L551 88 L541 88 L464 501 C463 505 461 511 454 511 L343 511 C336 511 333 505 332 501 L248 88 L237 88 L154 457 Z " />
<glyph glyph-name="x" unicode="x" horiz-adv-x="484" d="M333 45 C351 11 362 0 402 0 L475 0 C481 0 483 3 483 9 L484 55 C484 61 481 63 475 64 L424 74 L322 251 L465 499 C467 503 467 511 459 511 L375 511 C368 511 362 505 360 500 L260 304 L239 304 L162 458 C145 492 131 511 91 511 L14 511 C8 511 6 508 6 502 L6 448 C6 442 9 439 15 439 L69 434 L172 251 L25 12 C21 5 27 0 34 0 L114 0 C123 0 127 7 130 12 L236 201 L253 201 L333 45 Z " />
<glyph glyph-name="y" unicode="y" horiz-adv-x="504" d="M493 501 C495 507 492 511 485 511 L403 511 C397 511 395 508 393 501 L275 77 L257 77 L144 457 C134 492 125 511 85 511 L-12 511 C-18 511 -20 508 -20 502 L-20 448 C-20 442 -17 439 -11 439 L47 434 L183 17 C186 8 193 0 202 0 L254 0 C240 -68 208 -139 137 -139 C107 -139 84 -133 75 -131 C68 -129 64 -134 63 -139 L54 -184 C52 -192 52 -195 59 -199 C78 -208 103 -216 145 -216 C279 -216 324 -46 345 19 L493 501 Z " />
<glyph glyph-name="z" unicode="z" horiz-adv-x="479" d="M441 151 C441 157 438 161 432 161 L373 161 C367 161 364 157 364 151 L350 64 L147 64 L431 437 C433 440 437 445 437 452 L434 501 C434 507 430 511 424 511 L54 511 C47 511 44 508 44 501 L50 370 C50 364 53 360 59 360 L112 360 C118 360 120 364 121 370 L137 452 L327 452 L38 72 C34 67 33 63 34 57 L39 10 C40 3 43 0 49 0 L431 0 C437 0 441 4 441 10 L441 151 Z " />
<glyph glyph-name="braceleft" unicode="&#x7b;" horiz-adv-x="323" d="M39 307 C39 301 43 297 49 296 C76 292 125 277 125 244 C125 200 89 150 89 67 C89 -29 162 -94 238 -119 C244 -121 251 -120 257 -116 L294 -90 C300 -86 299 -83 293 -80 C236 -51 188 -10 188 65 C188 128 216 183 216 224 C216 276 181 310 129 327 C181 344 216 378 216 430 C216 471 188 526 188 589 C188 664 236 705 293 734 C299 737 300 740 294 744 L257 770 C251 774 244 775 238 773 C162 748 89 683 89 587 C89 504 125 454 125 410 C125 377 76 362 49 358 C43 357 39 353 39 347 L39 307 Z " />
<glyph glyph-name="bar" unicode="&#x7c;" horiz-adv-x="366" d="M216 -216 C222 -216 226 -212 226 -206 L226 770 C226 776 222 780 216 780 C216 780 156 780 150 780 C144 780 140 776 140 770 L140 -206 C140 -212 144 -216 150 -216 L216 -216 Z " />
<glyph glyph-name="braceright" unicode="&#x7d;" horiz-adv-x="323" d="M299 347 C299 353 295 357 289 358 C262 362 213 377 213 410 C213 454 249 504 249 587 C249 683 176 748 100 773 C94 775 87 774 81 770 L44 744 C38 740 39 737 45 734 C102 705 150 664 150 589 C150 526 122 471 122 430 C122 378 157 344 209 327 C157 310 122 276 122 224 C122 183 150 128 150 65 C150 -10 102 -51 45 -80 C39 -83 38 -86 44 -90 L81 -116 C87 -120 94 -121 100 -119 C176 -94 249 -29 249 67 C249 150 213 200 213 244 C213 277 262 292 289 296 C295 297 299 301 299 307 L299 347 Z " />
<glyph glyph-name="exclamdown" unicode="&#xa1;" horiz-adv-x="243" d="M70 -179 C70 -185 74 -190 80 -190 L163 -190 C169 -190 173 -186 173 -180 L165 323 C165 329 161 333 155 333 L88 333 C82 333 78 329 78 323 L70 -179 Z M123 522 C93 522 65 504 65 464 C65 423 89 405 123 405 C152 405 178 423 178 464 C178 504 152 522 123 522 L123 522 Z " />
<glyph glyph-name="sterling" unicode="&#xa3;" horiz-adv-x="588" d="M519 0 C525 0 529 4 529 10 L522 186 C522 192 519 196 513 196 L452 196 C446 196 443 192 443 186 L435 77 L210 77 L210 314 L332 314 C340 314 343 320 346 326 L361 365 C364 373 360 377 353 377 L210 377 L210 498 C210 591 258 620 321 620 C364 620 388 607 401 598 L408 506 C408 500 411 496 417 496 L478 496 C484 496 487 500 487 506 L498 645 C499 657 495 665 484 670 C446 685 394 700 326 700 C204 700 107 631 107 486 L107 377 L49 377 C43 377 39 373 39 367 L39 324 C39 318 43 314 49 314 L107 314 L107 77 L49 77 C43 77 39 74 39 68 L39 8 C39 2 43 0 49 0 L519 0 Z " />
<glyph glyph-name="yen" unicode="&#xa5;" horiz-adv-x="557" d="M85 206 L85 163 C85 157 89 153 95 153 L235 153 L235 10 C235 4 239 0 245 0 L327 0 C333 0 337 4 337 10 L337 153 L478 153 C484 153 488 157 488 163 L488 206 C488 212 484 216 478 216 L337 216 L337 289 L478 289 C484 289 488 293 488 299 L488 342 C488 348 484 352 478 352 L365 352 L539 690 C542 696 539 700 533 700 L441 700 C434 700 431 696 428 690 L294 395 L288 395 L135 690 C131 697 126 700 119 700 L23 700 C17 700 14 692 17 687 L204 352 L95 352 C89 352 85 348 85 342 L85 299 C85 293 89 289 95 289 L235 289 L235 216 L95 216 C89 216 85 212 85 206 L85 206 Z " />
<glyph glyph-name="section" unicode="&#xa7;" horiz-adv-x="566" d="M408 183 C461 204 490 243 490 300 C490 470 187 438 187 543 C187 589 232 610 289 610 C336 610 379 599 389 593 L395 538 C396 533 398 530 404 530 L454 530 C459 530 462 534 462 539 L466 637 C466 648 463 653 452 656 C406 670 351 679 296 679 C181 679 92 635 92 541 C92 478 128 442 176 418 C125 398 92 361 92 305 C92 129 393 170 393 52 C393 3 348 -24 280 -24 C236 -24 190 -13 167 8 L161 62 C160 68 158 73 149 73 L98 73 C92 73 88 68 88 62 L85 -26 C85 -34 89 -37 94 -41 C139 -77 205 -91 279 -91 C412 -91 490 -34 490 61 C490 121 455 157 408 183 L408 183 Z M187 313 C187 353 216 377 258 385 C328 362 393 342 393 287 C393 249 370 226 333 215 C259 242 187 262 187 313 L187 313 Z " />
<glyph glyph-name="dieresis" unicode="&#xa8;" horiz-adv-x="480" d="M144 606 C171 606 193 622 193 658 C193 694 171 710 144 710 C114 710 93 693 93 658 C93 622 118 606 144 606 L144 606 Z M336 606 C362 606 384 622 384 658 C384 693 362 710 336 710 C305 710 284 693 284 658 C284 622 309 606 336 606 L336 606 Z " />
<glyph glyph-name="copyright" unicode="&#xa9;" horiz-adv-x="708" d="M685 322 C685 504 538 651 356 651 C172 651 24 504 24 322 C24 138 172 -10 356 -10 C538 -10 685 138 685 322 L685 322 Z M631 322 C631 168 506 44 356 44 C202 44 78 168 78 322 C78 474 202 598 356 598 C507 598 631 474 631 322 L631 322 Z M378 190 C336 190 272 217 272 319 C272 408 312 450 371 450 C390 450 409 445 418 442 L429 383 C430 379 432 377 436 377 L474 377 C480 377 481 380 481 383 L485 476 C485 482 485 488 476 491 C461 499 417 517 364 517 C260 517 183 438 183 319 C183 202 263 122 364 122 C439 122 478 153 500 169 C505 172 503 176 502 180 L485 215 C484 218 480 220 474 217 C455 207 433 190 378 190 L378 190 Z " />
<glyph glyph-name="ordfeminine" unicode="&#xaa;" horiz-adv-x="483" d="M401 318 C401 324 397 328 391 328 L89 328 C83 328 79 324 79 318 C79 318 79 283 79 277 C79 271 83 267 89 267 L391 267 C397 267 401 271 401 277 L401 318 Z M378 433 C378 439 375 439 369 438 C352 434 344 435 344 454 L344 625 C344 666 328 720 235 720 C192 720 152 704 128 695 C124 693 122 689 124 685 L147 641 C148 639 150 634 157 637 C175 644 203 656 228 656 C268 656 273 634 273 598 L273 592 C250 565 103 575 103 476 C103 417 145 383 195 383 C239 383 275 418 286 437 C289 402 311 383 340 383 C354 383 368 387 379 392 C383 394 386 396 385 403 L378 433 Z M273 475 C263 457 240 441 217 441 C199 441 178 451 178 479 C178 528 253 522 273 538 L273 475 Z " />
<glyph glyph-name="guillemotleft" unicode="&#xab;" horiz-adv-x="627" d="M140 246 L323 484 C326 488 325 493 319 493 L235 493 C229 493 225 490 221 484 L46 258 C40 250 40 241 46 233 L221 9 C226 3 229 0 235 0 L317 0 C324 0 325 7 322 11 L140 246 Z M386 246 L569 484 C572 488 571 493 565 493 L481 493 C475 493 471 490 467 484 L292 258 C286 250 286 241 292 233 L467 9 C472 3 475 0 481 0 L563 0 C570 0 571 7 568 11 L386 246 Z " />
<glyph glyph-name="registered" unicode="&#xae;" horiz-adv-x="645" d="M327 803 C188 803 75 692 75 554 C75 414 188 302 327 302 C465 302 577 414 577 554 C577 692 465 803 327 803 L327 803 Z M327 359 C219 359 133 446 133 554 C133 660 219 747 327 747 C432 747 519 660 519 554 C519 446 432 359 327 359 L327 359 Z M442 475 C442 478 440 479 437 479 C433 479 429 479 427 479 C415 479 404 487 392 506 L375 533 C402 544 423 567 423 606 C423 658 383 681 337 681 L233 681 C229 681 228 679 228 676 L228 446 C228 443 230 441 233 441 L281 441 C283 441 286 441 286 446 L286 526 L321 526 L347 482 C366 448 389 434 413 434 C425 434 437 437 441 438 C444 439 445 441 445 443 L442 475 Z M286 638 L326 638 C350 638 364 628 364 605 C364 578 348 567 326 567 L286 567 L286 638 Z " />
<glyph glyph-name="macron" unicode="&#xaf;" horiz-adv-x="587" d="M445 683 C445 690 440 694 433 694 L153 694 C146 694 141 690 141 683 L141 629 C141 622 146 617 153 617 L433 617 C440 617 445 622 445 629 L445 683 Z " />
<glyph glyph-name="degree" unicode="&#xb0;" horiz-adv-x="417" d="M208 413 C296 413 357 475 357 570 C357 666 296 727 208 727 C122 727 60 666 60 570 C60 475 122 413 208 413 L208 413 Z M208 479 C160 479 134 519 134 570 C134 622 160 661 208 661 C253 661 282 621 282 570 C282 519 256 479 208 479 L208 479 Z " />
<glyph glyph-name="plusminus" unicode="&#xb1;" horiz-adv-x="743" d="M612 67 C612 73 608 77 602 77 L142 77 C136 77 132 73 132 67 C132 67 132 16 132 10 C132 4 136 0 142 0 L602 0 C608 0 612 4 612 10 L612 67 Z M612 370 C612 377 607 381 600 381 L411 381 L411 551 C411 558 406 563 399 563 L345 563 C338 563 334 558 334 551 L334 381 L144 381 C137 381 132 377 132 370 L132 316 C132 309 137 304 144 304 L334 304 L334 139 C334 132 338 127 345 127 L399 127 C406 127 411 132 411 139 L411 304 L600 304 C607 304 612 309 612 316 L612 370 Z " />
<glyph glyph-name="twosuperior" unicode="&#xb2;" horiz-adv-x="420" d="M186 429 C186 490 375 529 375 641 C375 696 323 751 244 751 C176 751 130 729 113 722 C108 720 104 715 104 709 L110 621 C110 615 113 612 119 612 L158 612 C164 612 167 615 167 621 L171 667 C171 667 198 679 229 679 C263 679 289 668 289 633 C289 548 85 525 85 400 L85 368 C85 362 89 358 95 358 L369 358 C375 358 379 362 379 368 L379 422 C379 428 375 432 369 432 L186 429 Z " />
<glyph glyph-name="threesuperior" unicode="&#xb3;" horiz-adv-x="428" d="M186 533 C186 527 190 523 196 523 L206 523 C277 523 306 511 306 474 C306 439 275 423 223 423 C177 423 135 445 118 453 C114 455 108 454 107 448 C105 440 96 405 95 397 C94 393 96 387 100 385 C113 377 162 356 223 356 C331 356 387 400 387 467 C387 508 357 549 297 556 C345 569 374 599 374 644 C374 709 313 751 238 751 C172 751 115 723 115 723 C109 720 106 715 106 710 L112 621 C112 615 115 612 120 612 L159 612 C166 612 168 616 168 621 L173 674 C173 674 195 685 225 685 C268 685 293 667 293 634 C293 597 254 574 196 574 C190 574 186 570 186 564 L186 533 Z " />
<glyph glyph-name="acute" unicode="&#xb4;" horiz-adv-x="303" d="M248 724 C251 728 249 734 243 734 L150 734 C144 734 139 732 134 724 L47 586 C44 581 46 576 52 576 L128 576 C134 576 139 580 143 586 L248 724 Z " />
<glyph glyph-name="paragraph" unicode="&#xb6;" horiz-adv-x="763" d="M715 738 C715 745 710 750 703 750 L501 750 L501 -126 C501 -132 505 -136 511 -136 L590 -136 C596 -136 598 -132 598 -126 L598 658 L703 658 C710 658 715 663 715 670 L715 738 Z M51 541 C51 385 154 309 293 309 L308 309 L308 -126 C308 -132 311 -136 317 -136 L403 -136 C409 -136 412 -132 412 -126 L412 750 L289 750 C150 750 51 681 51 541 L51 541 Z M308 672 L308 387 L294 387 C224 387 158 433 158 535 C158 631 218 672 294 672 L308 672 Z " />
<glyph glyph-name="periodcentered" unicode="&#xb7;" horiz-adv-x="315" d="M159 229 C188 229 214 247 214 287 C214 328 188 346 159 346 C125 346 101 328 101 287 C101 247 129 229 159 229 L159 229 Z " />
<glyph glyph-name="cedilla" unicode="&#xb8;" horiz-adv-x="325" d="M106 -90 C105 -99 109 -103 118 -104 C156 -108 183 -116 183 -139 C183 -168 137 -175 79 -175 C73 -175 71 -179 72 -185 L77 -217 C78 -223 80 -225 86 -225 C211 -224 267 -192 267 -135 C267 -90 227 -72 169 -68 L176 -14 C177 -8 176 -5 170 -4 L127 1 C121 2 119 -1 118 -7 L106 -90 Z " />
<glyph glyph-name="onesuperior" unicode="&#xb9;" horiz-adv-x="412" d="M77 625 C72 621 72 614 74 610 L98 559 C100 554 106 553 110 557 L192 635 L192 434 L95 430 C89 430 85 428 85 421 L85 368 C85 362 88 358 94 358 L366 358 C372 358 375 362 375 368 L375 420 C375 426 373 430 365 430 L273 434 L273 740 C273 746 269 750 263 750 L221 750 C214 750 209 747 205 743 L77 625 Z " />
<glyph glyph-name="ordmasculine" unicode="&#xba;" horiz-adv-x="491" d="M240 383 C348 383 390 457 390 551 C390 640 347 720 239 720 C132 720 88 640 88 551 C88 457 133 383 240 383 L240 383 Z M240 441 C191 441 167 490 167 551 C167 616 190 662 239 662 C289 662 311 616 311 551 C311 492 289 441 240 441 L240 441 Z M401 318 C401 324 397 328 391 328 L89 328 C83 328 79 324 79 318 C79 318 79 283 79 277 C79 271 83 267 89 267 L391 267 C397 267 401 271 401 277 L401 318 Z " />
<glyph glyph-name="guillemotright" unicode="&#xbb;" horiz-adv-x="630" d="M303 11 C300 7 301 0 308 0 L390 0 C396 0 399 3 404 9 L579 233 C585 241 585 250 579 258 L404 484 C400 490 396 493 390 493 L306 493 C300 493 299 488 302 484 L485 246 L303 11 Z M57 11 C54 7 55 0 62 0 L144 0 C150 0 153 3 158 9 L333 233 C339 241 339 250 333 258 L158 484 C154 490 150 493 144 493 L60 493 C54 493 53 488 56 484 L239 246 L57 11 Z " />
<glyph glyph-name="onequarter" unicode="&#xbc;" horiz-adv-x="997" d="M295 8 C293 2 296 0 302 0 L377 0 C382 0 384 2 387 8 L715 692 C718 698 714 700 708 700 L633 700 C628 700 626 698 623 692 L295 8 Z M67 575 C62 571 62 564 64 560 L88 509 C90 504 96 503 100 507 L182 585 L182 384 L85 380 C79 380 75 378 75 371 L75 318 C75 312 78 308 84 308 L356 308 C362 308 365 312 365 318 L365 370 C365 376 363 380 355 380 L263 384 L263 690 C263 696 259 700 253 700 L211 700 C204 700 199 697 195 693 L67 575 Z M610 90 C610 84 614 80 620 80 L804 80 L804 6 C804 3 806 0 810 0 L875 0 C879 0 881 3 881 6 L881 80 L932 80 C938 80 942 84 942 90 L942 142 C942 148 938 152 932 152 L881 152 L881 381 C881 387 877 391 871 391 L783 391 C777 391 772 388 768 382 L615 158 C611 152 610 147 610 141 L610 90 Z M802 319 L802 152 L698 152 L802 319 Z " />
<glyph glyph-name="onehalf" unicode="&#xbd;" horiz-adv-x="1017" d="M295 8 C293 2 296 0 302 0 L377 0 C382 0 384 2 387 8 L715 692 C718 698 714 700 708 700 L633 700 C628 700 626 698 623 692 L295 8 Z M749 71 C749 132 938 171 938 283 C938 338 886 393 807 393 C739 393 693 371 676 364 C671 362 667 357 667 351 L673 263 C673 257 676 254 682 254 L721 254 C727 254 730 257 730 263 L734 309 C734 309 761 321 792 321 C826 321 852 310 852 275 C852 190 648 167 648 42 L648 10 C648 4 652 0 658 0 L932 0 C938 0 942 4 942 10 L942 64 C942 70 938 74 932 74 L749 71 Z M67 575 C62 571 62 564 64 560 L88 509 C90 504 96 503 100 507 L182 585 L182 384 L85 380 C79 380 75 378 75 371 L75 318 C75 312 78 308 84 308 L356 308 C362 308 365 312 365 318 L365 370 C365 376 363 380 355 380 L263 384 L263 690 C263 696 259 700 253 700 L211 700 C204 700 199 697 195 693 L67 575 Z " />
<glyph glyph-name="questiondown" unicode="&#xbf;" horiz-adv-x="484" d="M462 -170 C470 -168 474 -161 474 -155 L467 -18 C467 -12 464 -8 458 -8 L402 -8 C396 -8 394 -12 393 -18 L386 -99 C386 -99 342 -119 286 -119 C210 -119 148 -97 148 -14 C148 113 345 134 345 332 C345 338 341 342 335 342 L263 342 C257 342 253 338 253 332 L253 324 C247 164 41 140 41 -36 C41 -151 126 -202 272 -202 C349 -202 431 -179 462 -170 L462 -170 Z M299 522 C270 522 244 504 244 464 C244 423 270 405 299 405 C333 405 357 423 357 464 C357 504 329 522 299 522 L299 522 Z " />
<glyph glyph-name="Agrave" unicode="&#xc0;" horiz-adv-x="637" d="M128 867 C122 868 117 866 116 860 L107 797 C106 791 108 787 114 786 L372 744 C378 743 382 745 383 751 L390 798 C391 804 388 808 382 809 L128 867 Z M429 652 C422 677 412 700 370 700 L147 700 C141 700 137 696 137 690 L137 635 C137 629 141 626 147 626 L223 623 L51 10 C49 4 52 0 58 0 L138 0 C144 0 149 4 151 10 L196 195 L444 195 L491 10 C493 4 498 0 504 0 L594 0 C600 0 603 4 601 10 L429 652 Z M309 611 L337 611 L424 275 L215 275 L309 611 Z " />
<glyph glyph-name="Aacute" unicode="&#xc1;" horiz-adv-x="637" d="M226 809 C220 808 217 804 218 798 L225 751 C226 745 230 743 236 744 L494 786 C500 787 502 791 501 797 L492 860 C491 866 486 868 480 867 L226 809 Z M429 652 C422 677 412 700 370 700 L147 700 C141 700 137 696 137 690 L137 635 C137 629 141 626 147 626 L223 623 L51 10 C49 4 52 0 58 0 L138 0 C144 0 149 4 151 10 L196 195 L444 195 L491 10 C493 4 498 0 504 0 L594 0 C600 0 603 4 601 10 L429 652 Z M309 611 L337 611 L424 275 L215 275 L309 611 Z " />
<glyph glyph-name="Acircumflex" unicode="&#xc2;" horiz-adv-x="637" d="M389 855 C385 859 382 860 376 860 L229 860 C223 860 220 859 216 855 L132 760 C127 755 130 750 136 750 L211 750 C219 750 224 751 230 757 L298 826 L364 757 C369 751 374 750 382 750 L468 750 C474 750 476 756 472 760 L389 855 Z M429 652 C422 677 412 700 370 700 L147 700 C141 700 137 696 137 690 L137 635 C137 629 141 626 147 626 L223 623 L51 10 C49 4 52 0 58 0 L138 0 C144 0 149 4 151 10 L196 195 L444 195 L491 10 C493 4 498 0 504 0 L594 0 C600 0 603 4 601 10 L429 652 Z M309 611 L337 611 L424 275 L215 275 L309 611 Z " />
<glyph glyph-name="Atilde" unicode="&#xc3;" horiz-adv-x="637" d="M429 652 C422 677 412 700 370 700 L147 700 C141 700 137 696 137 690 L137 635 C137 629 141 626 147 626 L223 623 L51 10 C49 4 52 0 58 0 L138 0 C144 0 149 4 151 10 L196 195 L444 195 L491 10 C493 4 498 0 504 0 L594 0 C600 0 603 4 601 10 L429 652 Z M309 611 L337 611 L424 275 L215 275 L309 611 Z M126 745 C133 745 136 748 137 754 C140 778 160 792 188 792 C241 792 304 745 378 745 C432 745 481 778 481 849 C481 854 479 859 473 859 L437 859 C431 859 428 856 427 849 C423 823 400 815 377 815 C323 815 259 862 188 862 C116 862 84 811 84 755 C84 749 88 745 94 745 L126 745 Z " />
<glyph glyph-name="Adieresis" unicode="&#xc4;" horiz-adv-x="637" d="M199 753 C226 753 249 767 249 803 C249 840 227 853 198 853 C168 853 146 840 146 803 C146 766 172 753 199 753 L199 753 Z M378 753 C405 753 428 767 428 803 C428 840 406 853 377 853 C347 853 325 840 325 803 C325 766 351 753 378 753 L378 753 Z M429 652 C422 677 412 700 370 700 L147 700 C141 700 137 696 137 690 L137 635 C137 629 141 626 147 626 L223 623 L51 10 C49 4 52 0 58 0 L138 0 C144 0 149 4 151 10 L196 195 L444 195 L491 10 C493 4 498 0 504 0 L594 0 C600 0 603 4 601 10 L429 652 Z M309 611 L337 611 L424 275 L215 275 L309 611 Z " />
<glyph glyph-name="Aring" unicode="&#xc5;" horiz-adv-x="637" d="M429 652 C422 677 412 700 370 700 L147 700 C141 700 137 696 137 690 L137 635 C137 629 141 626 147 626 L223 623 L51 10 C49 4 52 0 58 0 L138 0 C144 0 149 4 151 10 L196 195 L444 195 L491 10 C493 4 498 0 504 0 L594 0 C600 0 603 4 601 10 L429 652 Z M309 611 L337 611 L424 275 L215 275 L309 611 Z M320 917 C264 917 218 872 218 815 C218 760 264 714 320 714 C377 714 422 759 422 815 C422 872 377 917 320 917 L320 917 Z M320 855 C342 855 359 837 359 815 C359 793 342 775 320 775 C299 775 281 793 281 815 C281 837 299 855 320 855 L320 855 Z " />
<glyph glyph-name="AE" unicode="&#xc6;" horiz-adv-x="892" d="M827 700 L189 700 C183 700 179 696 179 690 L179 635 C179 629 183 626 189 626 L265 623 L53 10 C51 4 53 0 59 0 L146 0 C152 0 158 4 160 10 L218 195 L426 195 L426 10 C426 4 430 0 436 0 L814 0 C820 0 824 4 824 10 L824 78 C824 84 821 88 815 88 L534 88 L534 314 L720 314 C726 314 729 318 730 324 L739 383 C739 389 735 393 729 393 L534 393 L534 617 L747 617 L755 517 C755 511 758 507 764 507 L820 507 C826 507 829 511 829 517 L837 689 C837 696 833 700 827 700 L827 700 Z M359 617 L426 617 L426 275 L243 275 L359 617 Z " />
<glyph glyph-name="Ccedilla" unicode="&#xc7;" horiz-adv-x="632" d="M489 516 C489 510 492 506 498 506 L562 506 C568 506 571 510 571 516 L582 655 C583 667 579 675 571 679 C552 689 498 713 392 713 C198 713 55 561 55 349 C55 150 147 18 317 -7 L305 -90 C304 -99 308 -103 317 -104 C355 -108 382 -116 382 -139 C382 -168 336 -175 278 -175 C272 -175 270 -179 271 -185 L276 -217 C277 -223 279 -225 285 -225 C410 -224 466 -192 466 -135 C466 -90 426 -72 368 -68 L375 -14 L375 -12 L379 -12 C481 -12 551 24 581 42 C587 46 588 52 584 58 L563 111 C559 117 554 116 548 114 C520 103 472 83 399 83 C270 83 170 176 170 349 C170 554 287 629 389 629 C448 629 482 613 482 613 L489 516 Z " />
<glyph glyph-name="Egrave" unicode="&#xc8;" horiz-adv-x="588" d="M45 700 C39 700 35 696 35 690 L35 636 C35 630 39 626 45 626 L124 623 L124 10 C124 4 128 0 134 0 L517 0 C523 0 527 4 527 10 L527 78 C527 84 524 88 518 88 L229 88 L229 297 L432 297 C438 297 441 301 442 307 L451 367 C451 373 447 377 441 377 L229 377 L229 617 L443 617 L451 517 C451 511 454 507 460 507 L516 507 C522 507 525 511 525 517 L533 689 C533 696 529 700 523 700 L45 700 Z M156 867 C150 868 145 866 144 860 L135 797 C134 791 136 787 142 786 L400 744 C406 743 410 745 411 751 L418 798 C419 804 416 808 410 809 L156 867 Z " />
<glyph glyph-name="Eacute" unicode="&#xc9;" horiz-adv-x="588" d="M45 700 C39 700 35 696 35 690 L35 636 C35 630 39 626 45 626 L124 623 L124 10 C124 4 128 0 134 0 L517 0 C523 0 527 4 527 10 L527 78 C527 84 524 88 518 88 L229 88 L229 297 L432 297 C438 297 441 301 442 307 L451 367 C451 373 447 377 441 377 L229 377 L229 617 L443 617 L451 517 C451 511 454 507 460 507 L516 507 C522 507 525 511 525 517 L533 689 C533 696 529 700 523 700 L45 700 Z M246 809 C240 808 237 804 238 798 L245 751 C246 745 250 743 256 744 L514 786 C520 787 522 791 521 797 L512 860 C511 866 506 868 500 867 L246 809 Z " />
<glyph glyph-name="Ecircumflex" unicode="&#xca;" horiz-adv-x="588" d="M45 700 C39 700 35 696 35 690 L35 636 C35 630 39 626 45 626 L124 623 L124 10 C124 4 128 0 134 0 L517 0 C523 0 527 4 527 10 L527 78 C527 84 524 88 518 88 L229 88 L229 297 L432 297 C438 297 441 301 442 307 L451 367 C451 373 447 377 441 377 L229 377 L229 617 L443 617 L451 517 C451 511 454 507 460 507 L516 507 C522 507 525 511 525 517 L533 689 C533 696 529 700 523 700 L45 700 Z M421 855 C417 859 414 860 408 860 L261 860 C255 860 252 859 248 855 L164 760 C159 755 162 750 168 750 L243 750 C251 750 256 751 262 757 L330 826 L396 757 C401 751 406 750 414 750 L500 750 C506 750 508 756 504 760 L421 855 Z " />
<glyph glyph-name="Edieresis" unicode="&#xcb;" horiz-adv-x="588" d="M45 700 C39 700 35 696 35 690 L35 636 C35 630 39 626 45 626 L124 623 L124 10 C124 4 128 0 134 0 L517 0 C523 0 527 4 527 10 L527 78 C527 84 524 88 518 88 L229 88 L229 297 L432 297 C438 297 441 301 442 307 L451 367 C451 373 447 377 441 377 L229 377 L229 617 L443 617 L451 517 C451 511 454 507 460 507 L516 507 C522 507 525 511 525 517 L533 689 C533 696 529 700 523 700 L45 700 Z M243 753 C270 753 293 767 293 803 C293 840 271 853 242 853 C212 853 190 840 190 803 C190 766 216 753 243 753 L243 753 Z M422 753 C449 753 472 767 472 803 C472 840 450 853 421 853 C391 853 369 840 369 803 C369 766 395 753 422 753 L422 753 Z " />
<glyph glyph-name="Igrave" unicode="&#xcc;" horiz-adv-x="373" d="M134 77 L55 74 C49 74 45 70 45 64 L45 10 C45 4 49 0 55 0 L318 0 C324 0 328 4 328 10 L328 64 C328 70 324 74 318 74 L239 77 L239 623 L318 626 C324 626 328 630 328 636 L328 690 C328 696 324 700 318 700 L55 700 C49 700 45 696 45 690 L45 636 C45 630 49 626 55 626 L134 623 L134 77 Z M59 867 C53 868 48 866 47 860 L38 797 C37 791 39 787 45 786 L303 744 C309 743 313 745 314 751 L321 798 C322 804 319 808 313 809 L59 867 Z " />
<glyph glyph-name="Iacute" unicode="&#xcd;" horiz-adv-x="373" d="M134 77 L55 74 C49 74 45 70 45 64 L45 10 C45 4 49 0 55 0 L318 0 C324 0 328 4 328 10 L328 64 C328 70 324 74 318 74 L239 77 L239 623 L318 626 C324 626 328 630 328 636 L328 690 C328 696 324 700 318 700 L55 700 C49 700 45 696 45 690 L45 636 C45 630 49 626 55 626 L134 623 L134 77 Z M90 809 C84 808 81 804 82 798 L89 751 C90 745 94 743 100 744 L358 786 C364 787 366 791 365 797 L356 860 C355 866 350 868 344 867 L90 809 Z " />
<glyph glyph-name="Icircumflex" unicode="&#xce;" horiz-adv-x="373" d="M130 77 L51 74 C45 74 41 70 41 64 L41 10 C41 4 45 0 51 0 L314 0 C320 0 324 4 324 10 L324 64 C324 70 320 74 314 74 L235 77 L235 623 L314 626 C320 626 324 630 324 636 L324 690 C324 696 320 700 314 700 L51 700 C45 700 41 696 41 690 L41 636 C41 630 45 626 51 626 L130 623 L130 77 Z M274 855 C270 859 267 860 261 860 L114 860 C108 860 105 859 101 855 L17 760 C12 755 15 750 21 750 L96 750 C104 750 109 751 115 757 L183 826 L249 757 C254 751 259 750 267 750 L353 750 C359 750 361 756 357 760 L274 855 Z " />
<glyph glyph-name="Idieresis" unicode="&#xcf;" horiz-adv-x="373" d="M134 77 L55 74 C49 74 45 70 45 64 L45 10 C45 4 49 0 55 0 L318 0 C324 0 328 4 328 10 L328 64 C328 70 324 74 318 74 L239 77 L239 623 L318 626 C324 626 328 630 328 636 L328 690 C328 696 324 700 318 700 L55 700 C49 700 45 696 45 690 L45 636 C45 630 49 626 55 626 L134 623 L134 77 Z M98 753 C125 753 148 767 148 803 C148 840 126 853 97 853 C67 853 45 840 45 803 C45 766 71 753 98 753 L98 753 Z M277 753 C304 753 327 767 327 803 C327 840 305 853 276 853 C246 853 224 840 224 803 C224 766 250 753 277 753 L277 753 Z " />
<glyph glyph-name="Eth" unicode="&#xd0;" horiz-adv-x="702" d="M329 700 L51 700 C45 700 41 696 41 690 L41 636 C41 630 45 626 51 626 L130 623 L130 370 L52 370 C45 370 40 366 40 359 L40 313 C40 306 45 301 52 301 L130 301 L130 10 C130 4 134 0 140 0 L300 0 C548 0 647 131 647 370 C647 581 523 700 329 700 L329 700 Z M327 359 C327 366 322 370 315 370 L235 370 L235 622 L320 622 C470 622 542 516 542 364 C542 146 460 83 312 83 L235 83 L235 301 L315 301 C322 301 327 306 327 313 L327 359 Z " />
<glyph glyph-name="Ntilde" unicode="&#xd1;" horiz-adv-x="678" d="M603 700 L528 700 C522 700 518 696 518 690 L518 99 L513 99 L299 650 C285 684 269 700 240 700 L20 700 C14 700 10 696 10 690 L10 636 C10 630 14 626 20 626 L99 623 L99 10 C99 4 103 0 109 0 L187 0 C193 0 196 4 196 10 L196 604 L204 604 L440 18 C446 5 453 0 465 0 L604 0 C610 0 613 4 613 10 L613 690 C613 696 609 700 603 700 L603 700 Z M217 745 C224 745 227 748 228 754 C231 778 251 792 279 792 C332 792 395 745 469 745 C523 745 572 778 572 849 C572 854 570 859 564 859 L528 859 C522 859 519 856 518 849 C514 823 491 815 468 815 C414 815 350 862 279 862 C207 862 175 811 175 755 C175 749 179 745 185 745 L217 745 Z " />
<glyph glyph-name="Ograve" unicode="&#xd2;" horiz-adv-x="708" d="M356 712 C143 712 55 534 55 352 C55 116 168 -12 356 -12 C529 -12 653 124 653 352 C653 568 548 712 356 712 L356 712 Z M168 352 C168 539 243 624 353 624 C470 624 541 553 541 352 C541 148 451 79 356 79 C259 79 168 159 168 352 L168 352 Z M220 867 C214 868 209 866 208 860 L199 797 C198 791 200 787 206 786 L464 744 C470 743 474 745 475 751 L482 798 C483 804 480 808 474 809 L220 867 Z " />
<glyph glyph-name="Oacute" unicode="&#xd3;" horiz-adv-x="708" d="M356 712 C143 712 55 534 55 352 C55 116 168 -12 356 -12 C529 -12 653 124 653 352 C653 568 548 712 356 712 L356 712 Z M168 352 C168 539 243 624 353 624 C470 624 541 553 541 352 C541 148 451 79 356 79 C259 79 168 159 168 352 L168 352 Z M278 809 C272 808 269 804 270 798 L277 751 C278 745 282 743 288 744 L546 786 C552 787 554 791 553 797 L544 860 C543 866 538 868 532 867 L278 809 Z " />
<glyph glyph-name="Ocircumflex" unicode="&#xd4;" horiz-adv-x="708" d="M356 712 C143 712 55 534 55 352 C55 116 168 -12 356 -12 C529 -12 653 124 653 352 C653 568 548 712 356 712 L356 712 Z M168 352 C168 539 243 624 353 624 C470 624 541 553 541 352 C541 148 451 79 356 79 C259 79 168 159 168 352 L168 352 Z M444 855 C440 859 437 860 431 860 L284 860 C278 860 275 859 271 855 L187 760 C182 755 185 750 191 750 L266 750 C274 750 279 751 285 757 L353 826 L419 757 C424 751 429 750 437 750 L523 750 C529 750 531 756 527 760 L444 855 Z " />
<glyph glyph-name="Otilde" unicode="&#xd5;" horiz-adv-x="708" d="M356 712 C143 712 55 534 55 352 C55 116 168 -12 356 -12 C529 -12 653 124 653 352 C653 568 548 712 356 712 L356 712 Z M168 352 C168 539 243 624 353 624 C470 624 541 553 541 352 C541 148 451 79 356 79 C259 79 168 159 168 352 L168 352 Z M216 745 C223 745 226 748 227 754 C230 778 250 792 278 792 C331 792 394 745 468 745 C522 745 571 778 571 849 C571 854 569 859 563 859 L527 859 C521 859 518 856 517 849 C513 823 490 815 467 815 C413 815 349 862 278 862 C206 862 174 811 174 755 C174 749 178 745 184 745 L216 745 Z " />
<glyph glyph-name="Odieresis" unicode="&#xd6;" horiz-adv-x="708" d="M356 712 C143 712 55 534 55 352 C55 116 168 -12 356 -12 C529 -12 653 124 653 352 C653 568 548 712 356 712 L356 712 Z M168 352 C168 539 243 624 353 624 C470 624 541 553 541 352 C541 148 451 79 356 79 C259 79 168 159 168 352 L168 352 Z M266 753 C293 753 316 767 316 803 C316 840 294 853 265 853 C235 853 213 840 213 803 C213 766 239 753 266 753 L266 753 Z M445 753 C472 753 495 767 495 803 C495 840 473 853 444 853 C414 853 392 840 392 803 C392 766 418 753 445 753 L445 753 Z " />
<glyph glyph-name="multiply" unicode="&#xd7;" horiz-adv-x="552" d="M86 400 C82 396 82 390 86 386 L221 251 L86 116 C82 112 82 106 86 102 C86 102 122 66 126 61 C130 57 136 57 140 61 L275 196 L411 61 C415 57 421 57 425 61 C425 61 461 97 466 101 C470 105 470 111 466 115 L330 251 L466 387 C470 391 470 397 466 401 L425 441 C421 445 415 445 411 441 L275 305 L140 441 C136 445 130 445 126 441 L86 400 Z " />
<glyph glyph-name="Oslash" unicode="&#xd8;" horiz-adv-x="715" d="M350 712 C137 712 49 534 49 352 C49 240 74 152 121 91 L42 -11 C39 -16 41 -20 45 -20 L103 -20 C108 -20 111 -17 115 -12 L162 49 C211 8 274 -12 350 -12 C523 -12 647 124 647 352 C647 450 625 533 584 594 C637 663 674 711 674 711 C676 717 673 719 667 719 L610 719 C605 719 604 716 600 711 L545 640 C497 686 431 712 350 712 L350 712 Z M162 352 C162 539 237 624 347 624 C406 624 453 606 485 563 L194 185 C174 227 162 282 162 352 L162 352 Z M515 505 C528 465 535 415 535 352 C535 148 445 79 350 79 C305 79 261 96 227 133 C310 240 423 385 515 505 L515 505 Z " />
<glyph glyph-name="Ugrave" unicode="&#xd9;" horiz-adv-x="654" d="M204 641 C204 681 189 700 149 700 L18 700 C12 700 10 696 10 690 L10 634 C10 628 13 626 19 626 L99 623 L99 245 C99 40 217 -12 341 -12 C465 -12 589 40 589 245 L589 690 C589 696 586 700 580 700 L499 700 C494 700 489 696 489 690 L489 246 C489 168 467 77 341 77 C241 77 204 168 204 246 L204 641 Z M193 866 C187 867 182 865 181 859 L172 796 C171 790 173 786 179 785 L437 743 C443 742 447 744 448 750 L455 797 C456 803 453 807 447 808 L193 866 Z " />
<glyph glyph-name="Uacute" unicode="&#xda;" horiz-adv-x="654" d="M204 641 C204 681 189 700 149 700 L18 700 C12 700 10 696 10 690 L10 634 C10 628 13 626 19 626 L99 623 L99 245 C99 40 217 -12 341 -12 C465 -12 589 40 589 245 L589 690 C589 696 586 700 580 700 L499 700 C494 700 489 696 489 690 L489 246 C489 168 467 77 341 77 C241 77 204 168 204 246 L204 641 Z M279 809 C273 808 270 804 271 798 L278 751 C279 745 283 743 289 744 L547 786 C553 787 555 791 554 797 L545 860 C544 866 539 868 533 867 L279 809 Z " />
<glyph glyph-name="Ucircumflex" unicode="&#xdb;" horiz-adv-x="654" d="M204 641 C204 681 189 700 149 700 L18 700 C12 700 10 696 10 690 L10 634 C10 628 13 626 19 626 L99 623 L99 245 C99 40 217 -12 341 -12 C465 -12 589 40 589 245 L589 690 C589 696 586 700 580 700 L499 700 C494 700 489 696 489 690 L489 246 C489 168 467 77 341 77 C241 77 204 168 204 246 L204 641 Z M433 855 C429 859 426 860 420 860 L273 860 C267 860 264 859 260 855 L176 760 C171 755 174 750 180 750 L255 750 C263 750 268 751 274 757 L342 826 L408 757 C413 751 418 750 426 750 L512 750 C518 750 520 756 516 760 L433 855 Z " />
<glyph glyph-name="Udieresis" unicode="&#xdc;" horiz-adv-x="654" d="M204 641 C204 681 189 700 149 700 L18 700 C12 700 10 696 10 690 L10 634 C10 628 13 626 19 626 L99 623 L99 245 C99 40 217 -12 341 -12 C465 -12 589 40 589 245 L589 690 C589 696 586 700 580 700 L499 700 C494 700 489 696 489 690 L489 246 C489 168 467 77 341 77 C241 77 204 168 204 246 L204 641 Z M252 753 C279 753 302 767 302 803 C302 840 280 853 251 853 C221 853 199 840 199 803 C199 766 225 753 252 753 L252 753 Z M431 753 C458 753 481 767 481 803 C481 840 459 853 430 853 C400 853 378 840 378 803 C378 766 404 753 431 753 L431 753 Z " />
<glyph glyph-name="Yacute" unicode="&#xdd;" horiz-adv-x="553" d="M165 659 C148 688 135 700 96 700 L-7 700 C-13 700 -15 696 -15 690 L-15 635 C-15 629 -12 625 -6 625 L60 623 L241 296 L241 10 C241 4 245 0 251 0 L336 0 C342 0 346 4 346 10 L346 296 L556 690 C559 696 556 700 550 700 L455 700 C448 700 445 696 442 690 L303 395 L297 395 L165 659 Z M234 809 C228 808 225 804 226 798 L233 751 C234 745 238 743 244 744 L502 786 C508 787 510 791 509 797 L500 860 C499 866 494 868 488 867 L234 809 Z " />
<glyph glyph-name="Thorn" unicode="&#xde;" horiz-adv-x="598" d="M134 77 L55 74 C49 74 45 70 45 64 L45 10 C45 4 49 0 55 0 L318 0 C324 0 328 4 328 10 L328 64 C328 70 324 74 318 74 L239 77 L239 166 L363 166 C491 166 573 244 573 368 C573 494 495 554 365 554 L239 554 L239 623 L318 626 C324 626 328 630 328 636 L328 690 C328 696 324 700 318 700 L55 700 C49 700 45 696 45 690 L45 636 C45 630 49 626 55 626 L134 623 L134 77 Z M345 477 C441 477 472 432 472 364 C472 296 434 239 348 239 L239 239 L239 477 L345 477 Z " />
<glyph glyph-name="germandbls" unicode="&#xdf;" horiz-adv-x="619" d="M104 510 L49 510 C43 510 39 506 39 500 L39 451 C39 445 43 440 49 440 L104 437 L104 -50 C104 -99 80 -125 45 -133 C39 -135 37 -141 38 -148 L48 -195 C49 -199 51 -208 61 -208 C153 -208 204 -146 204 -48 L204 543 C204 640 256 689 327 689 C381 689 422 658 422 614 C422 510 305 505 305 397 C305 249 472 278 472 155 C472 106 435 66 372 66 C341 66 317 74 288 87 C281 90 274 92 271 83 L252 36 C249 27 254 25 262 20 C276 11 328 -12 375 -12 C503 -12 574 75 574 167 C574 323 397 321 397 403 C397 463 516 492 516 610 C516 690 462 762 318 762 C179 762 104 656 104 548 L104 510 Z " />
<glyph glyph-name="agrave" unicode="&#xe0;" horiz-adv-x="513" d="M475 62 C474 71 469 72 461 70 C434 64 417 66 417 95 L417 372 C417 437 392 522 244 522 C185 522 113 500 74 485 C68 483 65 477 68 470 L89 414 C90 411 93 403 104 408 C133 420 193 439 232 439 C314 439 321 382 321 324 L321 310 C283 268 40 288 40 130 C40 44 102 -12 181 -12 C250 -12 308 43 326 73 C331 18 365 -12 411 -12 C433 -12 455 -5 473 3 C479 6 484 8 482 19 L475 62 Z M320 131 C302 97 255 70 213 70 C182 70 145 87 145 139 C145 229 282 219 320 247 L320 131 Z M174 586 C178 580 183 576 189 576 L262 576 C268 576 270 581 267 586 L180 724 C175 732 170 734 164 734 L76 734 C70 734 68 728 71 724 L174 586 Z " />
<glyph glyph-name="aacute" unicode="&#xe1;" horiz-adv-x="513" d="M475 62 C474 71 469 72 461 70 C434 64 417 66 417 95 L417 372 C417 437 392 522 244 522 C185 522 113 500 74 485 C68 483 65 477 68 470 L89 414 C90 411 93 403 104 408 C133 420 193 439 232 439 C314 439 321 382 321 324 L321 310 C283 268 40 288 40 130 C40 44 102 -12 181 -12 C250 -12 308 43 326 73 C331 18 365 -12 411 -12 C433 -12 455 -5 473 3 C479 6 484 8 482 19 L475 62 Z M320 131 C302 97 255 70 213 70 C182 70 145 87 145 139 C145 229 282 219 320 247 L320 131 Z M398 724 C401 728 399 734 393 734 L300 734 C294 734 289 732 284 724 L197 586 C194 581 196 576 202 576 L278 576 C284 576 289 580 293 586 L398 724 Z " />
<glyph glyph-name="acircumflex" unicode="&#xe2;" horiz-adv-x="513" d="M475 62 C474 71 469 72 461 70 C434 64 417 66 417 95 L417 372 C417 437 392 522 244 522 C185 522 113 500 74 485 C68 483 65 477 68 470 L89 414 C90 411 93 403 104 408 C133 420 193 439 232 439 C314 439 321 382 321 324 L321 310 C283 268 40 288 40 130 C40 44 102 -12 181 -12 C250 -12 308 43 326 73 C331 18 365 -12 411 -12 C433 -12 455 -5 473 3 C479 6 484 8 482 19 L475 62 Z M320 131 C302 97 255 70 213 70 C182 70 145 87 145 139 C145 229 282 219 320 247 L320 131 Z M287 718 C284 722 281 723 275 723 L212 723 C206 723 203 722 200 718 L93 575 C90 571 92 565 98 565 L156 565 C165 565 170 568 175 575 L240 662 L305 575 C310 569 315 565 324 565 L385 565 C391 565 393 570 390 575 L287 718 Z " />
<glyph glyph-name="atilde" unicode="&#xe3;" horiz-adv-x="513" d="M475 62 C474 71 469 72 461 70 C434 64 417 66 417 95 L417 372 C417 437 392 522 244 522 C185 522 113 500 74 485 C68 483 65 477 68 470 L89 414 C90 411 93 403 104 408 C133 420 193 439 232 439 C314 439 321 382 321 324 L321 310 C283 268 40 288 40 130 C40 44 102 -12 181 -12 C250 -12 308 43 326 73 C331 18 365 -12 411 -12 C433 -12 455 -5 473 3 C479 6 484 8 482 19 L475 62 Z M320 131 C302 97 255 70 213 70 C182 70 145 87 145 139 C145 229 282 219 320 247 L320 131 Z M93 563 C100 563 103 566 104 572 C107 596 127 609 155 609 C208 609 271 563 345 563 C399 563 441 599 441 669 C441 674 439 679 433 679 L402 679 C396 679 393 676 392 669 C388 643 366 633 343 633 C289 633 226 681 155 681 C83 681 50 629 50 573 C50 567 54 563 60 563 L93 563 Z " />
<glyph glyph-name="adieresis" unicode="&#xe4;" horiz-adv-x="513" d="M475 62 C474 71 469 72 461 70 C434 64 417 66 417 95 L417 372 C417 437 392 522 244 522 C185 522 113 500 74 485 C68 483 65 477 68 470 L89 414 C90 411 93 403 104 408 C133 420 193 439 232 439 C314 439 321 382 321 324 L321 310 C283 268 40 288 40 130 C40 44 102 -12 181 -12 C250 -12 308 43 326 73 C331 18 365 -12 411 -12 C433 -12 455 -5 473 3 C479 6 484 8 482 19 L475 62 Z M320 131 C302 97 255 70 213 70 C182 70 145 87 145 139 C145 229 282 219 320 247 L320 131 Z M144 606 C171 606 193 622 193 658 C193 694 171 710 144 710 C114 710 93 693 93 658 C93 622 118 606 144 606 L144 606 Z M336 606 C362 606 384 622 384 658 C384 693 362 710 336 710 C305 710 284 693 284 658 C284 622 309 606 336 606 L336 606 Z " />
<glyph glyph-name="aring" unicode="&#xe5;" horiz-adv-x="513" d="M475 62 C474 71 469 72 461 70 C434 64 417 66 417 95 L417 372 C417 437 392 522 244 522 C185 522 113 500 74 485 C68 483 65 477 68 470 L89 414 C90 411 93 403 104 408 C133 420 193 439 232 439 C314 439 321 382 321 324 L321 310 C283 268 40 288 40 130 C40 44 102 -12 181 -12 C250 -12 308 43 326 73 C331 18 365 -12 411 -12 C433 -12 455 -5 473 3 C479 6 484 8 482 19 L475 62 Z M320 131 C302 97 255 70 213 70 C182 70 145 87 145 139 C145 229 282 219 320 247 L320 131 Z M238 552 C300 552 350 601 350 663 C350 725 300 774 238 774 C176 774 127 725 127 663 C127 603 177 552 238 552 L238 552 Z M238 718 C269 718 292 695 292 663 C292 631 269 608 238 608 C208 608 184 631 184 663 C184 695 208 718 238 718 L238 718 Z " />
<glyph glyph-name="ae" unicode="&#xe6;" horiz-adv-x="770" d="M726 298 C727 304 727 311 727 323 C727 425 663 522 538 522 C468 522 423 490 391 451 C374 490 334 522 244 522 C185 522 113 500 74 485 C68 483 65 477 68 470 L89 414 C90 411 93 403 104 408 C133 420 193 439 232 439 C314 439 321 382 321 324 L321 310 C283 268 40 288 40 130 C40 39 102 -12 181 -12 C288 -12 336 59 351 94 C386 29 450 -12 551 -12 C617 -12 694 22 720 43 C725 47 725 50 723 55 L706 98 C704 103 700 104 693 101 C666 89 613 67 567 67 C497 67 431 119 424 206 L713 285 C720 287 725 292 726 298 L726 298 Z M620 326 L419 269 C419 390 465 453 529 453 C597 453 623 391 623 331 L620 326 Z M320 159 C309 97 260 69 213 69 C177 69 143 87 143 139 C143 229 282 219 320 247 L320 159 Z " />
<glyph glyph-name="ccedilla" unicode="&#xe7;" horiz-adv-x="501" d="M225 -90 C224 -99 228 -103 237 -104 C275 -108 302 -116 302 -139 C302 -168 256 -175 198 -175 C192 -175 190 -179 191 -185 L196 -217 C197 -223 199 -225 205 -225 C330 -224 386 -192 386 -135 C386 -90 346 -72 288 -68 L295 -14 L295 -12 C374 -9 436 25 461 45 C466 49 466 52 464 57 L447 97 C445 102 441 103 434 100 C407 88 375 68 306 68 C238 68 158 119 158 256 C158 366 199 450 302 450 C330 450 346 446 358 442 L372 359 C373 353 376 349 382 349 L435 349 C443 349 445 353 445 359 L450 475 C450 484 449 492 438 497 C416 507 368 522 295 522 C155 522 50 413 50 255 C50 114 112 12 237 -8 L225 -90 Z " />
<glyph glyph-name="egrave" unicode="&#xe8;" horiz-adv-x="504" d="M285 -12 C351 -12 428 22 454 43 C459 47 459 50 457 55 L440 101 C438 106 434 107 427 104 C400 92 347 70 301 70 C218 70 160 134 156 221 L447 298 C454 300 459 305 460 311 C461 317 461 324 461 336 C461 436 402 522 272 522 C144 522 50 424 50 255 C50 118 116 -12 285 -12 L285 -12 Z M151 287 C151 408 211 453 267 453 C327 453 361 404 361 351 C361 346 361 341 361 341 L151 287 Z M210 586 C214 580 219 576 225 576 L298 576 C304 576 306 581 303 586 L216 724 C211 732 206 734 200 734 L112 734 C106 734 104 728 107 724 L210 586 Z " />
<glyph glyph-name="eacute" unicode="&#xe9;" horiz-adv-x="504" d="M285 -12 C351 -12 428 22 454 43 C459 47 459 50 457 55 L440 101 C438 106 434 107 427 104 C400 92 347 70 301 70 C218 70 160 134 156 221 L447 298 C454 300 459 305 460 311 C461 317 461 324 461 336 C461 436 402 522 272 522 C144 522 50 424 50 255 C50 118 116 -12 285 -12 L285 -12 Z M151 287 C151 408 211 453 267 453 C327 453 361 404 361 351 C361 346 361 341 361 341 L151 287 Z M437 724 C440 728 438 734 432 734 L339 734 C333 734 328 732 323 724 L236 586 C233 581 235 576 241 576 L317 576 C323 576 328 580 332 586 L437 724 Z " />
<glyph glyph-name="ecircumflex" unicode="&#xea;" horiz-adv-x="504" d="M285 -12 C351 -12 428 22 454 43 C459 47 459 50 457 55 L440 101 C438 106 434 107 427 104 C400 92 347 70 301 70 C218 70 160 134 156 221 L447 298 C454 300 459 305 460 311 C461 317 461 324 461 336 C461 436 402 522 272 522 C144 522 50 424 50 255 C50 118 116 -12 285 -12 L285 -12 Z M151 287 C151 408 211 453 267 453 C327 453 361 404 361 351 C361 346 361 341 361 341 L151 287 Z M311 719 C308 723 305 724 299 724 L236 724 C230 724 227 723 224 719 L117 576 C114 572 116 566 122 566 L180 566 C189 566 194 569 199 576 L264 663 L329 576 C334 570 339 566 348 566 L409 566 C415 566 417 571 414 576 L311 719 Z " />
<glyph glyph-name="edieresis" unicode="&#xeb;" horiz-adv-x="504" d="M285 -12 C351 -12 428 22 454 43 C459 47 459 50 457 55 L440 101 C438 106 434 107 427 104 C400 92 347 70 301 70 C218 70 160 134 156 221 L447 298 C454 300 459 305 460 311 C461 317 461 324 461 336 C461 436 402 522 272 522 C144 522 50 424 50 255 C50 118 116 -12 285 -12 L285 -12 Z M151 287 C151 408 211 453 267 453 C327 453 361 404 361 351 C361 346 361 341 361 341 L151 287 Z M162 606 C189 606 211 622 211 658 C211 694 189 710 162 710 C132 710 111 693 111 658 C111 622 136 606 162 606 L162 606 Z M354 606 C380 606 402 622 402 658 C402 693 380 710 354 710 C323 710 302 693 302 658 C302 622 327 606 354 606 L354 606 Z " />
<glyph glyph-name="igrave" unicode="&#xec;" horiz-adv-x="270" d="M197 457 C197 487 180 511 137 511 L37 511 C31 511 29 508 29 502 L29 448 C29 442 32 440 38 439 L96 433 L96 10 C96 4 100 0 106 0 L187 0 C193 0 197 4 197 10 L197 457 Z M84 586 C88 580 93 576 99 576 L172 576 C178 576 180 581 177 586 L90 724 C85 732 80 734 74 734 L-14 734 C-20 734 -22 728 -19 724 L84 586 Z " />
<glyph glyph-name="iacute" unicode="&#xed;" horiz-adv-x="278" d="M193 457 C193 487 176 511 133 511 L33 511 C27 511 25 508 25 502 L25 448 C25 442 28 440 34 439 L92 433 L92 10 C92 4 96 0 102 0 L183 0 C189 0 193 4 193 10 L193 457 Z M285 724 C288 728 286 734 280 734 L187 734 C181 734 176 732 171 724 L84 586 C81 581 83 576 89 576 L165 576 C171 576 176 580 180 586 L285 724 Z " />
<glyph glyph-name="icircumflex" unicode="&#xee;" horiz-adv-x="293" d="M197 457 C197 487 180 511 137 511 L37 511 C31 511 29 508 29 502 L29 448 C29 442 32 440 38 439 L96 433 L96 10 C96 4 100 0 106 0 L187 0 C193 0 197 4 197 10 L197 457 Z M172 719 C169 723 166 724 160 724 L97 724 C91 724 88 723 85 719 L-22 576 C-25 572 -23 566 -17 566 L41 566 C50 566 55 569 60 576 L125 663 L190 576 C195 570 200 566 209 566 L270 566 C276 566 278 571 275 576 L172 719 Z " />
<glyph glyph-name="idieresis" unicode="&#xef;" horiz-adv-x="277" d="M196 457 C196 487 179 511 136 511 L36 511 C30 511 28 508 28 502 L28 448 C28 442 31 440 37 439 L95 433 L95 10 C95 4 99 0 105 0 L186 0 C192 0 196 4 196 10 L196 457 Z M34 606 C61 606 83 622 83 658 C83 694 61 710 34 710 C4 710 -17 693 -17 658 C-17 622 8 606 34 606 L34 606 Z M226 606 C252 606 274 622 274 658 C274 693 252 710 226 710 C195 710 174 693 174 658 C174 622 199 606 226 606 L226 606 Z " />
<glyph glyph-name="eth" unicode="&#xf0;" horiz-adv-x="572" d="M455 757 C453 762 448 763 442 760 L343 703 C317 730 296 748 285 757 C279 762 275 761 269 757 L224 714 C218 710 216 706 222 700 C230 692 246 679 265 658 L180 609 C175 606 174 601 177 596 C177 596 193 564 197 558 C199 553 204 552 210 555 L304 609 C324 580 345 546 363 505 C343 515 317 522 285 522 C135 522 48 389 48 258 C48 126 126 -12 283 -12 C423 -12 520 98 520 283 L520 285 C519 443 448 571 383 655 L472 706 C477 709 478 714 475 719 L455 757 Z M414 258 C414 132 360 61 284 61 C196 61 152 153 152 258 C152 363 195 449 283 449 C337 449 373 429 395 412 C407 366 414 315 414 258 L414 258 Z " />
<glyph glyph-name="ntilde" unicode="&#xf1;" horiz-adv-x="634" d="M388 522 C305 522 233 476 203 447 C203 476 196 511 145 511 L41 511 C35 511 33 508 33 502 L33 448 C33 442 36 440 42 439 L101 434 L101 10 C101 4 105 0 111 0 L192 0 C198 0 202 4 202 10 L202 393 C230 409 284 434 338 434 C425 434 429 375 429 342 L429 59 C429 19 445 0 485 0 L589 0 C595 0 597 3 597 9 L598 58 C598 64 595 66 589 67 L529 77 L529 367 C529 448 497 522 388 522 L388 522 Z M179 565 C186 565 189 568 190 574 C193 598 213 611 241 611 C294 611 357 565 431 565 C485 565 527 601 527 671 C527 676 525 681 519 681 L488 681 C482 681 479 678 478 671 C474 645 452 635 429 635 C375 635 312 683 241 683 C169 683 136 631 136 575 C136 569 140 565 146 565 L179 565 Z " />
<glyph glyph-name="ograve" unicode="&#xf2;" horiz-adv-x="576" d="M290 -12 C460 -12 526 107 526 255 C526 396 459 522 289 522 C119 522 50 396 50 255 C50 107 120 -12 290 -12 L290 -12 Z M290 61 C202 61 158 148 158 255 C158 370 201 449 289 449 C377 449 419 370 419 255 C419 150 378 61 290 61 L290 61 Z M234 586 C238 580 243 576 249 576 L322 576 C328 576 330 581 327 586 L240 724 C235 732 230 734 224 734 L136 734 C130 734 128 728 131 724 L234 586 Z " />
<glyph glyph-name="oacute" unicode="&#xf3;" horiz-adv-x="576" d="M290 -12 C460 -12 526 107 526 255 C526 396 459 522 289 522 C119 522 50 396 50 255 C50 107 120 -12 290 -12 L290 -12 Z M290 61 C202 61 158 148 158 255 C158 370 201 449 289 449 C377 449 419 370 419 255 C419 150 378 61 290 61 L290 61 Z M448 724 C451 728 449 734 443 734 L350 734 C344 734 339 732 334 724 L247 586 C244 581 246 576 252 576 L328 576 C334 576 339 580 343 586 L448 724 Z " />
<glyph glyph-name="ocircumflex" unicode="&#xf4;" horiz-adv-x="576" d="M290 -12 C460 -12 526 107 526 255 C526 396 459 522 289 522 C119 522 50 396 50 255 C50 107 120 -12 290 -12 L290 -12 Z M290 61 C202 61 158 148 158 255 C158 370 201 449 289 449 C377 449 419 370 419 255 C419 150 378 61 290 61 L290 61 Z M332 719 C329 723 326 724 320 724 L257 724 C251 724 248 723 245 719 L138 576 C135 572 137 566 143 566 L201 566 C210 566 215 569 220 576 L285 663 L350 576 C355 570 360 566 369 566 L430 566 C436 566 438 571 435 576 L332 719 Z " />
<glyph glyph-name="otilde" unicode="&#xf5;" horiz-adv-x="576" d="M290 -12 C460 -12 526 107 526 255 C526 396 459 522 289 522 C119 522 50 396 50 255 C50 107 120 -12 290 -12 L290 -12 Z M290 61 C202 61 158 148 158 255 C158 370 201 449 289 449 C377 449 419 370 419 255 C419 150 378 61 290 61 L290 61 Z M142 563 C149 563 152 566 153 572 C156 596 176 609 204 609 C257 609 320 563 394 563 C448 563 490 599 490 669 C490 674 488 679 482 679 L451 679 C445 679 442 676 441 669 C437 643 415 633 392 633 C338 633 275 681 204 681 C132 681 99 629 99 573 C99 567 103 563 109 563 L142 563 Z " />
<glyph glyph-name="odieresis" unicode="&#xf6;" horiz-adv-x="576" d="M290 -12 C460 -12 526 107 526 255 C526 396 459 522 289 522 C119 522 50 396 50 255 C50 107 120 -12 290 -12 L290 -12 Z M290 61 C202 61 158 148 158 255 C158 370 201 449 289 449 C377 449 419 370 419 255 C419 150 378 61 290 61 L290 61 Z M181 606 C208 606 230 622 230 658 C230 694 208 710 181 710 C151 710 130 693 130 658 C130 622 155 606 181 606 L181 606 Z M373 606 C399 606 421 622 421 658 C421 693 399 710 373 710 C342 710 321 693 321 658 C321 622 346 606 373 606 L373 606 Z " />
<glyph glyph-name="divide" unicode="&#xf7;" horiz-adv-x="593" d="M513 292 C513 298 509 302 503 302 L103 302 C97 302 93 298 93 292 C93 292 93 241 93 235 C93 229 97 225 103 225 L503 225 C509 225 513 229 513 235 L513 292 Z M313 36 C342 36 368 54 368 94 C368 135 342 153 313 153 C279 153 255 135 255 94 C255 54 283 36 313 36 L313 36 Z M313 377 C342 377 368 395 368 435 C368 476 342 494 313 494 C279 494 255 476 255 435 C255 395 283 377 313 377 L313 377 Z " />
<glyph glyph-name="oslash" unicode="&#xf8;" horiz-adv-x="602" d="M301 -12 C471 -12 537 107 537 255 C537 330 518 400 474 450 C509 500 536 540 536 540 C539 545 538 549 532 549 L465 549 C460 549 457 547 453 541 L420 494 C388 511 348 522 300 522 C130 522 61 396 61 255 C61 178 80 109 122 60 L58 -32 C55 -37 57 -41 61 -41 L129 -41 C134 -41 137 -38 141 -33 L176 16 C209 -2 251 -12 301 -12 L301 -12 Z M301 61 C270 61 246 71 226 89 C281 169 352 273 414 362 C425 332 430 296 430 255 C430 150 389 61 301 61 L301 61 Z M169 255 C169 370 212 449 300 449 C329 449 353 440 372 424 L185 152 C174 182 169 217 169 255 L169 255 Z " />
<glyph glyph-name="ugrave" unicode="&#xf9;" horiz-adv-x="590" d="M245 -12 C341 -12 398 49 415 76 C420 21 454 -12 500 -12 C522 -12 544 -5 562 3 C568 6 573 8 571 19 L564 62 C563 71 558 72 550 70 C523 64 506 66 506 95 L506 501 C506 507 502 511 496 511 L416 511 C410 511 406 507 406 501 L406 150 C400 110 336 71 289 71 C202 71 194 130 194 163 L194 457 C194 493 187 511 147 511 L33 511 C27 511 25 508 25 502 L25 448 C25 442 28 440 34 439 L93 434 L93 143 C93 62 136 -12 245 -12 L245 -12 Z M234 586 C238 580 243 576 249 576 L322 576 C328 576 330 581 327 586 L240 724 C235 732 230 734 224 734 L136 734 C130 734 128 728 131 724 L234 586 Z " />
<glyph glyph-name="uacute" unicode="&#xfa;" horiz-adv-x="590" d="M245 -12 C341 -12 398 49 415 76 C420 21 454 -12 500 -12 C522 -12 544 -5 562 3 C568 6 573 8 571 19 L564 62 C563 71 558 72 550 70 C523 64 506 66 506 95 L506 501 C506 507 502 511 496 511 L416 511 C410 511 406 507 406 501 L406 150 C400 110 336 71 289 71 C202 71 194 130 194 163 L194 457 C194 493 187 511 147 511 L33 511 C27 511 25 508 25 502 L25 448 C25 442 28 440 34 439 L93 434 L93 143 C93 62 136 -12 245 -12 L245 -12 Z M454 724 C457 728 455 734 449 734 L356 734 C350 734 345 732 340 724 L253 586 C250 581 252 576 258 576 L334 576 C340 576 345 580 349 586 L454 724 Z " />
<glyph glyph-name="ucircumflex" unicode="&#xfb;" horiz-adv-x="590" d="M245 -12 C341 -12 398 49 415 76 C420 21 454 -12 500 -12 C522 -12 544 -5 562 3 C568 6 573 8 571 19 L564 62 C563 71 558 72 550 70 C523 64 506 66 506 95 L506 501 C506 507 502 511 496 511 L416 511 C410 511 406 507 406 501 L406 150 C400 110 336 71 289 71 C202 71 194 130 194 163 L194 457 C194 493 187 511 147 511 L33 511 C27 511 25 508 25 502 L25 448 C25 442 28 440 34 439 L93 434 L93 143 C93 62 136 -12 245 -12 L245 -12 Z M333 718 C330 722 327 723 321 723 L258 723 C252 723 249 722 246 718 L139 575 C136 571 138 565 144 565 L202 565 C211 565 216 568 221 575 L286 662 L351 575 C356 569 361 565 370 565 L431 565 C437 565 439 570 436 575 L333 718 Z " />
<glyph glyph-name="udieresis" unicode="&#xfc;" horiz-adv-x="590" d="M245 -12 C341 -12 398 49 415 76 C420 21 454 -12 500 -12 C522 -12 544 -5 562 3 C568 6 573 8 571 19 L564 62 C563 71 558 72 550 70 C523 64 506 66 506 95 L506 501 C506 507 502 511 496 511 L416 511 C410 511 406 507 406 501 L406 150 C400 110 336 71 289 71 C202 71 194 130 194 163 L194 457 C194 493 187 511 147 511 L33 511 C27 511 25 508 25 502 L25 448 C25 442 28 440 34 439 L93 434 L93 143 C93 62 136 -12 245 -12 L245 -12 Z M204 606 C231 606 253 622 253 658 C253 694 231 710 204 710 C174 710 153 693 153 658 C153 622 178 606 204 606 L204 606 Z M396 606 C422 606 444 622 444 658 C444 693 422 710 396 710 C365 710 344 693 344 658 C344 622 369 606 396 606 L396 606 Z " />
<glyph glyph-name="yacute" unicode="&#xfd;" horiz-adv-x="504" d="M493 501 C495 507 492 511 485 511 L403 511 C397 511 395 508 393 501 L275 77 L257 77 L144 457 C134 492 125 511 85 511 L-12 511 C-18 511 -20 508 -20 502 L-20 448 C-20 442 -17 439 -11 439 L47 434 L183 17 C186 8 193 0 202 0 L254 0 C240 -68 208 -139 137 -139 C107 -139 84 -133 75 -131 C68 -129 64 -134 63 -139 L54 -184 C52 -192 52 -195 59 -199 C78 -208 103 -216 145 -216 C279 -216 324 -46 345 19 L493 501 Z M411 724 C414 728 412 734 406 734 L313 734 C307 734 302 732 297 724 L210 586 C207 581 209 576 215 576 L291 576 C297 576 302 580 306 586 L411 724 Z " />
<glyph glyph-name="thorn" unicode="&#xfe;" horiz-adv-x="592" d="M356 522 C295 522 226 488 189 455 L189 688 C189 722 169 750 128 750 L23 750 C17 750 15 747 15 741 L15 687 C15 681 18 678 24 678 L89 673 L89 -198 C89 -204 93 -208 99 -208 L180 -208 C186 -208 190 -204 190 -198 L190 26 C213 5 249 -12 301 -12 C454 -12 542 104 542 259 C542 404 495 522 356 522 L356 522 Z M296 58 C257 58 215 68 190 85 L190 400 C212 413 257 439 316 439 C413 439 433 360 433 270 C433 149 391 58 296 58 L296 58 Z " />
<glyph glyph-name="ydieresis" unicode="&#xff;" horiz-adv-x="504" d="M493 501 C495 507 492 511 485 511 L403 511 C397 511 395 508 393 501 L275 77 L257 77 L144 457 C134 492 125 511 85 511 L-12 511 C-18 511 -20 508 -20 502 L-20 448 C-20 442 -17 439 -11 439 L47 434 L183 17 C186 8 193 0 202 0 L254 0 C240 -68 208 -139 137 -139 C107 -139 84 -133 75 -131 C68 -129 64 -134 63 -139 L54 -184 C52 -192 52 -195 59 -199 C78 -208 103 -216 145 -216 C279 -216 324 -46 345 19 L493 501 Z M159 606 C186 606 208 622 208 658 C208 694 186 710 159 710 C129 710 108 693 108 658 C108 622 133 606 159 606 L159 606 Z M351 606 C377 606 399 622 399 658 C399 693 377 710 351 710 C320 710 299 693 299 658 C299 622 324 606 351 606 L351 606 Z " />
<glyph glyph-name="Amacron" unicode="&#x100;" horiz-adv-x="637" d="M429 652 C422 677 412 700 370 700 L147 700 C141 700 137 696 137 690 L137 635 C137 629 141 626 147 626 L223 623 L51 10 C49 4 52 0 58 0 L138 0 C144 0 149 4 151 10 L196 195 L444 195 L491 10 C493 4 498 0 504 0 L594 0 C600 0 603 4 601 10 L429 652 Z M309 611 L337 611 L424 275 L215 275 L309 611 Z M461 816 C461 823 456 827 449 827 L149 827 C142 827 137 823 137 816 L137 762 C137 755 142 750 149 750 L449 750 C456 750 461 755 461 762 L461 816 Z " />
<glyph glyph-name="amacron" unicode="&#x101;" horiz-adv-x="513" d="M475 62 C474 71 469 72 461 70 C434 64 417 66 417 95 L417 372 C417 437 392 522 244 522 C185 522 113 500 74 485 C68 483 65 477 68 470 L89 414 C90 411 93 403 104 408 C133 420 193 439 232 439 C314 439 321 382 321 324 L321 310 C283 268 40 288 40 130 C40 44 102 -12 181 -12 C250 -12 308 43 326 73 C331 18 365 -12 411 -12 C433 -12 455 -5 473 3 C479 6 484 8 482 19 L475 62 Z M320 131 C302 97 255 70 213 70 C182 70 145 87 145 139 C145 229 282 219 320 247 L320 131 Z M398 677 C398 684 393 688 386 688 L106 688 C99 688 94 684 94 677 L94 623 C94 616 99 611 106 611 L386 611 C393 611 398 616 398 623 L398 677 Z " />
<glyph glyph-name="Abreve" unicode="&#x102;" horiz-adv-x="637" d="M429 652 C422 677 412 700 370 700 L147 700 C141 700 137 696 137 690 L137 635 C137 629 141 626 147 626 L223 623 L51 10 C49 4 52 0 58 0 L138 0 C144 0 149 4 151 10 L196 195 L444 195 L491 10 C493 4 498 0 504 0 L594 0 C600 0 603 4 601 10 L429 652 Z M309 611 L337 611 L424 275 L215 275 L309 611 Z M465 846 C465 854 463 859 456 859 L408 859 C402 859 401 856 396 847 C383 824 361 806 319 806 C278 806 255 822 241 847 C236 856 235 859 229 859 L180 859 C173 859 171 855 171 847 C171 803 221 741 319 741 C403 741 465 796 465 846 L465 846 Z " />
<glyph glyph-name="abreve" unicode="&#x103;" horiz-adv-x="513" d="M475 62 C474 71 469 72 461 70 C434 64 417 66 417 95 L417 372 C417 437 392 522 244 522 C185 522 113 500 74 485 C68 483 65 477 68 470 L89 414 C90 411 93 403 104 408 C133 420 193 439 232 439 C314 439 321 382 321 324 L321 310 C283 268 40 288 40 130 C40 44 102 -12 181 -12 C250 -12 308 43 326 73 C331 18 365 -12 411 -12 C433 -12 455 -5 473 3 C479 6 484 8 482 19 L475 62 Z M320 131 C302 97 255 70 213 70 C182 70 145 87 145 139 C145 229 282 219 320 247 L320 131 Z M398 700 C398 708 396 711 389 711 L341 711 C335 711 332 710 331 700 C323 647 289 622 252 622 C215 622 178 650 172 700 C171 708 168 711 162 711 L113 711 C106 711 104 708 104 700 C104 640 147 557 252 557 C357 557 398 652 398 700 L398 700 Z " />
<glyph glyph-name="Aogonek" unicode="&#x104;" horiz-adv-x="637" d="M429 652 C422 677 412 700 370 700 L147 700 C141 700 137 696 137 690 L137 635 C137 629 141 626 147 626 L223 623 L51 10 C49 4 52 0 58 0 L138 0 C144 0 149 4 151 10 L196 195 L444 195 L491 10 C493 4 498 0 504 0 L517 0 C469 -32 432 -73 432 -126 C432 -182 474 -215 524 -215 C575 -215 607 -191 617 -181 C620 -178 621 -175 620 -171 L614 -149 C613 -145 611 -142 605 -145 C591 -152 577 -154 560 -154 C532 -154 515 -138 515 -106 C515 -72 534 -35 595 -1 C599 1 602 2 602 6 C602 8 600 16 592 46 L429 652 Z M309 611 L337 611 L424 275 L215 275 L309 611 Z " />
<glyph glyph-name="aogonek" unicode="&#x105;" horiz-adv-x="513" d="M482 19 L475 62 C474 71 469 72 461 70 C434 64 417 66 417 95 L417 372 C417 437 392 522 244 522 C185 522 113 500 74 485 C68 483 65 477 68 470 L89 414 C90 411 93 403 104 408 C133 420 193 439 232 439 C314 439 321 382 321 324 L321 310 C283 268 40 288 40 130 C40 44 102 -12 181 -12 C250 -12 308 43 326 73 C330 29 352 1 384 -8 C343 -40 314 -79 314 -127 C314 -183 356 -216 406 -216 C457 -216 489 -192 499 -182 C502 -179 503 -176 502 -172 L496 -150 C495 -146 493 -143 487 -146 C473 -153 459 -155 442 -155 C414 -155 397 -139 397 -107 C397 -73 414 -30 474 3 C481 6 483 12 482 19 L482 19 Z M320 131 C302 97 255 70 213 70 C182 70 145 87 145 139 C145 229 282 219 320 247 L320 131 Z " />
<glyph glyph-name="Cacute" unicode="&#x106;" horiz-adv-x="632" d="M489 516 C489 510 492 506 498 506 L562 506 C568 506 571 510 571 516 L582 655 C583 667 579 675 571 679 C552 689 498 713 392 713 C198 713 55 561 55 349 C55 127 170 -12 379 -12 C481 -12 551 24 581 42 C587 46 588 52 584 58 L563 111 C559 117 554 116 548 114 C520 103 472 83 399 83 C270 83 170 176 170 349 C170 554 287 629 389 629 C448 629 482 613 482 613 L489 516 Z M301 809 C295 808 292 804 293 798 L300 751 C301 745 305 743 311 744 L569 786 C575 787 577 791 576 797 L567 860 C566 866 561 868 555 867 L301 809 Z " />
<glyph glyph-name="cacute" unicode="&#x107;" horiz-adv-x="501" d="M306 68 C238 68 158 119 158 256 C158 366 199 450 302 450 C330 450 346 446 358 442 L372 359 C373 353 376 349 382 349 L435 349 C443 349 445 353 445 359 L450 475 C450 484 449 492 438 497 C416 507 368 522 295 522 C155 522 50 413 50 255 C50 97 128 -12 286 -12 C369 -12 435 24 461 45 C466 49 466 52 464 57 L447 97 C445 102 441 103 434 100 C407 88 375 68 306 68 L306 68 Z M438 724 C441 728 439 734 433 734 L340 734 C334 734 329 732 324 724 L237 586 C234 581 236 576 242 576 L318 576 C324 576 329 580 333 586 L438 724 Z " />
<glyph glyph-name="Cdotaccent" unicode="&#x10a;" horiz-adv-x="632" d="M489 516 C489 510 492 506 498 506 L562 506 C568 506 571 510 571 516 L582 655 C583 667 579 675 571 679 C552 689 498 713 392 713 C198 713 55 561 55 349 C55 127 170 -12 379 -12 C481 -12 551 24 581 42 C587 46 588 52 584 58 L563 111 C559 117 554 116 548 114 C520 103 472 83 399 83 C270 83 170 176 170 349 C170 554 287 629 389 629 C448 629 482 613 482 613 L489 516 Z M403 753 C430 753 453 767 453 803 C453 840 431 853 402 853 C372 853 350 840 350 803 C350 766 376 753 403 753 L403 753 Z " />
<glyph glyph-name="cdotaccent" unicode="&#x10b;" horiz-adv-x="501" d="M306 68 C238 68 158 119 158 256 C158 366 199 450 302 450 C330 450 346 446 358 442 L372 359 C373 353 376 349 382 349 L435 349 C443 349 445 353 445 359 L450 475 C450 484 449 492 438 497 C416 507 368 522 295 522 C155 522 50 413 50 255 C50 97 128 -12 286 -12 C369 -12 435 24 461 45 C466 49 466 52 464 57 L447 97 C445 102 441 103 434 100 C407 88 375 68 306 68 L306 68 Z M292 606 C318 606 341 622 341 658 C341 694 318 710 292 710 C262 710 241 693 241 658 C241 622 266 606 292 606 L292 606 Z " />
<glyph glyph-name="Ccaron" unicode="&#x10c;" horiz-adv-x="632" d="M489 516 C489 510 492 506 498 506 L562 506 C568 506 571 510 571 516 L582 655 C583 667 579 675 571 679 C552 689 498 713 392 713 C198 713 55 561 55 349 C55 127 170 -12 379 -12 C481 -12 551 24 581 42 C587 46 588 52 584 58 L563 111 C559 117 554 116 548 114 C520 103 472 83 399 83 C270 83 170 176 170 349 C170 554 287 629 389 629 C448 629 482 613 482 613 L489 516 Z M560 851 C564 855 562 861 556 861 L470 861 C462 861 457 860 452 854 L386 785 L318 854 C312 860 307 861 299 861 L224 861 C218 861 215 856 220 851 L304 756 C308 752 311 751 317 751 L464 751 C470 751 473 752 477 756 L560 851 Z " />
<glyph glyph-name="ccaron" unicode="&#x10d;" horiz-adv-x="501" d="M306 68 C238 68 158 119 158 256 C158 366 199 450 302 450 C330 450 346 446 358 442 L372 359 C373 353 376 349 382 349 L435 349 C443 349 445 353 445 359 L450 475 C450 484 449 492 438 497 C416 507 368 522 295 522 C155 522 50 413 50 255 C50 97 128 -12 286 -12 C369 -12 435 24 461 45 C466 49 466 52 464 57 L447 97 C445 102 441 103 434 100 C407 88 375 68 306 68 L306 68 Z M250 571 C253 567 256 566 262 566 L326 566 C332 566 335 567 338 571 L441 714 C444 718 442 724 436 724 L375 724 C366 724 361 721 356 714 L291 627 L226 714 C221 720 216 724 207 724 L149 724 C143 724 141 719 144 714 L250 571 Z " />
<glyph glyph-name="Dcaron" unicode="&#x10e;" horiz-adv-x="701" d="M50 700 C44 700 40 696 40 690 L40 636 C40 630 44 626 50 626 L129 623 L129 10 C129 4 133 0 139 0 C198 0 231 0 299 0 C547 0 646 131 646 370 C646 581 522 700 328 700 L50 700 Z M319 622 C469 622 541 516 541 364 C541 146 459 83 311 83 C286 83 254 83 234 83 L234 622 L319 622 Z M515 851 C519 855 517 861 511 861 L425 861 C417 861 412 860 407 854 L341 785 L273 854 C267 860 262 861 254 861 L179 861 C173 861 170 856 175 851 L259 756 C263 752 266 751 272 751 L419 751 C425 751 428 752 432 756 L515 851 Z " />
<glyph glyph-name="dcaron" unicode="&#x10f;" horiz-adv-x="716" d="M552 590 C551 588 550 586 550 583 C550 579 553 576 557 576 L621 576 C627 576 630 577 633 581 L736 724 C739 728 737 734 731 734 L670 734 C661 734 656 731 651 724 L552 590 Z M413 74 C417 19 446 -13 499 -13 C521 -13 548 -7 566 1 C572 4 576 7 575 18 L570 62 C569 71 564 73 556 71 C529 65 504 67 504 95 L504 688 C504 722 484 750 443 750 L338 750 C332 750 330 747 330 741 L330 687 C330 681 333 678 339 678 L404 673 L404 553 L406 507 C377 518 349 522 304 522 C132 522 53 398 51 255 C49 104 119 -12 253 -12 C323 -12 388 31 413 74 L413 74 Z M403 129 C392 107 355 73 287 73 C194 73 158 165 158 256 C158 370 210 457 312 457 C342 457 379 450 403 437 L403 129 Z " />
<glyph glyph-name="Dcroat" unicode="&#x110;" horiz-adv-x="702" d="M51 700 C45 700 41 696 41 690 L41 636 C41 630 45 626 51 626 L130 623 L130 377 L52 377 C45 377 40 373 40 366 L40 315 C40 308 45 303 52 303 L130 303 L130 10 C130 4 134 0 140 0 L300 0 C548 0 647 131 647 370 C647 581 523 700 329 700 L51 700 Z M320 622 C470 622 542 516 542 364 C542 146 460 83 312 83 L235 83 L235 303 L358 303 C365 303 370 308 370 315 L370 366 C370 373 365 377 358 377 L235 377 L235 622 L320 622 Z " />
<glyph glyph-name="dcroat" unicode="&#x111;" horiz-adv-x="603" d="M413 74 C417 19 446 -13 499 -13 C521 -13 548 -7 566 1 C572 4 577 7 575 18 L570 62 C569 71 564 73 556 71 C529 65 504 67 504 95 L504 562 L570 562 C576 562 580 566 580 572 L580 618 C580 624 576 628 570 628 L504 628 L504 688 C504 722 484 750 443 750 L338 750 C332 750 330 747 330 741 L330 687 C330 681 333 678 339 678 L404 673 L404 628 L312 628 C306 628 302 624 302 618 L302 572 C302 566 306 562 312 562 L404 562 L404 553 L406 507 C377 518 349 522 304 522 C132 522 53 398 51 255 C49 104 119 -12 253 -12 C323 -12 388 31 413 74 L413 74 Z M403 129 C392 107 355 73 287 73 C194 73 158 165 158 256 C158 370 210 457 312 457 C342 457 379 450 403 437 L403 129 Z " />
<glyph glyph-name="Emacron" unicode="&#x112;" horiz-adv-x="588" d="M45 700 C39 700 35 696 35 690 L35 636 C35 630 39 626 45 626 L124 623 L124 10 C124 4 128 0 134 0 L517 0 C523 0 527 4 527 10 L527 78 C527 84 524 88 518 88 L229 88 L229 297 L432 297 C438 297 441 301 442 307 L451 367 C451 373 447 377 441 377 L229 377 L229 617 L443 617 L451 517 C451 511 454 507 460 507 L516 507 C522 507 525 511 525 517 L533 689 C533 696 529 700 523 700 L45 700 Z M476 816 C476 823 471 827 464 827 L164 827 C157 827 152 823 152 816 L152 762 C152 755 157 750 164 750 L464 750 C471 750 476 755 476 762 L476 816 Z " />
<glyph glyph-name="emacron" unicode="&#x113;" horiz-adv-x="504" d="M285 -12 C351 -12 428 22 454 43 C459 47 459 50 457 55 L440 101 C438 106 434 107 427 104 C400 92 347 70 301 70 C218 70 160 134 156 221 L447 298 C454 300 459 305 460 311 C461 317 461 324 461 336 C461 436 402 522 272 522 C144 522 50 424 50 255 C50 118 116 -12 285 -12 L285 -12 Z M151 287 C151 408 211 453 267 453 C327 453 361 404 361 351 C361 346 361 341 361 341 L151 287 Z M415 677 C415 684 410 688 403 688 L123 688 C116 688 111 684 111 677 L111 623 C111 616 116 611 123 611 L403 611 C410 611 415 616 415 623 L415 677 Z " />
<glyph glyph-name="Edotaccent" unicode="&#x116;" horiz-adv-x="588" d="M45 700 C39 700 35 696 35 690 L35 636 C35 630 39 626 45 626 L124 623 L124 10 C124 4 128 0 134 0 L517 0 C523 0 527 4 527 10 L527 78 C527 84 524 88 518 88 L229 88 L229 297 L432 297 C438 297 441 301 442 307 L451 367 C451 373 447 377 441 377 L229 377 L229 617 L443 617 L451 517 C451 511 454 507 460 507 L516 507 C522 507 525 511 525 517 L533 689 C533 696 529 700 523 700 L45 700 Z M328 753 C355 753 378 767 378 803 C378 840 356 853 327 853 C297 853 275 840 275 803 C275 766 301 753 328 753 L328 753 Z " />
<glyph glyph-name="edotaccent" unicode="&#x117;" horiz-adv-x="504" d="M285 -12 C351 -12 428 22 454 43 C459 47 459 50 457 55 L440 101 C438 106 434 107 427 104 C400 92 347 70 301 70 C218 70 160 134 156 221 L447 298 C454 300 459 305 460 311 C461 317 461 324 461 336 C461 436 402 522 272 522 C144 522 50 424 50 255 C50 118 116 -12 285 -12 L285 -12 Z M151 287 C151 408 211 453 267 453 C327 453 361 404 361 351 C361 346 361 341 361 341 L151 287 Z M262 606 C288 606 311 622 311 658 C311 694 288 710 262 710 C232 710 211 693 211 658 C211 622 236 606 262 606 L262 606 Z " />
<glyph glyph-name="Eogonek" unicode="&#x118;" horiz-adv-x="588" d="M45 700 C39 700 35 696 35 690 L35 636 C35 630 39 626 45 626 L124 623 L124 10 C124 4 128 0 134 0 L446 0 C397 -32 358 -73 358 -127 C358 -183 400 -216 450 -216 C501 -216 533 -192 543 -182 C546 -179 547 -176 546 -172 L540 -150 C539 -146 537 -143 531 -146 C517 -153 503 -155 486 -155 C458 -155 441 -139 441 -107 C441 -73 459 -36 520 -2 C523 0 527 1 527 6 L527 78 C527 84 524 88 518 88 L229 88 L229 297 L432 297 C438 297 441 301 442 307 L451 367 C451 373 447 377 441 377 L229 377 L229 617 L443 617 L451 517 C451 511 454 507 460 507 L516 507 C522 507 525 511 525 517 L533 689 C533 696 529 700 523 700 L45 700 Z " />
<glyph glyph-name="eogonek" unicode="&#x119;" horiz-adv-x="504" d="M285 -12 C320 -12 347 0 347 0 C347 0 274 -53 274 -127 C274 -183 316 -216 366 -216 C417 -216 449 -192 459 -182 C462 -179 463 -176 462 -172 L456 -150 C455 -146 453 -143 447 -146 C433 -153 419 -155 402 -155 C374 -155 357 -139 357 -107 C357 -57 391 -3 442 34 L454 43 C459 47 459 50 457 55 L440 101 C438 106 434 107 427 104 C400 92 347 70 301 70 C218 70 160 134 156 221 L447 298 C454 300 459 305 460 311 C461 317 461 324 461 336 C461 436 402 522 272 522 C144 522 50 424 50 255 C50 118 116 -12 285 -12 L285 -12 Z M151 287 C151 408 211 453 267 453 C327 453 361 404 361 351 L361 341 L151 287 Z " />
<glyph glyph-name="Ecaron" unicode="&#x11a;" horiz-adv-x="588" d="M45 700 C39 700 35 696 35 690 L35 636 C35 630 39 626 45 626 L124 623 L124 10 C124 4 128 0 134 0 L517 0 C523 0 527 4 527 10 L527 78 C527 84 524 88 518 88 L229 88 L229 297 L432 297 C438 297 441 301 442 307 L451 367 C451 373 447 377 441 377 L229 377 L229 617 L443 617 L451 517 C451 511 454 507 460 507 L516 507 C522 507 525 511 525 517 L533 689 C533 696 529 700 523 700 L45 700 Z M494 851 C498 855 496 861 490 861 L404 861 C396 861 391 860 386 854 L320 785 L252 854 C246 860 241 861 233 861 L158 861 C152 861 149 856 154 851 L238 756 C242 752 245 751 251 751 L398 751 C404 751 407 752 411 756 L494 851 Z " />
<glyph glyph-name="ecaron" unicode="&#x11b;" horiz-adv-x="504" d="M285 -12 C351 -12 428 22 454 43 C459 47 459 50 457 55 L440 101 C438 106 434 107 427 104 C400 92 347 70 301 70 C218 70 160 134 156 221 L447 298 C454 300 459 305 460 311 C461 317 461 324 461 336 C461 436 402 522 272 522 C144 522 50 424 50 255 C50 118 116 -12 285 -12 L285 -12 Z M151 287 C151 408 211 453 267 453 C327 453 361 404 361 351 C361 346 361 341 361 341 L151 287 Z M216 571 C219 567 222 566 228 566 L292 566 C298 566 301 567 304 571 L407 714 C410 718 408 724 402 724 L341 724 C332 724 327 721 322 714 L257 627 L192 714 C187 720 182 724 173 724 L115 724 C109 724 107 719 110 714 L216 571 Z " />
<glyph glyph-name="gcircumflex" unicode="&#x11d;" horiz-adv-x="539" d="M341 508 C314 517 284 522 249 522 C128 522 35 458 35 350 C35 263 80 219 143 189 L90 99 C90 38 135 -7 208 -7 L292 -7 C356 -7 394 -17 394 -63 C394 -105 353 -144 243 -144 C171 -144 133 -120 125 -113 L127 -42 C127 -35 124 -30 116 -30 L60 -30 C53 -30 49 -34 48 -42 L41 -148 C40 -161 47 -167 53 -171 C74 -185 131 -216 239 -216 C410 -216 500 -145 500 -39 C500 45 425 78 349 78 L240 78 C200 78 177 91 177 121 L207 173 C214 172 236 170 247 170 C379 170 451 244 451 349 C451 388 434 417 411 445 L504 432 C511 431 518 432 518 441 L518 498 C518 504 514 508 508 508 L341 508 Z M247 235 C169 235 139 287 139 347 C139 414 179 459 249 459 C321 459 352 412 352 347 C352 282 321 235 247 235 L247 235 Z M300 719 C297 723 294 724 288 724 L225 724 C219 724 216 723 213 719 L106 576 C103 572 105 566 111 566 L169 566 C178 566 183 569 188 576 L253 663 L318 576 C323 570 328 566 337 566 L398 566 C404 566 406 571 403 576 L300 719 Z " />
<glyph glyph-name="Gbreve" unicode="&#x11e;" horiz-adv-x="679" d="M496 515 C497 509 499 505 505 505 L573 505 C579 505 582 509 582 515 L589 654 C590 667 584 676 574 680 C533 696 473 713 400 713 C186 713 55 578 55 349 C55 122 176 -12 395 -12 C516 -12 569 21 598 41 C605 46 614 54 614 73 L614 329 C614 335 610 338 604 338 L386 338 C380 338 378 335 378 329 L377 272 C377 266 380 263 386 263 L522 256 L522 98 C521 98 485 73 396 73 C273 73 168 156 168 349 C168 554 268 627 402 627 C453 627 485 614 485 614 L496 515 Z M515 846 C515 854 513 859 506 859 L458 859 C452 859 451 856 446 847 C433 824 411 806 369 806 C328 806 305 822 291 847 C286 856 285 859 279 859 L230 859 C223 859 221 855 221 847 C221 803 271 741 369 741 C453 741 515 796 515 846 L515 846 Z " />
<glyph glyph-name="gbreve" unicode="&#x11f;" horiz-adv-x="539" d="M341 508 C314 517 284 522 249 522 C128 522 35 458 35 350 C35 263 80 219 143 189 L90 99 C90 38 135 -7 208 -7 L292 -7 C356 -7 394 -17 394 -63 C394 -105 353 -144 243 -144 C171 -144 133 -120 125 -113 L127 -42 C127 -35 124 -30 116 -30 L60 -30 C53 -30 49 -34 48 -42 L41 -148 C40 -161 47 -167 53 -171 C74 -185 131 -216 239 -216 C410 -216 500 -145 500 -39 C500 45 425 78 349 78 L240 78 C200 78 177 91 177 121 L207 173 C214 172 236 170 247 170 C379 170 451 244 451 349 C451 388 434 417 411 445 L504 432 C511 431 518 432 518 441 L518 498 C518 504 514 508 508 508 L341 508 Z M247 235 C169 235 139 287 139 347 C139 414 179 459 249 459 C321 459 352 412 352 347 C352 282 321 235 247 235 L247 235 Z M409 700 C409 708 407 711 400 711 L352 711 C346 711 343 710 342 700 C334 647 300 622 263 622 C226 622 189 650 183 700 C182 708 179 711 173 711 L124 711 C117 711 115 708 115 700 C115 640 158 557 263 557 C368 557 409 652 409 700 L409 700 Z " />
<glyph glyph-name="Gdotaccent" unicode="&#x120;" horiz-adv-x="679" d="M496 515 C497 509 499 505 505 505 L573 505 C579 505 582 509 582 515 L589 654 C590 667 584 676 574 680 C533 696 473 713 400 713 C186 713 55 578 55 349 C55 122 176 -12 395 -12 C516 -12 569 21 598 41 C605 46 614 54 614 73 L614 329 C614 335 610 338 604 338 L386 338 C380 338 378 335 378 329 L377 272 C377 266 380 263 386 263 L522 256 L522 98 C521 98 485 73 396 73 C273 73 168 156 168 349 C168 554 268 627 402 627 C453 627 485 614 485 614 L496 515 Z M388 753 C415 753 438 767 438 803 C438 840 416 853 387 853 C357 853 335 840 335 803 C335 766 361 753 388 753 L388 753 Z " />
<glyph glyph-name="gdotaccent" unicode="&#x121;" horiz-adv-x="539" d="M341 508 C314 517 284 522 249 522 C128 522 35 458 35 350 C35 263 80 219 143 189 L90 99 C90 38 135 -7 208 -7 L292 -7 C356 -7 394 -17 394 -63 C394 -105 353 -144 243 -144 C171 -144 133 -120 125 -113 L127 -42 C127 -35 124 -30 116 -30 L60 -30 C53 -30 49 -34 48 -42 L41 -148 C40 -161 47 -167 53 -171 C74 -185 131 -216 239 -216 C410 -216 500 -145 500 -39 C500 45 425 78 349 78 L240 78 C200 78 177 91 177 121 L207 173 C214 172 236 170 247 170 C379 170 451 244 451 349 C451 388 434 417 411 445 L504 432 C511 431 518 432 518 441 L518 498 C518 504 514 508 508 508 L341 508 Z M247 235 C169 235 139 287 139 347 C139 414 179 459 249 459 C321 459 352 412 352 347 C352 282 321 235 247 235 L247 235 Z M242 606 C268 606 291 622 291 658 C291 694 268 710 242 710 C212 710 191 693 191 658 C191 622 216 606 242 606 L242 606 Z " />
<glyph glyph-name="Gcommaaccent" unicode="&#x122;" horiz-adv-x="679" d="M496 515 C497 509 499 505 505 505 L573 505 C579 505 582 509 582 515 L589 654 C590 667 584 676 574 680 C533 696 473 713 400 713 C186 713 55 578 55 349 C55 122 176 -12 395 -12 C516 -12 569 21 598 41 C605 46 614 54 614 73 L614 329 C614 335 610 338 604 338 L386 338 C380 338 378 335 378 329 L377 272 C377 266 380 263 386 263 L522 256 L522 98 C521 98 485 73 396 73 C273 73 168 156 168 349 C168 554 268 627 402 627 C453 627 485 614 485 614 L496 515 Z M386 -55 C354 -55 330 -76 330 -106 C330 -136 356 -155 377 -158 C377 -172 359 -190 328 -195 C321 -196 319 -200 320 -207 L326 -242 C327 -249 331 -253 337 -251 C403 -243 446 -185 446 -128 C446 -76 414 -55 386 -55 L386 -55 Z " />
<glyph glyph-name="gcommaaccent" unicode="&#x123;" horiz-adv-x="539" d="M252 568 C284 568 308 589 308 619 C308 649 282 668 261 671 C261 685 279 703 310 708 C317 709 319 713 318 720 L312 755 C311 762 307 766 301 764 C235 756 192 698 192 641 C192 589 224 568 252 568 L252 568 Z M341 508 C314 517 284 522 249 522 C128 522 35 458 35 350 C35 263 80 219 143 189 L90 99 C90 38 135 -7 208 -7 L292 -7 C356 -7 394 -17 394 -63 C394 -105 353 -144 243 -144 C171 -144 133 -120 125 -113 L127 -42 C127 -35 124 -30 116 -30 L60 -30 C53 -30 49 -34 48 -42 L41 -148 C40 -161 47 -167 53 -171 C74 -185 131 -216 239 -216 C410 -216 500 -145 500 -39 C500 45 425 78 349 78 L240 78 C200 78 177 91 177 121 L207 173 C214 172 236 170 247 170 C379 170 451 244 451 349 C451 388 434 417 411 445 L504 432 C511 431 518 432 518 441 L518 498 C518 504 514 508 508 508 L341 508 Z M247 235 C169 235 139 287 139 347 C139 414 179 459 249 459 C321 459 352 412 352 347 C352 282 321 235 247 235 L247 235 Z " />
<glyph glyph-name="Imacron" unicode="&#x12a;" horiz-adv-x="373" d="M136 77 L57 74 C51 74 47 70 47 64 L47 10 C47 4 51 0 57 0 L320 0 C326 0 330 4 330 10 L330 64 C330 70 326 74 320 74 L241 77 L241 623 L320 626 C326 626 330 630 330 636 L330 690 C330 696 326 700 320 700 L57 700 C51 700 47 696 47 690 L47 636 C47 630 51 626 57 626 L136 623 L136 77 Z M349 816 C349 823 344 827 337 827 L37 827 C30 827 25 823 25 816 L25 762 C25 755 30 750 37 750 L337 750 C344 750 349 755 349 762 L349 816 Z " />
<glyph glyph-name="imacron" unicode="&#x12b;" horiz-adv-x="270" d="M200 457 C200 487 183 511 140 511 L40 511 C34 511 32 508 32 502 L32 448 C32 442 35 440 41 439 L99 433 L99 10 C99 4 103 0 109 0 L190 0 C196 0 200 4 200 10 L200 457 Z M269 677 C269 684 264 688 257 688 L-23 688 C-30 688 -35 684 -35 677 L-35 623 C-35 616 -30 611 -23 611 L257 611 C264 611 269 616 269 623 L269 677 Z " />
<glyph glyph-name="Iogonek" unicode="&#x12e;" horiz-adv-x="373" d="M134 77 L55 74 C49 74 45 70 45 64 L45 10 C45 4 49 0 55 0 L245 0 C196 -32 157 -73 157 -127 C157 -183 199 -216 249 -216 C300 -216 332 -192 342 -182 C345 -179 346 -176 345 -172 L339 -150 C338 -146 336 -143 330 -146 C316 -153 302 -155 285 -155 C257 -155 240 -139 240 -107 C240 -73 258 -36 319 -2 C323 0 328 2 328 10 L328 64 C328 70 324 74 318 74 L239 77 L239 623 L318 626 C324 626 328 630 328 636 L328 690 C328 696 324 700 318 700 L55 700 C49 700 45 696 45 690 L45 636 C45 630 49 626 55 626 L134 623 L134 77 Z " />
<glyph glyph-name="iogonek" unicode="&#x12f;" horiz-adv-x="282" d="M201 457 C199 487 184 511 141 511 L41 511 C35 511 33 508 33 502 L33 448 C33 442 36 440 42 439 L100 433 L100 10 C100 4 104 0 110 0 L120 0 C76 -33 45 -73 45 -127 C45 -183 87 -216 137 -216 C188 -216 220 -192 230 -182 C233 -179 234 -176 233 -172 L227 -150 C226 -146 224 -143 218 -146 C204 -153 190 -155 173 -155 C145 -155 128 -139 128 -107 C128 -61 154 -29 193 -1 C198 2 201 5 201 10 L201 457 Z M151 618 C184 618 212 639 212 682 C212 726 184 747 151 747 C114 747 88 726 88 682 C88 639 118 618 151 618 L151 618 Z " />
<glyph glyph-name="Idotaccent" unicode="&#x130;" horiz-adv-x="373" d="M134 77 L55 74 C49 74 45 70 45 64 L45 10 C45 4 49 0 55 0 L318 0 C324 0 328 4 328 10 L328 64 C328 70 324 74 318 74 L239 77 L239 623 L318 626 C324 626 328 630 328 636 L328 690 C328 696 324 700 318 700 L55 700 C49 700 45 696 45 690 L45 636 C45 630 49 626 55 626 L134 623 L134 77 Z M189 753 C216 753 239 767 239 803 C239 840 217 853 188 853 C158 853 136 840 136 803 C136 766 162 753 189 753 L189 753 Z " />
<glyph glyph-name="dotlessi" unicode="&#x131;" horiz-adv-x="271" d="M201 457 C201 487 184 511 141 511 L41 511 C35 511 33 508 33 502 L33 448 C33 442 36 440 42 439 L100 433 L100 10 C100 4 104 0 110 0 L191 0 C197 0 201 4 201 10 L201 457 Z " />
<glyph glyph-name="IJ" unicode="&#x132;" horiz-adv-x="726" d="M134 77 L55 74 C49 74 45 70 45 64 L45 10 C45 4 49 0 55 0 L318 0 C324 0 328 4 328 10 L328 64 C328 70 324 74 318 74 L239 77 L239 623 L318 626 C324 626 328 630 328 636 L328 690 C328 696 324 700 318 700 L55 700 C49 700 45 696 45 690 L45 636 C45 630 49 626 55 626 L134 623 L134 77 Z M427 68 C418 68 408 69 400 69 C396 69 389 71 387 61 L379 13 C378 5 381 -1 388 -3 C402 -7 429 -12 453 -12 C557 -12 636 42 636 181 L636 670 C636 694 627 700 603 700 L426 700 C420 700 418 696 418 690 L418 634 C418 628 421 626 427 626 L531 623 L531 180 C531 98 494 68 427 68 L427 68 Z " />
<glyph glyph-name="ij" unicode="&#x133;" horiz-adv-x="545" d="M151 618 C184 618 212 639 212 682 C212 726 184 747 151 747 C114 747 88 726 88 682 C88 639 118 618 151 618 L151 618 Z M201 457 C201 487 184 511 141 511 L41 511 C35 511 33 508 33 502 L33 448 C33 442 36 440 42 439 L100 433 L100 10 C100 4 104 0 110 0 L191 0 C197 0 201 4 201 10 L201 457 Z M480 445 C480 480 469 511 420 511 L320 511 C314 511 312 508 312 502 L312 448 C312 442 315 440 321 439 L380 433 L380 139 C380 -43 386 -126 256 -147 C248 -148 244 -152 246 -158 L259 -206 C261 -214 265 -216 271 -216 C450 -206 480 -99 480 106 L480 445 Z M416 618 C449 618 477 639 477 682 C477 726 449 747 416 747 C379 747 353 726 353 682 C353 639 383 618 416 618 L416 618 Z " />
<glyph glyph-name="Kcommaaccent" unicode="&#x136;" horiz-adv-x="641" d="M99 10 C99 4 103 0 109 0 L194 0 C200 0 204 4 204 10 L204 315 L295 315 L416 99 C471 3 520 -6 574 -6 C592 -6 614 -2 626 2 C632 4 636 7 636 13 L627 78 C627 84 621 89 615 88 C582 83 550 77 514 139 L385 367 L586 688 C589 693 587 700 581 700 L482 700 C475 700 470 695 467 690 L291 388 L204 388 L204 645 C203 682 187 700 149 700 L18 700 C12 700 10 696 10 690 L10 634 C10 628 13 626 19 626 L99 623 L99 10 Z M333 -55 C301 -55 277 -76 277 -106 C277 -136 303 -155 324 -158 C324 -172 306 -190 275 -195 C268 -196 266 -200 267 -207 L273 -242 C274 -249 278 -253 284 -251 C350 -243 393 -185 393 -128 C393 -76 361 -55 333 -55 L333 -55 Z " />
<glyph glyph-name="kcommaaccent" unicode="&#x137;" horiz-adv-x="547" d="M440 112 C417 149 367 235 335 291 L501 500 C505 505 503 511 495 511 L394 511 C386 511 381 504 378 500 L246 310 L183 310 L183 688 C183 722 163 750 122 750 L17 750 C11 750 9 747 9 741 L9 688 C9 682 12 678 18 678 L83 673 L83 10 C83 4 87 0 93 0 L173 0 C179 0 183 4 183 10 L183 234 L265 234 C280 209 333 111 357 71 C384 25 414 -12 471 -12 C491 -12 518 -8 533 -2 C538 0 542 5 541 10 L530 64 C529 69 525 72 518 71 C509 70 502 69 495 69 C471 69 458 83 440 112 L440 112 Z M290 -55 C258 -55 234 -76 234 -106 C234 -136 260 -155 281 -158 C281 -172 263 -190 232 -195 C225 -196 223 -200 224 -207 L230 -242 C231 -249 235 -253 241 -251 C307 -243 350 -185 350 -128 C350 -76 318 -55 290 -55 L290 -55 Z " />
<glyph glyph-name="Lacute" unicode="&#x139;" horiz-adv-x="538" d="M109 0 L501 0 C507 0 511 4 511 10 L504 206 C504 212 501 216 495 216 L434 216 C428 216 425 212 425 206 L416 77 L204 77 L204 652 C204 686 197 700 160 700 L19 700 C13 700 10 696 10 690 L10 634 C10 628 13 626 19 626 L99 623 L99 10 C99 4 103 0 109 0 L109 0 Z M107 809 C101 808 98 804 99 798 L106 751 C107 745 111 743 117 744 L375 786 C381 787 383 791 382 797 L373 860 C372 866 367 868 361 867 L107 809 Z " />
<glyph glyph-name="lacute" unicode="&#x13a;" horiz-adv-x="278" d="M170 110 L170 738 C170 744 165 751 156 749 L81 734 C74 733 70 725 70 719 L70 76 C70 27 96 -12 163 -12 C196 -12 227 -1 238 3 C244 5 246 9 246 14 C246 14 238 63 237 67 C236 74 232 77 227 76 C205 73 170 57 170 110 L170 110 Z M68 839 C62 838 59 834 60 828 L67 781 C68 775 72 773 78 774 L336 816 C342 817 344 821 343 827 L334 890 C333 896 328 898 322 897 L68 839 Z " />
<glyph glyph-name="Lcommaaccent" unicode="&#x13b;" horiz-adv-x="538" d="M109 0 L501 0 C507 0 511 4 511 10 L504 206 C504 212 501 216 495 216 L434 216 C428 216 425 212 425 206 L416 77 L204 77 L204 652 C204 686 197 700 160 700 L19 700 C13 700 10 696 10 690 L10 634 C10 628 13 626 19 626 L99 623 L99 10 C99 4 103 0 109 0 L109 0 Z M301 -55 C269 -55 245 -76 245 -106 C245 -136 271 -155 292 -158 C292 -172 274 -190 243 -195 C236 -196 234 -200 235 -207 L241 -242 C242 -249 246 -253 252 -251 C318 -243 361 -185 361 -128 C361 -76 329 -55 301 -55 L301 -55 Z " />
<glyph glyph-name="lcommaaccent" unicode="&#x13c;" horiz-adv-x="278" d="M170 110 L170 738 C170 744 165 751 156 749 L81 734 C74 733 70 725 70 719 L70 76 C70 27 96 -12 163 -12 C196 -12 227 -1 238 3 C244 5 246 9 246 14 C246 14 238 63 237 67 C236 74 232 77 227 76 C205 73 170 57 170 110 L170 110 Z M154 -55 C122 -55 98 -76 98 -106 C98 -136 124 -155 145 -158 C145 -172 127 -190 96 -195 C89 -196 87 -200 88 -207 L94 -242 C95 -249 99 -253 105 -251 C171 -243 214 -185 214 -128 C214 -76 182 -55 154 -55 L154 -55 Z " />
<glyph glyph-name="Lcaron" unicode="&#x13d;" horiz-adv-x="538" d="M109 0 L501 0 C507 0 511 4 511 10 L504 206 C504 212 501 216 495 216 L434 216 C428 216 425 212 425 206 L416 77 L204 77 L204 652 C204 686 197 700 160 700 L19 700 C13 700 10 696 10 690 L10 634 C10 628 13 626 19 626 L99 623 L99 10 C99 4 103 0 109 0 L109 0 Z M327 591 C325 588 324 586 324 583 C324 578 328 576 332 576 L395 576 C401 576 404 577 407 581 L510 724 C513 728 511 734 505 734 L444 734 C435 734 430 731 425 724 L327 591 Z " />
<glyph glyph-name="lcaron" unicode="&#x13e;" horiz-adv-x="395" d="M170 110 L170 738 C170 744 165 751 156 749 L81 734 C74 733 70 725 70 719 L70 76 C70 27 96 -12 163 -12 C196 -12 227 -1 238 3 C244 5 246 9 246 14 C246 14 238 63 237 67 C236 74 232 77 227 76 C205 73 170 57 170 110 L170 110 Z M238 591 C236 588 235 586 235 583 C235 578 239 576 243 576 L306 576 C312 576 315 577 318 581 L421 724 C424 728 422 734 416 734 L355 734 C346 734 341 731 336 724 L238 591 Z " />
<glyph glyph-name="Ldot" unicode="&#x13f;" horiz-adv-x="538" d="M109 0 L501 0 C507 0 511 4 511 10 L504 206 C504 212 501 216 495 216 L434 216 C428 216 425 212 425 206 L416 77 L204 77 L204 652 C204 686 197 700 160 700 L19 700 C13 700 10 696 10 690 L10 634 C10 628 13 626 19 626 L99 623 L99 10 C99 4 103 0 109 0 L109 0 Z M372 377 C399 377 422 391 422 427 C422 464 400 477 371 477 C341 477 319 464 319 427 C319 390 345 377 372 377 L372 377 Z " />
<glyph glyph-name="ldot" unicode="&#x140;" horiz-adv-x="353" d="M170 110 L170 738 C170 744 165 751 156 749 L81 734 C74 733 70 725 70 719 L70 76 C70 27 96 -12 163 -12 C196 -12 227 -1 238 3 C244 5 246 9 246 14 C246 14 238 63 237 67 C236 74 232 77 227 76 C205 73 170 57 170 110 L170 110 Z M294 358 C320 358 343 374 343 410 C343 446 320 462 294 462 C264 462 243 445 243 410 C243 374 268 358 294 358 L294 358 Z " />
<glyph glyph-name="Lslash" unicode="&#x141;" horiz-adv-x="546" d="M117 0 L509 0 C515 0 519 4 519 10 L512 206 C512 212 509 216 503 216 L442 216 C436 216 433 212 433 206 L424 77 L212 77 L212 340 C271 381 323 416 326 418 C331 422 331 423 331 428 L331 487 C331 493 326 494 322 491 L212 415 L212 652 C212 686 205 700 168 700 L26 700 C20 700 18 696 18 690 L18 634 C18 628 21 626 27 626 L107 623 L107 342 L18 281 C13 277 12 276 12 268 L12 215 C12 209 16 205 22 209 C22 209 59 234 107 267 L107 10 C107 4 111 0 117 0 L117 0 Z " />
<glyph glyph-name="lslash" unicode="&#x142;" horiz-adv-x="339" d="M202 110 L202 344 L304 414 C309 418 309 419 309 424 L309 483 C309 489 304 490 300 487 L202 419 L202 738 C202 744 197 751 188 749 L113 734 C106 733 102 725 102 719 L102 350 L16 291 C11 287 10 286 10 278 L10 225 C10 219 14 215 20 219 C20 219 56 243 102 275 L102 71 C102 22 128 -12 195 -12 C228 -12 259 -1 270 3 C276 5 278 9 278 14 C278 14 270 63 269 67 C268 74 264 77 259 76 C237 73 202 57 202 110 L202 110 Z " />
<glyph glyph-name="Nacute" unicode="&#x143;" horiz-adv-x="678" d="M603 700 L528 700 C522 700 518 696 518 690 L518 99 L513 99 L299 650 C285 684 269 700 240 700 L20 700 C14 700 10 696 10 690 L10 636 C10 630 14 626 20 626 L99 623 L99 10 C99 4 103 0 109 0 L187 0 C193 0 196 4 196 10 L196 604 L204 604 L440 18 C446 5 453 0 465 0 L604 0 C610 0 613 4 613 10 L613 690 C613 696 609 700 603 700 L603 700 Z M324 809 C318 808 315 804 316 798 L323 751 C324 745 328 743 334 744 L592 786 C598 787 600 791 599 797 L590 860 C589 866 584 868 578 867 L324 809 Z " />
<glyph glyph-name="nacute" unicode="&#x144;" horiz-adv-x="634" d="M388 522 C305 522 233 476 203 447 C203 476 196 511 145 511 L41 511 C35 511 33 508 33 502 L33 448 C33 442 36 440 42 439 L101 434 L101 10 C101 4 105 0 111 0 L192 0 C198 0 202 4 202 10 L202 393 C230 409 284 434 338 434 C425 434 429 375 429 342 L429 59 C429 19 445 0 485 0 L589 0 C595 0 597 3 597 9 L598 58 C598 64 595 66 589 67 L529 77 L529 367 C529 448 497 522 388 522 L388 522 Z M502 724 C505 728 503 734 497 734 L404 734 C398 734 393 732 388 724 L301 586 C298 581 300 576 306 576 L382 576 C388 576 393 580 397 586 L502 724 Z " />
<glyph glyph-name="Ncommaaccent" unicode="&#x145;" horiz-adv-x="678" d="M603 700 L528 700 C522 700 518 696 518 690 L518 99 L513 99 L299 650 C285 684 269 700 240 700 L20 700 C14 700 10 696 10 690 L10 636 C10 630 14 626 20 626 L99 623 L99 10 C99 4 103 0 109 0 L187 0 C193 0 196 4 196 10 L196 604 L204 604 L440 18 C446 5 453 0 465 0 L604 0 C610 0 613 4 613 10 L613 690 C613 696 609 700 603 700 L603 700 Z M337 -55 C305 -55 281 -76 281 -106 C281 -136 307 -155 328 -158 C328 -172 310 -190 279 -195 C272 -196 270 -200 271 -207 L277 -242 C278 -249 282 -253 288 -251 C354 -243 397 -185 397 -128 C397 -76 365 -55 337 -55 L337 -55 Z " />
<glyph glyph-name="ncommaaccent" unicode="&#x146;" horiz-adv-x="634" d="M388 522 C305 522 233 476 203 447 C203 476 196 511 145 511 L41 511 C35 511 33 508 33 502 L33 448 C33 442 36 440 42 439 L101 434 L101 10 C101 4 105 0 111 0 L192 0 C198 0 202 4 202 10 L202 393 C230 409 284 434 338 434 C425 434 429 375 429 342 L429 59 C429 19 445 0 485 0 L589 0 C595 0 597 3 597 9 L598 58 C598 64 595 66 589 67 L529 77 L529 367 C529 448 497 522 388 522 L388 522 Z M325 -55 C293 -55 269 -76 269 -106 C269 -136 295 -155 316 -158 C316 -172 298 -190 267 -195 C260 -196 258 -200 259 -207 L265 -242 C266 -249 270 -253 276 -251 C342 -243 385 -185 385 -128 C385 -76 353 -55 325 -55 L325 -55 Z " />
<glyph glyph-name="Ncaron" unicode="&#x147;" horiz-adv-x="678" d="M603 700 L528 700 C522 700 518 696 518 690 L518 99 L513 99 L299 650 C285 684 269 700 240 700 L20 700 C14 700 10 696 10 690 L10 636 C10 630 14 626 20 626 L99 623 L99 10 C99 4 103 0 109 0 L187 0 C193 0 196 4 196 10 L196 604 L204 604 L440 18 C446 5 453 0 465 0 L604 0 C610 0 613 4 613 10 L613 690 C613 696 609 700 603 700 L603 700 Z M562 851 C566 855 564 861 558 861 L472 861 C464 861 459 860 454 854 L388 785 L320 854 C314 860 309 861 301 861 L226 861 C220 861 217 856 222 851 L306 756 C310 752 313 751 319 751 L466 751 C472 751 475 752 479 756 L562 851 Z " />
<glyph glyph-name="ncaron" unicode="&#x148;" horiz-adv-x="634" d="M388 522 C305 522 233 476 203 447 C203 476 196 511 145 511 L41 511 C35 511 33 508 33 502 L33 448 C33 442 36 440 42 439 L101 434 L101 10 C101 4 105 0 111 0 L192 0 C198 0 202 4 202 10 L202 393 C230 409 284 434 338 434 C425 434 429 375 429 342 L429 59 C429 19 445 0 485 0 L589 0 C595 0 597 3 597 9 L598 58 C598 64 595 66 589 67 L529 77 L529 367 C529 448 497 522 388 522 L388 522 Z M287 571 C290 567 293 566 299 566 L363 566 C369 566 372 567 375 571 L478 714 C481 718 479 724 473 724 L412 724 C403 724 398 721 393 714 L328 627 L263 714 C258 720 253 724 244 724 L186 724 C180 724 178 719 181 714 L287 571 Z " />
<glyph glyph-name="Eng" unicode="&#x14a;" horiz-adv-x="678" d="M603 700 L528 700 C522 700 518 696 518 690 L518 207 L299 650 C283 683 269 700 240 700 L20 700 C14 700 10 696 10 690 L10 636 C10 630 14 626 20 626 L99 623 L99 10 C99 4 103 0 109 0 L187 0 C193 0 196 4 196 10 L196 604 L204 604 L518 -2 L518 -24 C518 -106 471 -134 404 -134 C395 -134 385 -133 377 -133 C373 -133 366 -131 364 -141 L356 -193 C355 -201 358 -207 365 -209 C379 -213 406 -216 430 -216 C523 -216 613 -162 613 -23 L613 690 C613 696 609 700 603 700 L603 700 Z " />
<glyph glyph-name="eng" unicode="&#x14b;" horiz-adv-x="588" d="M429 342 L429 139 C429 -43 435 -126 305 -147 C297 -148 294 -151 295 -157 L308 -206 C310 -214 314 -216 320 -216 C499 -206 529 -99 529 106 L529 367 C529 448 497 522 388 522 C305 522 233 476 203 447 C203 476 196 511 145 511 L41 511 C35 511 33 508 33 502 L33 448 C33 442 36 440 42 439 L101 434 L101 10 C101 4 105 0 111 0 L192 0 C198 0 202 4 202 10 L202 393 C230 409 284 434 338 434 C425 434 429 375 429 342 L429 342 Z " />
<glyph glyph-name="Omacron" unicode="&#x14c;" horiz-adv-x="708" d="M356 712 C143 712 55 534 55 352 C55 116 168 -12 356 -12 C529 -12 653 124 653 352 C653 568 548 712 356 712 L356 712 Z M168 352 C168 539 243 624 353 624 C470 624 541 553 541 352 C541 148 451 79 356 79 C259 79 168 159 168 352 L168 352 Z M515 816 C515 823 510 827 503 827 L203 827 C196 827 191 823 191 816 L191 762 C191 755 196 750 203 750 L503 750 C510 750 515 755 515 762 L515 816 Z " />
<glyph glyph-name="omacron" unicode="&#x14d;" horiz-adv-x="576" d="M290 -12 C460 -12 526 107 526 255 C526 396 459 522 289 522 C119 522 50 396 50 255 C50 107 120 -12 290 -12 L290 -12 Z M290 61 C202 61 158 148 158 255 C158 370 201 449 289 449 C377 449 419 370 419 255 C419 150 378 61 290 61 L290 61 Z M445 676 C445 683 440 687 433 687 L153 687 C146 687 141 683 141 676 L141 622 C141 615 146 610 153 610 L433 610 C440 610 445 615 445 622 L445 676 Z " />
<glyph glyph-name="Ohungarumlaut" unicode="&#x150;" horiz-adv-x="708" d="M356 712 C143 712 55 534 55 352 C55 116 168 -12 356 -12 C529 -12 653 124 653 352 C653 568 548 712 356 712 L356 712 Z M168 352 C168 539 243 624 353 624 C470 624 541 553 541 352 C541 148 451 79 356 79 C259 79 168 159 168 352 L168 352 Z M614 867 C617 871 615 877 609 877 L517 877 C511 877 506 875 501 867 L415 759 C412 754 414 749 420 749 L493 749 C501 749 505 753 511 759 L614 867 Z M429 867 C432 871 430 877 424 877 L332 877 C326 877 321 875 316 867 L230 759 C227 754 229 749 235 749 L309 749 C315 749 321 753 326 759 L429 867 Z " />
<glyph glyph-name="ohungarumlaut" unicode="&#x151;" horiz-adv-x="576" d="M290 -12 C460 -12 526 107 526 255 C526 396 459 522 289 522 C119 522 50 396 50 255 C50 107 120 -12 290 -12 L290 -12 Z M290 61 C202 61 158 148 158 255 C158 370 201 449 289 449 C377 449 419 370 419 255 C419 150 378 61 290 61 L290 61 Z M334 724 C337 728 335 734 329 734 L237 734 C231 734 226 732 221 724 L145 586 C142 581 144 576 150 576 L226 576 C232 576 237 580 241 586 L334 724 Z M520 724 C523 728 521 734 515 734 L423 734 C417 734 412 732 407 724 L321 586 C318 581 320 576 326 576 L402 576 C408 576 413 580 417 586 L520 724 Z " />
<glyph glyph-name="OE" unicode="&#x152;" horiz-adv-x="1019" d="M545 646 C497 688 433 712 356 712 C143 712 55 534 55 352 C55 116 168 -12 356 -12 C429 -12 494 12 544 58 L544 10 C544 4 549 0 555 0 L941 0 C947 0 951 4 951 10 L951 78 C951 84 948 88 942 88 L653 88 L653 314 L847 314 C853 314 856 318 857 324 L866 383 C866 389 862 393 856 393 L653 393 L653 615 L874 615 L882 525 C882 519 885 515 891 515 L947 515 C953 515 956 519 956 525 L964 689 C964 696 960 700 954 700 L555 700 C549 700 545 695 545 689 L545 646 Z M168 352 C168 539 245 624 359 624 C455 624 552 553 552 352 C552 148 461 79 366 79 C250 79 168 159 168 352 L168 352 Z " />
<glyph glyph-name="oe" unicode="&#x153;" horiz-adv-x="868" d="M649 -12 C715 -12 792 22 818 43 C823 47 823 50 821 55 L804 98 C802 103 798 104 791 101 C764 89 711 67 665 67 C595 67 529 119 522 206 L811 285 C818 287 823 292 824 298 C825 304 825 311 825 323 C825 425 761 522 636 522 C565 522 507 492 469 437 C433 488 376 522 291 522 C125 522 50 396 50 255 C50 107 125 -12 291 -12 C374 -12 431 27 467 81 C503 26 561 -12 649 -12 L649 -12 Z M291 55 C208 55 160 148 160 255 C160 370 202 452 291 452 C371 452 417 374 420 263 L420 255 L420 245 C418 144 387 55 291 55 L291 55 Z M718 326 L517 269 C517 390 563 453 627 453 C695 453 721 391 721 331 L718 326 Z " />
<glyph glyph-name="Racute" unicode="&#x154;" horiz-adv-x="620" d="M20 700 C14 700 10 696 10 690 L10 635 C10 629 14 626 20 626 L95 623 L95 10 C95 4 99 0 105 0 L190 0 C196 0 200 4 200 10 L200 299 L292 299 L390 110 C445 14 486 -12 546 -12 C556 -12 588 -10 604 -3 C611 0 616 3 615 10 L606 65 C605 71 603 75 596 75 C589 75 583 73 570 73 C532 73 511 96 482 145 L401 299 C473 322 541 398 541 501 C541 638 466 700 311 700 L20 700 Z M294 627 C402 627 436 569 436 499 C436 419 397 367 323 367 L200 367 L200 627 L294 627 Z M245 809 C239 808 236 804 237 798 L244 751 C245 745 249 743 255 744 L513 786 C519 787 521 791 520 797 L511 860 C510 866 505 868 499 867 L245 809 Z " />
<glyph glyph-name="racute" unicode="&#x155;" horiz-adv-x="400" d="M193 445 C193 482 184 511 128 511 L41 511 C35 511 33 508 33 502 L33 448 C33 442 36 439 42 439 L99 434 L99 10 C99 4 103 0 109 0 L189 0 C195 0 199 4 199 10 L199 262 C207 341 267 405 342 405 C351 405 356 404 361 404 C365 404 367 406 368 411 L389 508 C390 514 388 518 382 520 C379 521 373 522 360 522 C278 522 219 448 195 365 L193 365 L193 445 Z M372 724 C375 728 373 734 367 734 L274 734 C268 734 263 732 258 724 L171 586 C168 581 170 576 176 576 L252 576 C258 576 263 580 267 586 L372 724 Z " />
<glyph glyph-name="Rcommaaccent" unicode="&#x156;" horiz-adv-x="620" d="M20 700 C14 700 10 696 10 690 L10 635 C10 629 14 626 20 626 L95 623 L95 10 C95 4 99 0 105 0 L190 0 C196 0 200 4 200 10 L200 299 L292 299 L390 110 C445 14 486 -12 546 -12 C556 -12 588 -10 604 -3 C611 0 616 3 615 10 L606 65 C605 71 603 75 596 75 C589 75 583 73 570 73 C532 73 511 96 482 145 L401 299 C473 322 541 398 541 501 C541 638 466 700 311 700 L20 700 Z M294 627 C402 627 436 569 436 499 C436 419 397 367 323 367 L200 367 L200 627 L294 627 Z M316 -55 C284 -55 260 -76 260 -106 C260 -136 286 -155 307 -158 C307 -172 289 -190 258 -195 C251 -196 249 -200 250 -207 L256 -242 C257 -249 261 -253 267 -251 C333 -243 376 -185 376 -128 C376 -76 344 -55 316 -55 L316 -55 Z " />
<glyph glyph-name="rcommaaccent" unicode="&#x157;" horiz-adv-x="400" d="M193 445 C193 482 184 511 128 511 L41 511 C35 511 33 508 33 502 L33 448 C33 442 36 439 42 439 L99 434 L99 10 C99 4 103 0 109 0 L189 0 C195 0 199 4 199 10 L199 262 C207 341 267 405 342 405 C351 405 356 404 361 404 C365 404 367 406 368 411 L389 508 C390 514 388 518 382 520 C379 521 373 522 360 522 C278 522 219 448 195 365 L193 365 L193 445 Z M148 -55 C116 -55 92 -76 92 -106 C92 -136 118 -155 139 -158 C139 -172 121 -190 90 -195 C83 -196 81 -200 82 -207 L88 -242 C89 -249 93 -253 99 -251 C165 -243 208 -185 208 -128 C208 -76 176 -55 148 -55 L148 -55 Z " />
<glyph glyph-name="Rcaron" unicode="&#x158;" horiz-adv-x="620" d="M20 700 C14 700 10 696 10 690 L10 635 C10 629 14 626 20 626 L95 623 L95 10 C95 4 99 0 105 0 L190 0 C196 0 200 4 200 10 L200 299 L292 299 L390 110 C445 14 486 -12 546 -12 C556 -12 588 -10 604 -3 C611 0 616 3 615 10 L606 65 C605 71 603 75 596 75 C589 75 583 73 570 73 C532 73 511 96 482 145 L401 299 C473 322 541 398 541 501 C541 638 466 700 311 700 L20 700 Z M294 627 C402 627 436 569 436 499 C436 419 397 367 323 367 L200 367 L200 627 L294 627 Z M473 851 C477 855 475 861 469 861 L383 861 C375 861 370 860 365 854 L299 785 L231 854 C225 860 220 861 212 861 L137 861 C131 861 128 856 133 851 L217 756 C221 752 224 751 230 751 L377 751 C383 751 386 752 390 756 L473 851 Z " />
<glyph glyph-name="rcaron" unicode="&#x159;" horiz-adv-x="400" d="M193 445 C193 482 184 511 128 511 L41 511 C35 511 33 508 33 502 L33 448 C33 442 36 439 42 439 L99 434 L99 10 C99 4 103 0 109 0 L189 0 C195 0 199 4 199 10 L199 262 C207 341 267 405 342 405 C351 405 356 404 361 404 C365 404 367 406 368 411 L389 508 C390 514 388 518 382 520 C379 521 373 522 360 522 C278 522 219 448 195 365 L193 365 L193 445 Z M180 571 C183 567 186 566 192 566 L256 566 C262 566 265 567 268 571 L371 714 C374 718 372 724 366 724 L305 724 C296 724 291 721 286 714 L221 627 L156 714 C151 720 146 724 137 724 L79 724 C73 724 71 719 74 714 L180 571 Z " />
<glyph glyph-name="Sacute" unicode="&#x15a;" horiz-adv-x="598" d="M169 540 C169 603 225 630 300 630 C343 630 389 623 416 610 L425 517 C426 511 428 507 436 507 L489 507 C495 507 499 511 499 517 L505 655 C506 673 497 680 478 686 C418 705 367 713 303 713 C149 713 66 629 67 525 C68 320 429 326 429 178 C429 107 380 69 289 69 C237 69 198 81 163 103 L152 204 C151 209 151 215 143 215 L82 215 C75 215 71 211 71 203 L66 64 C65 50 68 42 81 34 C133 2 211 -12 288 -12 C445 -12 538 69 538 197 C538 393 169 391 169 540 L169 540 Z M252 809 C246 808 243 804 244 798 L251 751 C252 745 256 743 262 744 L520 786 C526 787 528 791 527 797 L518 860 C517 866 512 868 506 867 L252 809 Z " />
<glyph glyph-name="sacute" unicode="&#x15b;" horiz-adv-x="476" d="M409 474 C410 488 406 495 398 498 C354 513 299 522 247 522 C141 522 57 473 57 379 C57 197 333 243 333 136 C333 90 291 56 234 56 C191 56 159 63 133 82 L129 147 C129 153 127 159 118 159 L65 159 C58 159 54 154 54 148 L51 51 C50 39 55 31 62 27 C96 6 145 -12 233 -12 C363 -12 431 56 431 144 C431 313 157 282 157 388 C157 433 191 450 240 450 C281 450 316 442 331 432 L338 376 C339 371 341 369 348 369 L397 369 C403 369 405 373 405 377 L409 474 Z M408 724 C411 728 409 734 403 734 L310 734 C304 734 299 732 294 724 L207 586 C204 581 206 576 212 576 L288 576 C294 576 299 580 303 586 L408 724 Z " />
<glyph glyph-name="Scedilla" unicode="&#x15e;" horiz-adv-x="598" d="M242 -90 C241 -99 245 -103 254 -104 C292 -108 319 -116 319 -139 C319 -168 273 -175 215 -175 C209 -175 207 -179 208 -185 L213 -217 C214 -223 216 -225 222 -225 C347 -224 403 -192 403 -135 C403 -90 363 -72 305 -68 L312 -11 C454 -4 538 72 538 195 C538 404 169 377 169 539 C169 602 225 629 300 629 C343 629 390 622 417 609 L422 520 C422 514 425 510 433 510 L493 510 C499 510 503 514 503 520 L506 658 C506 676 498 684 479 689 C418 705 367 712 303 712 C147 712 67 636 67 518 C67 293 429 327 429 174 C429 102 380 71 289 71 C237 71 198 81 163 103 L152 204 C151 209 151 215 143 215 L82 215 C75 215 71 211 71 203 L66 64 C65 50 68 42 81 34 C125 7 188 -7 253 -11 L242 -90 Z " />
<glyph glyph-name="scedilla" unicode="&#x15f;" horiz-adv-x="478" d="M412 494 C367 511 306 522 249 522 C143 522 59 473 59 379 C59 197 331 244 331 137 C331 91 293 57 236 57 C193 57 159 64 133 83 L129 148 C129 154 127 160 118 160 L69 160 C62 160 58 155 58 149 L50 32 C84 6 136 -6 192 -10 L182 -87 C181 -96 185 -100 194 -101 C232 -105 259 -113 259 -136 C259 -165 213 -172 155 -172 C149 -172 147 -176 148 -182 L153 -214 C154 -220 156 -222 162 -222 C287 -221 343 -189 343 -132 C343 -87 303 -69 245 -65 L251 -11 C366 -5 433 57 433 145 C433 323 159 282 159 388 C159 433 193 450 242 450 C283 450 318 442 333 432 L340 376 C341 371 343 369 350 369 L399 369 C405 369 407 373 407 377 L412 494 Z " />
<glyph glyph-name="Scaron" unicode="&#x160;" horiz-adv-x="598" d="M169 540 C169 603 225 630 300 630 C343 630 389 623 416 610 L425 517 C426 511 428 507 436 507 L489 507 C495 507 499 511 499 517 L505 655 C506 673 497 680 478 686 C418 705 367 713 303 713 C149 713 66 629 67 525 C68 320 429 326 429 178 C429 107 380 69 289 69 C237 69 198 81 163 103 L152 204 C151 209 151 215 143 215 L82 215 C75 215 71 211 71 203 L66 64 C65 50 68 42 81 34 C133 2 211 -12 288 -12 C445 -12 538 69 538 197 C538 393 169 391 169 540 L169 540 Z M472 851 C476 855 474 861 468 861 L382 861 C374 861 369 860 364 854 L298 785 L230 854 C224 860 219 861 211 861 L136 861 C130 861 127 856 132 851 L216 756 C220 752 223 751 229 751 L376 751 C382 751 385 752 389 756 L472 851 Z " />
<glyph glyph-name="scaron" unicode="&#x161;" horiz-adv-x="476" d="M409 474 C410 488 406 495 398 498 C354 513 299 522 247 522 C141 522 57 473 57 379 C57 197 333 243 333 136 C333 90 291 56 234 56 C191 56 159 63 133 82 L129 147 C129 153 127 159 118 159 L65 159 C58 159 54 154 54 148 L51 51 C50 39 55 31 62 27 C96 6 145 -12 233 -12 C363 -12 431 56 431 144 C431 313 157 282 157 388 C157 433 191 450 240 450 C281 450 316 442 331 432 L338 376 C339 371 341 369 348 369 L397 369 C403 369 405 373 405 377 L409 474 Z M200 571 C203 567 206 566 212 566 L276 566 C282 566 285 567 288 571 L391 714 C394 718 392 724 386 724 L325 724 C316 724 311 721 306 714 L241 627 L176 714 C171 720 166 724 157 724 L99 724 C93 724 91 719 94 714 L200 571 Z " />
<glyph glyph-name="Tcommaaccent" unicode="&#x162;" horiz-adv-x="627" d="M261 10 C261 4 265 0 271 0 L356 0 C362 0 366 4 366 10 L366 623 L512 623 L520 517 C520 511 524 507 530 507 L587 507 C593 507 597 511 597 517 L602 690 C602 696 598 700 592 700 L35 700 C29 700 25 696 25 690 L30 517 C30 511 34 507 40 507 L97 507 C103 507 107 511 107 517 L115 623 L261 623 L261 10 Z M317 -55 C285 -55 261 -76 261 -106 C261 -136 287 -155 308 -158 C308 -172 290 -190 259 -195 C252 -196 250 -200 251 -207 L257 -242 C258 -249 262 -253 268 -251 C334 -243 377 -185 377 -128 C377 -76 345 -55 317 -55 L317 -55 Z " />
<glyph glyph-name="tcommaaccent" unicode="&#x163;" horiz-adv-x="366" d="M108 605 C103 602 99 599 99 591 L99 511 L41 511 C34 511 31 507 30 501 L21 454 C20 448 23 444 29 444 L99 444 L99 159 C99 65 103 -12 225 -12 C268 -12 315 -1 332 7 C340 10 342 14 340 22 L331 61 C330 66 328 72 317 70 C300 67 283 65 263 65 C218 65 202 76 202 148 L202 444 L327 444 C333 444 337 448 337 454 L337 501 C337 507 333 511 327 511 L202 511 L202 640 C202 647 196 652 189 648 L108 605 Z M186 -55 C154 -55 130 -76 130 -106 C130 -136 156 -155 177 -158 C177 -172 159 -190 128 -195 C121 -196 119 -200 120 -207 L126 -242 C127 -249 131 -253 137 -251 C203 -243 246 -185 246 -128 C246 -76 214 -55 186 -55 L186 -55 Z " />
<glyph glyph-name="Tcaron" unicode="&#x164;" horiz-adv-x="627" d="M261 10 C261 4 265 0 271 0 L356 0 C362 0 366 4 366 10 L366 623 L512 623 L520 517 C520 511 524 507 530 507 L587 507 C593 507 597 511 597 517 L602 690 C602 696 598 700 592 700 L35 700 C29 700 25 696 25 690 L30 517 C30 511 34 507 40 507 L97 507 C103 507 107 511 107 517 L115 623 L261 623 L261 10 Z M486 851 C490 855 488 861 482 861 L396 861 C388 861 383 860 378 854 L312 785 L244 854 C238 860 233 861 225 861 L150 861 C144 861 141 856 146 851 L230 756 C234 752 237 751 243 751 L390 751 C396 751 399 752 403 756 L486 851 Z " />
<glyph glyph-name="tcaron" unicode="&#x165;" horiz-adv-x="483" d="M108 605 C103 602 99 599 99 591 L99 511 L41 511 C34 511 31 507 30 501 L21 454 C20 448 23 444 29 444 L99 444 L99 159 C99 65 103 -12 225 -12 C268 -12 315 -1 332 7 C340 10 342 14 340 22 L331 61 C330 66 328 72 317 70 C300 67 283 65 263 65 C218 65 202 76 202 148 L202 444 L327 444 C333 444 337 448 337 454 L337 501 C337 507 333 511 327 511 L202 511 L202 640 C202 647 196 652 189 648 L108 605 Z M264 591 C262 588 261 586 261 583 C261 578 265 576 269 576 L332 576 C338 576 341 577 344 581 L447 724 C450 728 448 734 442 734 L381 734 C372 734 367 731 362 724 L264 591 Z " />
<glyph glyph-name="Tbar" unicode="&#x166;" horiz-adv-x="627" d="M262 10 C262 4 266 0 272 0 L357 0 C363 0 367 4 367 10 L367 333 L505 333 C511 333 515 337 515 343 L515 379 C515 385 511 389 505 389 L367 389 L367 623 L511 623 L516 517 C516 511 520 507 526 507 L587 507 C593 507 597 511 597 517 L602 690 C602 696 598 700 592 700 L35 700 C29 700 25 696 25 690 L30 517 C30 511 34 507 40 507 L101 507 C107 507 111 511 111 517 L116 623 L262 623 L262 389 L122 389 C116 389 112 385 112 379 L112 343 C112 337 116 333 122 333 L262 333 L262 10 Z " />
<glyph glyph-name="tbar" unicode="&#x167;" horiz-adv-x="390" d="M351 312 C351 318 347 322 341 322 L216 322 L216 444 L341 444 C347 444 351 448 351 454 L351 501 C351 507 347 511 341 511 L216 511 L216 640 C216 647 210 652 203 648 L120 604 C116 602 113 599 113 593 L113 511 L55 511 C49 511 45 506 44 501 L35 454 C35 448 39 444 45 444 L113 444 L113 322 L45 322 C39 322 35 318 35 312 L35 276 C35 270 39 266 45 266 L113 266 L113 159 C113 65 117 -12 239 -12 C282 -12 329 -1 346 7 C354 10 356 14 354 22 L345 61 C344 66 342 72 331 70 C314 67 297 65 277 65 C232 65 216 76 216 148 L216 266 L341 266 C347 266 351 270 351 276 L351 312 Z " />
<glyph glyph-name="Umacron" unicode="&#x16a;" horiz-adv-x="654" d="M204 641 C204 681 189 700 149 700 L18 700 C12 700 10 696 10 690 L10 634 C10 628 13 626 19 626 L99 623 L99 245 C99 40 217 -12 341 -12 C465 -12 589 40 589 245 L589 690 C589 696 586 700 580 700 L499 700 C494 700 489 696 489 690 L489 246 C489 168 467 77 341 77 C241 77 204 168 204 246 L204 641 Z M508 816 C508 823 503 827 496 827 L196 827 C189 827 184 823 184 816 L184 762 C184 755 189 750 196 750 L496 750 C503 750 508 755 508 762 L508 816 Z " />
<glyph glyph-name="umacron" unicode="&#x16b;" horiz-adv-x="590" d="M245 -12 C341 -12 398 49 415 76 C420 21 454 -12 500 -12 C522 -12 544 -5 562 3 C568 6 573 8 571 19 L564 62 C563 71 558 72 550 70 C523 64 506 66 506 95 L506 501 C506 507 502 511 496 511 L416 511 C410 511 406 507 406 501 L406 150 C400 110 336 71 289 71 C202 71 194 130 194 163 L194 457 C194 493 187 511 147 511 L33 511 C27 511 25 508 25 502 L25 448 C25 442 28 440 34 439 L93 434 L93 143 C93 62 136 -12 245 -12 L245 -12 Z M445 676 C445 683 440 687 433 687 L153 687 C146 687 141 683 141 676 L141 622 C141 615 146 610 153 610 L433 610 C440 610 445 615 445 622 L445 676 Z " />
<glyph glyph-name="Uring" unicode="&#x16e;" horiz-adv-x="654" d="M204 641 C204 681 189 700 149 700 L18 700 C12 700 10 696 10 690 L10 634 C10 628 13 626 19 626 L99 623 L99 245 C99 40 217 -12 341 -12 C465 -12 589 40 589 245 L589 690 C589 696 586 700 580 700 L499 700 C494 700 489 696 489 690 L489 246 C489 168 467 77 341 77 C241 77 204 168 204 246 L204 641 Z M335 917 C279 917 233 872 233 815 C233 760 279 714 335 714 C392 714 437 759 437 815 C437 872 392 917 335 917 L335 917 Z M335 855 C357 855 374 837 374 815 C374 793 357 775 335 775 C314 775 296 793 296 815 C296 837 314 855 335 855 L335 855 Z " />
<glyph glyph-name="uring" unicode="&#x16f;" horiz-adv-x="590" d="M245 -12 C341 -12 398 49 415 76 C420 21 454 -12 500 -12 C522 -12 544 -5 562 3 C568 6 573 8 571 19 L564 62 C563 71 558 72 550 70 C523 64 506 66 506 95 L506 501 C506 507 502 511 496 511 L416 511 C410 511 406 507 406 501 L406 150 C400 110 336 71 289 71 C202 71 194 130 194 163 L194 457 C194 493 187 511 147 511 L33 511 C27 511 25 508 25 502 L25 448 C25 442 28 440 34 439 L93 434 L93 143 C93 62 136 -12 245 -12 L245 -12 Z M288 557 C350 557 400 606 400 668 C400 730 350 779 288 779 C226 779 177 730 177 668 C177 608 227 557 288 557 L288 557 Z M288 723 C319 723 342 700 342 668 C342 636 319 613 288 613 C258 613 234 636 234 668 C234 700 258 723 288 723 L288 723 Z " />
<glyph glyph-name="Uhungarumlaut" unicode="&#x170;" horiz-adv-x="654" d="M204 641 C204 681 189 700 149 700 L18 700 C12 700 10 696 10 690 L10 634 C10 628 13 626 19 626 L99 623 L99 245 C99 40 217 -12 341 -12 C465 -12 589 40 589 245 L589 690 C589 696 586 700 580 700 L499 700 C494 700 489 696 489 690 L489 246 C489 168 467 77 341 77 C241 77 204 168 204 246 L204 641 Z M577 867 C580 871 578 877 572 877 L480 877 C474 877 469 875 464 867 L378 759 C375 754 377 749 383 749 L456 749 C464 749 468 753 474 759 L577 867 Z M392 867 C395 871 393 877 387 877 L295 877 C289 877 284 875 279 867 L193 759 C190 754 192 749 198 749 L272 749 C278 749 284 753 289 759 L392 867 Z " />
<glyph glyph-name="uhungarumlaut" unicode="&#x171;" horiz-adv-x="590" d="M245 -12 C341 -12 398 49 415 76 C420 21 454 -12 500 -12 C522 -12 544 -5 562 3 C568 6 573 8 571 19 L564 62 C563 71 558 72 550 70 C523 64 506 66 506 95 L506 501 C506 507 502 511 496 511 L416 511 C410 511 406 507 406 501 L406 150 C400 110 336 71 289 71 C202 71 194 130 194 163 L194 457 C194 493 187 511 147 511 L33 511 C27 511 25 508 25 502 L25 448 C25 442 28 440 34 439 L93 434 L93 143 C93 62 136 -12 245 -12 L245 -12 Z M348 724 C351 728 349 734 343 734 L251 734 C245 734 240 732 235 724 L159 586 C156 581 158 576 164 576 L240 576 C246 576 251 580 255 586 L348 724 Z M534 724 C537 728 535 734 529 734 L437 734 C431 734 426 732 421 724 L335 586 C332 581 334 576 340 576 L416 576 C422 576 427 580 431 586 L534 724 Z " />
<glyph glyph-name="Uogonek" unicode="&#x172;" horiz-adv-x="654" d="M204 641 C204 681 189 700 149 700 L18 700 C12 700 10 696 10 690 L10 634 C10 628 13 626 19 626 L99 623 L99 245 C99 40 217 -12 341 -12 C352 -12 364 -11 376 -10 C344 -43 322 -83 322 -127 C322 -183 364 -216 414 -216 C465 -216 497 -192 507 -182 C510 -179 511 -176 510 -172 L504 -150 C503 -146 501 -143 495 -146 C481 -153 467 -155 450 -155 C422 -155 405 -139 405 -107 C405 27 589 12 589 245 L589 690 C589 696 586 700 580 700 L499 700 C494 700 489 696 489 690 L489 246 C489 168 467 77 341 77 C241 77 204 168 204 246 L204 641 Z " />
<glyph glyph-name="uogonek" unicode="&#x173;" horiz-adv-x="590" d="M245 -12 C341 -12 398 49 415 76 C419 32 441 2 474 -8 C433 -40 404 -79 404 -127 C404 -183 446 -216 496 -216 C547 -216 579 -192 589 -182 C592 -179 593 -176 592 -172 L586 -150 C585 -146 583 -143 577 -146 C563 -153 549 -155 532 -155 C504 -155 487 -139 487 -107 C487 -73 504 -30 565 4 C569 6 573 8 572 16 L564 62 C562 71 558 72 550 70 C523 64 506 66 506 95 L506 501 C506 507 502 511 496 511 L416 511 C410 511 406 507 406 501 L406 150 C400 110 336 71 289 71 C202 71 194 130 194 163 L194 457 C194 493 187 511 147 511 L33 511 C27 511 25 508 25 502 L25 448 C25 442 28 440 34 439 L93 434 L93 143 C93 62 136 -12 245 -12 L245 -12 Z " />
<glyph glyph-name="Wcircumflex" unicode="&#x174;" horiz-adv-x="937" d="M493 478 L605 10 C607 4 612 0 618 0 L750 0 C756 0 761 4 763 10 L926 689 C927 694 924 700 918 700 L820 700 C815 700 812 698 810 692 L695 116 L685 116 L573 595 C572 600 569 603 562 603 L437 603 C432 603 429 601 427 595 L312 116 L302 116 L181 646 C170 680 160 700 120 700 L-7 700 C-13 700 -15 697 -15 691 L-15 632 C-15 626 -12 622 -6 622 L74 619 L223 10 C225 4 230 0 236 0 L360 0 C366 0 371 4 373 10 L486 478 L493 478 Z M588 855 C584 859 581 860 575 860 L428 860 C422 860 419 859 415 855 L331 760 C326 755 329 750 335 750 L410 750 C418 750 423 751 429 757 L497 826 L563 757 C568 751 573 750 581 750 L667 750 C673 750 675 756 671 760 L588 855 Z " />
<glyph glyph-name="wcircumflex" unicode="&#x175;" horiz-adv-x="763" d="M154 457 C146 492 126 511 82 511 L-17 511 C-23 511 -25 508 -25 502 L-26 448 C-26 442 -23 440 -17 439 L54 432 L167 9 C168 5 172 0 180 0 L293 0 C300 0 305 5 306 9 L388 392 L402 392 L475 10 C476 7 480 0 489 0 L607 0 C615 0 618 7 619 10 L741 496 C743 502 743 511 735 511 L653 511 C647 511 644 506 643 501 L551 88 L541 88 L464 501 C463 505 461 511 454 511 L343 511 C336 511 333 505 332 501 L248 88 L237 88 L154 457 Z M442 719 C439 723 436 724 430 724 L367 724 C361 724 358 723 355 719 L248 576 C245 572 247 566 253 566 L311 566 C320 566 325 569 330 576 L395 663 L460 576 C465 570 470 566 479 566 L540 566 C546 566 548 571 545 576 L442 719 Z " />
<glyph glyph-name="Ycircumflex" unicode="&#x176;" horiz-adv-x="553" d="M165 659 C148 688 135 700 96 700 L-7 700 C-13 700 -15 696 -15 690 L-15 635 C-15 629 -12 625 -6 625 L60 623 L241 296 L241 10 C241 4 245 0 251 0 L336 0 C342 0 346 4 346 10 L346 296 L556 690 C559 696 556 700 550 700 L455 700 C448 700 445 696 442 690 L303 395 L297 395 L165 659 Z M382 855 C378 859 375 860 369 860 L222 860 C216 860 213 859 209 855 L125 760 C120 755 123 750 129 750 L204 750 C212 750 217 751 223 757 L291 826 L357 757 C362 751 367 750 375 750 L461 750 C467 750 469 756 465 760 L382 855 Z " />
<glyph glyph-name="ycircumflex" unicode="&#x177;" horiz-adv-x="504" d="M493 501 C495 507 492 511 485 511 L403 511 C397 511 395 508 393 501 L275 77 L257 77 L144 457 C134 492 125 511 85 511 L-12 511 C-18 511 -20 508 -20 502 L-20 448 C-20 442 -17 439 -11 439 L47 434 L183 17 C186 8 193 0 202 0 L254 0 C240 -68 208 -139 137 -139 C107 -139 84 -133 75 -131 C68 -129 64 -134 63 -139 L54 -184 C52 -192 52 -195 59 -199 C78 -208 103 -216 145 -216 C279 -216 324 -46 345 19 L493 501 Z M310 719 C307 723 304 724 298 724 L235 724 C229 724 226 723 223 719 L116 576 C113 572 115 566 121 566 L179 566 C188 566 193 569 198 576 L263 663 L328 576 C333 570 338 566 347 566 L408 566 C414 566 416 571 413 576 L310 719 Z " />
<glyph glyph-name="Ydieresis" unicode="&#x178;" horiz-adv-x="553" d="M165 659 C148 688 135 700 96 700 L-7 700 C-13 700 -15 696 -15 690 L-15 635 C-15 629 -12 625 -6 625 L60 623 L241 296 L241 10 C241 4 245 0 251 0 L336 0 C342 0 346 4 346 10 L346 296 L556 690 C559 696 556 700 550 700 L455 700 C448 700 445 696 442 690 L303 395 L297 395 L165 659 Z M202 753 C229 753 252 767 252 803 C252 840 230 853 201 853 C171 853 149 840 149 803 C149 766 175 753 202 753 L202 753 Z M381 753 C408 753 431 767 431 803 C431 840 409 853 380 853 C350 853 328 840 328 803 C328 766 354 753 381 753 L381 753 Z " />
<glyph glyph-name="Zacute" unicode="&#x179;" horiz-adv-x="585" d="M542 185 C542 191 539 195 533 195 L469 195 C463 195 461 191 460 185 L449 81 L160 81 L530 613 C533 618 536 623 536 631 L536 690 C536 696 533 700 527 700 L58 700 C52 700 48 696 48 690 L55 517 C55 511 58 507 64 507 L127 507 C133 507 135 511 136 517 L146 623 L417 623 L46 91 C44 88 40 83 40 77 L40 10 C40 4 43 0 49 0 L535 0 C541 0 545 4 545 10 L542 185 Z M199 809 C193 808 190 804 191 798 L198 751 C199 745 203 743 209 744 L467 786 C473 787 475 791 474 797 L465 860 C464 866 459 868 453 867 L199 809 Z " />
<glyph glyph-name="zacute" unicode="&#x17a;" horiz-adv-x="479" d="M441 151 C441 157 438 161 432 161 L373 161 C367 161 364 157 364 151 L350 64 L147 64 L431 437 C433 440 437 445 437 452 L434 501 C434 507 430 511 424 511 L54 511 C47 511 44 508 44 501 L50 370 C50 364 53 360 59 360 L112 360 C118 360 120 364 121 370 L137 452 L327 452 L38 72 C34 67 33 63 34 57 L39 10 C40 3 43 0 49 0 L431 0 C437 0 441 4 441 10 L441 151 Z M397 724 C400 728 398 734 392 734 L299 734 C293 734 288 732 283 724 L196 586 C193 581 195 576 201 576 L277 576 C283 576 288 580 292 586 L397 724 Z " />
<glyph glyph-name="Zdotaccent" unicode="&#x17b;" horiz-adv-x="585" d="M542 185 C542 191 539 195 533 195 L469 195 C463 195 461 191 460 185 L449 81 L160 81 L530 613 C533 618 536 623 536 631 L536 690 C536 696 533 700 527 700 L58 700 C52 700 48 696 48 690 L55 517 C55 511 58 507 64 507 L127 507 C133 507 135 511 136 517 L146 623 L417 623 L46 91 C44 88 40 83 40 77 L40 10 C40 4 43 0 49 0 L535 0 C541 0 545 4 545 10 L542 185 Z M300 753 C327 753 350 767 350 803 C350 840 328 853 299 853 C269 853 247 840 247 803 C247 766 273 753 300 753 L300 753 Z " />
<glyph glyph-name="zdotaccent" unicode="&#x17c;" horiz-adv-x="479" d="M441 151 C441 157 438 161 432 161 L373 161 C367 161 364 157 364 151 L350 64 L147 64 L431 437 C433 440 437 445 437 452 L434 501 C434 507 430 511 424 511 L54 511 C47 511 44 508 44 501 L50 370 C50 364 53 360 59 360 L112 360 C118 360 120 364 121 370 L137 452 L327 452 L38 72 C34 67 33 63 34 57 L39 10 C40 3 43 0 49 0 L431 0 C437 0 441 4 441 10 L441 151 Z M232 606 C258 606 281 622 281 658 C281 694 258 710 232 710 C202 710 181 693 181 658 C181 622 206 606 232 606 L232 606 Z " />
<glyph glyph-name="Zcaron" unicode="&#x17d;" horiz-adv-x="585" d="M542 185 C542 191 539 195 533 195 L469 195 C463 195 461 191 460 185 L449 81 L160 81 L530 613 C533 618 536 623 536 631 L536 690 C536 696 533 700 527 700 L58 700 C52 700 48 696 48 690 L55 517 C55 511 58 507 64 507 L127 507 C133 507 135 511 136 517 L146 623 L417 623 L46 91 C44 88 40 83 40 77 L40 10 C40 4 43 0 49 0 L535 0 C541 0 545 4 545 10 L542 185 Z M466 851 C470 855 468 861 462 861 L376 861 C368 861 363 860 358 854 L292 785 L224 854 C218 860 213 861 205 861 L130 861 C124 861 121 856 126 851 L210 756 C214 752 217 751 223 751 L370 751 C376 751 379 752 383 756 L466 851 Z " />
<glyph glyph-name="zcaron" unicode="&#x17e;" horiz-adv-x="479" d="M441 151 C441 157 438 161 432 161 L373 161 C367 161 364 157 364 151 L350 64 L147 64 L431 437 C433 440 437 445 437 452 L434 501 C434 507 430 511 424 511 L54 511 C47 511 44 508 44 501 L50 370 C50 364 53 360 59 360 L112 360 C118 360 120 364 121 370 L137 452 L327 452 L38 72 C34 67 33 63 34 57 L39 10 C40 3 43 0 49 0 L431 0 C437 0 441 4 441 10 L441 151 Z M199 571 C202 567 205 566 211 566 L275 566 C281 566 284 567 287 571 L390 714 C393 718 391 724 385 724 L324 724 C315 724 310 721 305 714 L240 627 L175 714 C170 720 165 724 156 724 L98 724 C92 724 90 719 93 714 L199 571 Z " />
<glyph glyph-name="longs" unicode="&#x17f;" horiz-adv-x="342" d="M101 445 L101 10 C101 4 105 0 111 0 L191 0 C197 0 201 4 201 10 L201 543 C201 615 210 701 288 701 C303 701 316 699 327 696 L338 623 C339 617 342 613 348 613 L396 613 C404 613 406 617 406 623 L411 730 C412 734 410 741 404 743 C386 750 342 762 282 762 C162 762 101 686 101 553 L101 510 L40 510 C34 510 30 506 30 500 L30 455 C30 449 34 445 40 445 L101 445 Z " />
<glyph glyph-name="Scommaaccent" unicode="&#x218;" horiz-adv-x="598" d="M169 540 C169 603 225 630 300 630 C343 630 389 623 416 610 L425 517 C426 511 428 507 436 507 L489 507 C495 507 499 511 499 517 L505 655 C506 673 497 680 478 686 C418 705 367 713 303 713 C149 713 66 629 67 525 C68 320 429 326 429 178 C429 107 380 69 289 69 C237 69 198 81 163 103 L152 204 C151 209 151 215 143 215 L82 215 C75 215 71 211 71 203 L66 64 C65 50 68 42 81 34 C133 2 211 -12 288 -12 C445 -12 538 69 538 197 C538 393 169 391 169 540 L169 540 Z M288 -55 C256 -55 232 -76 232 -106 C232 -136 258 -155 279 -158 C279 -172 261 -190 230 -195 C223 -196 221 -200 222 -207 L228 -242 C229 -249 233 -253 239 -251 C305 -243 348 -185 348 -128 C348 -76 316 -55 288 -55 L288 -55 Z " />
<glyph glyph-name="scommaaccent" unicode="&#x219;" horiz-adv-x="476" d="M409 474 C410 488 406 495 398 498 C354 513 299 522 247 522 C141 522 57 473 57 379 C57 197 333 243 333 136 C333 90 291 56 234 56 C191 56 159 63 133 82 L129 147 C129 153 127 159 118 159 L65 159 C58 159 54 154 54 148 L51 51 C50 39 55 31 62 27 C96 6 145 -12 233 -12 C363 -12 431 56 431 144 C431 313 157 282 157 388 C157 433 191 450 240 450 C281 450 316 442 331 432 L338 376 C339 371 341 369 348 369 L397 369 C403 369 405 373 405 377 L409 474 Z M239 -55 C207 -55 183 -76 183 -106 C183 -136 209 -155 230 -158 C230 -172 212 -190 181 -195 C174 -196 172 -200 173 -207 L179 -242 C180 -249 184 -253 190 -251 C256 -243 299 -185 299 -128 C299 -76 267 -55 239 -55 L239 -55 Z " />
<glyph glyph-name="uni021A" unicode="&#x21a;" horiz-adv-x="627" d="M261 10 C261 4 265 0 271 0 L283 0 L271 -90 C270 -99 274 -103 283 -104 C321 -108 348 -116 348 -139 C348 -168 302 -175 244 -175 C238 -175 236 -179 237 -185 L242 -217 C243 -223 245 -225 251 -225 C376 -224 432 -192 432 -135 C432 -90 392 -72 334 -68 L343 0 L356 0 C362 0 366 4 366 10 L366 623 L512 623 L520 517 C520 511 524 507 530 507 L587 507 C593 507 597 511 597 517 L602 690 C602 696 598 700 592 700 L35 700 C29 700 25 696 25 690 L30 517 C30 511 34 507 40 507 L97 507 C103 507 107 511 107 517 L115 623 L261 623 L261 10 Z " />
<glyph glyph-name="uni021B" unicode="&#x21b;" horiz-adv-x="366" d="M160 -90 C159 -99 163 -103 172 -104 C210 -108 237 -116 237 -139 C237 -168 191 -175 133 -175 C127 -175 125 -179 126 -185 L131 -217 C132 -223 134 -225 140 -225 C265 -224 321 -192 321 -135 C321 -90 281 -72 223 -68 L230 -14 L230 -12 C272 -11 315 0 332 7 C340 10 342 14 340 22 L331 61 C330 66 328 72 317 70 C300 67 283 65 263 65 C218 65 202 76 202 148 L202 444 L327 444 C333 444 337 448 337 454 L337 501 C337 507 333 511 327 511 L202 511 L202 640 C202 647 196 652 189 648 L108 605 C103 602 99 599 99 591 L99 511 L41 511 C34 511 31 507 30 501 L21 454 C20 448 23 444 29 444 L99 444 L99 159 C99 81 101 15 172 -5 L172 -7 L160 -90 Z " />
<glyph glyph-name="circumflex" unicode="&#x2c6;" horiz-adv-x="395" d="M243 719 C240 723 237 724 231 724 L168 724 C162 724 159 723 156 719 L49 576 C46 572 48 566 54 566 L112 566 C121 566 126 569 131 576 L196 663 L261 576 C266 570 271 566 280 566 L341 566 C347 566 349 571 346 576 L243 719 Z " />
<glyph glyph-name="caron" unicode="&#x2c7;" horiz-adv-x="677" d="M290 571 C293 567 296 566 302 566 L366 566 C372 566 375 567 378 571 L481 714 C484 718 482 724 476 724 L415 724 C406 724 401 721 396 714 L331 627 L266 714 C261 720 256 724 247 724 L189 724 C183 724 181 719 184 714 L290 571 Z " />
<glyph glyph-name="breve" unicode="&#x2d8;" horiz-adv-x="384" d="M339 700 C339 708 337 711 330 711 L282 711 C276 711 273 710 272 700 C264 647 230 622 193 622 C156 622 119 650 113 700 C112 708 109 711 103 711 L54 711 C47 711 45 708 45 700 C45 640 88 557 193 557 C298 557 339 652 339 700 L339 700 Z " />
<glyph glyph-name="dotaccent" unicode="&#x2d9;" horiz-adv-x="519" d="M262 606 C288 606 311 622 311 658 C311 694 288 710 262 710 C232 710 211 693 211 658 C211 622 236 606 262 606 L262 606 Z " />
<glyph glyph-name="ring" unicode="&#x2da;" horiz-adv-x="477" d="M238 557 C300 557 350 606 350 668 C350 730 300 779 238 779 C176 779 127 730 127 668 C127 608 177 557 238 557 L238 557 Z M238 723 C269 723 292 700 292 668 C292 636 269 613 238 613 C208 613 184 636 184 668 C184 700 208 723 238 723 L238 723 Z " />
<glyph glyph-name="ogonek" unicode="&#x2db;" horiz-adv-x="309" d="M232 41 C156 2 72 -48 72 -127 C72 -183 114 -216 164 -216 C215 -216 247 -192 257 -182 C260 -179 261 -176 260 -172 L254 -150 C253 -146 251 -143 245 -146 C231 -153 217 -155 200 -155 C172 -155 155 -139 155 -107 C155 -73 173 -36 234 -2 C238 0 241 2 241 6 C241 10 232 41 232 41 L232 41 Z " />
<glyph glyph-name="tilde" unicode="&#x2dc;" horiz-adv-x="468" d="M82 583 C89 583 92 586 93 592 C96 616 116 629 144 629 C197 629 260 583 334 583 C388 583 430 619 430 689 C430 694 428 699 422 699 L391 699 C385 699 382 696 381 689 C377 663 355 653 332 653 C278 653 215 701 144 701 C72 701 39 649 39 593 C39 587 43 583 49 583 L82 583 Z " />
<glyph glyph-name="hungarumlaut" unicode="&#x2dd;" horiz-adv-x="606" d="M294 724 C297 728 295 734 289 734 L197 734 C191 734 186 732 181 724 L105 586 C102 581 104 576 110 576 L186 576 C192 576 197 580 201 586 L294 724 Z M480 724 C483 728 481 734 475 734 L383 734 C377 734 372 732 367 724 L281 586 C278 581 280 576 286 576 L362 576 C368 576 373 580 377 586 L480 724 Z " />
<glyph glyph-name="Wgrave" unicode="&#x1e80;" horiz-adv-x="937" d="M493 478 L605 10 C607 4 612 0 618 0 L750 0 C756 0 761 4 763 10 L926 689 C927 694 924 700 918 700 L820 700 C815 700 812 698 810 692 L695 116 L685 116 L573 595 C572 600 569 603 562 603 L437 603 C432 603 429 601 427 595 L312 116 L302 116 L181 646 C170 680 160 700 120 700 L-7 700 C-13 700 -15 697 -15 691 L-15 632 C-15 626 -12 622 -6 622 L74 619 L223 10 C225 4 230 0 236 0 L360 0 C366 0 371 4 373 10 L486 478 L493 478 Z M357 867 C351 868 346 866 345 860 L336 797 C335 791 337 787 343 786 L601 744 C607 743 611 745 612 751 L619 798 C620 804 617 808 611 809 L357 867 Z " />
<glyph glyph-name="wgrave" unicode="&#x1e81;" horiz-adv-x="763" d="M154 457 C146 492 126 511 82 511 L-17 511 C-23 511 -25 508 -25 502 L-26 448 C-26 442 -23 440 -17 439 L54 432 L167 9 C168 5 172 0 180 0 L293 0 C300 0 305 5 306 9 L388 392 L402 392 L475 10 C476 7 480 0 489 0 L607 0 C615 0 618 7 619 10 L741 496 C743 502 743 511 735 511 L653 511 C647 511 644 506 643 501 L551 88 L541 88 L464 501 C463 505 461 511 454 511 L343 511 C336 511 333 505 332 501 L248 88 L237 88 L154 457 Z M348 586 C352 580 357 576 363 576 L436 576 C442 576 444 581 441 586 L354 724 C349 732 344 734 338 734 L250 734 C244 734 242 728 245 724 L348 586 Z " />
<glyph glyph-name="Wacute" unicode="&#x1e82;" horiz-adv-x="937" d="M493 478 L605 10 C607 4 612 0 618 0 L750 0 C756 0 761 4 763 10 L926 689 C927 694 924 700 918 700 L820 700 C815 700 812 698 810 692 L695 116 L685 116 L573 595 C572 600 569 603 562 603 L437 603 C432 603 429 601 427 595 L312 116 L302 116 L181 646 C170 680 160 700 120 700 L-7 700 C-13 700 -15 697 -15 691 L-15 632 C-15 626 -12 622 -6 622 L74 619 L223 10 C225 4 230 0 236 0 L360 0 C366 0 371 4 373 10 L486 478 L493 478 Z M372 809 C366 808 363 804 364 798 L371 751 C372 745 376 743 382 744 L640 786 C646 787 648 791 647 797 L638 860 C637 866 632 868 626 867 L372 809 Z " />
<glyph glyph-name="wacute" unicode="&#x1e83;" horiz-adv-x="763" d="M154 457 C146 492 126 511 82 511 L-17 511 C-23 511 -25 508 -25 502 L-26 448 C-26 442 -23 440 -17 439 L54 432 L167 9 C168 5 172 0 180 0 L293 0 C300 0 305 5 306 9 L388 392 L402 392 L475 10 C476 7 480 0 489 0 L607 0 C615 0 618 7 619 10 L741 496 C743 502 743 511 735 511 L653 511 C647 511 644 506 643 501 L551 88 L541 88 L464 501 C463 505 461 511 454 511 L343 511 C336 511 333 505 332 501 L248 88 L237 88 L154 457 Z M543 724 C546 728 544 734 538 734 L445 734 C439 734 434 732 429 724 L342 586 C339 581 341 576 347 576 L423 576 C429 576 434 580 438 586 L543 724 Z " />
<glyph glyph-name="Wdieresis" unicode="&#x1e84;" horiz-adv-x="937" d="M493 478 L605 10 C607 4 612 0 618 0 L750 0 C756 0 761 4 763 10 L926 689 C927 694 924 700 918 700 L820 700 C815 700 812 698 810 692 L695 116 L685 116 L573 595 C572 600 569 603 562 603 L437 603 C432 603 429 601 427 595 L312 116 L302 116 L181 646 C170 680 160 700 120 700 L-7 700 C-13 700 -15 697 -15 691 L-15 632 C-15 626 -12 622 -6 622 L74 619 L223 10 C225 4 230 0 236 0 L360 0 C366 0 371 4 373 10 L486 478 L493 478 Z M414 753 C441 753 464 767 464 803 C464 840 442 853 413 853 C383 853 361 840 361 803 C361 766 387 753 414 753 L414 753 Z M593 753 C620 753 643 767 643 803 C643 840 621 853 592 853 C562 853 540 840 540 803 C540 766 566 753 593 753 L593 753 Z " />
<glyph glyph-name="wdieresis" unicode="&#x1e85;" horiz-adv-x="763" d="M154 457 C146 492 126 511 82 511 L-17 511 C-23 511 -25 508 -25 502 L-26 448 C-26 442 -23 440 -17 439 L54 432 L167 9 C168 5 172 0 180 0 L293 0 C300 0 305 5 306 9 L388 392 L402 392 L475 10 C476 7 480 0 489 0 L607 0 C615 0 618 7 619 10 L741 496 C743 502 743 511 735 511 L653 511 C647 511 644 506 643 501 L551 88 L541 88 L464 501 C463 505 461 511 454 511 L343 511 C336 511 333 505 332 501 L248 88 L237 88 L154 457 Z M298 606 C325 606 347 622 347 658 C347 694 325 710 298 710 C268 710 247 693 247 658 C247 622 272 606 298 606 L298 606 Z M490 606 C516 606 538 622 538 658 C538 693 516 710 490 710 C459 710 438 693 438 658 C438 622 463 606 490 606 L490 606 Z " />
<glyph glyph-name="Ygrave" unicode="&#x1ef2;" horiz-adv-x="553" d="M165 659 C148 688 135 700 96 700 L-7 700 C-13 700 -15 696 -15 690 L-15 635 C-15 629 -12 625 -6 625 L60 623 L241 296 L241 10 C241 4 245 0 251 0 L336 0 C342 0 346 4 346 10 L346 296 L556 690 C559 696 556 700 550 700 L455 700 C448 700 445 696 442 690 L303 395 L297 395 L165 659 Z M106 867 C100 868 95 866 94 860 L85 797 C84 791 86 787 92 786 L350 744 C356 743 360 745 361 751 L368 798 C369 804 366 808 360 809 L106 867 Z " />
<glyph glyph-name="ygrave" unicode="&#x1ef3;" horiz-adv-x="504" d="M493 501 C495 507 492 511 485 511 L403 511 C397 511 395 508 393 501 L275 77 L257 77 L144 457 C134 492 125 511 85 511 L-12 511 C-18 511 -20 508 -20 502 L-20 448 C-20 442 -17 439 -11 439 L47 434 L183 17 C186 8 193 0 202 0 L254 0 C240 -68 208 -139 137 -139 C107 -139 84 -133 75 -131 C68 -129 64 -134 63 -139 L54 -184 C52 -192 52 -195 59 -199 C78 -208 103 -216 145 -216 C279 -216 324 -46 345 19 L493 501 Z M219 586 C223 580 228 576 234 576 L307 576 C313 576 315 581 312 586 L225 724 C220 732 215 734 209 734 L121 734 C115 734 113 728 116 724 L219 586 Z " />
<glyph glyph-name="endash" unicode="&#x2013;" horiz-adv-x="630" d="M529 286 C529 292 525 296 519 296 L111 296 C105 296 101 292 101 286 C101 286 101 244 101 238 C101 232 105 228 111 228 L519 228 C525 228 529 232 529 238 L529 286 Z " />
<glyph glyph-name="emdash" unicode="&#x2014;" horiz-adv-x="913" d="M813 286 C813 292 809 296 803 296 L111 296 C105 296 101 292 101 286 C101 286 101 244 101 238 C101 232 105 228 111 228 L803 228 C809 228 813 232 813 238 L813 286 Z " />
<glyph glyph-name="quoteleft" unicode="&#x2018;" horiz-adv-x="202" d="M101 468 C133 468 157 488 157 518 C157 548 131 567 110 570 C110 590 129 629 162 655 C168 660 168 664 164 669 L142 696 C137 702 132 703 127 699 C73 660 40 597 40 540 C40 488 73 468 101 468 L101 468 Z " />
<glyph glyph-name="quoteright" unicode="&#x2019;" horiz-adv-x="202" d="M102 700 C70 700 46 679 46 649 C46 619 72 600 93 597 C93 577 74 539 40 513 C34 508 34 504 38 499 L60 471 C65 465 70 464 75 468 C128 507 162 570 162 627 C162 679 130 700 102 700 L102 700 Z " />
<glyph glyph-name="quotesinglbase" unicode="&#x201a;" horiz-adv-x="328" d="M157 106 C125 106 101 85 101 55 C101 25 127 6 148 3 C148 -17 129 -55 95 -81 C89 -86 89 -90 93 -95 L115 -123 C120 -129 125 -130 130 -126 C183 -87 217 -24 217 33 C217 85 185 106 157 106 L157 106 Z " />
<glyph glyph-name="quotedblleft" unicode="&#x201c;" horiz-adv-x="371" d="M101 466 C133 466 157 486 157 516 C157 546 131 565 110 568 C110 588 129 627 162 653 C168 658 168 662 164 667 L142 694 C137 700 132 701 127 697 C73 658 40 595 40 538 C40 486 73 466 101 466 L101 466 Z M270 466 C302 466 326 486 326 516 C326 546 300 565 279 568 C279 588 298 627 331 653 C337 658 337 662 333 667 L311 694 C306 700 301 701 296 697 C242 658 209 595 209 538 C209 486 242 466 270 466 L270 466 Z " />
<glyph glyph-name="quotedblright" unicode="&#x201d;" horiz-adv-x="371" d="M102 700 C70 700 46 679 46 649 C46 619 72 600 93 597 C93 577 74 539 40 513 C34 508 34 504 38 499 L60 471 C65 465 70 464 75 468 C128 507 162 570 162 627 C162 679 130 700 102 700 L102 700 Z M271 700 C239 700 215 679 215 649 C215 619 241 600 262 597 C262 577 243 539 209 513 C203 508 203 504 207 499 L229 471 C234 465 239 464 244 468 C297 507 331 570 331 627 C331 679 299 700 271 700 L271 700 Z " />
<glyph glyph-name="quotedblbase" unicode="&#x201e;" horiz-adv-x="436" d="M142 106 C110 106 86 85 86 55 C86 25 112 6 133 3 C133 -17 114 -55 80 -81 C74 -86 74 -90 78 -95 L100 -123 C105 -129 110 -130 115 -126 C168 -87 202 -24 202 33 C202 85 170 106 142 106 L142 106 Z M311 106 C279 106 255 85 255 55 C255 25 281 6 302 3 C302 -17 283 -55 249 -81 C243 -86 243 -90 247 -95 L269 -123 C274 -129 279 -130 284 -126 C337 -87 371 -24 371 33 C371 85 339 106 311 106 L311 106 Z " />
<glyph glyph-name="dagger" unicode="&#x2020;" horiz-adv-x="517" d="M458 264 C464 264 468 267 468 273 L468 346 C468 352 464 355 458 355 L290 340 L302 550 C302 556 298 560 292 560 L226 560 C220 560 216 556 216 550 L229 340 L59 355 C53 355 49 352 49 346 L49 273 C49 267 53 264 59 264 L228 278 L217 -251 C217 -257 221 -261 227 -261 C227 -261 287 -261 293 -261 C299 -261 303 -257 303 -251 L291 278 L458 264 Z " />
<glyph glyph-name="daggerdbl" unicode="&#x2021;" horiz-adv-x="514" d="M450 314 C456 314 460 317 460 323 L460 396 C460 402 456 405 450 405 L288 391 L300 550 C300 556 296 560 290 560 L222 560 C216 560 212 556 212 550 L223 391 L58 405 C52 405 48 402 48 396 L48 323 C48 317 52 314 58 314 L225 329 L212 161 C212 155 216 151 222 151 C222 151 282 151 288 151 C294 151 298 155 298 161 L285 329 L450 314 Z M450 -142 C456 -142 460 -139 460 -133 L460 -60 C460 -54 456 -51 450 -51 L288 -65 L298 94 C298 100 294 104 288 104 L222 104 C216 104 212 100 212 94 L223 -65 L58 -51 C52 -51 48 -54 48 -60 L48 -133 C48 -139 52 -142 58 -142 L225 -127 L212 -295 C212 -301 216 -305 222 -305 C222 -305 282 -305 288 -305 C294 -305 298 -301 298 -295 L285 -127 L450 -142 Z " />
<glyph glyph-name="bullet" unicode="&#x2022;" horiz-adv-x="406" d="M218 182 C270 182 317 214 317 286 C317 360 270 392 218 392 C156 392 113 360 113 286 C113 214 164 182 218 182 L218 182 Z " />
<glyph glyph-name="ellipsis" unicode="&#x2026;" horiz-adv-x="705" d="M128 -12 C157 -12 183 6 183 46 C183 87 157 105 128 105 C94 105 70 87 70 46 C70 6 98 -12 128 -12 L128 -12 Z M354 -12 C383 -12 409 6 409 46 C409 87 383 105 354 105 C320 105 296 87 296 46 C296 6 324 -12 354 -12 L354 -12 Z M580 -12 C609 -12 635 6 635 46 C635 87 609 105 580 105 C546 105 522 87 522 46 C522 6 550 -12 580 -12 L580 -12 Z " />
<glyph glyph-name="guilsinglleft" unicode="&#x2039;" horiz-adv-x="371" d="M150 246 L333 484 C336 488 335 493 329 493 L245 493 C239 493 235 490 231 484 L56 258 C50 250 50 241 56 233 L231 9 C236 3 239 0 245 0 L327 0 C334 0 335 7 332 11 L150 246 Z " />
<glyph glyph-name="guilsinglright" unicode="&#x203a;" horiz-adv-x="371" d="M54 11 C51 7 52 0 59 0 L141 0 C147 0 150 3 155 9 L330 233 C336 241 336 250 330 258 L155 484 C151 490 147 493 141 493 L57 493 C51 493 50 488 53 484 L236 246 L54 11 Z " />
<glyph glyph-name="fraction" unicode="&#x2044;" horiz-adv-x="432" d="M12 8 C10 2 13 0 19 0 L94 0 C99 0 101 2 104 8 L432 692 C435 698 431 700 425 700 L350 700 C345 700 343 698 340 692 L12 8 Z " />
<glyph glyph-name="foursuperior" unicode="&#x2074;" horiz-adv-x="409" d="M41 449 C41 443 45 439 51 439 L235 439 L235 365 C235 362 237 359 241 359 L306 359 C310 359 312 362 312 365 L312 439 L363 439 C369 439 373 443 373 449 L373 501 C373 507 369 511 363 511 L312 511 L312 740 C312 746 308 750 302 750 L214 750 C208 750 203 747 199 741 L46 517 C42 511 41 506 41 500 L41 449 Z M233 678 L233 511 L129 511 L233 678 Z " />
<glyph glyph-name="Euro" unicode="&#x20ac;" horiz-adv-x="638" d="M490 476 C490 470 493 467 498 467 L558 467 C563 467 565 470 566 476 L576 605 C577 614 575 620 568 624 C549 635 495 656 400 656 C248 656 145 547 117 403 L54 403 C48 403 44 399 44 393 L44 345 C44 339 48 335 54 335 L109 335 L109 321 C109 301 110 283 112 265 L54 265 C48 265 44 261 44 255 L44 207 C44 201 48 197 54 197 L124 197 C159 69 249 -12 386 -12 C480 -12 545 20 572 37 C578 40 578 46 575 52 L556 101 C552 106 547 105 542 103 C516 93 472 70 404 70 C321 70 260 117 230 197 L414 197 C422 197 425 203 428 209 L447 253 C448 255 448 256 448 258 C448 262 444 265 438 265 L213 265 C211 283 210 301 210 321 L210 335 L466 335 C474 335 477 341 480 347 L499 391 C500 393 500 394 500 396 C500 400 496 403 490 403 L217 403 C242 525 321 583 407 583 C457 583 484 569 484 569 L490 476 Z " />
<glyph glyph-name="trademark" unicode="&#x2122;" horiz-adv-x="953" d="M168 331 C168 327 171 325 174 325 L239 325 C242 325 244 327 244 331 L244 653 L329 653 L332 596 C332 593 335 590 337 590 L378 590 C382 590 384 593 384 596 L387 694 C387 697 384 700 381 700 L31 700 C27 700 24 697 24 694 L28 596 C28 593 30 590 33 590 L74 590 C78 590 81 593 81 596 L84 653 L168 653 L168 331 Z M866 690 C866 695 863 700 856 700 L759 700 C751 700 745 696 743 689 L683 458 L676 458 L607 678 C603 691 591 700 569 700 L430 700 C427 700 424 697 424 694 L424 658 C424 655 427 653 430 653 L473 650 L460 331 C460 327 462 325 466 325 L525 325 C528 325 530 327 530 331 L541 641 L546 641 L632 394 C637 380 641 375 653 375 L700 375 C713 375 715 380 720 394 L795 641 L800 641 L814 331 C814 327 816 325 819 325 L880 325 C884 325 886 327 886 331 L866 690 Z " />
<glyph glyph-name="onethird" unicode="&#x2153;" horiz-adv-x="1008" d="M295 8 C293 2 296 0 302 0 L377 0 C382 0 384 2 387 8 L715 692 C718 698 714 700 708 700 L633 700 C628 700 626 698 623 692 L295 8 Z M67 575 C62 571 62 564 64 560 L88 509 C90 504 96 503 100 507 L182 585 L182 384 L85 380 C79 380 75 378 75 371 L75 318 C75 312 78 308 84 308 L356 308 C362 308 365 312 365 318 L365 370 C365 376 363 380 355 380 L263 384 L263 690 C263 696 259 700 253 700 L211 700 C204 700 199 697 195 693 L67 575 Z M745 172 C745 166 749 162 755 162 L765 162 C836 162 865 150 865 113 C865 78 834 62 782 62 C736 62 694 84 677 92 C673 94 667 93 666 87 C664 79 655 44 654 36 C653 32 655 26 659 24 C672 16 721 -5 782 -5 C890 -5 946 39 946 106 C946 147 916 188 856 195 C904 208 933 238 933 283 C933 348 872 390 797 390 C731 390 674 362 674 362 C668 359 665 354 665 349 L671 260 C671 254 674 251 679 251 L718 251 C725 251 727 255 727 260 L732 313 C732 313 754 324 784 324 C827 324 852 306 852 273 C852 236 813 213 755 213 C749 213 745 209 745 203 L745 172 Z " />
<glyph glyph-name="minus" unicode="&#x2212;" horiz-adv-x="525" d="M461 307 C461 313 457 317 451 317 L79 317 C73 317 69 313 69 307 C69 307 69 256 69 250 C69 244 73 240 79 240 L451 240 C457 240 461 244 461 250 L461 307 Z " />
<glyph glyph-name="approxequal" unicode="&#x2248;" horiz-adv-x="566" d="M111 355 C118 355 121 358 122 364 C125 388 145 403 173 403 C226 403 336 355 410 355 C464 355 507 390 507 461 C507 466 505 471 499 471 L467 471 C461 471 458 468 457 461 C453 435 431 423 408 423 C354 423 244 473 173 473 C101 473 68 421 68 365 C68 359 72 355 78 355 L111 355 Z M95 147 C102 147 105 150 106 156 C109 180 129 195 157 195 C210 195 320 147 394 147 C448 147 491 182 491 253 C491 258 489 263 483 263 L451 263 C445 263 442 260 441 253 C437 227 415 215 392 215 C338 215 228 265 157 265 C85 265 52 213 52 157 C52 151 56 147 62 147 L95 147 Z " />
<glyph glyph-name="lessequal" unicode="&#x2264;" horiz-adv-x="565" d="M504 67 C504 73 500 77 494 77 L53 77 C47 77 43 73 43 67 C43 67 43 16 43 10 C43 4 47 0 53 0 L494 0 C500 0 504 4 504 10 L504 67 Z M53 354 C53 349 55 345 61 342 L486 145 C492 143 494 146 494 152 L494 228 C494 233 492 236 486 238 L187 371 L486 504 C492 506 494 509 494 514 L494 590 C494 596 492 599 486 597 L61 400 C55 397 53 393 53 388 L53 354 Z " />
<glyph glyph-name="greaterequal" unicode="&#x2265;" horiz-adv-x="563" d="M56 10 C56 4 60 0 66 0 L507 0 C513 0 517 4 517 10 C517 16 517 67 517 67 C517 73 513 77 507 77 L66 77 C60 77 56 73 56 67 L56 10 Z M507 388 C507 393 505 397 499 400 L74 597 C68 599 66 596 66 590 L66 514 C66 509 68 506 74 504 L373 371 L74 238 C68 236 66 233 66 228 L66 152 C66 146 68 143 74 145 L499 342 C505 345 507 349 507 354 L507 388 Z " />
<glyph glyph-name="commaaccent" unicode="&#xf6c3;" horiz-adv-x="220" d="M116 -55 C84 -55 60 -76 60 -106 C60 -136 86 -155 107 -158 C107 -172 89 -190 58 -195 C51 -196 49 -200 50 -207 L56 -242 C57 -249 61 -253 67 -251 C133 -243 176 -185 176 -128 C176 -76 144 -55 116 -55 L116 -55 Z " />
<glyph glyph-name="Acute" unicode="&#xf6c9;" horiz-adv-x="499" d="M198 809 C192 808 189 804 190 798 L197 751 C198 745 202 743 208 744 L466 786 C472 787 474 791 473 797 L464 860 C463 866 458 868 452 867 L198 809 Z " />
<glyph glyph-name="Caron" unicode="&#xf6ca;" horiz-adv-x="597" d="M476 851 C480 855 478 861 472 861 L386 861 C378 861 373 860 368 854 L302 785 L234 854 C228 860 223 861 215 861 L140 861 C134 861 131 856 136 851 L220 756 C224 752 227 751 233 751 L380 751 C386 751 389 752 393 756 L476 851 Z " />
<glyph glyph-name="Dieresis" unicode="&#xf6cb;" horiz-adv-x="522" d="M171 753 C198 753 221 767 221 803 C221 840 199 853 170 853 C140 853 118 840 118 803 C118 766 144 753 171 753 L171 753 Z M350 753 C377 753 400 767 400 803 C400 840 378 853 349 853 C319 853 297 840 297 803 C297 766 323 753 350 753 L350 753 Z " />
<glyph glyph-name="Grave" unicode="&#xf6ce;" horiz-adv-x="447" d="M100 867 C94 868 89 866 88 860 L79 797 C78 791 80 787 86 786 L344 744 C350 743 354 745 355 751 L362 798 C363 804 360 808 354 809 L100 867 Z " />
<glyph glyph-name="Hungarumlaut" unicode="&#xf6cf;" horiz-adv-x="759" d="M584 867 C587 871 585 877 579 877 L487 877 C481 877 476 875 471 867 L385 759 C382 754 384 749 390 749 L463 749 C471 749 475 753 481 759 L584 867 Z M399 867 C402 871 400 877 394 877 L302 877 C296 877 291 875 286 867 L200 759 C197 754 199 749 205 749 L279 749 C285 749 291 753 296 759 L399 867 Z " />
<glyph glyph-name="Macron" unicode="&#xf6d0;" horiz-adv-x="567" d="M438 826 C438 833 433 837 426 837 L126 837 C119 837 114 833 114 826 L114 772 C114 765 119 760 126 760 L426 760 C433 760 438 765 438 772 L438 826 Z " />
<glyph glyph-name="zerooldstyle" unicode="&#xf730;" horiz-adv-x="572" d="M287 -12 C436 -12 522 84 522 256 C522 445 431 522 287 522 C150 522 50 435 50 256 C50 68 149 -12 287 -12 L287 -12 Z M287 66 C199 66 151 144 151 252 C151 393 204 448 287 448 C369 448 424 404 424 252 C424 135 374 66 287 66 L287 66 Z " />
<glyph glyph-name="oneoldstyle" unicode="&#xf731;" horiz-adv-x="500" d="M214 81 L74 75 C69 75 66 72 66 67 L66 9 C66 3 68 0 73 0 L436 0 C442 0 443 3 443 9 L443 67 C443 72 441 75 435 75 L310 81 L310 502 C310 507 306 511 300 511 L244 511 C204 471 125 395 60 340 C58 338 53 333 57 325 L85 269 C88 264 94 262 98 266 C143 301 188 348 214 372 L214 81 Z " />
<glyph glyph-name="twooldstyle" unicode="&#xf732;" horiz-adv-x="500" d="M439 0 C445 0 448 4 448 9 L448 77 C448 82 445 85 439 85 L134 85 C134 185 447 173 447 370 C447 466 366 522 253 522 C170 522 94 501 70 492 C65 490 59 486 60 477 L68 350 C68 344 70 341 76 341 L129 341 C135 341 136 344 137 350 L144 429 C170 439 202 446 231 446 C307 446 341 417 341 372 C341 215 33 278 33 47 L33 9 C33 4 37 0 42 0 L439 0 Z " />
<glyph glyph-name="threeoldstyle" unicode="&#xf733;" horiz-adv-x="552" d="M171 122 C171 116 175 112 181 112 L204 112 C322 112 386 77 387 0 C388 -73 337 -129 236 -129 C165 -129 102 -113 77 -101 C72 -98 68 -101 67 -107 L55 -175 C54 -181 56 -187 62 -190 C82 -200 143 -216 239 -216 C405 -216 491 -108 491 -6 C491 93 431 138 318 155 C408 179 469 249 469 347 C469 454 389 522 268 522 C155 522 77 488 77 488 C72 486 66 479 66 473 L67 452 L75 337 C75 331 77 327 83 327 L138 327 C144 327 147 331 147 337 L154 426 C177 433 206 439 237 439 C322 439 366 399 366 334 C366 247 289 190 181 190 C175 190 171 186 171 180 L171 122 Z " />
<glyph glyph-name="fouroldstyle" unicode="&#xf734;" horiz-adv-x="600" d="M44 9 C44 4 48 0 54 0 L363 0 L363 -206 C363 -212 367 -216 373 -216 L454 -216 C460 -216 464 -212 464 -206 L464 0 L532 0 C538 0 543 4 544 9 L556 76 C557 82 553 86 547 86 L464 86 L464 502 C464 507 460 511 454 511 L348 511 C342 511 336 508 333 503 L50 90 C44 81 44 77 44 71 L44 9 Z M361 407 L359 86 L145 86 L359 407 L361 407 Z " />
<glyph glyph-name="fiveoldstyle" unicode="&#xf735;" horiz-adv-x="574" d="M64 -103 C59 -100 56 -103 55 -109 L42 -177 C41 -183 42 -190 49 -192 C49 -192 136 -215 237 -215 C404 -215 500 -110 500 23 C500 164 400 222 283 222 C223 222 170 211 170 211 L184 426 L382 426 L391 332 C392 326 394 322 400 322 L454 322 C460 322 463 326 463 332 L472 493 L472 501 C472 507 468 511 462 511 L108 511 C102 511 99 507 99 501 L75 128 C75 122 78 119 84 120 C109 125 167 137 222 137 C319 137 397 110 397 14 C397 -76 329 -129 230 -129 C157 -129 64 -103 64 -103 L64 -103 Z " />
<glyph glyph-name="sixoldstyle" unicode="&#xf736;" horiz-adv-x="600" d="M313 -12 C457 -12 540 103 540 216 C540 354 448 420 342 420 C275 420 218 390 179 360 C179 536 238 633 353 633 C417 633 461 617 475 613 C481 611 486 612 488 617 L506 680 C509 688 507 691 501 694 C487 700 434 721 343 721 C159 721 63 571 63 325 C63 139 146 -12 313 -12 L313 -12 Z M313 331 C377 331 433 292 433 208 C433 121 389 70 315 70 C230 70 185 153 179 269 C209 302 250 331 313 331 L313 331 Z " />
<glyph glyph-name="sevenoldstyle" unicode="&#xf737;" horiz-adv-x="589" d="M55 511 C49 511 45 507 45 501 L54 338 C54 332 57 328 63 328 L119 328 C125 328 128 332 128 338 L135 421 L420 421 L127 -168 L221 -215 L525 451 L525 501 C525 507 521 511 515 511 L55 511 Z " />
<glyph glyph-name="eightoldstyle" unicode="&#xf738;" horiz-adv-x="565" d="M71 526 C71 442 118 397 178 365 C111 334 40 285 40 185 C40 80 129 -12 283 -12 C437 -12 526 80 526 185 C526 285 462 332 389 365 C441 395 495 440 495 526 C495 626 413 710 283 710 C153 710 71 626 71 526 L71 526 Z M151 190 C151 266 222 317 248 333 C332 299 415 270 415 190 C415 113 357 67 283 67 C210 67 151 115 151 190 L151 190 Z M395 523 C395 457 343 410 320 392 C242 422 172 449 172 523 C172 593 221 632 283 632 C346 632 395 591 395 523 L395 523 Z " />
<glyph glyph-name="nineoldstyle" unicode="&#xf739;" horiz-adv-x="600" d="M289 522 C145 522 62 407 62 294 C62 156 159 77 265 77 C332 77 388 102 427 132 C427 -44 364 -128 249 -128 C185 -128 141 -112 127 -108 C121 -106 116 -107 114 -112 L96 -175 C93 -183 95 -186 101 -189 C115 -195 168 -216 259 -216 C443 -216 539 -56 539 185 C539 371 456 522 289 522 L289 522 Z M289 166 C225 166 169 218 169 302 C169 389 218 439 285 439 C380 439 417 339 423 223 C393 190 352 166 289 166 L289 166 Z " />
<glyph glyph-name="ff" unicode="&#xfb00;" horiz-adv-x="631" d="M87 446 L87 10 C87 4 91 0 97 0 L177 0 C183 0 187 4 187 10 L187 446 L390 446 L390 10 C390 4 394 0 400 0 L480 0 C486 0 490 4 490 10 L490 446 L599 446 C606 446 609 450 610 456 L620 499 C622 506 620 511 613 511 L490 511 L490 543 C490 615 499 701 577 701 C592 701 605 699 616 696 L627 623 C628 617 631 613 637 613 L685 613 C693 613 695 617 695 623 L700 730 C701 734 699 741 693 743 C675 750 631 762 571 762 C513 762 469 744 439 711 C416 724 368 742 303 742 C187 742 87 678 87 556 L87 511 L26 511 C20 511 16 507 16 501 L16 456 C16 450 20 446 26 446 L87 446 Z M390 553 L390 511 L187 511 L187 553 C187 640 243 674 307 674 C363 674 395 659 405 654 C395 625 390 591 390 553 L390 553 Z " />
<glyph glyph-name="fi" unicode="&#xfb01;" horiz-adv-x="560" d="M490 457 C488 487 474 511 431 511 L187 511 L187 543 C187 615 213 701 334 701 C350 701 368 699 379 696 L390 623 C391 617 394 613 400 613 L453 613 C461 613 463 617 463 623 L468 730 C468 736 466 741 458 744 C440 751 392 762 326 762 C169 762 87 679 87 553 L87 511 L26 511 C20 511 16 507 16 501 L16 456 C16 450 20 446 26 446 L87 446 L87 10 C87 4 91 0 97 0 L177 0 C183 0 187 4 187 10 L187 446 L390 446 L390 10 C390 4 394 0 400 0 L480 0 C486 0 490 4 490 10 L490 457 Z " />
<glyph glyph-name="fl" unicode="&#xfb02;" horiz-adv-x="598" d="M490 110 L490 744 C490 750 482 756 473 752 L445 739 C427 746 367 762 305 762 C172 762 87 686 87 553 L87 511 L26 511 C20 511 16 507 16 501 L16 456 C16 450 20 446 26 446 L87 446 L87 10 C87 4 91 0 97 0 L177 0 C183 0 187 4 187 10 L187 446 L296 446 C303 446 306 450 307 456 L317 499 C319 506 317 511 310 511 L187 511 L187 543 C187 627 219 694 311 694 C351 694 379 687 390 684 L390 71 C390 22 416 -12 483 -12 C516 -12 547 -1 558 3 C564 5 566 9 566 14 C566 14 558 63 557 67 C556 74 552 77 547 76 C525 73 490 57 490 110 L490 110 Z " />
</font>
</svg>
