<?xml version="1.0" encoding="UTF-8" standalone="no"?>
<!-- Creator: CorelDRAW -->

<svg
   xmlns:dc="http://purl.org/dc/elements/1.1/"
   xmlns:cc="http://creativecommons.org/ns#"
   xmlns:rdf="http://www.w3.org/1999/02/22-rdf-syntax-ns#"
   xmlns:svg="http://www.w3.org/2000/svg"
   xmlns="http://www.w3.org/2000/svg"
   xmlns:sodipodi="http://sodipodi.sourceforge.net/DTD/sodipodi-0.dtd"
   xmlns:inkscape="http://www.inkscape.org/namespaces/inkscape"
   xml:space="preserve"
   width="1000"
   height="196.392"
   viewBox="0 0 1280.9422 310.08951"
   id="svg3312"
   sodipodi:version="0.32"
   inkscape:version="0.92.2 (5c3e80d, 2017-08-06)"
   sodipodi:docname="Nvidia (Horizontal).svg"
   version="1.0"
   style="clip-rule:evenodd;fill-rule:evenodd;image-rendering:optimizeQuality;shape-rendering:geometricPrecision;text-rendering:geometricPrecision"><metadata
     id="metadata3323"><rdf:RDF><cc:Work
         rdf:about=""><dc:format>image/svg+xml</dc:format><dc:type
           rdf:resource="http://purl.org/dc/dcmitype/StillImage" /><dc:title></dc:title></cc:Work></rdf:RDF></metadata><defs
     id="defs3321" /><sodipodi:namedview
     inkscape:window-height="705"
     inkscape:window-width="1366"
     inkscape:pageshadow="2"
     inkscape:pageopacity="0.0"
     guidetolerance="10.0"
     gridtolerance="10.0"
     objecttolerance="10.0"
     borderopacity="1.0"
     bordercolor="#666666"
     pagecolor="#ffffff"
     id="base"
     inkscape:zoom="0.35355339"
     inkscape:cx="1057.1006"
     inkscape:cy="139.00781"
     inkscape:window-x="-8"
     inkscape:window-y="-8"
     inkscape:current-layer="svg3312"
     showgrid="false"
     inkscape:window-maximized="1" /><path
     style="fill-rule:evenodd;stroke-width:1.68655133"
     inkscape:connector-curvature="0"
     d="m 817.20424,53.942696 0.0196,196.346594 h 55.45044 V 53.946076 Z M 380.9845,53.676216 V 250.28929 h 55.94456 V 100.99748 l 43.34098,0.0151 c 14.3559,0 24.58145,3.57208 31.49973,10.95413 8.77172,9.34691 12.3506,24.41454 12.3506,51.98803 v 86.33451 H 578.3262 V 141.66189 c 0,-77.530774 -49.42104,-87.985704 -97.76766,-87.985704 z m 525.50408,0.27323 V 250.28929 h 89.94207 c 47.91995,0 63.55945,-7.97059 80.47385,-25.83796 11.9576,-12.54453 19.6821,-40.08089 19.6821,-70.17403 0,-27.59701 -6.5388,-52.21897 -17.9467,-67.551424 -20.5438,-27.41658 -50.1412,-32.77643 -94.32541,-32.77643 z m 55.00687,42.7507 h 23.84116 c 34.58929,0 56.95979,15.533134 56.95979,55.836634 0,40.31195 -22.3705,55.84509 -56.95979,55.84509 h -23.84116 z m -224.24218,-42.7507 -46.27902,155.609634 -44.3461,-155.599514 -59.8591,-0.0103 63.33162,196.339834 h 79.92235 L 793.85051,53.949266 Z M 1122.3908,250.28929 h 55.4605 V 53.959566 l -55.474,-0.0103 z M 1277.8402,54.020286 1200.409,250.22186 h 54.678 l 12.251,-34.67885 h 91.6355 l 11.5967,34.67885 h 59.3666 L 1351.9136,54.003416 Z m 35.996,35.79367 33.5912,91.917054 h -68.243 z"
     id="path42074" /><path
     style="fill:#7ab547;fill-rule:evenodd;stroke-width:1.00150144"
     inkscape:connector-curvature="0"
     d="m 25.849456,92.527356 v -28.01098 c 2.718116,-0.19228 5.465165,-0.33749 8.265343,-0.42563 76.607861,-2.40762 126.868251,65.825694 126.868251,65.825694 0,0 -54.28346,75.39599 -112.485679,75.39599 -8.383545,0 -15.8848,-1.351 -22.647915,-3.62141 v -84.93731 c 29.823705,3.60239 35.819644,16.77712 53.754537,46.66394 l 39.877817,-33.62241 c 0,0 -29.108623,-38.179244 -78.180204,-38.179244 -5.339963,0 -10.442596,0.37654 -15.45215,0.91136 z m 0,-92.52768982081 V 41.838366 c 2.749108,-0.21733 5.502232,-0.39159 8.265343,-0.49175 106.534741,-3.58934 175.941791,87.371014 175.941791,87.371014 0,0 -79.72352,96.94232 -162.776034,96.94232 -7.610397,0 -14.736044,-0.70205 -21.4311,-1.88784 v 25.86178 c 5.726588,0.72809 11.656527,1.15674 17.846757,1.15674 77.290917,0 133.185637,-39.46818 187.310747,-86.18621 8.96652,7.18578 45.70757,24.66498 53.26196,32.32545 -51.46526,43.08059 -171.39403,77.80265 -239.383898,77.80265 -6.551835,0 -12.853265,-0.3946 -19.035566,-0.98948 v 36.34648 H 319.6138 V -3.3382081e-4 Z m 0,201.69135382081 v 22.08109 c -71.486183,-12.7451 -91.326919,-87.05449 -91.326919,-87.05449 0,0 34.321432,-38.028004 91.326919,-44.190264 v 24.226354 c -0.04427,0 -0.0731,-0.011 -0.112127,-0.011 -29.9118415,-3.5934 -53.284924,24.35751 -53.284924,24.35751 0,0 13.09461,47.04953 53.397051,60.59081 z M -101.11692,133.49781 c 0,0 42.367565,-62.517754 126.966376,-68.981434 v -22.67801 c -93.701448,7.5203 -174.844106,86.879264 -174.844106,86.879264 0,0 45.95387,132.86217 174.844106,145.02541 V 249.63389 C -68.732325,237.73405 -101.11692,133.49781 -101.11692,133.49781 Z"
     id="path42076" /></svg>