<svg id="Layer_1" data-name="Layer 1" xmlns="http://www.w3.org/2000/svg" xmlns:xlink="http://www.w3.org/1999/xlink" viewBox="0 0 189 87.29"><defs><style>.cls-1{fill:none;}.cls-2{clip-path:url(#clip-path);}.cls-3,.cls-4{fill:#010101;}.cls-4{stroke:#fff;stroke-miterlimit:10;}.cls-5{fill:#fff;}</style><clipPath id="clip-path" transform="translate(0.5 -14.73)"><rect class="cls-1" width="188" height="101.52"/></clipPath></defs><title>logo-pure-outlines</title><g class="cls-2"><path d="M11.32,32.7a.73.73,0,0,0,0-1c.43-.26.06-.71.24-1,.17.32-.17.77.24,1a.72.72,0,0,0,0,1,1.67,1.67,0,0,0,0,.45c.49,1.49,1,3,1.49,4.45,0,.07.05.14.1.27l.11-1.13h0v2.78a5.44,5.44,0,0,0,.53,2.42l.1-1h.07c0,.71,0,1.42,0,2.13s0,.56.56.62v6.46l-.35,0V64H8.71V50.15l-.37,0v-6.5h.57V41H9l.05,1,.06,0a8.9,8.9,0,0,0,.49-1.78c.06-.94,0-1.89-.06-2.83a1.84,1.84,0,0,1,.17-.67v1.12h0a2,2,0,0,0,.1-.21c.5-1.49,1-3,1.49-4.46A1.56,1.56,0,0,0,11.32,32.7Zm2.16,14.23a1.88,1.88,0,1,0-1.91,1.87A1.88,1.88,0,0,0,13.48,46.93Z" transform="translate(0.5 -14.73)"/><g id="layer1"><path id="path3098" class="cls-3" d="M26,69.74s0,0,0-.11,0-.11,0-.28,0-.15.05-.28a2.33,2.33,0,0,0,.05-.27.8.8,0,0,0,0-.15s0-.1,0-.13a.35.35,0,0,1,0-.06l-.24,0A12.29,12.29,0,0,1,21,66.24l-.13-.1,0,0-.06.09a.46.46,0,0,0-.07.14.77.77,0,0,1-.3.4c-.05,0-.07,0-.28,0H20l-.08,0a.5.5,0,0,1-.22-.21.35.35,0,0,1,0-.2.37.37,0,0,1,0-.18,1,1,0,0,1,.39-.36c.05,0,.06,0,.06-.09a1.08,1.08,0,0,0-.05-.28c0-.07,0-.07-.24-.28s-.4-.41-.61-.64l0,0h-.07c-.05,0-.07,0-.13.08l-.12.09a.94.94,0,0,0-.13.14.39.39,0,0,1-.38.2.8.8,0,0,1-.41-.19.38.38,0,0,1-.16-.33.61.61,0,0,1,.26-.39.42.42,0,0,1,.31-.1h.1l0-.08a.27.27,0,0,0,0-.16v-.09l-.08-.12c-.19-.27-.46-.68-.62-1a.34.34,0,0,0-.09-.13s0,0,0,0a1.34,1.34,0,0,1-.38.28l-.13.06H17a.45.45,0,0,1-.41-.16.47.47,0,0,1-.05-.29.37.37,0,0,1,.1-.29,1,1,0,0,1,.44-.19s0,0,.06-.06l0-.13a.4.4,0,0,1,0-.13l0,0-.08-.19c-.13-.3-.23-.57-.34-.89-.05-.16-.1-.29-.1-.29l-.06.06a1.79,1.79,0,0,1-.33.25.5.5,0,0,1-.2,0,.9.9,0,0,1-.23,0,.33.33,0,0,1-.24-.15.39.39,0,0,1,0-.39l.05-.14a.46.46,0,0,1,.19-.2,1.15,1.15,0,0,1,.39-.08c.14,0,.13,0,.14-.11l.05-.14,0-.07,0-.19c0-.21-.11-.65-.13-.83s0-.19,0-.19l-.09,0a1.24,1.24,0,0,1-.56.13.4.4,0,0,1-.32-.22.59.59,0,0,1,0-.45.6.6,0,0,1,.24-.2.32.32,0,0,1,.16,0,.29.29,0,0,1,.14,0l.05,0,.06,0a.64.64,0,0,0,.2-.2l0-.07v-.2c0-.23,0-.65,0-.89s0-.18,0-.18l-.08,0a1.36,1.36,0,0,1-.34,0,.6.6,0,0,1-.25-.1.62.62,0,0,1-.17-.23.27.27,0,0,1,0-.18.49.49,0,0,1,0-.15.36.36,0,0,1,.43-.18L16,55h.08s0,0,.06,0a2.65,2.65,0,0,1,.3-.29l0,0,0-.15c.05-.22.14-.57.2-.79l.06-.19h-.19c-.32,0-.37,0-.51-.33a.44.44,0,0,1,0-.32.48.48,0,0,1,.15-.22.37.37,0,0,1,.2-.07.35.35,0,0,1,.26.15c0,.06.13.09.27.1H17l.09-.2c.12-.31.2-.49.38-.86a3.42,3.42,0,0,1,.17-.33h-.07a.76.76,0,0,1-.26-.12,1,1,0,0,1-.23-.28.35.35,0,0,1,0-.22.34.34,0,0,1,.09-.28.3.3,0,0,1,.23-.09.29.29,0,0,1,.24.11.44.44,0,0,0,.15.1l.14.08a.1.1,0,0,0,.09,0H18l.18-.27c.17-.26.43-.62.61-.84l.08-.1-.05-.06s-.06-.06-.06-.07l-.06,0a.39.39,0,0,1-.16-.15l0-.17c-.06-.26,0-.43.17-.51a.39.39,0,0,1,.26,0,1,1,0,0,1,.27.27c.06.06.07.08.1.08h.08l0,0,.24-.24c.25-.25.46-.45.67-.63l.13-.1-.06-.07-.09-.13-.05-.1a.8.8,0,0,1-.07-.34.48.48,0,0,1,.1-.23.39.39,0,0,1,.48,0,.43.43,0,0,1,.21.3c0,.07,0,.07.07.08l0,0,.12-.08a11.16,11.16,0,0,1,1-.62l.16-.09,0-.1a1,1,0,0,1,0-.32c0-.25,0-.3.06-.38a.36.36,0,0,1,.61.07s.05.08.07.12a.39.39,0,0,1,.08.19v0l.18-.07c.34-.15.68-.29,1-.42.19-.06.19-.06.19-.1a4,4,0,0,1,0-.57c0-.09,0-.1.06-.14a.14.14,0,0,1,.09-.06.3.3,0,0,0,.08,0s0,0,.14,0a.21.21,0,0,1,.15,0,.87.87,0,0,1,.16.14.08.08,0,0,0,0,0l0,0s0,0,0,.06a.21.21,0,0,1,0,.12.81.81,0,0,0,0,.11s0,0,0,.06,0,0,0,0l.2,0c.34-.08.93-.19,1.18-.22h.07v-.13a1.06,1.06,0,0,1,.06-.42.22.22,0,0,1,.09-.17.38.38,0,0,1,.13-.08c.12,0,.15,0,.29.08a.33.33,0,0,1,.16.17l0,.06a.83.83,0,0,1,.06.27v.14h.11c.22,0,1,0,1.2,0h.23s0-.1,0-.21,0-.22.13-.36a.27.27,0,0,1,.19-.1.71.71,0,0,1,.2,0h.05a.65.65,0,0,1,.16.17l0,0a.49.49,0,0,1,0,.13A1,1,0,0,0,30,45a.45.45,0,0,1,0,.12c0,.09,0,.08.16.1s.72.12,1.08.2l.21,0a1.42,1.42,0,0,0,0-.15.49.49,0,0,1,0-.19.53.53,0,0,1,.21-.26.54.54,0,0,1,.31,0c.17.08.22.23.22.64v.19l.17.05c.33.11.82.3,1.14.44l.1,0,0-.06a.66.66,0,0,1,0-.11.2.2,0,0,0,0-.08.67.67,0,0,1,.12-.2.33.33,0,0,1,.47,0,.31.31,0,0,1,.09.14.38.38,0,0,1,.06.22.77.77,0,0,1-.08.38l0,0,.17.1c.31.17.63.37.91.55l.16.11,0-.11a.81.81,0,0,1,.2-.27l.15-.08a.34.34,0,0,1,.19-.06.31.31,0,0,1,.24.1c.08.09.1.13.1.35v.19l-.06.12-.12.2c-.05.06-.06.08-.05.09l.13.11c.23.19.6.53.79.72s.11.1.13.1,0,0,.09-.08a.65.65,0,0,1,.28-.24.45.45,0,0,1,.19,0,.38.38,0,0,1,.4.4v.12l-.07.13-.09.17a.26.26,0,0,0,0,.09l-.08.1a.18.18,0,0,0,0,.07l.12.15c.15.19.38.5.5.67a.61.61,0,0,0,.1.14.58.58,0,0,0,.22.06c.06,0,.06,0,.07,0a.39.39,0,0,1,.16-.15.45.45,0,0,1,.19,0,.34.34,0,0,1,.28.09.35.35,0,0,1,.07.42,1.07,1.07,0,0,1-.22.32.32.32,0,0,1-.22.12h-.06l.07.13c.11.2.31.62.4.82s.09.18.14.22a.6.6,0,0,1,.08.08l0,0,.09,0,.14-.08a.41.41,0,0,1,.29-.06.39.39,0,0,1,.18,0,.37.37,0,0,1,.18.17,1.23,1.23,0,0,1,0,.31.22.22,0,0,1,0,.17.35.35,0,0,1-.32.24.22.22,0,0,0-.18.07l-.07.08-.06.06.06.22c.07.24.16.6.2.8l0,.14.06,0a.31.31,0,0,1,.1.05l.05,0,0,0,.16,0a.49.49,0,0,1,.35,0,.35.35,0,0,1,.22.21.42.42,0,0,1,0,.31.44.44,0,0,1-.25.31c-.06,0-.07,0-.34,0h-.27a.77.77,0,0,0,0,.2c0,.29,0,.49,0,.8v.28l.06.06.09.07H41a.52.52,0,0,1,.33.08.38.38,0,0,1,.19.46.38.38,0,0,1-.32.36.67.67,0,0,1-.47-.07l-.08-.05s0,0,0,.26-.09.68-.13.87l0,.14,0,.06a.51.51,0,0,1,.07.18s0,0,.13,0a.46.46,0,0,1,.2,0,.42.42,0,0,1,.21.24.31.31,0,0,1,.06.22.42.42,0,0,1,0,.22.53.53,0,0,1-.21.23.56.56,0,0,1-.19,0c-.23,0-.32,0-.43-.17s-.08-.09-.08-.06a10.23,10.23,0,0,1-.35,1l-.09.23,0,0a.36.36,0,0,1,.07.19v.07h.07a.41.41,0,0,1,.26.12q.33.25.21.51a.51.51,0,0,1-.21.2.35.35,0,0,1-.22,0,.6.6,0,0,1-.5-.17c-.07-.07-.08-.08-.12-.08h-.05l-.09.17c-.13.23-.3.51-.45.74l-.12.19v.05a.52.52,0,0,1,0,.14s0,.11,0,.14a.14.14,0,0,0,.07.11c.21.15.26.19.31.27a.37.37,0,0,1,0,.41.41.41,0,0,1-.23.22.31.31,0,0,1-.2,0,.38.38,0,0,1-.2,0l-.13-.09a.5.5,0,0,0-.12-.08s-.07,0-.2,0h-.31l-.13.15c-.08.08-.22.23-.33.33l-.18.19v.3l0,.06a.57.57,0,0,0,.11.11.55.55,0,0,1,.17.23.46.46,0,0,1,.06.28.38.38,0,0,1-.27.35.56.56,0,0,1-.23,0,.42.42,0,0,1-.29-.06.73.73,0,0,1-.24-.35c0-.14-.06-.18-.13-.21l-.06,0-.15.11a12.32,12.32,0,0,1-4.16,2.12c-.3.09-.68.18-1,.25l-.31.06s0,.18,0,.4l0,.39,0,0s0,0-.11,0-.08,0-.1,0a.1.1,0,0,1-.15,0s0,0-.05-.15l0-.21c0-.26-.05-.34-.06-.39a.22.22,0,0,0,0-.06l-.22,0a12.78,12.78,0,0,1-2.9,0l-.25,0s0,0-.07.29l0,.21a1.68,1.68,0,0,0,0,.18s0,.11,0,.17c0,.24,0,.25-.08.29l0,0H26.3a.53.53,0,0,0-.21,0l-.06,0a.1.1,0,0,1-.08,0ZM29.26,67l.57-.06s0,0,0-.17a1.64,1.64,0,0,1,0-.18l0-.22,0-.2,0-.23,0-.21c0-.21-.05-.31-.07-.42s0-.14,0-.17,0-.12,0-.18l0-.21c0-.1,0-.13-.05-.3s0-.17-.05-.3,0-.14,0-.17l0-.12a2.24,2.24,0,0,1-.05-.27s0-.11,0-.17,0-.13,0-.16l0-.14a.51.51,0,0,1,0-.13s0-.09,0-.12-.18-1.31-.44-3.23c-.23-1.73-.24-1.79-.25-1.84s0,0,0,.07,0,.13,0,.17a1.55,1.55,0,0,1,0,.17c0,.28-.08.53-.09.6s-.05.28-.07.41l0,.34c0,.11,0,.27-.05.35s0,.23-.06.34a2.75,2.75,0,0,1-.05.34c0,.08,0,.23-.05.35s0,.26-.05.34,0,.23-.05.34,0,.26,0,.35,0,.24-.05.34,0,.25-.05.34-.07.45-.11.73c0,.1,0,.24-.05.29l0,.15s0,.08,0,.12,0,.11,0,.16,0,.13,0,.17,0,.11,0,.15,0,.11,0,.15,0,.2-.07.34,0,.13,0,.17,0,.12,0,.18l0,.18,0,.18,0,.21c0,.06,0,.14,0,.17a1.43,1.43,0,0,1,0,.16l0,.22c0,.07,0,.15,0,.18a3.12,3.12,0,0,0-.05.32s0,0,0,0,.71.07,1,.09,1,0,1.23,0Zm1.37-.19A10.55,10.55,0,0,0,36,63.92a10,10,0,0,0,2.83-6,7.65,7.65,0,0,0,0-1,7.75,7.75,0,0,0,0-1A10,10,0,0,0,36,50a10.49,10.49,0,0,0-5.93-3,10.1,10.1,0,0,0-1.61-.11,9,9,0,0,0-1.22.06,10.59,10.59,0,0,0-3.52,1,10.24,10.24,0,0,0-5.13,5.73,10.06,10.06,0,0,0-.51,2.27,7.75,7.75,0,0,0-.05,1,7.65,7.65,0,0,0,.05,1,10,10,0,0,0,2.83,6,10.5,10.5,0,0,0,5.29,2.89c.22,0,.22,0,.23,0s0-.09,0-.22a.8.8,0,0,0,0-.15s0-.1,0-.13a.59.59,0,0,1,0-.13c0-.05,0-.11,0-.15s0-.12.05-.28l0-.15,0-.14a.68.68,0,0,1,0-.14s0-.09,0-.13l0-.14s0-.11,0-.15a.69.69,0,0,0,0-.13.43.43,0,0,0,0-.12s0-.11,0-.16a1.65,1.65,0,0,0,.05-.27,2.84,2.84,0,0,1,.06-.28,2.43,2.43,0,0,1,.05-.28c0-.12,0-.19,0-.27s0-.15.05-.27,0-.22.05-.29a2.24,2.24,0,0,0,.05-.27c0-.13,0-.2.05-.28a.9.9,0,0,0,0-.16s0-.09,0-.12a.69.69,0,0,1,0-.13s0-.1,0-.15a.68.68,0,0,0,0-.14s0-.1,0-.13a.68.68,0,0,1,0-.14l0-.14s0-.11,0-.15a.69.69,0,0,0,0-.13.43.43,0,0,0,0-.12s0-.11,0-.16a1.65,1.65,0,0,0,.05-.27c0-.16,0-.21.05-.28s0-.15.06-.27,0-.2.05-.28,0-.15.05-.27,0-.22,0-.29a2.24,2.24,0,0,0,.05-.27s0-.11,0-.16,0-.12.05-.26,0-.22,0-.29,0-.11,0-.15l0-.09s0,0-.07,0a1.45,1.45,0,0,1-.88-1,1.69,1.69,0,0,1,0-.55,1.31,1.31,0,0,1,.38-.69,1.42,1.42,0,0,1,.69-.38,2.44,2.44,0,0,1,.54,0,1.4,1.4,0,0,1,1,.74,1.22,1.22,0,0,1,.13.61.94.94,0,0,1,0,.27,1.33,1.33,0,0,1-.37.69,1.46,1.46,0,0,1-.58.35l-.09,0v.05a.81.81,0,0,1,0,.11s0,.12,0,.17,0,.13,0,.17a.9.9,0,0,0,0,.16s0,.13,0,.18.05.25.07.32a.8.8,0,0,0,0,.15l0,.17c0,.21.06.32.1.5s0,.11,0,.16,0,.11,0,.15l.07.34s0,.13,0,.17,0,.11,0,.17,0,.12,0,.15a.65.65,0,0,0,0,.11s0,.1,0,.25,0,.11,0,.17l0,.21c0,.06,0,.14,0,.17s0,.12,0,.18,0,.13,0,.17,0,.11,0,.17.05.32.06.38,0,.11,0,.17a1.39,1.39,0,0,0,0,.17s0,.11,0,.17l0,.22c0,.24.06.34.08.51s0,.26,0,.35,0,.24.06.34l.05.39c0,.1,0,.35.08.55.07.46.14,1,.17,1.16s0,.17,0,.18,0,0,.26,0Z" transform="translate(0.5 -14.73)"/></g><rect class="cls-4" x="89" y="41.79" width="7.17" height="6.8"/><rect class="cls-4" x="100.37" y="41.79" width="7.17" height="6.8"/><rect class="cls-4" x="111.73" y="41.79" width="7.17" height="6.8"/><rect class="cls-4" x="123.1" y="41.79" width="7.17" height="6.8"/><rect class="cls-4" x="134.46" y="41.79" width="7.17" height="6.8"/><rect class="cls-4" x="145.83" y="41.79" width="7.17" height="6.8"/><polygon class="cls-3" points="167.9 7.92 168.7 0 169.49 0 170.29 7.92 167.9 7.92"/><path class="cls-4" d="M174.63,28.85H162.57c0-3.87,2.55-7.19,6.21-7.19C172.8,21.66,174.63,25,174.63,28.85Z" transform="translate(0.5 -14.73)"/><rect class="cls-4" x="160.9" y="12.86" width="16.4" height="19.4"/><path class="cls-4" d="M127,37.92H115.74c0-3.51,2.38-6.52,5.78-6.52C125.26,31.4,127,34.41,127,37.92Z" transform="translate(0.5 -14.73)"/><polygon class="cls-3" points="120.28 15.77 121.17 8.59 122.07 8.59 122.97 15.77 120.28 15.77"/><rect class="cls-4" x="158.19" y="19.39" width="21.81" height="29.2"/><path class="cls-4" d="M138.31,49.59H104.07c0-6.65,7.26-12.35,17.64-12.35C133.13,37.24,138.31,42.94,138.31,49.59Z" transform="translate(0.5 -14.73)"/><polygon class="cls-4" points="154.38 43.41 87.97 43.41 87.97 36.76 121.69 31.53 154.38 36.76 154.38 43.41"/><rect class="cls-4" x="0.5" y="48.94" width="188" height="37.85"/><path class="cls-5" d="M8,72.29H22v4H13.14V81H21.3v3.72H13.14v4.8h9.51v4H8Z" transform="translate(0.5 -14.73)"/><path class="cls-5" d="M26.58,83c0-7.68,4.17-11,11.88-11a14.87,14.87,0,0,1,6.36,1.29L43.47,77a16.94,16.94,0,0,0-5.1-.78c-3.78,0-6.6,1.86-6.6,6.54s3.12,6.81,7,6.81c.48,0,.93,0,1.35,0V83h5.1v9.57a17.91,17.91,0,0,1-7,1.23C31.17,93.8,26.58,90.38,26.58,83Z" transform="translate(0.5 -14.73)"/><path class="cls-5" d="M49.35,92.33l1.44-3.66a15,15,0,0,0,5.61,1c2.55,0,3.72-.78,3.72-2.07C60.12,84.11,50,85,50,77.84,50,73.76,53.91,72,57.66,72a14.19,14.19,0,0,1,6.63,1.44L62.82,77a15.8,15.8,0,0,0-5-.87c-2.13,0-2.79.81-2.79,1.71,0,2.82,10.26,2.82,10.26,9.57,0,4.65-4.44,6.45-8.82,6.45A14,14,0,0,1,49.35,92.33Z" transform="translate(0.5 -14.73)"/><path class="cls-5" d="M80.18,88.94l-2.4-2.79c-.36,0-.75,0-1.13,0H75.09V93.5H70V72.29H78.2c4.77,0,8.19,2.19,8.19,6.93A6.38,6.38,0,0,1,83,85l2.16,2.34a9.06,9.06,0,0,0,4.8,2.7l-1.14,3.9C84.65,93.68,82.4,91.52,80.18,88.94Zm-3.36-6.33c3,0,4.32-1.26,4.32-3.27s-.87-3-3.6-3H75.09v6.3Z" transform="translate(0.5 -14.73)"/><path class="cls-5" d="M103.75,89.39c2-1.41,8.39-4.8,8.39-6.84,0-1.41-1.26-1.8-3-1.8a12.71,12.71,0,0,0-4,.78L104,77.93a13.43,13.43,0,0,1,5.36-1.23c6.25,0,7.66,3,7.66,5.76,0,3.63-4.66,6-7.08,7.05h7.92v4H103.75Z" transform="translate(0.5 -14.73)"/><path class="cls-5" d="M121.87,85.52c0-5.4,3-8.82,9.26-8.82s8.61,3.48,8.61,8.22c0,6.09-3.45,8.94-9.11,8.94C124.63,93.86,121.87,91.07,121.87,85.52Zm12.8-.45c0-2.73-1.17-4.26-3.72-4.26s-4,1.68-4,4.62c0,3.12,1.71,4.32,3.84,4.32S134.67,88.25,134.67,85.07Z" transform="translate(0.5 -14.73)"/><path class="cls-5" d="M143.59,89.39c2-1.41,8.39-4.8,8.39-6.84,0-1.41-1.26-1.8-3-1.8a12.72,12.72,0,0,0-4,.78l-1.14-3.6a13.49,13.49,0,0,1,5.37-1.23c6.24,0,7.65,3,7.65,5.76,0,3.63-4.65,6-7.08,7.05h7.92v4H143.59Z" transform="translate(0.5 -14.73)"/><path class="cls-5" d="M161.7,85.52c0-5.4,3-8.82,9.27-8.82s8.61,3.48,8.61,8.22c0,6.09-3.45,8.94-9.12,8.94C164.46,93.86,161.7,91.07,161.7,85.52Zm12.81-.45c0-2.73-1.17-4.26-3.72-4.26s-4,1.68-4,4.62c0,3.12,1.71,4.32,3.84,4.32S174.51,88.25,174.51,85.07Z" transform="translate(0.5 -14.73)"/></g></svg>