<?xml version="1.0" encoding="UTF-8" standalone="no"?>
<!DOCTYPE svg PUBLIC "-//W3C//DTD SVG 1.1//EN" "http://www.w3.org/Graphics/SVG/1.1/DTD/svg11.dtd">
<svg width="100%" height="100%" viewBox="0 0 1080 352" version="1.1" xmlns="http://www.w3.org/2000/svg" xmlns:xlink="http://www.w3.org/1999/xlink" xml:space="preserve" xmlns:serif="http://www.serif.com/" style="fill-rule:evenodd;clip-rule:evenodd;stroke-linecap:square;">
    <g id="Page-1">
        <g id="CCC">
            <g id="stacs_2021_header_mobile">
                <g id="Group">
                    <rect id="Rectangle" x="0" y="0" width="1080" height="307" style="fill:rgb(28,74,114);"/>
                    <path id="Line" d="M977,307L540,-130" style="fill:none;stroke:white;stroke-width:2px;"/>
                    <path id="Line1" serif:id="Line" d="M758.5,237L1116,116" style="fill:none;stroke:white;stroke-width:2px;"/>
                    <g transform="matrix(1,0,0,1,62,156)">
                        <g id="Group-4">
                            <g>
                                <g id="EGSR2021" transform="matrix(1,0,0,1,-62,-156)">
                                    <path d="M70.331,307L70.331,224.848L121.739,224.848L121.739,240.472L88.853,240.472L88.853,256.978L116.825,256.978L116.825,272.476L88.853,272.476L88.853,291.376L122.999,291.376L122.999,307L70.331,307ZM176.927,308.512C171.299,308.512 166.028,307.609 161.114,305.803C156.2,303.997 151.937,301.33 148.325,297.802C144.713,294.274 141.878,289.885 139.82,284.635C137.762,279.385 136.733,273.316 136.733,266.428C136.733,259.624 137.783,253.555 139.883,248.221C141.983,242.887 144.86,238.372 148.514,234.676C152.168,230.98 156.431,228.166 161.303,226.234C166.175,224.302 171.341,223.336 176.801,223.336C182.765,223.336 187.889,224.428 192.173,226.612C196.457,228.796 199.943,231.274 202.631,234.046L192.929,245.89C190.829,244.042 188.603,242.488 186.251,241.228C183.899,239.968 180.959,239.338 177.431,239.338C174.239,239.338 171.32,239.947 168.674,241.165C166.028,242.383 163.739,244.126 161.807,246.394C159.875,248.662 158.384,251.434 157.334,254.71C156.284,257.986 155.759,261.682 155.759,265.798C155.759,274.282 157.67,280.855 161.492,285.517C165.314,290.179 171.089,292.51 178.817,292.51C180.497,292.51 182.135,292.3 183.731,291.88C185.327,291.46 186.629,290.83 187.637,289.99L187.637,275.878L174.029,275.878L174.029,260.758L204.017,260.758L204.017,298.558C201.161,301.33 197.381,303.682 192.677,305.614C187.973,307.546 182.723,308.512 176.927,308.512ZM247.361,308.512C241.985,308.512 236.63,307.525 231.296,305.551C225.962,303.577 221.195,300.616 216.995,296.668L227.579,283.942C230.519,286.462 233.774,288.52 237.344,290.116C240.914,291.712 244.421,292.51 247.865,292.51C251.729,292.51 254.606,291.796 256.496,290.368C258.386,288.94 259.331,287.008 259.331,284.572C259.331,283.312 259.058,282.22 258.512,281.296C257.966,280.372 257.168,279.553 256.118,278.839C255.068,278.125 253.808,277.453 252.338,276.823C250.868,276.193 249.251,275.5 247.487,274.744L236.777,270.208C234.677,269.368 232.64,268.276 230.666,266.932C228.692,265.588 226.928,264.013 225.374,262.207C223.82,260.401 222.581,258.301 221.657,255.907C220.733,253.513 220.271,250.804 220.271,247.78C220.271,244.42 220.985,241.249 222.413,238.267C223.841,235.285 225.857,232.681 228.461,230.455C231.065,228.229 234.152,226.486 237.722,225.226C241.292,223.966 245.219,223.336 249.503,223.336C254.291,223.336 259.016,224.26 263.678,226.108C268.34,227.956 272.435,230.644 275.963,234.172L266.513,245.89C263.825,243.79 261.137,242.173 258.449,241.039C255.761,239.905 252.779,239.338 249.503,239.338C246.311,239.338 243.77,239.989 241.88,241.291C239.99,242.593 239.045,244.42 239.045,246.772C239.045,248.032 239.36,249.103 239.99,249.985C240.62,250.867 241.502,251.665 242.636,252.379C243.77,253.093 245.093,253.765 246.605,254.395C248.117,255.025 249.755,255.718 251.519,256.474L262.103,260.758C267.143,262.774 271.112,265.546 274.01,269.074C276.908,272.602 278.357,277.264 278.357,283.06C278.357,286.504 277.664,289.759 276.278,292.825C274.892,295.891 272.876,298.579 270.23,300.889C267.584,303.199 264.329,305.047 260.465,306.433C256.601,307.819 252.233,308.512 247.361,308.512ZM293.603,307L293.603,224.848L323.213,224.848C327.581,224.848 331.676,225.268 335.498,226.108C339.32,226.948 342.659,228.355 345.515,230.329C348.371,232.303 350.639,234.928 352.319,238.204C353.999,241.48 354.839,245.554 354.839,250.426C354.839,256.474 353.516,261.451 350.87,265.357C348.224,269.263 344.675,272.182 340.223,274.114L358.871,307L338.081,307L322.331,277.39L312.125,277.39L312.125,307L293.603,307ZM312.125,262.648L321.701,262.648C326.573,262.648 330.29,261.619 332.852,259.561C335.414,257.503 336.695,254.458 336.695,250.426C336.695,246.394 335.414,243.58 332.852,241.984C330.29,240.388 326.573,239.59 321.701,239.59L312.125,239.59L312.125,262.648ZM393.521,307L393.521,296.416C398.645,291.628 403.328,287.155 407.57,282.997C411.812,278.839 415.466,274.933 418.532,271.279C421.598,267.625 423.992,264.223 425.714,261.073C427.436,257.923 428.297,254.92 428.297,252.064C428.297,248.116 427.289,245.113 425.273,243.055C423.257,240.997 420.485,239.968 416.957,239.968C414.017,239.968 411.413,240.787 409.145,242.425C406.877,244.063 404.735,245.974 402.719,248.158L392.639,238.204C396.587,234.004 400.619,230.833 404.735,228.691C408.851,226.549 413.765,225.478 419.477,225.478C423.425,225.478 427.016,226.087 430.25,227.305C433.484,228.523 436.277,230.245 438.629,232.471C440.981,234.697 442.787,237.364 444.047,240.472C445.307,243.58 445.937,247.066 445.937,250.93C445.937,254.29 445.223,257.713 443.795,261.199C442.367,264.685 440.456,268.171 438.062,271.657C435.668,275.143 432.938,278.629 429.872,282.115C426.806,285.601 423.635,289.024 420.359,292.384C422.375,292.132 424.622,291.901 427.1,291.691C429.578,291.481 431.783,291.376 433.715,291.376L449.843,291.376L449.843,307L393.521,307ZM489.911,308.512C485.627,308.512 481.721,307.609 478.193,305.803C474.665,303.997 471.662,301.33 469.184,297.802C466.706,294.274 464.774,289.906 463.388,284.698C462.002,279.49 461.309,273.484 461.309,266.68C461.309,259.876 462.002,253.912 463.388,248.788C464.774,243.664 466.706,239.359 469.184,235.873C471.662,232.387 474.665,229.783 478.193,228.061C481.721,226.339 485.627,225.478 489.911,225.478C494.195,225.478 498.101,226.339 501.629,228.061C505.157,229.783 508.16,232.387 510.638,235.873C513.116,239.359 515.048,243.664 516.434,248.788C517.82,253.912 518.513,259.876 518.513,266.68C518.513,273.484 517.82,279.49 516.434,284.698C515.048,289.906 513.116,294.274 510.638,297.802C508.16,301.33 505.157,303.997 501.629,305.803C498.101,307.609 494.195,308.512 489.911,308.512ZM489.911,294.148C491.507,294.148 492.977,293.749 494.321,292.951C495.665,292.153 496.841,290.704 497.849,288.604C498.857,286.504 499.634,283.69 500.18,280.162C500.726,276.634 500.999,272.14 500.999,266.68C500.999,261.22 500.726,256.747 500.18,253.261C499.634,249.775 498.857,247.045 497.849,245.071C496.841,243.097 495.665,241.732 494.321,240.976C492.977,240.22 491.507,239.842 489.911,239.842C488.399,239.842 486.971,240.22 485.627,240.976C484.283,241.732 483.107,243.097 482.099,245.071C481.091,247.045 480.293,249.775 479.705,253.261C479.117,256.747 478.823,261.22 478.823,266.68C478.823,272.14 479.117,276.634 479.705,280.162C480.293,283.69 481.091,286.504 482.099,288.604C483.107,290.704 484.283,292.153 485.627,292.951C486.971,293.749 488.399,294.148 489.911,294.148ZM529.097,307L529.097,296.416C534.221,291.628 538.904,287.155 543.146,282.997C547.388,278.839 551.042,274.933 554.108,271.279C557.174,267.625 559.568,264.223 561.29,261.073C563.012,257.923 563.873,254.92 563.873,252.064C563.873,248.116 562.865,245.113 560.849,243.055C558.833,240.997 556.061,239.968 552.533,239.968C549.593,239.968 546.989,240.787 544.721,242.425C542.453,244.063 540.311,245.974 538.295,248.158L528.215,238.204C532.163,234.004 536.195,230.833 540.311,228.691C544.427,226.549 549.341,225.478 555.053,225.478C559.001,225.478 562.592,226.087 565.826,227.305C569.06,228.523 571.853,230.245 574.205,232.471C576.557,234.697 578.363,237.364 579.623,240.472C580.883,243.58 581.513,247.066 581.513,250.93C581.513,254.29 580.799,257.713 579.371,261.199C577.943,264.685 576.032,268.171 573.638,271.657C571.244,275.143 568.514,278.629 565.448,282.115C562.382,285.601 559.211,289.024 555.935,292.384C557.951,292.132 560.198,291.901 562.676,291.691C565.154,291.481 567.359,291.376 569.291,291.376L585.419,291.376L585.419,307L529.097,307ZM601.043,307L601.043,292.006L618.431,292.006L618.431,245.764L603.437,245.764L603.437,234.298C607.805,233.458 611.501,232.45 614.525,231.274C617.549,230.098 620.489,228.67 623.345,226.99L636.953,226.99L636.953,292.006L651.947,292.006L651.947,307L601.043,307Z" style="fill:white;fill-rule:nonzero;"/>
                                </g>
                                <path id="SAARBRÜCKEN" d="M17.377,32.396C21.601,32.396 24.34,29.888 24.34,26.555C24.34,23.222 22.195,21.869 19.753,20.78L16.453,19.328C14.869,18.602 12.691,17.645 12.691,15.137C12.691,12.761 14.638,11.243 17.509,11.243C19.687,11.243 21.403,12.134 22.69,13.454L23.548,12.464C22.228,11.045 20.116,9.857 17.509,9.857C13.879,9.857 11.173,12.068 11.173,15.203C11.173,18.437 13.714,19.79 15.595,20.615L18.895,22.1C21.04,23.057 22.789,23.915 22.789,26.654C22.789,29.228 20.71,31.01 17.377,31.01C14.869,31.01 12.592,29.855 11.008,28.073L10.018,29.129C11.734,31.043 14.209,32.396 17.377,32.396ZM43.975,32L46.549,24.542L55.162,24.542L57.703,32L59.287,32L51.631,10.253L50.113,10.253L42.457,32L43.975,32ZM54.733,23.255L47.011,23.255L48.397,19.196C49.288,16.622 50.047,14.345 50.806,11.672L50.938,11.672C51.697,14.345 52.456,16.622 53.347,19.196L54.733,23.255ZM77.536,32L80.11,24.542L88.723,24.542L91.264,32L92.848,32L85.192,10.253L83.674,10.253L76.018,32L77.536,32ZM88.294,23.255L80.572,23.255L81.958,19.196C82.849,16.622 83.608,14.345 84.367,11.672L84.499,11.672C85.258,14.345 86.017,16.622 86.908,19.196L88.294,23.255ZM114.331,32L114.331,22.001L118.951,22.001L124.858,32L126.607,32L120.601,21.902C124.033,21.473 126.178,19.46 126.178,15.995C126.178,11.837 123.373,10.253 119.05,10.253L112.813,10.253L112.813,32L114.331,32ZM118.654,20.747L114.331,20.747L114.331,11.54L118.654,11.54C122.482,11.54 124.627,12.728 124.627,15.995C124.627,19.196 122.482,20.747 118.654,20.747ZM153.568,32C158.485,32 161.653,29.855 161.653,25.664C161.653,22.661 159.772,20.879 156.967,20.417L156.967,20.285C159.145,19.625 160.333,17.81 160.333,15.533C160.333,11.903 157.528,10.253 153.139,10.253L147.265,10.253L147.265,32L153.568,32ZM152.545,19.823L148.783,19.823L148.783,11.507L152.71,11.507C156.703,11.507 158.815,12.629 158.815,15.698C158.815,18.239 157,19.823 152.545,19.823ZM153.172,30.746L148.783,30.746L148.783,21.077L153.172,21.077C157.627,21.077 160.168,22.562 160.168,25.697C160.168,29.162 157.495,30.746 153.172,30.746ZM184.357,32L184.357,22.001L188.977,22.001L194.884,32L196.633,32L190.627,21.902C194.059,21.473 196.204,19.46 196.204,15.995C196.204,11.837 193.399,10.253 189.076,10.253L182.839,10.253L182.839,32L184.357,32ZM188.68,20.747L184.357,20.747L184.357,11.54L188.68,11.54C192.508,11.54 194.653,12.728 194.653,15.995C194.653,19.196 192.508,20.747 188.68,20.747ZM221.317,8.075C222.01,8.075 222.538,7.613 222.538,6.887C222.538,6.128 222.01,5.666 221.317,5.666C220.624,5.666 220.129,6.128 220.129,6.887C220.129,7.613 220.624,8.075 221.317,8.075ZM227.785,8.075C228.478,8.075 228.973,7.613 228.973,6.887C228.973,6.128 228.478,5.666 227.785,5.666C227.092,5.666 226.564,6.128 226.564,6.887C226.564,7.613 227.092,8.075 227.785,8.075ZM224.518,32.396C228.28,32.396 231.877,30.449 231.877,23.651L231.877,10.253L230.458,10.253L230.458,23.486C230.458,29.261 227.653,31.01 224.518,31.01C221.449,31.01 218.743,29.261 218.743,23.486L218.743,10.253L217.225,10.253L217.225,23.651C217.225,30.449 220.789,32.396 224.518,32.396ZM262.435,32.396C265.24,32.396 267.22,31.208 268.903,29.294L268.012,28.337C266.428,30.086 264.745,31.01 262.501,31.01C257.815,31.01 254.911,27.116 254.911,21.077C254.911,15.038 257.848,11.243 262.633,11.243C264.613,11.243 266.197,12.134 267.385,13.487L268.276,12.464C267.121,11.111 265.141,9.857 262.6,9.857C257.089,9.857 253.327,14.18 253.327,21.077C253.327,28.007 257.056,32.396 262.435,32.396ZM291.343,32L291.343,24.509L295.765,19.46L302.959,32L304.708,32L296.821,18.305L303.751,10.253L301.936,10.253L291.409,22.331L291.343,22.331L291.343,10.253L289.825,10.253L289.825,32L291.343,32ZM336.982,32L336.982,30.68L326.257,30.68L326.257,21.11L334.969,21.11L334.969,19.79L326.257,19.79L326.257,11.573L336.652,11.573L336.652,10.253L324.739,10.253L324.739,32L336.982,32ZM359.686,32L359.686,18.503C359.686,16.391 359.554,14.411 359.488,12.332L359.62,12.332L362.062,16.655L371.236,32L372.82,32L372.82,10.253L371.368,10.253L371.368,23.585C371.368,25.697 371.5,27.809 371.566,29.921L371.434,29.921L368.992,25.598L359.818,10.253L358.234,10.253L358.234,32L359.686,32Z" style="fill:white;fill-rule:nonzero;"/>
                            </g>
                        </g>
                    </g>
                </g>
                <g id="THE32NDEUROGRAPHICSSYMPOSIUMONRENDERING" transform="matrix(1.58029,0,0,1.573,-630.01,-180.213)">
                    <path d="M606.923,337.834L606.923,329.044L603.953,329.044L603.953,327.994L611.153,327.994L611.153,329.044L608.183,329.044L608.183,337.834L606.923,337.834ZM615.923,337.834L615.923,327.994L617.168,327.994L617.168,332.119L621.742,332.119L621.742,327.994L623.002,327.994L623.002,337.834L621.742,337.834L621.742,333.199L617.168,333.199L617.168,337.834L615.923,337.834ZM628.703,337.834L628.703,327.994L634.373,327.994L634.373,329.044L629.948,329.044L629.948,332.134L633.683,332.134L633.683,333.199L629.948,333.199L629.948,336.769L634.523,336.769L634.523,337.834L628.703,337.834ZM647.798,338.014C647.418,338.014 647.07,337.976 646.755,337.901C646.44,337.826 646.153,337.726 645.893,337.601C645.633,337.476 645.4,337.334 645.195,337.174C644.99,337.014 644.808,336.844 644.648,336.664L645.278,335.854C645.568,336.154 645.905,336.419 646.29,336.649C646.675,336.879 647.153,336.994 647.723,336.994C648.303,336.994 648.778,336.836 649.148,336.521C649.518,336.206 649.703,335.779 649.703,335.239C649.703,334.959 649.65,334.701 649.545,334.466C649.44,334.231 649.268,334.029 649.028,333.859C648.788,333.689 648.473,333.559 648.083,333.469C647.693,333.379 647.213,333.334 646.643,333.334L646.643,332.389C647.153,332.389 647.58,332.344 647.925,332.254C648.27,332.164 648.55,332.039 648.765,331.879C648.98,331.719 649.133,331.529 649.223,331.309C649.313,331.089 649.358,330.854 649.358,330.604C649.358,330.134 649.21,329.764 648.915,329.494C648.62,329.224 648.218,329.089 647.708,329.089C647.308,329.089 646.94,329.179 646.605,329.359C646.27,329.539 645.958,329.774 645.668,330.064L645.008,329.284C645.378,328.934 645.785,328.646 646.23,328.421C646.675,328.196 647.183,328.084 647.753,328.084C648.173,328.084 648.558,328.139 648.908,328.249C649.258,328.359 649.56,328.516 649.815,328.721C650.07,328.926 650.268,329.179 650.408,329.479C650.548,329.779 650.618,330.124 650.618,330.514C650.618,331.094 650.458,331.569 650.138,331.939C649.818,332.309 649.398,332.594 648.878,332.794L648.878,332.854C649.168,332.924 649.438,333.026 649.688,333.161C649.938,333.296 650.158,333.466 650.348,333.671C650.538,333.876 650.685,334.114 650.79,334.384C650.895,334.654 650.948,334.954 650.948,335.284C650.948,335.704 650.865,336.084 650.7,336.424C650.535,336.764 650.31,337.051 650.025,337.286C649.74,337.521 649.408,337.701 649.028,337.826C648.648,337.951 648.238,338.014 647.798,338.014ZM655.313,337.834L655.313,337.099C656.033,336.379 656.673,335.729 657.233,335.149C657.793,334.569 658.263,334.031 658.643,333.536C659.023,333.041 659.313,332.586 659.513,332.171C659.713,331.756 659.813,331.354 659.813,330.964C659.813,330.414 659.663,329.964 659.363,329.614C659.063,329.264 658.608,329.089 657.998,329.089C657.598,329.089 657.228,329.201 656.888,329.426C656.548,329.651 656.238,329.924 655.958,330.244L655.253,329.539C655.653,329.099 656.078,328.746 656.528,328.481C656.978,328.216 657.518,328.084 658.148,328.084C659.038,328.084 659.738,328.341 660.248,328.856C660.758,329.371 661.013,330.054 661.013,330.904C661.013,331.354 660.915,331.806 660.72,332.261C660.525,332.716 660.255,333.186 659.91,333.671C659.565,334.156 659.155,334.661 658.68,335.186C658.205,335.711 657.683,336.269 657.113,336.859C657.373,336.839 657.643,336.819 657.923,336.799C658.203,336.779 658.468,336.769 658.718,336.769L661.493,336.769L661.493,337.834L655.313,337.834ZM666.518,337.834L666.518,327.994L667.808,327.994L671.363,334.174L672.428,336.214L672.488,336.214C672.458,335.714 672.425,335.196 672.39,334.661C672.355,334.126 672.338,333.599 672.338,333.079L672.338,327.994L673.523,327.994L673.523,337.834L672.233,337.834L668.663,331.639L667.598,329.614L667.538,329.614C667.578,330.114 667.615,330.621 667.65,331.136C667.685,331.651 667.703,332.169 667.703,332.689L667.703,337.834L666.518,337.834ZM679.223,337.834L679.223,327.994L681.683,327.994C683.203,327.994 684.358,328.414 685.148,329.254C685.938,330.094 686.333,331.299 686.333,332.869C686.333,333.649 686.233,334.346 686.033,334.961C685.833,335.576 685.538,336.096 685.148,336.521C684.758,336.946 684.278,337.271 683.708,337.496C683.138,337.721 682.483,337.834 681.743,337.834L679.223,337.834ZM680.468,336.814L681.593,336.814C682.743,336.814 683.605,336.469 684.18,335.779C684.755,335.089 685.043,334.119 685.043,332.869C685.043,331.619 684.755,330.664 684.18,330.004C683.605,329.344 682.743,329.014 681.593,329.014L680.468,329.014L680.468,336.814ZM697.448,337.834L697.448,327.994L703.118,327.994L703.118,329.044L698.693,329.044L698.693,332.134L702.428,332.134L702.428,333.199L698.693,333.199L698.693,336.769L703.268,336.769L703.268,337.834L697.448,337.834ZM711.848,338.014C711.348,338.014 710.88,337.941 710.445,337.796C710.01,337.651 709.635,337.411 709.32,337.076C709.005,336.741 708.758,336.304 708.578,335.764C708.398,335.224 708.308,334.559 708.308,333.769L708.308,327.994L709.553,327.994L709.553,333.799C709.553,334.389 709.613,334.884 709.733,335.284C709.853,335.684 710.015,336.004 710.22,336.244C710.425,336.484 710.668,336.656 710.948,336.761C711.228,336.866 711.528,336.919 711.848,336.919C712.178,336.919 712.483,336.866 712.763,336.761C713.043,336.656 713.288,336.484 713.498,336.244C713.708,336.004 713.873,335.684 713.993,335.284C714.113,334.884 714.173,334.389 714.173,333.799L714.173,327.994L715.373,327.994L715.373,333.769C715.373,334.559 715.283,335.224 715.103,335.764C714.923,336.304 714.675,336.741 714.36,337.076C714.045,337.411 713.673,337.651 713.243,337.796C712.813,337.941 712.348,338.014 711.848,338.014ZM721.028,337.834L721.028,327.994L724.103,327.994C724.603,327.994 725.065,328.041 725.49,328.136C725.915,328.231 726.28,328.389 726.585,328.609C726.89,328.829 727.128,329.114 727.298,329.464C727.468,329.814 727.553,330.244 727.553,330.754C727.553,331.524 727.353,332.139 726.953,332.599C726.553,333.059 726.013,333.374 725.333,333.544L727.838,337.834L726.428,337.834L724.058,333.679L722.273,333.679L722.273,337.834L721.028,337.834ZM722.273,332.659L723.923,332.659C724.693,332.659 725.283,332.501 725.693,332.186C726.103,331.871 726.308,331.394 726.308,330.754C726.308,330.104 726.103,329.649 725.693,329.389C725.283,329.129 724.693,328.999 723.923,328.999L722.273,328.999L722.273,332.659ZM736.193,338.014C735.573,338.014 735.005,337.894 734.49,337.654C733.975,337.414 733.533,337.071 733.163,336.626C732.793,336.181 732.505,335.641 732.3,335.006C732.095,334.371 731.993,333.659 731.993,332.869C731.993,332.079 732.095,331.371 732.3,330.746C732.505,330.121 732.793,329.591 733.163,329.156C733.533,328.721 733.975,328.389 734.49,328.159C735.005,327.929 735.573,327.814 736.193,327.814C736.813,327.814 737.38,327.931 737.895,328.166C738.41,328.401 738.855,328.736 739.23,329.171C739.605,329.606 739.895,330.136 740.1,330.761C740.305,331.386 740.408,332.089 740.408,332.869C740.408,333.659 740.305,334.371 740.1,335.006C739.895,335.641 739.605,336.181 739.23,336.626C738.855,337.071 738.41,337.414 737.895,337.654C737.38,337.894 736.813,338.014 736.193,338.014ZM736.193,336.919C736.633,336.919 737.03,336.824 737.385,336.634C737.74,336.444 738.045,336.171 738.3,335.816C738.555,335.461 738.753,335.036 738.893,334.541C739.033,334.046 739.103,333.489 739.103,332.869C739.103,332.259 739.033,331.709 738.893,331.219C738.753,330.729 738.555,330.314 738.3,329.974C738.045,329.634 737.74,329.371 737.385,329.186C737.03,329.001 736.633,328.909 736.193,328.909C735.753,328.909 735.355,329.001 735,329.186C734.645,329.371 734.34,329.634 734.085,329.974C733.83,330.314 733.633,330.729 733.493,331.219C733.353,331.709 733.283,332.259 733.283,332.869C733.283,333.489 733.353,334.046 733.493,334.541C733.633,335.036 733.83,335.461 734.085,335.816C734.34,336.171 734.645,336.444 735,336.634C735.355,336.824 735.753,336.919 736.193,336.919ZM749.393,338.014C748.743,338.014 748.145,337.899 747.6,337.669C747.055,337.439 746.588,337.106 746.198,336.671C745.808,336.236 745.503,335.701 745.283,335.066C745.063,334.431 744.953,333.714 744.953,332.914C744.953,332.124 745.065,331.414 745.29,330.784C745.515,330.154 745.828,329.619 746.228,329.179C746.628,328.739 747.105,328.401 747.66,328.166C748.215,327.931 748.818,327.814 749.468,327.814C749.808,327.814 750.12,327.849 750.405,327.919C750.69,327.989 750.95,328.081 751.185,328.196C751.42,328.311 751.63,328.441 751.815,328.586C752,328.731 752.163,328.879 752.303,329.029L751.613,329.839C751.363,329.579 751.073,329.359 750.743,329.179C750.413,328.999 749.998,328.909 749.498,328.909C748.998,328.909 748.548,329.001 748.148,329.186C747.748,329.371 747.408,329.636 747.128,329.981C746.848,330.326 746.63,330.744 746.475,331.234C746.32,331.724 746.243,332.274 746.243,332.884C746.243,333.504 746.315,334.061 746.46,334.556C746.605,335.051 746.815,335.474 747.09,335.824C747.365,336.174 747.705,336.444 748.11,336.634C748.515,336.824 748.983,336.919 749.513,336.919C749.863,336.919 750.195,336.866 750.51,336.761C750.825,336.656 751.083,336.514 751.283,336.334L751.283,333.769L749.198,333.769L749.198,332.734L752.423,332.734L752.423,336.874C752.103,337.204 751.683,337.476 751.163,337.691C750.643,337.906 750.053,338.014 749.393,338.014ZM757.778,337.834L757.778,327.994L760.853,327.994C761.353,327.994 761.815,328.041 762.24,328.136C762.665,328.231 763.03,328.389 763.335,328.609C763.64,328.829 763.878,329.114 764.048,329.464C764.218,329.814 764.303,330.244 764.303,330.754C764.303,331.524 764.103,332.139 763.703,332.599C763.303,333.059 762.763,333.374 762.083,333.544L764.588,337.834L763.178,337.834L760.808,333.679L759.023,333.679L759.023,337.834L757.778,337.834ZM759.023,332.659L760.673,332.659C761.443,332.659 762.033,332.501 762.443,332.186C762.853,331.871 763.058,331.394 763.058,330.754C763.058,330.104 762.853,329.649 762.443,329.389C762.033,329.129 761.443,328.999 760.673,328.999L759.023,328.999L759.023,332.659ZM770.948,332.329L770.483,333.829L773.438,333.829L772.973,332.329C772.793,331.779 772.623,331.231 772.463,330.686C772.303,330.141 772.143,329.584 771.983,329.014L771.923,329.014C771.773,329.584 771.618,330.141 771.458,330.686C771.298,331.231 771.128,331.779 770.948,332.329ZM767.948,337.834L771.278,327.994L772.688,327.994L776.018,337.834L774.683,337.834L773.753,334.834L770.168,334.834L769.223,337.834L767.948,337.834ZM780.413,337.834L780.413,327.994L783.218,327.994C783.768,327.994 784.27,328.044 784.725,328.144C785.18,328.244 785.568,328.406 785.888,328.631C786.208,328.856 786.458,329.154 786.638,329.524C786.818,329.894 786.908,330.349 786.908,330.889C786.908,331.409 786.82,331.859 786.645,332.239C786.47,332.619 786.223,332.934 785.903,333.184C785.583,333.434 785.2,333.621 784.755,333.746C784.31,333.871 783.818,333.934 783.278,333.934L781.658,333.934L781.658,337.834L780.413,337.834ZM781.658,332.914L783.128,332.914C783.988,332.914 784.625,332.751 785.04,332.426C785.455,332.101 785.663,331.589 785.663,330.889C785.663,330.179 785.445,329.686 785.01,329.411C784.575,329.136 783.928,328.999 783.068,328.999L781.658,328.999L781.658,332.914ZM791.903,337.834L791.903,327.994L793.148,327.994L793.148,332.119L797.723,332.119L797.723,327.994L798.983,327.994L798.983,337.834L797.723,337.834L797.723,333.199L793.148,333.199L793.148,337.834L791.903,337.834ZM804.683,337.834L804.683,327.994L805.928,327.994L805.928,337.834L804.683,337.834ZM815.348,338.014C814.728,338.014 814.158,337.899 813.638,337.669C813.118,337.439 812.665,337.106 812.28,336.671C811.895,336.236 811.595,335.701 811.38,335.066C811.165,334.431 811.058,333.714 811.058,332.914C811.058,332.124 811.168,331.414 811.388,330.784C811.608,330.154 811.913,329.619 812.303,329.179C812.693,328.739 813.153,328.401 813.683,328.166C814.213,327.931 814.793,327.814 815.423,327.814C816.023,327.814 816.55,327.936 817.005,328.181C817.46,328.426 817.833,328.709 818.123,329.029L817.448,329.839C817.188,329.559 816.893,329.334 816.563,329.164C816.233,328.994 815.858,328.909 815.438,328.909C814.968,328.909 814.543,329.001 814.163,329.186C813.783,329.371 813.458,329.636 813.188,329.981C812.918,330.326 812.71,330.744 812.565,331.234C812.42,331.724 812.348,332.274 812.348,332.884C812.348,333.504 812.42,334.061 812.565,334.556C812.71,335.051 812.913,335.474 813.173,335.824C813.433,336.174 813.75,336.444 814.125,336.634C814.5,336.824 814.923,336.919 815.393,336.919C815.873,336.919 816.293,336.821 816.653,336.626C817.013,336.431 817.353,336.159 817.673,335.809L818.363,336.589C817.973,337.039 817.533,337.389 817.043,337.639C816.553,337.889 815.988,338.014 815.348,338.014ZM825.563,338.014C824.873,338.014 824.233,337.884 823.643,337.624C823.053,337.364 822.543,337.009 822.113,336.559L822.863,335.689C823.213,336.059 823.625,336.356 824.1,336.581C824.575,336.806 825.068,336.919 825.578,336.919C826.228,336.919 826.733,336.771 827.093,336.476C827.453,336.181 827.633,335.794 827.633,335.314C827.633,335.064 827.59,334.851 827.505,334.676C827.42,334.501 827.305,334.351 827.16,334.226C827.015,334.101 826.843,333.989 826.643,333.889C826.443,333.789 826.228,333.684 825.998,333.574L824.588,332.959C824.358,332.859 824.123,332.739 823.883,332.599C823.643,332.459 823.428,332.289 823.238,332.089C823.048,331.889 822.893,331.651 822.773,331.376C822.653,331.101 822.593,330.784 822.593,330.424C822.593,330.054 822.67,329.709 822.825,329.389C822.98,329.069 823.195,328.791 823.47,328.556C823.745,328.321 824.07,328.139 824.445,328.009C824.82,327.879 825.233,327.814 825.683,327.814C826.273,327.814 826.818,327.926 827.318,328.151C827.818,328.376 828.243,328.669 828.593,329.029L827.918,329.839C827.618,329.549 827.285,329.321 826.92,329.156C826.555,328.991 826.143,328.909 825.683,328.909C825.133,328.909 824.69,329.036 824.355,329.291C824.02,329.546 823.853,329.899 823.853,330.349C823.853,330.589 823.9,330.791 823.995,330.956C824.09,331.121 824.218,331.266 824.378,331.391C824.538,331.516 824.713,331.626 824.903,331.721C825.093,331.816 825.288,331.904 825.488,331.984L826.883,332.584C827.163,332.704 827.428,332.841 827.678,332.996C827.928,333.151 828.143,333.331 828.323,333.536C828.503,333.741 828.645,333.981 828.75,334.256C828.855,334.531 828.908,334.849 828.908,335.209C828.908,335.599 828.83,335.964 828.675,336.304C828.52,336.644 828.298,336.941 828.008,337.196C827.718,337.451 827.368,337.651 826.958,337.796C826.548,337.941 826.083,338.014 825.563,338.014ZM842.573,338.014C841.883,338.014 841.243,337.884 840.653,337.624C840.063,337.364 839.553,337.009 839.123,336.559L839.873,335.689C840.223,336.059 840.635,336.356 841.11,336.581C841.585,336.806 842.078,336.919 842.588,336.919C843.238,336.919 843.743,336.771 844.103,336.476C844.463,336.181 844.643,335.794 844.643,335.314C844.643,335.064 844.6,334.851 844.515,334.676C844.43,334.501 844.315,334.351 844.17,334.226C844.025,334.101 843.853,333.989 843.653,333.889C843.453,333.789 843.238,333.684 843.008,333.574L841.598,332.959C841.368,332.859 841.133,332.739 840.893,332.599C840.653,332.459 840.438,332.289 840.248,332.089C840.058,331.889 839.903,331.651 839.783,331.376C839.663,331.101 839.603,330.784 839.603,330.424C839.603,330.054 839.68,329.709 839.835,329.389C839.99,329.069 840.205,328.791 840.48,328.556C840.755,328.321 841.08,328.139 841.455,328.009C841.83,327.879 842.243,327.814 842.693,327.814C843.283,327.814 843.828,327.926 844.328,328.151C844.828,328.376 845.253,328.669 845.603,329.029L844.928,329.839C844.628,329.549 844.295,329.321 843.93,329.156C843.565,328.991 843.153,328.909 842.693,328.909C842.143,328.909 841.7,329.036 841.365,329.291C841.03,329.546 840.863,329.899 840.863,330.349C840.863,330.589 840.91,330.791 841.005,330.956C841.1,331.121 841.228,331.266 841.388,331.391C841.548,331.516 841.723,331.626 841.913,331.721C842.103,331.816 842.298,331.904 842.498,331.984L843.893,332.584C844.173,332.704 844.438,332.841 844.688,332.996C844.938,333.151 845.153,333.331 845.333,333.536C845.513,333.741 845.655,333.981 845.76,334.256C845.865,334.531 845.918,334.849 845.918,335.209C845.918,335.599 845.84,335.964 845.685,336.304C845.53,336.644 845.308,336.941 845.018,337.196C844.728,337.451 844.378,337.651 843.968,337.796C843.558,337.941 843.093,338.014 842.573,338.014ZM852.233,337.834L852.233,334.024L849.278,327.994L850.613,327.994L851.888,330.769C852.048,331.129 852.203,331.484 852.353,331.834C852.503,332.184 852.663,332.544 852.833,332.914L852.893,332.914C853.063,332.544 853.233,332.184 853.403,331.834C853.573,331.484 853.733,331.129 853.883,330.769L855.143,327.994L856.448,327.994L853.493,334.024L853.493,337.834L852.233,337.834ZM860.783,337.834L860.783,327.994L862.283,327.994L864.173,333.244C864.293,333.584 864.41,333.926 864.525,334.271C864.64,334.616 864.758,334.959 864.878,335.299L864.938,335.299C865.058,334.959 865.17,334.616 865.275,334.271C865.38,333.926 865.493,333.584 865.613,333.244L867.473,327.994L868.988,327.994L868.988,337.834L867.818,337.834L867.818,332.419C867.818,331.979 867.838,331.494 867.878,330.964C867.918,330.434 867.953,329.949 867.983,329.509L867.923,329.509L867.143,331.744L865.283,336.844L864.458,336.844L862.598,331.744L861.818,329.509L861.758,329.509C861.788,329.949 861.82,330.434 861.855,330.964C861.89,331.494 861.908,331.979 861.908,332.419L861.908,337.834L860.783,337.834ZM874.688,337.834L874.688,327.994L877.493,327.994C878.043,327.994 878.545,328.044 879,328.144C879.455,328.244 879.843,328.406 880.163,328.631C880.483,328.856 880.733,329.154 880.913,329.524C881.093,329.894 881.183,330.349 881.183,330.889C881.183,331.409 881.095,331.859 880.92,332.239C880.745,332.619 880.498,332.934 880.178,333.184C879.858,333.434 879.475,333.621 879.03,333.746C878.585,333.871 878.093,333.934 877.553,333.934L875.933,333.934L875.933,337.834L874.688,337.834ZM875.933,332.914L877.403,332.914C878.263,332.914 878.9,332.751 879.315,332.426C879.73,332.101 879.938,331.589 879.938,330.889C879.938,330.179 879.72,329.686 879.285,329.411C878.85,329.136 878.203,328.999 877.343,328.999L875.933,328.999L875.933,332.914ZM889.808,338.014C889.188,338.014 888.62,337.894 888.105,337.654C887.59,337.414 887.148,337.071 886.778,336.626C886.408,336.181 886.12,335.641 885.915,335.006C885.71,334.371 885.608,333.659 885.608,332.869C885.608,332.079 885.71,331.371 885.915,330.746C886.12,330.121 886.408,329.591 886.778,329.156C887.148,328.721 887.59,328.389 888.105,328.159C888.62,327.929 889.188,327.814 889.808,327.814C890.428,327.814 890.995,327.931 891.51,328.166C892.025,328.401 892.47,328.736 892.845,329.171C893.22,329.606 893.51,330.136 893.715,330.761C893.92,331.386 894.023,332.089 894.023,332.869C894.023,333.659 893.92,334.371 893.715,335.006C893.51,335.641 893.22,336.181 892.845,336.626C892.47,337.071 892.025,337.414 891.51,337.654C890.995,337.894 890.428,338.014 889.808,338.014ZM889.808,336.919C890.248,336.919 890.645,336.824 891,336.634C891.355,336.444 891.66,336.171 891.915,335.816C892.17,335.461 892.368,335.036 892.508,334.541C892.648,334.046 892.718,333.489 892.718,332.869C892.718,332.259 892.648,331.709 892.508,331.219C892.368,330.729 892.17,330.314 891.915,329.974C891.66,329.634 891.355,329.371 891,329.186C890.645,329.001 890.248,328.909 889.808,328.909C889.368,328.909 888.97,329.001 888.615,329.186C888.26,329.371 887.955,329.634 887.7,329.974C887.445,330.314 887.248,330.729 887.108,331.219C886.968,331.709 886.898,332.259 886.898,332.869C886.898,333.489 886.968,334.046 887.108,334.541C887.248,335.036 887.445,335.461 887.7,335.816C887.955,336.171 888.26,336.444 888.615,336.634C888.97,336.824 889.368,336.919 889.808,336.919ZM901.868,338.014C901.178,338.014 900.538,337.884 899.948,337.624C899.358,337.364 898.848,337.009 898.418,336.559L899.168,335.689C899.518,336.059 899.93,336.356 900.405,336.581C900.88,336.806 901.373,336.919 901.883,336.919C902.533,336.919 903.038,336.771 903.398,336.476C903.758,336.181 903.938,335.794 903.938,335.314C903.938,335.064 903.895,334.851 903.81,334.676C903.725,334.501 903.61,334.351 903.465,334.226C903.32,334.101 903.148,333.989 902.948,333.889C902.748,333.789 902.533,333.684 902.303,333.574L900.893,332.959C900.663,332.859 900.428,332.739 900.188,332.599C899.948,332.459 899.733,332.289 899.543,332.089C899.353,331.889 899.198,331.651 899.078,331.376C898.958,331.101 898.898,330.784 898.898,330.424C898.898,330.054 898.975,329.709 899.13,329.389C899.285,329.069 899.5,328.791 899.775,328.556C900.05,328.321 900.375,328.139 900.75,328.009C901.125,327.879 901.538,327.814 901.988,327.814C902.578,327.814 903.123,327.926 903.623,328.151C904.123,328.376 904.548,328.669 904.898,329.029L904.223,329.839C903.923,329.549 903.59,329.321 903.225,329.156C902.86,328.991 902.448,328.909 901.988,328.909C901.438,328.909 900.995,329.036 900.66,329.291C900.325,329.546 900.158,329.899 900.158,330.349C900.158,330.589 900.205,330.791 900.3,330.956C900.395,331.121 900.523,331.266 900.683,331.391C900.843,331.516 901.018,331.626 901.208,331.721C901.398,331.816 901.593,331.904 901.793,331.984L903.188,332.584C903.468,332.704 903.733,332.841 903.983,332.996C904.233,333.151 904.448,333.331 904.628,333.536C904.808,333.741 904.95,333.981 905.055,334.256C905.16,334.531 905.213,334.849 905.213,335.209C905.213,335.599 905.135,335.964 904.98,336.304C904.825,336.644 904.603,336.941 904.313,337.196C904.023,337.451 903.673,337.651 903.263,337.796C902.853,337.941 902.388,338.014 901.868,338.014ZM910.148,337.834L910.148,327.994L911.393,327.994L911.393,337.834L910.148,337.834ZM920.588,338.014C920.088,338.014 919.62,337.941 919.185,337.796C918.75,337.651 918.375,337.411 918.06,337.076C917.745,336.741 917.498,336.304 917.318,335.764C917.138,335.224 917.048,334.559 917.048,333.769L917.048,327.994L918.293,327.994L918.293,333.799C918.293,334.389 918.353,334.884 918.473,335.284C918.593,335.684 918.755,336.004 918.96,336.244C919.165,336.484 919.408,336.656 919.688,336.761C919.968,336.866 920.268,336.919 920.588,336.919C920.918,336.919 921.223,336.866 921.503,336.761C921.783,336.656 922.028,336.484 922.238,336.244C922.448,336.004 922.613,335.684 922.733,335.284C922.853,334.884 922.913,334.389 922.913,333.799L922.913,327.994L924.113,327.994L924.113,333.769C924.113,334.559 924.023,335.224 923.843,335.764C923.663,336.304 923.415,336.741 923.1,337.076C922.785,337.411 922.413,337.651 921.983,337.796C921.553,337.941 921.088,338.014 920.588,338.014ZM929.768,337.834L929.768,327.994L931.268,327.994L933.158,333.244C933.278,333.584 933.395,333.926 933.51,334.271C933.625,334.616 933.743,334.959 933.863,335.299L933.923,335.299C934.043,334.959 934.155,334.616 934.26,334.271C934.365,333.926 934.478,333.584 934.598,333.244L936.458,327.994L937.973,327.994L937.973,337.834L936.803,337.834L936.803,332.419C936.803,331.979 936.823,331.494 936.863,330.964C936.903,330.434 936.938,329.949 936.968,329.509L936.908,329.509L936.128,331.744L934.268,336.844L933.443,336.844L931.583,331.744L930.803,329.509L930.743,329.509C930.773,329.949 930.805,330.434 930.84,330.964C930.875,331.494 930.893,331.979 930.893,332.419L930.893,337.834L929.768,337.834ZM953.303,338.014C952.683,338.014 952.115,337.894 951.6,337.654C951.085,337.414 950.643,337.071 950.273,336.626C949.903,336.181 949.615,335.641 949.41,335.006C949.205,334.371 949.103,333.659 949.103,332.869C949.103,332.079 949.205,331.371 949.41,330.746C949.615,330.121 949.903,329.591 950.273,329.156C950.643,328.721 951.085,328.389 951.6,328.159C952.115,327.929 952.683,327.814 953.303,327.814C953.923,327.814 954.49,327.931 955.005,328.166C955.52,328.401 955.965,328.736 956.34,329.171C956.715,329.606 957.005,330.136 957.21,330.761C957.415,331.386 957.518,332.089 957.518,332.869C957.518,333.659 957.415,334.371 957.21,335.006C957.005,335.641 956.715,336.181 956.34,336.626C955.965,337.071 955.52,337.414 955.005,337.654C954.49,337.894 953.923,338.014 953.303,338.014ZM953.303,336.919C953.743,336.919 954.14,336.824 954.495,336.634C954.85,336.444 955.155,336.171 955.41,335.816C955.665,335.461 955.863,335.036 956.003,334.541C956.143,334.046 956.213,333.489 956.213,332.869C956.213,332.259 956.143,331.709 956.003,331.219C955.863,330.729 955.665,330.314 955.41,329.974C955.155,329.634 954.85,329.371 954.495,329.186C954.14,329.001 953.743,328.909 953.303,328.909C952.863,328.909 952.465,329.001 952.11,329.186C951.755,329.371 951.45,329.634 951.195,329.974C950.94,330.314 950.743,330.729 950.603,331.219C950.463,331.709 950.393,332.259 950.393,332.869C950.393,333.489 950.463,334.046 950.603,334.541C950.743,335.036 950.94,335.461 951.195,335.816C951.45,336.171 951.755,336.444 952.11,336.634C952.465,336.824 952.863,336.919 953.303,336.919ZM962.633,337.834L962.633,327.994L963.923,327.994L967.478,334.174L968.543,336.214L968.603,336.214C968.573,335.714 968.54,335.196 968.505,334.661C968.47,334.126 968.453,333.599 968.453,333.079L968.453,327.994L969.638,327.994L969.638,337.834L968.348,337.834L964.778,331.639L963.713,329.614L963.653,329.614C963.693,330.114 963.73,330.621 963.765,331.136C963.8,331.651 963.818,332.169 963.818,332.689L963.818,337.834L962.633,337.834ZM981.338,337.834L981.338,327.994L984.413,327.994C984.913,327.994 985.375,328.041 985.8,328.136C986.225,328.231 986.59,328.389 986.895,328.609C987.2,328.829 987.438,329.114 987.608,329.464C987.778,329.814 987.863,330.244 987.863,330.754C987.863,331.524 987.663,332.139 987.263,332.599C986.863,333.059 986.323,333.374 985.643,333.544L988.148,337.834L986.738,337.834L984.368,333.679L982.583,333.679L982.583,337.834L981.338,337.834ZM982.583,332.659L984.233,332.659C985.003,332.659 985.593,332.501 986.003,332.186C986.413,331.871 986.618,331.394 986.618,330.754C986.618,330.104 986.413,329.649 986.003,329.389C985.593,329.129 985.003,328.999 984.233,328.999L982.583,328.999L982.583,332.659ZM992.873,337.834L992.873,327.994L998.543,327.994L998.543,329.044L994.118,329.044L994.118,332.134L997.853,332.134L997.853,333.199L994.118,333.199L994.118,336.769L998.693,336.769L998.693,337.834L992.873,337.834ZM1003.78,337.834L1003.78,327.994L1005.07,327.994L1008.62,334.174L1009.69,336.214L1009.75,336.214C1009.72,335.714 1009.69,335.196 1009.65,334.661C1009.62,334.126 1009.6,333.599 1009.6,333.079L1009.6,327.994L1010.78,327.994L1010.78,337.834L1009.49,337.834L1005.92,331.639L1004.86,329.614L1004.8,329.614C1004.84,330.114 1004.88,330.621 1004.91,331.136C1004.95,331.651 1004.96,332.169 1004.96,332.689L1004.96,337.834L1003.78,337.834ZM1016.48,337.834L1016.48,327.994L1018.94,327.994C1020.46,327.994 1021.62,328.414 1022.41,329.254C1023.2,330.094 1023.59,331.299 1023.59,332.869C1023.59,333.649 1023.49,334.346 1023.29,334.961C1023.09,335.576 1022.8,336.096 1022.41,336.521C1022.02,336.946 1021.54,337.271 1020.97,337.496C1020.4,337.721 1019.74,337.834 1019,337.834L1016.48,337.834ZM1017.73,336.814L1018.85,336.814C1020,336.814 1020.87,336.469 1021.44,335.779C1022.01,335.089 1022.3,334.119 1022.3,332.869C1022.3,331.619 1022.01,330.664 1021.44,330.004C1020.87,329.344 1020,329.014 1018.85,329.014L1017.73,329.014L1017.73,336.814ZM1028.71,337.834L1028.71,327.994L1034.38,327.994L1034.38,329.044L1029.95,329.044L1029.95,332.134L1033.69,332.134L1033.69,333.199L1029.95,333.199L1029.95,336.769L1034.53,336.769L1034.53,337.834L1028.71,337.834ZM1039.61,337.834L1039.61,327.994L1042.69,327.994C1043.19,327.994 1043.65,328.041 1044.08,328.136C1044.5,328.231 1044.87,328.389 1045.17,328.609C1045.47,328.829 1045.71,329.114 1045.88,329.464C1046.05,329.814 1046.14,330.244 1046.14,330.754C1046.14,331.524 1045.94,332.139 1045.54,332.599C1045.14,333.059 1044.6,333.374 1043.92,333.544L1046.42,337.834L1045.01,337.834L1042.64,333.679L1040.86,333.679L1040.86,337.834L1039.61,337.834ZM1040.86,332.659L1042.51,332.659C1043.28,332.659 1043.87,332.501 1044.28,332.186C1044.69,331.871 1044.89,331.394 1044.89,330.754C1044.89,330.104 1044.69,329.649 1044.28,329.389C1043.87,329.129 1043.28,328.999 1042.51,328.999L1040.86,328.999L1040.86,332.659ZM1051.15,337.834L1051.15,327.994L1052.39,327.994L1052.39,337.834L1051.15,337.834ZM1058.09,337.834L1058.09,327.994L1059.38,327.994L1062.94,334.174L1064,336.214L1064.06,336.214C1064.03,335.714 1064,335.196 1063.96,334.661C1063.93,334.126 1063.91,333.599 1063.91,333.079L1063.91,327.994L1065.1,327.994L1065.1,337.834L1063.81,337.834L1060.24,331.639L1059.17,329.614L1059.11,329.614C1059.15,330.114 1059.19,330.621 1059.22,331.136C1059.26,331.651 1059.28,332.169 1059.28,332.689L1059.28,337.834L1058.09,337.834ZM1074.67,338.014C1074.02,338.014 1073.42,337.899 1072.88,337.669C1072.33,337.439 1071.86,337.106 1071.47,336.671C1071.08,336.236 1070.78,335.701 1070.56,335.066C1070.34,334.431 1070.23,333.714 1070.23,332.914C1070.23,332.124 1070.34,331.414 1070.57,330.784C1070.79,330.154 1071.1,329.619 1071.5,329.179C1071.9,328.739 1072.38,328.401 1072.93,328.166C1073.49,327.931 1074.09,327.814 1074.74,327.814C1075.08,327.814 1075.39,327.849 1075.68,327.919C1075.96,327.989 1076.22,328.081 1076.46,328.196C1076.69,328.311 1076.9,328.441 1077.09,328.586C1077.28,328.731 1077.44,328.879 1077.58,329.029L1076.89,329.839C1076.64,329.579 1076.35,329.359 1076.02,329.179C1075.69,328.999 1075.27,328.909 1074.77,328.909C1074.27,328.909 1073.82,329.001 1073.42,329.186C1073.02,329.371 1072.68,329.636 1072.4,329.981C1072.12,330.326 1071.9,330.744 1071.75,331.234C1071.6,331.724 1071.52,332.274 1071.52,332.884C1071.52,333.504 1071.59,334.061 1071.74,334.556C1071.88,335.051 1072.09,335.474 1072.37,335.824C1072.64,336.174 1072.98,336.444 1073.38,336.634C1073.79,336.824 1074.26,336.919 1074.79,336.919C1075.14,336.919 1075.47,336.866 1075.79,336.761C1076.1,336.656 1076.36,336.514 1076.56,336.334L1076.56,333.769L1074.47,333.769L1074.47,332.734L1077.7,332.734L1077.7,336.874C1077.38,337.204 1076.96,337.476 1076.44,337.691C1075.92,337.906 1075.33,338.014 1074.67,338.014Z" style="fill:rgb(28,74,114);fill-rule:nonzero;"/>
                </g>
            </g>
        </g>
    </g>
</svg>
