<?xml version="1.0" encoding="utf-8"?>
<!-- Generator: Adobe Illustrator 25.1.0, SVG Export Plug-In . SVG Version: 6.00 Build 0)  -->
<svg version="1.1" id="Layer_1" xmlns="http://www.w3.org/2000/svg" xmlns:xlink="http://www.w3.org/1999/xlink" x="0px" y="0px"
	 viewBox="0 0 1080 308.6" style="enable-background:new 0 0 1080 308.6;" xml:space="preserve">
<style type="text/css">
	.st0{fill-rule:evenodd;clip-rule:evenodd;fill:#D34858;}
	.st1{filter:url(#Adobe_OpacityMaskFilter);}
	.st2{fill-rule:evenodd;clip-rule:evenodd;fill:#FFFFFF;}
	.st3{mask:url(#mask-2_1_);fill:none;stroke:#FFFFFF;stroke-width:2;stroke-linecap:square;}
	.st4{filter:url(#Adobe_OpacityMaskFilter_1_);}
	.st5{mask:url(#mask-2_2_);fill:none;stroke:#FFFFFF;stroke-width:2;stroke-linecap:square;}
	.st6{filter:url(#Adobe_OpacityMaskFilter_2_);}
	.st7{mask:url(#mask-2_3_);}
	.st8{fill:#FFFFFF;}
	.st9{fill:#D34858;}
</style>
<desc>Created with Sketch.</desc>
<g id="Page-1">
	<g id="ICALP" transform="translate(-180.000000, -1891.000000)">
		<g id="mobile-zeichenwege" transform="translate(180.000000, 1891.000000)">
			<g id="Group">
				<g id="Rectangle">
					<rect id="path-1_1_" y="0" class="st0" width="1080" height="307"/>
				</g>
				<defs>
					<filter id="Adobe_OpacityMaskFilter" filterUnits="userSpaceOnUse" x="538.6" y="-131.4" width="439.8" height="439.8">
						<feColorMatrix  type="matrix" values="1 0 0 0 0  0 1 0 0 0  0 0 1 0 0  0 0 0 1 0"/>
					</filter>
				</defs>
				<mask maskUnits="userSpaceOnUse" x="538.6" y="-131.4" width="439.8" height="439.8" id="mask-2_1_">
					<g class="st1">
						<rect id="path-1_2_" y="0" class="st2" width="1080" height="307"/>
					</g>
				</mask>
				<line id="Line" class="st3" x1="977" y1="307" x2="540" y2="-130"/>
				<defs>
					<filter id="Adobe_OpacityMaskFilter_1_" filterUnits="userSpaceOnUse" x="795.7" y="114.7" width="321.6" height="133.1">
						<feColorMatrix  type="matrix" values="1 0 0 0 0  0 1 0 0 0  0 0 1 0 0  0 0 0 1 0"/>
					</filter>
				</defs>
				<mask maskUnits="userSpaceOnUse" x="795.7" y="114.7" width="321.6" height="133.1" id="mask-2_2_">
					<g class="st4">
						<rect id="path-1_3_" y="0" class="st2" width="1080" height="307"/>
					</g>
				</mask>
				<line id="Line_1_" class="st5" x1="797" y1="246.5" x2="1116" y2="116"/>
				<defs>
					<filter id="Adobe_OpacityMaskFilter_2_" filterUnits="userSpaceOnUse" x="-34.1" y="161.7" width="679.7" height="440.2">
						<feColorMatrix  type="matrix" values="1 0 0 0 0  0 1 0 0 0  0 0 1 0 0  0 0 0 1 0"/>
					</filter>
				</defs>
				<mask maskUnits="userSpaceOnUse" x="-34.1" y="161.7" width="679.7" height="440.2" id="mask-2_3_">
					<g class="st6">
						<rect id="path-1_4_" y="0" class="st2" width="1080" height="307"/>
					</g>
				</mask>
				<g id="Group-4" class="st7">
					<g transform="translate(21.000000, 156.000000)">
						<path id="ICALP2020" class="st8" d="M-34.1,444.1v-92.9h-21v92.9H-34.1z M26.6,445.8c12.1,0,22.4-4.7,30.1-13.7L45.6,419
							c-4.6,4.8-10.5,8.7-18.1,8.7c-13.7,0-22.5-11.1-22.5-30.2c0-18.7,10.1-29.9,22.8-29.9c6.7,0,11.7,3.1,16.4,7.4l11.1-13.4
							c-6.3-6.4-16-12.1-27.9-12.1c-23.5,0-43.9,18-43.9,48.8C-16.6,429.4,3.1,445.8,26.6,445.8z M80.3,444.1L86,422h28.4l5.7,22.1
							h22.2l-29.1-92.9H88L59,444.1H80.3z M110.1,405.6H90.3l2.3-8.6c2.6-9.3,5-20.1,7.3-29.9h0.6c2.4,9.7,5,20.7,7.6,29.9
							L110.1,405.6z M210.2,444.1v-17.7h-36.8v-75.3h-21v92.9H210.2z M247.3,444.1v-31.5h11.5c19.7,0,36.4-9.7,36.4-31.5
							c0-22.5-16.5-29.9-36.9-29.9h-31.9v92.9H247.3z M257.5,395.9h-10.3v-28.1h9.7c11.4,0,17.7,3.6,17.7,13.3
							C274.7,390.8,269.1,395.9,257.5,395.9z M397.8,444.1v-17.7h-18.2c-4.3,0-10.5,0.6-15.1,1.1c14.7-15.4,28.9-31.6,28.9-46.9
							c0-17.4-12.1-28.8-29.9-28.8c-13,0-21.4,4.8-30.4,14.4l11.4,11.3c4.6-4.8,9.6-9.3,16.1-9.3c7.8,0,12.8,4.8,12.8,13.7
							c0,12.8-16.3,28.4-39.3,50.2v12H397.8z M441.7,445.8c19.4,0,32.4-16.5,32.4-47.3s-13-46.6-32.4-46.6
							c-19.4,0-32.4,15.8-32.4,46.6S422.3,445.8,441.7,445.8z M441.7,429.6c-7,0-12.5-6.4-12.5-31.1c0-24.8,5.6-30.4,12.5-30.4
							c7.1,0,12.5,5.6,12.5,30.4C454.3,423.2,448.9,429.6,441.7,429.6z M548.4,444.1v-17.7h-18.2c-4.3,0-10.5,0.6-15.1,1.1l0.9-1
							c14.4-15.1,28-31,28-45.9c0-17.4-12.1-28.8-29.9-28.8c-13,0-21.4,4.8-30.4,14.4l11.4,11.3c4.6-4.8,9.6-9.3,16.1-9.3
							c7.8,0,12.8,4.8,12.8,13.7c0,12.8-16.3,28.4-39.3,50.2v12H548.4z M592.3,445.8c19.4,0,32.4-16.5,32.4-47.3s-13-46.6-32.4-46.6
							s-32.4,15.8-32.4,46.6S572.9,445.8,592.3,445.8z M592.3,429.6c-7,0-12.5-6.4-12.5-31.1c0-24.8,5.6-30.4,12.5-30.4
							c7.1,0,12.5,5.6,12.5,30.4C604.8,423.2,599.4,429.6,592.3,429.6z"/>
						<path id="SAARBRÜCKEN" class="st8" d="M58.4,32.4c4.2,0,7-2.5,7-5.8s-2.1-4.7-4.6-5.8l-3.3-1.5c-1.6-0.7-3.8-1.7-3.8-4.2
							c0-2.4,1.9-3.9,4.8-3.9c2.2,0,3.9,0.9,5.2,2.2l0.9-1c-1.3-1.4-3.4-2.6-6-2.6c-3.6,0-6.3,2.2-6.3,5.3c0,3.2,2.5,4.6,4.4,5.4
							l3.3,1.5c2.1,1,3.9,1.8,3.9,4.6c0,2.6-2.1,4.4-5.4,4.4c-2.5,0-4.8-1.2-6.4-2.9l-1,1.1C52.7,31,55.2,32.4,58.4,32.4z M85,32
							l2.6-7.5h8.6l2.5,7.5h1.6l-7.7-21.7h-1.5L83.5,32H85z M95.7,23.3H88l1.4-4.1c0.9-2.6,1.6-4.9,2.4-7.5h0.1
							c0.8,2.7,1.5,4.9,2.4,7.5L95.7,23.3z M118.5,32l2.6-7.5h8.6l2.5,7.5h1.6l-7.7-21.7h-1.5L117,32H118.5z M129.3,23.3h-7.7
							l1.4-4.1c0.9-2.6,1.7-4.9,2.4-7.5h0.1c0.8,2.7,1.5,4.9,2.4,7.5L129.3,23.3z M155.3,32V22h4.6l5.9,10h1.7l-6-10.1
							c3.4-0.4,5.6-2.4,5.6-5.9c0-4.2-2.8-5.7-7.1-5.7h-6.2V32H155.3z M159.7,20.7h-4.3v-9.2h4.3c3.8,0,6,1.2,6,4.5
							C165.6,19.2,163.5,20.7,159.7,20.7z M194.6,32c4.9,0,8.1-2.1,8.1-6.3c0-3-1.9-4.8-4.7-5.2v-0.1c2.2-0.7,3.4-2.5,3.4-4.8
							c0-3.6-2.8-5.3-7.2-5.3h-5.9V32H194.6z M193.5,19.8h-3.8v-8.3h3.9c4,0,6.1,1.1,6.1,4.2C199.8,18.2,198,19.8,193.5,19.8z
							 M194.2,30.7h-4.4v-9.7h4.4c4.5,0,7,1.5,7,4.6C201.2,29.2,198.5,30.7,194.2,30.7z M225.4,32V22h4.6l5.9,10h1.7l-6-10.1
							c3.4-0.4,5.6-2.4,5.6-5.9c0-4.2-2.8-5.7-7.1-5.7h-6.2V32H225.4z M229.7,20.7h-4.3v-9.2h4.3c3.8,0,6,1.2,6,4.5
							C235.7,19.2,233.5,20.7,229.7,20.7z M262.3,8.1c0.7,0,1.2-0.5,1.2-1.2c0-0.8-0.5-1.2-1.2-1.2c-0.7,0-1.2,0.5-1.2,1.2
							C261.1,7.6,261.6,8.1,262.3,8.1z M268.8,8.1c0.7,0,1.2-0.5,1.2-1.2c0-0.8-0.5-1.2-1.2-1.2s-1.2,0.5-1.2,1.2
							C267.6,7.6,268.1,8.1,268.8,8.1z M265.5,32.4c3.8,0,7.4-1.9,7.4-8.7V10.3h-1.4v13.2c0,5.8-2.8,7.5-5.9,7.5
							c-3.1,0-5.8-1.7-5.8-7.5V10.3h-1.5v13.4C258.2,30.4,261.8,32.4,265.5,32.4z M303.4,32.4c2.8,0,4.8-1.2,6.5-3.1l-0.9-1
							c-1.6,1.7-3.3,2.7-5.5,2.7c-4.7,0-7.6-3.9-7.6-9.9s2.9-9.8,7.7-9.8c2,0,3.6,0.9,4.8,2.2l0.9-1c-1.2-1.4-3.1-2.6-5.7-2.6
							c-5.5,0-9.3,4.3-9.3,11.2C294.3,28,298.1,32.4,303.4,32.4z M332.3,32v-7.5l4.4-5L344,32h1.7l-7.9-13.7l6.9-8.1h-1.8
							l-10.5,12.1h-0.1V10.3h-1.5V32H332.3z M378,32v-1.3h-10.7v-9.6h8.7v-1.3h-8.7v-8.2h10.4v-1.3h-11.9V32H378z M400.7,32V18.5
							c0-2.1-0.1-4.1-0.2-6.2h0.1l2.4,4.3l9.2,15.3h1.6V10.3h-1.5v13.3c0,2.1,0.1,4.2,0.2,6.3h-0.1l-2.4-4.3l-9.2-15.3h-1.6V32
							H400.7z"/>
					</g>
				</g>
			</g>
			<path id="THE47THINTERNATIONALCOLLOQUIUMONAUTOMATA_x2C_LANGUAGESANDPROGRAMMING_x7C_8_x2013_11JULY2020" class="st9" d="
				M312.4,351.2v-13.8h4.7v-1.7h-11.3v1.7h4.7v13.8H312.4z M326.6,351.2v-7.3h7.2v7.3h2v-15.5h-2v6.5h-7.2v-6.5h-2v15.5H326.6z
				 M353.9,351.2v-1.7h-7.2v-5.6h5.9v-1.7h-5.9v-4.9h7v-1.7h-8.9v15.5H353.9z M378.2,351.2V347h2.1v-1.6h-2.1v-9.3H376l-6.4,9.6v1.3
				h6.8v4.2H378.2z M376.3,345.5h-4.7l3.5-5.1c0.4-0.7,0.8-1.4,1.2-2.1h0.1c0,0.8-0.1,2.1-0.1,2.9V345.5z M391.8,351.2
				c0.3-5.9,1-9.3,4.6-13.9v-1.2h-9.7v1.7h7.5c-3,4.1-4.1,7.7-4.4,13.4H391.8z M409.4,351.2v-13.8h4.7v-1.7h-11.3v1.7h4.7v13.8
				H409.4z M423.5,351.2v-7.3h7.2v7.3h2v-15.5h-2v6.5h-7.2v-6.5h-2v15.5H423.5z M453.1,351.2v-15.5h-2v15.5H453.1z M463.9,351.2
				v-8.1c0-1.6-0.1-3.3-0.3-4.8h0.1l1.7,3.2l5.6,9.7h2v-15.5h-1.9v8c0,1.6,0.1,3.4,0.2,4.9h-0.1l-1.7-3.2l-5.6-9.7h-2v15.5H463.9z
				 M487.2,351.2v-13.8h4.7v-1.7h-11.3v1.7h4.7v13.8H487.2z M508.5,351.2v-1.7h-7.2v-5.6h5.9v-1.7h-5.9v-4.9h7v-1.7h-8.9v15.5H508.5
				z M518.5,351.2v-6.5h2.8l3.7,6.5h2.2l-3.9-6.7c2.1-0.5,3.5-2,3.5-4.4c0-3.2-2.3-4.3-5.4-4.3h-4.8v15.5H518.5z M521.1,343.1h-2.6
				v-5.8h2.6c2.4,0,3.8,0.7,3.8,2.8C524.8,342.1,523.5,343.1,521.1,343.1z M536.5,351.2v-8.1c0-1.6-0.1-3.3-0.3-4.8h0.1l1.7,3.2
				l5.6,9.7h2v-15.5h-1.9v8c0,1.6,0.1,3.4,0.2,4.9H544l-1.7-3.2l-5.6-9.7h-2v15.5H536.5z M554.6,351.2l1.5-4.7h5.6l1.5,4.7h2.1
				l-5.2-15.5h-2.2l-5.2,15.5H554.6z M561.2,344.9h-4.6l0.7-2.4c0.6-1.7,1.1-3.4,1.5-5.2h0.1c0.5,1.8,1,3.5,1.6,5.2L561.2,344.9z
				 M576.1,351.2v-13.8h4.7v-1.7h-11.3v1.7h4.7v13.8H576.1z M590.2,351.2v-15.5h-2v15.5H590.2z M604.9,351.5c3.9,0,6.6-3.1,6.6-8.1
				c0-4.9-2.7-8-6.6-8s-6.6,3-6.6,8C598.3,348.4,601,351.5,604.9,351.5z M604.9,349.8c-2.8,0-4.6-2.5-4.6-6.4c0-3.8,1.8-6.2,4.6-6.2
				s4.6,2.4,4.6,6.2C609.5,347.3,607.7,349.8,604.9,349.8z M621.5,351.2v-8.1c0-1.6-0.1-3.3-0.3-4.8h0.1l1.7,3.2l5.6,9.7h2v-15.5
				h-1.9v8c0,1.6,0.1,3.4,0.2,4.9h-0.1l-1.7-3.2l-5.6-9.7h-2v15.5H621.5z M639.5,351.2l1.5-4.7h5.6l1.5,4.7h2.1l-5.2-15.5h-2.2
				l-5.2,15.5H639.5z M646.2,344.9h-4.6l0.7-2.4c0.6-1.7,1.1-3.4,1.5-5.2h0.1c0.5,1.8,1,3.5,1.6,5.2L646.2,344.9z M665.9,351.2v-1.7
				h-6.8v-13.8h-2v15.5H665.9z M688.6,351.5c2,0,3.5-0.8,4.7-2.2l-1.1-1.2c-1,1.1-2.1,1.7-3.6,1.7c-2.9,0-4.8-2.5-4.8-6.3
				c0-3.8,1.9-6.3,4.9-6.3c1.3,0,2.3,0.6,3.2,1.5l1.1-1.3c-0.9-1-2.4-1.9-4.2-1.9c-3.9,0-6.9,3-6.9,8
				C681.9,348.5,684.7,351.5,688.6,351.5z M706,351.5c3.9,0,6.6-3.1,6.6-8.1c0-4.9-2.7-8-6.6-8s-6.6,3-6.6,8
				C699.4,348.4,702.1,351.5,706,351.5z M706,349.8c-2.8,0-4.6-2.5-4.6-6.4c0-3.8,1.8-6.2,4.6-6.2s4.6,2.4,4.6,6.2
				C710.5,347.3,708.7,349.8,706,349.8z M729.4,351.2v-1.7h-6.8v-13.8h-2v15.5H729.4z M745.6,351.2v-1.7h-6.8v-13.8h-2v15.5H745.6z
				 M758.1,351.5c3.9,0,6.6-3.1,6.6-8.1c0-4.9-2.7-8-6.6-8s-6.6,3-6.6,8C751.5,348.4,754.2,351.5,758.1,351.5z M758.1,349.8
				c-2.8,0-4.6-2.5-4.6-6.4c0-3.8,1.8-6.2,4.6-6.2s4.6,2.4,4.6,6.2C762.7,347.3,760.9,349.8,758.1,349.8z M783.2,355.1
				c0.9,0,1.7-0.2,2.2-0.4l-0.4-1.5c-0.4,0.1-0.9,0.2-1.6,0.2c-1.7,0-3.1-0.7-3.8-2.1c3.3-0.6,5.5-3.5,5.5-8c0-4.9-2.7-8-6.6-8
				c-3.9,0-6.6,3-6.6,8c0,4.6,2.3,7.6,5.6,8C778.4,353.5,780.4,355.1,783.2,355.1z M778.5,349.9c-2.8,0-4.6-2.5-4.6-6.5
				c0-3.8,1.8-6.2,4.6-6.2s4.6,2.4,4.6,6.2C783.1,347.4,781.3,349.9,778.5,349.9z M798.7,351.5c3.2,0,5.5-1.7,5.5-6.7v-9.1h-1.9v9.1
				c0,3.7-1.6,4.9-3.7,4.9c-2,0-3.6-1.2-3.6-4.9v-9.1h-2v9.1C793.1,349.8,795.5,351.5,798.7,351.5z M815.1,351.2v-15.5h-2v15.5
				H815.1z M829.5,351.5c3.2,0,5.5-1.7,5.5-6.7v-9.1h-1.9v9.1c0,3.7-1.6,4.9-3.7,4.9c-2,0-3.6-1.2-3.6-4.9v-9.1h-2v9.1
				C824,349.8,826.4,351.5,829.5,351.5z M845.7,351.2v-8.5c0-1.4-0.1-3.2-0.2-4.6h0.1l1.2,3.5l2.9,8h1.3l2.9-8l1.2-3.5h0.1
				c-0.1,1.4-0.3,3.2-0.3,4.6v8.5h1.8v-15.5h-2.4l-2.9,8.3c-0.4,1.1-0.7,2.2-1.1,3.2h-0.1c-0.4-1.1-0.7-2.2-1.1-3.2l-3-8.3H844v15.5
				H845.7z M881,351.5c3.9,0,6.6-3.1,6.6-8.1c0-4.9-2.7-8-6.6-8s-6.6,3-6.6,8C874.4,348.4,877.1,351.5,881,351.5z M881,349.8
				c-2.8,0-4.6-2.5-4.6-6.4c0-3.8,1.8-6.2,4.6-6.2s4.6,2.4,4.6,6.2C885.6,347.3,883.8,349.8,881,349.8z M897.5,351.2v-8.1
				c0-1.6-0.1-3.3-0.3-4.8h0.1l1.7,3.2l5.6,9.7h2v-15.5h-1.9v8c0,1.6,0.1,3.4,0.2,4.9H905l-1.7-3.2l-5.6-9.7h-2v15.5H897.5z
				 M925.1,351.2l1.5-4.7h5.6l1.5,4.7h2.1l-5.2-15.5h-2.2l-5.2,15.5H925.1z M931.7,344.9H927l0.7-2.4c0.6-1.7,1.1-3.4,1.5-5.2h0.1
				c0.5,1.8,1,3.5,1.6,5.2L931.7,344.9z M947.8,351.5c3.2,0,5.5-1.7,5.5-6.7v-9.1h-1.9v9.1c0,3.7-1.6,4.9-3.7,4.9
				c-2,0-3.6-1.2-3.6-4.9v-9.1h-2v9.1C942.2,349.8,944.6,351.5,947.8,351.5z M967.4,351.2v-13.8h4.7v-1.7h-11.3v1.7h4.7v13.8H967.4z
				 M984.7,351.5c3.9,0,6.6-3.1,6.6-8.1c0-4.9-2.7-8-6.6-8c-3.9,0-6.6,3-6.6,8C978.1,348.4,980.9,351.5,984.7,351.5z M984.7,349.8
				c-2.8,0-4.6-2.5-4.6-6.4c0-3.8,1.8-6.2,4.6-6.2s4.6,2.4,4.6,6.2C989.3,347.3,987.5,349.8,984.7,349.8z M1001.2,351.2v-8.5
				c0-1.4-0.1-3.2-0.2-4.6h0.1l1.2,3.5l2.9,8h1.3l2.9-8l1.2-3.5h0.1c-0.1,1.4-0.3,3.2-0.3,4.6v8.5h1.8v-15.5h-2.4l-2.9,8.3
				c-0.4,1.1-0.7,2.2-1.1,3.2h-0.1c-0.4-1.1-0.7-2.2-1.1-3.2l-3-8.3h-2.4v15.5H1001.2z M1021.2,351.2l1.5-4.7h5.6l1.5,4.7h2.1
				l-5.2-15.5h-2.2l-5.2,15.5H1021.2z M1027.9,344.9h-4.6l0.7-2.4c0.6-1.7,1.1-3.4,1.5-5.2h0.1c0.5,1.8,1,3.5,1.6,5.2L1027.9,344.9z
				 M1042.7,351.2v-13.8h4.7v-1.7h-11.3v1.7h4.7v13.8H1042.7z M1053.9,351.2l1.5-4.7h5.6l1.5,4.7h2.1l-5.2-15.5h-2.2l-5.2,15.5
				H1053.9z M1060.6,344.9h-4.6l0.7-2.4c0.6-1.7,1.1-3.4,1.5-5.2h0.1c0.5,1.8,1,3.5,1.6,5.2L1060.6,344.9z M1071,355.2
				c1.9-0.8,3.1-2.4,3.1-4.4c0-1.4-0.6-2.3-1.6-2.3c-0.8,0-1.4,0.5-1.4,1.4c0,0.9,0.6,1.3,1.4,1.3c0.1,0,0.2,0,0.2,0
				c0,1.3-0.8,2.3-2.1,2.9L1071,355.2z M400.4,380.2v-1.7h-6.8v-13.8h-2v15.5H400.4z M407.9,380.2l1.5-4.7h5.6l1.5,4.7h2.1
				l-5.2-15.5h-2.2l-5.2,15.5H407.9z M414.6,373.9h-4.6l0.7-2.4c0.6-1.7,1.1-3.4,1.5-5.2h0.1c0.5,1.8,1,3.5,1.6,5.2L414.6,373.9z
				 M427.4,380.2v-8.1c0-1.6-0.1-3.3-0.3-4.8h0.1l1.7,3.2l5.6,9.7h2v-15.5h-1.9v8c0,1.6,0.1,3.4,0.2,4.9h-0.1l-1.7-3.2l-5.6-9.7h-2
				v15.5H427.4z M451.6,380.5c2.1,0,3.8-0.8,4.8-1.8v-6.5h-5.1v1.6h3.3v4c-0.6,0.6-1.7,0.9-2.8,0.9c-3.3,0-5.1-2.5-5.1-6.3
				c0-3.8,2-6.3,5.1-6.3c1.6,0,2.5,0.7,3.3,1.5l1.1-1.3c-0.9-0.9-2.3-1.9-4.5-1.9c-4.1,0-7.1,3-7.1,8
				C444.6,377.5,447.5,380.5,451.6,380.5z M470.3,380.5c3.2,0,5.5-1.7,5.5-6.7v-9.1h-1.9v9.1c0,3.7-1.6,4.9-3.7,4.9
				c-2,0-3.6-1.2-3.6-4.9v-9.1h-2v9.1C464.7,378.8,467.1,380.5,470.3,380.5z M484.3,380.2l1.5-4.7h5.6l1.5,4.7h2.1l-5.2-15.5h-2.2
				l-5.2,15.5H484.3z M490.9,373.9h-4.6l0.7-2.4c0.6-1.7,1.1-3.4,1.5-5.2h0.1c0.5,1.8,1,3.5,1.6,5.2L490.9,373.9z M507.8,380.5
				c2.1,0,3.8-0.8,4.8-1.8v-6.5h-5.1v1.6h3.3v4c-0.6,0.6-1.7,0.9-2.8,0.9c-3.3,0-5.1-2.5-5.1-6.3c0-3.8,2-6.3,5.1-6.3
				c1.6,0,2.5,0.7,3.3,1.5l1.1-1.3c-0.9-0.9-2.3-1.9-4.5-1.9c-4.1,0-7.1,3-7.1,8C500.8,377.5,503.7,380.5,507.8,380.5z M530.1,380.2
				v-1.7h-7.2v-5.6h5.9v-1.7h-5.9v-4.9h7v-1.7h-8.9v15.5H530.1z M542.4,380.5c3.3,0,5.3-2,5.3-4.4c0-2.3-1.4-3.4-3.2-4.1l-2.2-0.9
				c-1.2-0.5-2.6-1.1-2.6-2.6c0-1.4,1.2-2.3,2.9-2.3c1.4,0,2.6,0.6,3.5,1.5l1.1-1.3c-1.1-1.1-2.7-1.9-4.6-1.9
				c-2.8,0-4.9,1.7-4.9,4.1c0,2.3,1.7,3.4,3.1,4l2.2,1c1.5,0.7,2.6,1.2,2.6,2.7c0,1.5-1.2,2.5-3.2,2.5c-1.6,0-3.2-0.8-4.3-1.9
				l-1.2,1.4C538.3,379.6,540.2,380.5,542.4,380.5z M564.8,380.2l1.5-4.7h5.6l1.5,4.7h2.1l-5.2-15.5H568l-5.2,15.5H564.8z
				 M571.4,373.9h-4.6l0.7-2.4c0.6-1.7,1.1-3.4,1.5-5.2h0.1c0.5,1.8,1,3.5,1.6,5.2L571.4,373.9z M584.3,380.2v-8.1
				c0-1.6-0.1-3.3-0.3-4.8h0.1l1.7,3.2l5.6,9.7h2v-15.5h-1.9v8c0,1.6,0.1,3.4,0.2,4.9h-0.1l-1.7-3.2l-5.6-9.7h-2v15.5H584.3z
				 M606.4,380.2c4.7,0,7.2-2.9,7.2-7.8c0-4.9-2.5-7.7-7.3-7.7h-3.9v15.5H606.4z M606.1,378.6h-1.8v-12.3h1.8c3.6,0,5.4,2.2,5.4,6.1
				C611.5,376.3,609.7,378.6,606.1,378.6z M633,380.2v-6.1h2.5c3.4,0,5.7-1.5,5.7-4.8c0-3.4-2.3-4.6-5.8-4.6h-4.4v15.5H633z
				 M635.3,372.5H633v-6.2h2.2c2.7,0,4.1,0.7,4.1,3C639.3,371.5,638,372.5,635.3,372.5z M651.1,380.2v-6.5h2.8l3.7,6.5h2.2l-3.9-6.7
				c2.1-0.5,3.5-2,3.5-4.4c0-3.2-2.3-4.3-5.4-4.3h-4.8v15.5H651.1z M653.7,372.1h-2.6v-5.8h2.6c2.4,0,3.8,0.7,3.8,2.8
				C657.4,371.1,656.1,372.1,653.7,372.1z M673,380.5c3.9,0,6.6-3.1,6.6-8.1c0-4.9-2.7-8-6.6-8s-6.6,3-6.6,8
				C666.4,377.4,669.1,380.5,673,380.5z M673,378.8c-2.8,0-4.6-2.5-4.6-6.4c0-3.8,1.8-6.2,4.6-6.2s4.6,2.4,4.6,6.2
				C677.6,376.3,675.7,378.8,673,378.8z M693.7,380.5c2.1,0,3.8-0.8,4.8-1.8v-6.5h-5.1v1.6h3.3v4c-0.6,0.6-1.7,0.9-2.8,0.9
				c-3.3,0-5.1-2.5-5.1-6.3c0-3.8,2-6.3,5.1-6.3c1.6,0,2.5,0.7,3.3,1.5l1.1-1.3c-0.9-0.9-2.3-1.9-4.5-1.9c-4.1,0-7.1,3-7.1,8
				C686.8,377.5,689.7,380.5,693.7,380.5z M708.9,380.2v-6.5h2.8l3.7,6.5h2.2l-3.9-6.7c2.1-0.5,3.5-2,3.5-4.4c0-3.2-2.3-4.3-5.4-4.3
				h-4.8v15.5H708.9z M711.5,372.1h-2.6v-5.8h2.6c2.4,0,3.8,0.7,3.8,2.8C715.2,371.1,713.9,372.1,711.5,372.1z M724.9,380.2l1.5-4.7
				h5.6l1.5,4.7h2.1l-5.2-15.5h-2.2l-5.2,15.5H724.9z M731.6,373.9h-4.6l0.7-2.4c0.6-1.7,1.1-3.4,1.5-5.2h0.1c0.5,1.8,1,3.5,1.6,5.2
				L731.6,373.9z M744.3,380.2v-8.5c0-1.4-0.1-3.2-0.2-4.6h0.1l1.2,3.5l2.9,8h1.3l2.9-8l1.2-3.5h0.1c-0.1,1.4-0.3,3.2-0.3,4.6v8.5
				h1.8v-15.5h-2.4l-2.9,8.3c-0.4,1.1-0.7,2.2-1.1,3.2H749c-0.4-1.1-0.7-2.2-1.1-3.2l-3-8.3h-2.4v15.5H744.3z M766.2,380.2v-8.5
				c0-1.4-0.1-3.2-0.2-4.6h0.1l1.2,3.5l2.9,8h1.3l2.9-8l1.2-3.5h0.1c-0.1,1.4-0.3,3.2-0.3,4.6v8.5h1.8v-15.5h-2.4L772,373
				c-0.4,1.1-0.7,2.2-1.1,3.2h-0.1c-0.4-1.1-0.7-2.2-1.1-3.2l-3-8.3h-2.4v15.5H766.2z M788.2,380.2v-15.5h-2v15.5H788.2z
				 M799.1,380.2v-8.1c0-1.6-0.1-3.3-0.3-4.8h0.1l1.7,3.2l5.6,9.7h2v-15.5h-1.9v8c0,1.6,0.1,3.4,0.2,4.9h-0.1l-1.7-3.2l-5.6-9.7h-2
				v15.5H799.1z M823.3,380.5c2.1,0,3.8-0.8,4.8-1.8v-6.5H823v1.6h3.3v4c-0.6,0.6-1.7,0.9-2.8,0.9c-3.3,0-5.1-2.5-5.1-6.3
				c0-3.8,2-6.3,5.1-6.3c1.6,0,2.5,0.7,3.3,1.5l1.1-1.3c-0.9-0.9-2.3-1.9-4.5-1.9c-4.1,0-7.1,3-7.1,8
				C816.3,377.5,819.2,380.5,823.3,380.5z M847.3,386.1v-23.6H846v23.6H847.3z M869.5,380.5c2.9,0,4.9-1.8,4.9-4
				c0-2-1.3-3.1-2.6-3.9v-0.1c0.9-0.7,2.1-2.1,2.1-3.6c0-2.3-1.6-4-4.2-4c-2.4,0-4.3,1.6-4.3,3.9c0,1.6,1,2.7,2.1,3.5v0.1
				c-1.4,0.8-2.8,2.1-2.8,4.1C864.6,378.7,866.7,380.5,869.5,380.5z M870.6,372c-1.8-0.7-3.5-1.5-3.5-3.3c0-1.5,1-2.4,2.4-2.4
				c1.7,0,2.6,1.2,2.6,2.7C872.2,370.1,871.6,371.1,870.6,372z M869.6,379c-1.8,0-3.2-1.2-3.2-2.9c0-1.4,0.9-2.5,2.1-3.3
				c2.2,0.9,4.1,1.6,4.1,3.5C872.5,378,871.3,379,869.6,379z M890.4,374.9v-1.3H881v1.3H890.4z M906.5,380.2v-1.6h-3.1v-13.4h-1.5
				c-0.8,0.5-1.8,0.9-3.2,1.1v1.3h2.7v11.1H898v1.6H906.5z M922.9,380.2v-1.6h-3.1v-13.4h-1.5c-0.8,0.5-1.8,0.9-3.2,1.1v1.3h2.7
				v11.1h-3.4v1.6H922.9z M943.5,380.5c3,0,4.3-2.2,4.3-4.8v-10.9h-2v10.7c0,2.4-0.8,3.3-2.5,3.3c-1.1,0-2-0.5-2.7-1.7l-1.4,1
				C940.1,379.6,941.5,380.5,943.5,380.5z M962.1,380.5c3.2,0,5.5-1.7,5.5-6.7v-9.1h-1.9v9.1c0,3.7-1.6,4.9-3.7,4.9
				c-2,0-3.6-1.2-3.6-4.9v-9.1h-2v9.1C956.6,378.8,959,380.5,962.1,380.5z M985.3,380.2v-1.7h-6.8v-13.8h-2v15.5H985.3z
				 M995.4,380.2v-6l4.6-9.5H998l-2,4.4c-0.5,1.1-1,2.2-1.6,3.4h-0.1c-0.5-1.2-1-2.2-1.5-3.4l-2-4.4h-2.1l4.6,9.5v6H995.4z
				 M1024.9,380.2v-1.7h-4.4c-0.8,0-1.7,0.1-2.5,0.1c3.6-3.7,6.1-6.5,6.1-9.4c0-2.7-1.7-4.4-4.5-4.4c-2,0-3.3,0.9-4.6,2.3l1.1,1.1
				c0.9-1,2-1.8,3.2-1.8c1.9,0,2.9,1.2,2.9,2.9c0,2.4-2.5,5.1-7.1,9.7v1.2H1024.9z M1036.5,380.5c3,0,4.8-2.8,4.8-7.9
				c0-5-1.8-7.8-4.8-7.8c-3,0-4.8,2.7-4.8,7.8C1031.7,377.7,1033.5,380.5,1036.5,380.5z M1036.5,378.9c-1.8,0-2.9-1.9-2.9-6.3
				s1.2-6.2,2.9-6.2c1.7,0,2.9,1.8,2.9,6.2S1038.3,378.9,1036.5,378.9z M1057.8,380.2v-1.7h-4.4c-0.8,0-1.7,0.1-2.5,0.1
				c3.6-3.7,6.1-6.5,6.1-9.4c0-2.7-1.7-4.4-4.5-4.4c-2,0-3.3,0.9-4.6,2.3l1.1,1.1c0.9-1,2-1.8,3.2-1.8c1.9,0,2.9,1.2,2.9,2.9
				c0,2.4-2.5,5.1-7.1,9.7v1.2H1057.8z M1069.4,380.5c3,0,4.8-2.8,4.8-7.9c0-5-1.8-7.8-4.8-7.8c-3,0-4.8,2.7-4.8,7.8
				C1064.6,377.7,1066.4,380.5,1069.4,380.5z M1069.4,378.9c-1.8,0-2.9-1.9-2.9-6.3s1.2-6.2,2.9-6.2c1.7,0,2.9,1.8,2.9,6.2
				S1071.2,378.9,1069.4,378.9z"/>
		</g>
		<g>
			<path class="st8" d="M252,2198v-95.9h58.4v16.2h-42.5v21.3h39.5v16.2h-39.5v26h44v16.2H252z"/>
			<path class="st8" d="M371.9,2162.8v-16.2h34.2v38.2c-3.4,4.1-8.3,7.5-14.7,10.5c-6.3,2.9-12.7,4.4-19,4.4
				c-7.8,0-14.6-1.9-20.5-5.7c-5.9-3.8-10.6-9.5-14.1-17.1c-3.5-7.6-5.2-16.6-5.2-26.9c0-10.6,1.8-19.6,5.3-27.1
				c3.5-7.5,8.1-13.1,13.7-16.8c5.6-3.7,12.3-5.6,20.1-5.6c9.4,0,16.9,2.4,22.5,7.2c5.6,4.8,9.3,11.8,10.9,21l-15.7,3.6
				c-1.2-4.9-3.3-8.7-6.5-11.3s-6.9-3.9-11.3-3.9c-6.8,0-12.2,2.6-16.4,7.9c-4.2,5.3-6.3,13.3-6.3,24c0,11.6,2.3,20.3,6.8,26.4
				c3.9,5.2,9.1,7.8,15.8,7.8c3.1,0,6.3-0.7,9.7-2.2c3.3-1.5,6.3-3.4,8.9-6v-12.1H371.9z"/>
			<path class="st8" d="M426.8,2166.7l15.5-1.8c1.7,12.3,7.5,18.4,17.1,18.4c4.8,0,8.6-1.3,11.3-3.8s4.1-5.6,4.1-9.3
				c0-2.2-0.5-4-1.4-5.6c-1-1.5-2.4-2.8-4.4-3.8s-6.7-2.6-14.3-4.9c-6.8-2-11.7-4.3-14.9-6.7c-3.1-2.4-5.6-5.5-7.5-9.4
				c-1.9-3.9-2.8-8.1-2.8-12.6c0-5.2,1.2-9.9,3.6-14.1c2.4-4.2,5.7-7.3,9.8-9.5s9.4-3.2,15.5-3.2c9.2,0,16.5,2.5,21.7,7.5
				c5.2,5,7.9,12.2,8.2,21.5l-15.9,0.9c-0.7-5.1-2.2-8.7-4.5-10.8c-2.3-2-5.6-3.1-9.9-3.1c-4.3,0-7.6,0.9-9.9,2.7
				c-2.3,1.8-3.5,4-3.5,6.7c0,2.6,1,4.8,3.1,6.6c2.1,1.8,6.9,3.7,14.5,5.9c8,2.3,13.7,4.7,17.3,7.3c3.6,2.6,6.3,5.8,8.1,9.9
				s2.8,8.9,2.8,14.7c0,8.3-2.6,15.3-7.7,21c-5.1,5.7-13.1,8.5-24,8.5C439.7,2199.6,429,2188.7,426.8,2166.7z"/>
			<path class="st8" d="M514.2,2198v-95.9h33.4c8.5,0,14.7,0.9,18.3,2.6c3.7,1.7,6.7,4.7,9,9c2.4,4.3,3.5,9.3,3.5,15.3
				c0,7.5-1.8,13.5-5.4,18.1s-8.7,7.5-15.3,8.6c3.4,2.4,6.2,5.1,8.4,8c2.2,2.9,5.3,8.1,9.1,15.6l9.6,18.7h-18.9l-11.5-20.9
				c-4.1-7.5-6.9-12.3-8.4-14.2c-1.5-1.9-3.1-3.2-4.7-3.9c-1.7-0.7-4.3-1.1-8-1.1h-3.3v40H514.2z M530.1,2142.6h11.8
				c7.2,0,11.8-0.3,13.7-0.9c2-0.6,3.6-1.9,4.8-3.8c1.2-1.9,1.8-4.5,1.8-7.7c0-3.1-0.6-5.5-1.8-7.4c-1.2-1.9-2.9-3.1-5-3.8
				c-1.5-0.5-5.8-0.7-12.9-0.7h-12.4V2142.6z"/>
			<path class="st8" d="M691.7,2180.9v17.1h-52.9c0.6-6.5,2.3-12.6,5.2-18.4c2.9-5.8,8.5-13.5,16.9-22.9
				c6.6-7.5,10.7-12.6,12.2-15.3c2.3-3.9,3.4-7.8,3.4-11.7c0-4.2-0.9-7.3-2.8-9.5c-1.9-2.1-4.3-3.2-7.4-3.2c-6.7,0-10.3,5-10.8,15
				l-15-1.8c0.9-9.8,3.6-16.9,8.1-21.5s10.5-6.9,18-6.9c8.2,0,14.5,2.7,18.6,8s6.3,11.5,6.3,18.4c0,3.9-0.5,7.7-1.6,11.4
				c-1.1,3.7-2.7,7.4-4.9,11.1s-5.9,8.5-11.1,14.3c-4.8,5.4-7.9,9-9.2,10.8c-1.3,1.7-2.3,3.4-3.1,5.1H691.7z"/>
			<path class="st8" d="M737.5,2101.8c7.6,0,13.8,3.6,18.5,10.9c4.7,7.3,7.1,20,7.1,38.1c0,18.1-2.4,30.8-7.1,38
				c-4.7,7.3-10.9,10.9-18.5,10.9c-7.6,0-13.8-3.6-18.5-10.8c-4.7-7.2-7.1-20-7.1-38.3c0-18,2.4-30.6,7.1-37.9
				C723.7,2105.4,729.9,2101.8,737.5,2101.8z M737.5,2117c-3,0-5.4,2-7.1,5.9c-1.8,3.9-2.7,13.2-2.7,27.8c0,14.6,0.9,23.9,2.7,27.8
				c1.8,3.9,4.1,5.8,7.1,5.8c3,0,5.4-2,7.2-5.9c1.8-3.9,2.6-13.2,2.6-27.8c0-14.6-0.9-23.9-2.6-27.8
				C742.9,2119,740.5,2117,737.5,2117z"/>
			<path class="st8" d="M834.1,2180.9v17.1h-52.9c0.6-6.5,2.3-12.6,5.2-18.4c2.9-5.8,8.5-13.5,16.9-22.9
				c6.6-7.5,10.7-12.6,12.2-15.3c2.3-3.9,3.4-7.8,3.4-11.7c0-4.2-0.9-7.3-2.8-9.5c-1.9-2.1-4.3-3.2-7.4-3.2c-6.7,0-10.3,5-10.8,15
				l-15-1.8c0.9-9.8,3.6-16.9,8.1-21.5c4.5-4.6,10.5-6.9,18-6.9c8.2,0,14.5,2.7,18.6,8s6.3,11.5,6.3,18.4c0,3.9-0.5,7.7-1.6,11.4
				c-1.1,3.7-2.7,7.4-4.9,11.1s-5.9,8.5-11.1,14.3c-4.8,5.4-7.9,9-9.2,10.8c-1.3,1.7-2.3,3.4-3.1,5.1H834.1z"/>
			<path class="st8" d="M892.9,2198h-15v-69.3c-5.6,6.3-12.1,11-19.5,13.9V2126c4.2-1.7,8.5-4.7,13-9.1c4.5-4.4,7.6-9.4,9.4-15.1
				h12.2V2198z"/>
		</g>
	</g>
</g>
</svg>
