<?xml version="1.0" encoding="utf-8"?>
<!-- Generator: Adobe Illustrator 28.2.0, SVG Export Plug-In . SVG Version: 6.00 Build 0)  -->
<svg version="1.1" id="Layer_1" xmlns="http://www.w3.org/2000/svg" xmlns:xlink="http://www.w3.org/1999/xlink" x="0px" y="0px"
	 viewBox="0 0 600 530" style="enable-background:new 0 0 600 530;" xml:space="preserve">
<style type="text/css">
	.st0{fill:#110000;}
</style>
<path class="st0" d="M135.7,44C202.2,94,273.7,195.2,300,249.5C326.3,195.2,397.8,94,464.3,44C512.3,8,590-19.9,590,68.8
	c0,17.7-10.2,148.8-16.1,170.1c-20.7,74-96.1,92.9-163.2,81.4c117.3,20,147.1,86.1,82.7,152.2C370.9,598.1,317.4,441,303.7,400.8
	c-2.5-7.4-3.7-10.8-3.7-7.9c0-2.9-1.2,0.5-3.7,7.9c-13.7,40.3-67.2,197.4-189.6,71.8c-64.4-66.1-34.6-132.3,82.7-152.2
	c-67.1,11.4-142.6-7.4-163.2-81.4C20.2,217.6,10,86.5,10,68.8C10-19.9,87.7,8,135.7,44L135.7,44z"/>
</svg>
