<?xml version="1.0" encoding="utf-8"?>
<!-- Generator: Adobe Illustrator 27.2.0, SVG Export Plug-In . SVG Version: 6.00 Build 0)  -->
<svg version="1.1" id="Layer_1" xmlns="http://www.w3.org/2000/svg" xmlns:xlink="http://www.w3.org/1999/xlink" x="0px" y="0px"
	 viewBox="0 0 384 404" style="enable-background:new 0 0 384 404;" xml:space="preserve">
<path d="M343.8,50.9V23.7l19.8-15.4H149.6L20.5,120.5h85.7c-0.2,2.1-0.2,4-0.2,6.2c0,20.8,7.2,38.1,21.7,51.9
	c14.5,13.8,32.3,20.6,53.3,20.6c4.9,0,9.8-0.4,14.4-1c-2.9,6.5-4.4,12.5-4.4,18.1c0,9.9,4.5,20.4,13.5,31.6
	c-39.2,2.7-68.1,9.7-86.4,21.2c-10.5,6.5-19,14.7-25.4,24.5c-6.4,9.9-9.6,20.5-9.6,32c0,9.6,2.1,18.3,6.2,26.1
	c4.2,7.7,9.6,14.1,16.3,19c6.7,5,14.5,9.1,23.2,12.5c8.7,3.3,17.4,5.7,26.1,7.1c8.6,1.3,17.2,2,25.7,2c13.5,0,27-1.7,40.5-5.2
	c13.6-3.5,26.3-8.6,38.2-15.5c11.9-6.8,21.5-16.1,28.9-27.7c7.4-11.7,11.1-24.8,11.1-39.3c0-11-2.2-21-6.8-30.1
	c-4.5-9.1-9.9-16.5-16.5-22.3c-6.5-5.8-13-11.2-19.5-16c-6.5-4.8-12-9.8-16.5-14.8c-4.5-5-6.7-10.1-6.7-15c0-4.9,1.7-9.7,5.2-14.3
	c3.5-4.6,7.7-9,12.6-13.3c4.9-4.2,9.9-9,14.8-14.1c4.9-5.1,9.1-11.8,12.6-20c3.5-8.2,5.2-17.4,5.2-27.8c0-13.5-2.5-24.5-7.5-33.3
	c-0.6-1-1.2-1.8-1.9-3l56.9-46.7v17.1c-7.4,0.9-6.6,5.3-6.6,10.6v128.7c0,6,4.9,10.8,10.8,10.8h4c6,0,10.8-4.9,10.8-10.8V61.6
	C350.3,56.3,351.1,51.9,343.8,50.9L343.8,50.9z M236.4,273.4c1.1,0.8,3.7,2.8,7.7,6c4,3.2,6.8,5.7,8.3,7.4c1.4,1.7,3.6,4.2,6.4,7.5
	c2.8,3.4,4.7,6.3,5.7,8.7c1,2.5,2,5.5,3,8.9c1,3.4,1.5,7,1.5,10.6c0,17-6.6,29.7-19.7,37.9c-13.1,8.2-28.8,12.3-46.9,12.3
	c-9.2,0-18.2-1.1-27.1-3.2c-8.8-2.1-17.3-5.3-25.4-9.6c-8.1-4.3-14.6-10.2-19.5-17.8c-4.9-7.6-7.4-16.4-7.4-26.2
	c0-10.3,2.8-19.3,8.4-26.9c5.6-7.6,12.9-13.4,22-17.3c9.1-3.9,18.2-6.7,27.6-8.4c9.3-1.7,18.8-2.6,28.4-2.6c4.5,0,7.9,0.3,10.4,0.7
	c0.5,0.2,3,2.1,7.7,5.6C232.4,270.5,235.3,272.6,236.4,273.4L236.4,273.4z M233,172.8c-7.4,8.9-17.7,13.3-31,13.3
	c-11.9,0-22.3-4.8-31.3-14.3c-9-9.5-15.4-20.3-19.3-32.4c-3.9-12.1-5.9-24-5.9-35.6c0-13.7,3.6-25.4,10.8-35
	c7.2-9.6,17.5-14.5,30.9-14.5c11.9,0,22.4,5,31.4,15.2c9.1,10.1,15.6,21.4,19.5,34c3.9,12.5,5.9,24.5,5.9,36
	C244.1,152.8,240.4,164,233,172.8L233,172.8z"/>
</svg>
